<svg xmlns="http://www.w3.org/2000/svg" xmlns:xlink="http://www.w3.org/1999/xlink" viewBox="0 0 99.92 106.75"><defs><style>.cls-1{isolation:isolate;}.cls-2{fill:#540041;opacity:0.3;}.cls-10,.cls-12,.cls-13,.cls-14,.cls-2,.cls-5,.cls-6,.cls-7,.cls-8{fill-rule:evenodd;}.cls-2,.cls-7{mix-blend-mode:multiply;}.cls-3{fill:#8b0c42;}.cls-4{fill:url(#_ÂÁ_Ï_ÌÌ_È_ËÂÌÚ_244);}.cls-5{fill:#fbf9fa;mix-blend-mode:soft-light;}.cls-5,.cls-7{opacity:0.5;}.cls-6{fill:url(#_ÂÁ_Ï_ÌÌ_È_ËÂÌÚ_178);}.cls-7{fill:#8e4072;}.cls-8{fill:#a695cf;}.cls-9{fill:#2c0045;}.cls-10{fill:url(#_ÂÁ_Ï_ÌÌ_È_ËÂÌÚ_127);}.cls-11{fill:#ff4f4a;}.cls-12{fill:url(#_ÂÁ_Ï_ÌÌ_È_ËÂÌÚ_127-2);}.cls-13{fill:url(#_ÂÁ_Ï_ÌÌ_È_ËÂÌÚ_127-3);}.cls-14{fill:url(#_ÂÁ_Ï_ÌÌ_È_ËÂÌÚ_178-2);}</style><linearGradient id="_ÂÁ_Ï_ÌÌ_È_ËÂÌÚ_244" x1="4.18" y1="131.16" x2="4.18" y2="36.04" gradientTransform="matrix(1, 0, 0, 1.02, 45.59, -36.78)" gradientUnits="userSpaceOnUse"><stop offset="0" stop-color="#ff3363"/><stop offset="1" stop-color="#ff6e27"/></linearGradient><radialGradient id="_ÂÁ_Ï_ÌÌ_È_ËÂÌÚ_178" cx="3.74" cy="72.33" r="68.85" gradientTransform="translate(26.22 -36.43) rotate(-12.56)" gradientUnits="userSpaceOnUse"><stop offset="0" stop-color="#faf5f8"/><stop offset="0.98" stop-color="#d4cbe2"/></radialGradient><linearGradient id="_ÂÁ_Ï_ÌÌ_È_ËÂÌÚ_127" x1="89.75" y1="-83.36" x2="89.75" y2="-117.29" gradientTransform="translate(-70.64 75.68) rotate(31)" gradientUnits="userSpaceOnUse"><stop offset="0.01" stop-color="#2a0e45"/><stop offset="1" stop-color="#561f7d"/></linearGradient><linearGradient id="_ÂÁ_Ï_ÌÌ_È_ËÂÌÚ_127-2" x1="13.23" y1="-280.98" x2="13.23" y2="-305.8" gradientTransform="matrix(0.13, 0.99, -0.99, 0.13, -232.23, 75.66)" xlink:href="#_ÂÁ_Ï_ÌÌ_È_ËÂÌÚ_127"/><linearGradient id="_ÂÁ_Ï_ÌÌ_È_ËÂÌÚ_127-3" x1="4.47" y1="94.01" x2="4.47" y2="84.92" gradientTransform="translate(26.22 -36.43) rotate(-12.56)" xlink:href="#_ÂÁ_Ï_ÌÌ_È_ËÂÌÚ_127"/><radialGradient id="_ÂÁ_Ï_ÌÌ_È_ËÂÌÚ_178-2" cx="4.47" cy="89.47" r="2.2" xlink:href="#_ÂÁ_Ï_ÌÌ_È_ËÂÌÚ_178"/></defs><title>clock</title><g class="cls-1"><g id="Layer_2" data-name="Layer 2"><g id="Layer_1-2" data-name="Layer 1"><path class="cls-2" d="M94,70.09A43.47,43.47,0,0,1,11.09,80.42a40.91,40.91,0,0,1-1.79-5Z"/><circle class="cls-3" cx="50.04" cy="49.93" r="49.87" transform="translate(-20.65 50.01) rotate(-45)"/><ellipse class="cls-4" cx="49.77" cy="48.73" rx="49.82" ry="48.64" transform="translate(-9.41 11.99) rotate(-12.56)"/><path class="cls-5" d="M45.17,7.17,44.89.31S66-2.84,81.41,10.84L75.88,15.7Z"/><path class="cls-5" d="M20.6,79.24l-3.47,6.57A32.58,32.58,0,0,0,30,93.61l2.81-6.74Z"/><ellipse class="cls-3" cx="49.74" cy="48.55" rx="42.4" ry="41.39" transform="translate(-9.37 11.98) rotate(-12.56)"/><path class="cls-6" d="M91.33,40.25c4.86,21.8-9.74,43.61-32.59,48.7S13.41,80.5,8.55,58.7a38.23,38.23,0,0,1-.67-4s0-.09,0-.28l-.08-.78v0C6,33.57,20.08,14.68,41.15,10c17-3.78,33.72,2.72,43.22,15.24a39,39,0,0,1,4.33,7.23v0h0A39.34,39.34,0,0,1,91.33,40.25Z"/><path class="cls-7" d="M89.09,33.13a56.6,56.6,0,0,1,2.64,8c-.48-1.31-8.7-22.45-39.91-22.45A48.07,48.07,0,0,0,8,45.22s0-.1,0-.29.06-.44.1-.78v0c3.23-21.3,22.23-35.3,42.07-35.28C68.38,8.86,82.55,18.84,89.09,33.13Z"/><path class="cls-8" d="M52.73,48.85a2.86,2.86,0,1,1-3.38-2A2.8,2.8,0,0,1,52.73,48.85Z"/><path class="cls-9" d="M39.22,14.56l2.23,10L39.67,25l-1.85-8.32-1,.23-.38-1.7Z"/><path class="cls-9" d="M50.39,20.8l.38,1.7-7,1.55.42-.66c.78-1.23,1.38-2.22,1.81-3a11.72,11.72,0,0,0,1-2.23,3.78,3.78,0,0,0,.17-2,1.68,1.68,0,0,0-.79-1.15,1.89,1.89,0,0,0-1.34-.16,1.72,1.72,0,0,0-1.14.73,1.43,1.43,0,0,0-.21,1.12,2.22,2.22,0,0,0,.94,1.43l-.86,1.23a2.21,2.21,0,0,1-1.13-.89A3.69,3.69,0,0,1,42,17.19a3.21,3.21,0,0,1,.09-1.68,3.25,3.25,0,0,1,1-1.48A4.28,4.28,0,0,1,45,13.14a3.41,3.41,0,0,1,1.8.07,3.24,3.24,0,0,1,1.43.93A3.43,3.43,0,0,1,49,15.66a4.21,4.21,0,0,1,0,1.8,8.76,8.76,0,0,1-.6,1.79c-.26.57-.64,1.32-1.13,2.25Z"/><path class="cls-9" d="M56.44,79.06a3.16,3.16,0,0,1,1.37.9,3.42,3.42,0,0,1,.79,1.55,3.33,3.33,0,0,1-.1,1.91,3.49,3.49,0,0,1-1.06,1.48,4,4,0,0,1-1.66.81,3.69,3.69,0,0,1-2-.08,3.6,3.6,0,0,1-1.64-1.14,4.75,4.75,0,0,1-1-2.11,5.34,5.34,0,0,1,.51-3.61,13.24,13.24,0,0,1,2.61-3.54l1.47,1a7.91,7.91,0,0,0-1.83,1.88,6,6,0,0,0-.89,2A2.91,2.91,0,0,1,54.89,79,2.84,2.84,0,0,1,56.44,79.06Zm.1,4.3a1.81,1.81,0,0,0,.22-1.44A1.63,1.63,0,0,0,56,80.78a1.89,1.89,0,0,0-1.41-.18,2,2,0,0,0-1.19.73,1.4,1.4,0,0,0-.3,1.19l.07.3a1.65,1.65,0,0,0,.43.8,1.94,1.94,0,0,0,3-.26Z"/><path class="cls-9" d="M16.93,51a3.58,3.58,0,0,1,1.62,1,3.65,3.65,0,0,1,.91,1.74,5.45,5.45,0,0,1-.1,2.87,8,8,0,0,1-1.27,2.47A24.78,24.78,0,0,1,16,61.53l-1.47-1a12.33,12.33,0,0,0,1.85-1.72,7.5,7.5,0,0,0,1.15-1.7,3.07,3.07,0,0,1-1.63.85,2.76,2.76,0,0,1-1.53-.09A3.27,3.27,0,0,1,13,56.93a3.38,3.38,0,0,1-.79-1.54,3.62,3.62,0,0,1,.08-2,3.47,3.47,0,0,1,1-1.55A3.69,3.69,0,0,1,15,51,3.89,3.89,0,0,1,16.93,51Zm-2.14,5a1.85,1.85,0,0,0,1.41.22,1.93,1.93,0,0,0,1.19-.77,1.57,1.57,0,0,0,.26-1.29l-.07-.31a1.89,1.89,0,0,0-3.4-.58,1.91,1.91,0,0,0-.22,1.5A1.84,1.84,0,0,0,14.79,56.08Z"/><path class="cls-9" d="M83.42,40.49a3.11,3.11,0,0,1,1.16,2,3.51,3.51,0,0,1-.08,1.94,3.37,3.37,0,0,1-1,1.49,3.89,3.89,0,0,1-1.69.83,4.17,4.17,0,0,1-1.58,0,3.44,3.44,0,0,1-1.4-.53l.57-1.66a2.45,2.45,0,0,0,.92.43,2.29,2.29,0,0,0,1.07,0,1.81,1.81,0,0,0,1.15-.79,1.86,1.86,0,0,0,.22-1.48A1.67,1.67,0,0,0,82,41.66a1.75,1.75,0,0,0-1.35-.19,3.59,3.59,0,0,0-.64.19,5.5,5.5,0,0,0-.55.27l-.06,0,1.25-3.75-2.79.62-.38-1.7,5.34-1.19L81.49,40A2.79,2.79,0,0,1,83.42,40.49Z"/><path class="cls-7" d="M47.7,50.55a6.4,6.4,0,0,0,4.81,2.89L67.59,23.88s-.36-.73-1.88-1.13Z"/><path class="cls-10" d="M47.14,48.46A6.4,6.4,0,0,0,52,51.35L67,21.79s-.36-.73-1.88-1.13Z"/><rect class="cls-11" x="23.5" y="64.48" width="30.54" height="1.15" transform="translate(-36.5 56.74) rotate(-52.9)"/><path class="cls-7" d="M47.9,49.21a39,39,0,0,0,2.53,5.24l21.9-5.32a2.08,2.08,0,0,0-.22-1.6Z"/><path class="cls-12" d="M48,48.12s-.58,3.48.76,5.66L72.46,48a2,2,0,0,0-.21-1.59Z"/><path class="cls-13" d="M54.48,48.94a4.54,4.54,0,1,1-5.43-3.45A4.55,4.55,0,0,1,54.48,48.94Z"/><path class="cls-14" d="M52.19,49.45a2.2,2.2,0,1,1-2.63-1.67A2.2,2.2,0,0,1,52.19,49.45Z"/><path class="cls-7" d="M88.71,32.48h0Z"/></g></g></g></svg>