<svg xmlns="http://www.w3.org/2000/svg" xmlns:xlink="http://www.w3.org/1999/xlink" viewBox="0 0 942.93 424.48"><defs><style>.cls-1{fill:#f39e8f;opacity:0.4;}.cls-2{fill:#77a4e5;}.cls-3{fill:#9fc3f7;}.cls-4{fill:#b0d4ff;}.cls-5{fill:#8bb9ef;}.cls-6{fill:#8bb3ee;}.cls-7{fill:#ffb27d;}.cls-8{fill:#d9ecff;}.cls-9{fill:#fff;}.cls-10{fill:#f4904d;}.cls-11{fill:#ffa561;}.cls-12{fill:#ed985f;}.cls-13{fill:#2b478b;}.cls-14{fill:#2a4e96;}.cls-15{fill:#193d77;}.cls-16{fill:#d2e3fc;}.cls-17{fill:#afcdfb;}.cls-18{fill:#f2a470;}.cls-19{fill:#2c3a64;}.cls-20{fill:#9e332e;}.cls-21{fill:#b5453c;}.cls-22{fill:#e8945b;}.cls-23{fill:#233862;}.cls-24{fill:#ed833b;}.cls-25{fill:#163560;}.cls-26{fill:#f4a269;}.cls-27{fill:#82b378;}.cls-28{fill:#a8d29f;}.cls-29{fill:#ed7d2b;}.cls-30{fill:#f99746;}.cls-31{fill:#83caf9;}.cls-32{fill:#db2d7c;}.cls-33{fill:url(#linear-gradient);}.cls-34{fill:url(#linear-gradient-2);}.cls-35{fill:url(#linear-gradient-3);}.cls-36{fill:url(#linear-gradient-4);}</style><linearGradient id="linear-gradient" x1="743.97" y1="84.27" x2="770.45" y2="84.27" gradientTransform="translate(19.01 -104.21) rotate(7.97)" gradientUnits="userSpaceOnUse"><stop offset="0" stop-color="#e4e1fd"/><stop offset="1" stop-color="#cdc5fc"/></linearGradient><linearGradient id="linear-gradient-2" x1="729.45" y1="60.3" x2="785.34" y2="60.3" gradientTransform="matrix(1, 0, 0, 1, 0, 0)" xlink:href="#linear-gradient"/><linearGradient id="linear-gradient-3" x1="715.71" y1="38.06" x2="799.07" y2="38.06" gradientTransform="matrix(1, 0, 0, 1, 0, 0)" xlink:href="#linear-gradient"/><linearGradient id="linear-gradient-4" x1="701.25" y1="16.15" x2="813.54" y2="16.15" gradientTransform="matrix(1, 0, 0, 1, 0, 0)" xlink:href="#linear-gradient"/></defs><title>family</title><g id="Layer_2" data-name="Layer 2"><g id="Layer_1-2" data-name="Layer 1"><path class="cls-1" d="M30.36,424.48c-4.91,0-5.17-.06-9.72-3.75C1.39,405.11-4,381.09,2.83,357.79c8.5-28.94,30.62-52.76,54-70.84,16.93-13.12,37.82-24.09,50.68-41.67,14.73-20.15,10.34-46,3.45-68.31-5.35-17.31-6.5-34.85-.55-52.2,4.35-12.69,11.79-24.12,20.65-34.12,31.61-35.66,79.47-58,125.62-67.12,36.13-7.13,73.44-8.36,110.13-6.14,35.8,2.16,71.95,7.4,106,18.87a253.69,253.69,0,0,1,86.07,49.16c13.47,11.6,25.41,24.78,38.47,36.81,12.23,11.28,25.29,19.91,42.48,19.39,16.77-.49,33.41-4.78,49.88-7.65,17.16-3,34.48-5.19,51.91-5.24a199.06,199.06,0,0,1,102.65,28.35c26.92,16,52.29,37.3,70.28,63.12,19.47,27.94,29,61.27,28.3,95.26,0,1.82.24-11.27,0,0-.72,32.48-9.89,64.8-24.36,93.77-1.08,2.18-6.11,15.15-8.41,15.15Z"/><path class="cls-2" d="M158.79,315v2.74c0,1-.31,1.75-.69,1.75H58c-.38,0-.69-.79-.69-1.75V315c0-1,.31-1.75.69-1.75H158.1C158.48,313.25,158.79,314,158.79,315Z"/><path class="cls-3" d="M158.79,315v2.74c0,1-.28,1.75-.63,1.75H78.67c-.35,0-.63-.79-.63-1.75V315c0-1,.28-1.75.63-1.75h79.49C158.51,313.25,158.79,314,158.79,315Z"/><rect class="cls-2" x="62.37" y="319.49" width="71.08" height="103.61"/><rect class="cls-4" x="82.29" y="319.49" width="71.08" height="103.61"/><path class="cls-2" d="M149.55,417.37H86.11v-95h63.44Zm-62.76-.68h62.08V323.1H86.79Z"/><rect class="cls-2" x="86.45" y="353.83" width="62.76" height="0.68"/><rect class="cls-2" x="86.45" y="385.85" width="62.76" height="0.68"/><path class="cls-2" d="M124.26,328.54H112.61a1,1,0,0,1-1-1h0a1,1,0,0,1,1-1h11.65a1,1,0,0,1,1,1h0A1,1,0,0,1,124.26,328.54Z"/><path class="cls-2" d="M124.26,359.86H112.61a1,1,0,0,1-1-1h0a1,1,0,0,1,1-1h11.65a1,1,0,0,1,1,1h0A1,1,0,0,1,124.26,359.86Z"/><path class="cls-2" d="M124.26,392.5H112.61a1,1,0,0,1-1-1h0a1,1,0,0,1,1-1h11.65a1,1,0,0,1,1,1h0A1,1,0,0,1,124.26,392.5Z"/><path class="cls-4" d="M569.78,327.89c-1.1,2.61-11.67,5-27.34,7.17-2.76.38-5.68.75-8.74,1.11-53.35,6.28-199.47,9.79-208.48,7.94C312.78,341.55,288,216.39,288,216.39s72.92-1.26,130.83-1.88c19.81-.2,88.72-.73,101.5-.73C540.13,213.78,571.55,323.66,569.78,327.89Z"/><path class="cls-4" d="M549.59,311.82s-22.38-85.75-24-93a5.66,5.66,0,0,0-5.17-4.67c3.93-.38,6.79-.41,6.79-.41a18.18,18.18,0,0,1,17.12,13c5.42,16.9,16.19,49.36,26.31,81.1C570.12,307.83,549.59,311.82,549.59,311.82Z"/><path class="cls-4" d="M685.28,387.75C681.71,409.26,658.37,423,634.42,423H587l3.68-124.28s45.28-14.76,56.65-1.77c10,11.39,37,56.44,38.38,83.1A35.86,35.86,0,0,1,685.28,387.75Z"/><path class="cls-5" d="M685.28,387.75C681.71,409.26,658.37,423,634.42,423H611.15C626.67,413.07,640.7,382.6,685.28,387.75Z"/><path class="cls-2" d="M559.38,310.86s64-30.71,76.1-10.65c6.43,10.65,24.14,53.14,25.45,79.8C662.2,405.92,638.32,423,613.77,423H570.15Z"/><path class="cls-3" d="M643.68,402c-.71.57-1.44,1.13-2.18,1.68-9.24,6.81-21.3,12.23-35.08,15.59a138.21,138.21,0,0,1-33.76,3.79h-21l-98.18,0h-57.1v0l-2-10.22-17.81-103s246.59-5.55,266.64,5.9c9.31,5.31,14.59,27.32,17.52,51.58C662.31,380.29,655.7,392.41,643.68,402Z"/><path class="cls-6" d="M643.68,402c-.71.57-1.44,1.13-2.18,1.68-9.24,6.81-21.3,12.23-35.08,15.59a138.21,138.21,0,0,1-33.76,3.79h-21l-98.18,0H397.19l-.83,0-2-10.22c34.49-6.66,82.22-13.43,132-12.91C574,400.49,613.77,400.42,643.68,402Z"/><path class="cls-7" d="M474.91,215.14a9.21,9.21,0,0,1-1.78-.92h13s-5-2.82-8.22-4.26-11.18,0-11.18,0-29.38-4.37-45.85-4c-4.42.11-35.85-5-44.9-3.2-4.77,1-9.1,1.71-11.88,2.17a3,3,0,0,1-3.42-2.66v0a78.17,78.17,0,0,0-1.25-9.27l-11.05-5.35-5.56,3c.06.62.1,1.22.12,1.81a32.22,32.22,0,0,1-.76,8.12,12.08,12.08,0,0,1-8.73,9h-.06c8.29,7.14,50.45,19.57,51.16,15.92,1-4.9,82.19-11.22,82.19-11.22h0s2.27.85,2.83,1.66,5.09.69,5.94.81S475.9,215.45,474.91,215.14Z"/><path class="cls-8" d="M503.74,395.44s8.56,15.45,12.36,17.2c3,1.38,11.17,2.75,15.72,6.25,5.27,4.06-3.86,3.84-5.87,3.84,0,0-10.21-1.21-15.05-1.11-2.79.06-11.09,1.11-11.09,1.11a10.46,10.46,0,0,1-10.31-12.37,1.16,1.16,0,0,1,0-.18c1.18-6,2.1-13.67,2.1-13.67Z"/><path class="cls-9" d="M397,211.91c-.18,4-1.3,8.42-4.88,10.74-5.65,3.67-4.22,13.24-4.18,17L363.72,205a119.6,119.6,0,0,1,14.74-2.59c4.88-.53,17.73.94,17.73.94A34,34,0,0,1,397,211.91Z"/><path class="cls-9" d="M466.32,401.49s8.54,9.4,12.33,11.15c2.71,1.24,10,2,14.35,5.12,4.59,3.33,1.08,5-1.59,5,0,0-12.2,1-20-1.22-2.12-.59-7.92.59-10,1.05a42.15,42.15,0,0,1-5.25.39c-4.74-.61-5-5.15-4.51-10a25.63,25.63,0,0,1,.39-2.73c1.18-6,1.89-11.52,1.89-11.52Z"/><path class="cls-10" d="M508.39,396.32a27.84,27.84,0,0,1-5.79,3.06c-4.27,1.42-12.23.76-12.23.76s-20.32-39.42-24.61-49.39c-4.07-9.46-7.47-30.18-7.47-30.18-3.1-.17-26.32,3.12-46.71.91-10.85-1.17-20-3.85-23.14-9.33-9-15.78,19.67-33.38,19.67-33.38s56,10.09,68.27,19C488,306.26,508.39,396.32,508.39,396.32Z"/><path class="cls-11" d="M469.36,401a31.88,31.88,0,0,1-7.16,2.76,26.43,26.43,0,0,1-10.64-.84s-3.12-18.89-15.94-49.1c-3.21-7.58-2.72-23.13-3.15-23.32,0,0-70,.6-78.15-15.13-1.32-2.55-2.79-9.74-2.62-12.08.85-12.43,17-17.23,17-17.23s73,12.91,85.52,21.52S469.36,401,469.36,401Z"/><path class="cls-9" d="M414,279.28c-4.25,7.6-8.68,13.6-25,16.42-20.52,3.55-31.76,7.89-37.45,9.61-4.34,1.31-16.84-14.61-22.79-28.82-5.77-13.75-10.67-35.19-10.71-36.84C317.58,214.11,337,208,337,207.91s14.42,9.8,22.27,6.4,4.55-9.14,4.45-9.31l20.81,20.43s4.69,17.94,10.34,30.95C403.43,276.11,415.17,277.2,414,279.28Z"/><path class="cls-12" d="M359.41,193a78.17,78.17,0,0,1,1.25,9.27c-9.38-.31-16.81-10-16.86-10.65,1.13-.6,2.27-2.75,4.56-4Z"/><path class="cls-7" d="M361.6,199s-19.74-.57-19.2-12.85-1.65-20.64,11-20.8,14.87,4.64,15.68,8.78S366.75,198.82,361.6,199Z"/><path class="cls-13" d="M343.46,191.1s-.79-4.08,1.43-6.78c0,0-1.45-4,.08-4.91s2.36,2.52,3,1.87a16.85,16.85,0,0,0,4.55-7.69c.9-4,14.6-1.19,16.22-.72a2,2,0,0,0,1,0,4.49,4.49,0,0,0,1.8-7.68,4.63,4.63,0,0,1-.45-.42c-1.45-1.47-11.53-11.3-23.06-6.52s-12.38,10.7-11,15.5S338.34,190.14,343.46,191.1Z"/><path class="cls-7" d="M317.09,230.05s-2.75,4.38,5.2,15.89,42.8,44.81,46.28,42,7.82-7.14-.25-17.83-33.91-47.29-33.91-47.29Z"/><path class="cls-9" d="M353.51,245.82c-6.58,3.67-11.41,6.6-21.48,6.58a67.74,67.74,0,0,1-13.83-1.5s-7.78-31.66,6.77-38.18c5-2.24,12-4.81,12-4.81S365.29,239.25,353.51,245.82Z"/><path class="cls-14" d="M399.57,249.29l-8.19-.95a1.28,1.28,0,0,1-.94-1.85l6.25-18.07a2.14,2.14,0,0,1,2.09-1.49l8.2.95c.84.09,1.26.92.94,1.85l-6.25,18.07A2.16,2.16,0,0,1,399.57,249.29Z"/><path class="cls-15" d="M401.18,249.48l-8.19-.95a1.28,1.28,0,0,1-.94-1.85l6.24-18.07a2.17,2.17,0,0,1,2.1-1.5l8.19.95a1.29,1.29,0,0,1,.95,1.85L403.28,248A2.16,2.16,0,0,1,401.18,249.48Z"/><path class="cls-9" d="M399.5,229.08a.79.79,0,0,1,.74-.53c.28,0,.4.32.26.65a.78.78,0,0,1-.74.52C399.48,229.69,399.37,229.4,399.5,229.08Z"/><path class="cls-9" d="M400.94,229.31a.48.48,0,0,1,.44-.32c.17,0,.24.2.16.39a.48.48,0,0,1-.44.31C400.93,229.67,400.86,229.5,400.94,229.31Z"/><path class="cls-7" d="M392.44,240s-25.61,25.55-28.72,29.7,2.79,18.47,3.82,18.36,12.55-10.52,16.71-19.2,11.81-21.25,11.81-21.25Z"/><path class="cls-7" d="M395.78,250.82s5.35-3.53,8.1-5.21,5-12.58,3.75-12.4S395.75,238,392.2,243.29,395.78,250.82,395.78,250.82Z"/><path class="cls-7" d="M390.72,244.17s1-3.8.85-4.43,2-3.86,2.48-5.06,1.08-3.07,1.72-2.23.47,2.55,0,3.85.75,3.35.75,3.35L395,242.23Z"/><path class="cls-16" d="M445,388.88C441.19,409.74,420.08,423,398.45,423H354.83l3.41-125.38s41.62-13.66,52.07-.67c9.16,11.39,34,56.44,35.3,83.1A38,38,0,0,1,445,388.88Z"/><path class="cls-17" d="M445,388.88C441.19,409.74,420.08,423,398.45,423h-34.9C379.88,412.55,401.88,383.78,445,388.88Z"/><path class="cls-2" d="M420.08,389.75a38.26,38.26,0,0,1-12.24,20.67h0a48.15,48.15,0,0,1-12.39,7.95,53.72,53.72,0,0,1-18,4.49l-1,.06-.78,0-1.3,0H330.05v0l-2.52,0-13.53.14h-2.94c-4.3,0-8.1,0-10.81,0a76.57,76.57,0,0,1-10.79-.78,50.69,50.69,0,0,1-12-3.23c-.65-.28-1.3-.56-1.93-.86s-1.27-.63-1.89-1a38.78,38.78,0,0,1-4.73-3,40.92,40.92,0,0,1-10.06-11.11,58.74,58.74,0,0,1-5.23-10.72,97.33,97.33,0,0,1-4.5-16.71q0-.22-.09-.48c-.52-2.87-1-5.9-1.36-9.08-.17-1.44-.34-2.92-.48-4.43q-.78-8-1-17.23c0-.54,0-1.08,0-1.62,0-.12,0-.24,0-.36-.11-4.9-.11-10,0-15.47q.06-3.56.18-7.27l.12-3.42q.34-8.64,1-18.12c.18-2.84.39-5.73.61-8.69q1.4-18.25,3.74-39.54c1.77-16.12,3.81-27.39,6.77-30,4.37-3.79,13.48-5.31,19.82-5.92h0c3.93-.38,6.79-.41,6.79-.41h.72l.72,0,.41,0,.26,0,.4.06.7.11.48.1h0l.35.08.65.18.44.13.3.1a17.38,17.38,0,0,1,3.47,1.61,18.94,18.94,0,0,1,8.18,10.49c5.06,15.82,14.1,44.11,23.5,73.7.05.14.1.29.14.44l1.63,5.11.16.52.09.26,1.64-.69.06,0c2.26-.94,4.81-2,7.56-3h0c1.42-.54,2.9-1.1,4.43-1.65,4.3-1.55,8.95-3.08,13.66-4.4,2.09-.59,4.19-1.14,6.28-1.62,2.69-.63,5.35-1.16,7.95-1.55l.23,0,.91-.13c1.84-.25,3.63-.43,5.36-.53h0c8.87-.51,16.21,1.15,19.57,6.73a106.77,106.77,0,0,1,4.86,9.55,306,306,0,0,1,12.89,33.74c4,12.75,7.18,26,7.7,36.75A38.51,38.51,0,0,1,420.08,389.75Z"/><path class="cls-16" d="M307.45,311.82s-22.39-85.75-24-93a5.66,5.66,0,0,0-5.17-4.67c3.93-.38,6.79-.41,6.79-.41a18.18,18.18,0,0,1,17.12,13c5.42,16.9,15.4,48.06,25.52,79.8C327.19,306.53,307.45,311.82,307.45,311.82Z"/><path class="cls-18" d="M511.07,249.28s2.46,6.38,18.64,7.85,23.67,2.52,33.66-7.43a110.29,110.29,0,0,0,8.42-9l-1.74-3.3s-16.83,10.29-20.13,10.31C529.43,247.91,509.42,238.63,511.07,249.28Z"/><path class="cls-9" d="M520.26,243.59l15.87,3.13a7.83,7.83,0,0,1-2.92,8.06C528.9,258.3,520.26,243.59,520.26,243.59Z"/><path class="cls-18" d="M554.66,257.16s-29.15,40.38-22.37,46.46,12.91,5.1,19.64,3.8,15.67-34.73,15.14-38.71S562.69,252.52,554.66,257.16Z"/><path class="cls-18" d="M554.66,257.16s.15,14.13,3.12,25.1,7,26.14,7,26.14h8s-3.39-41.5-3.19-46.57S563.78,248.4,554.66,257.16Z"/><path class="cls-19" d="M543.28,274.24s-1.71,17.92,16.39,21.77c0,0-1.61,12.9-8.22,13.9s-28.3-.2-32.67-2.49C518.78,307.42,530.18,287.73,543.28,274.24Z"/><path class="cls-9" d="M572.4,304.57s3.69,4.87,5.68,5.14,6.37,1.19,6,2.92-7.38,2.51-11.65,1.72-8.65,1.5-7.65-6l-2-7.62a18.79,18.79,0,0,0,9.25-1.45l.39,4.14Z"/><path class="cls-9" d="M533.81,256.48c-.23-5.09-1.08-8.33-5.82-10.18-7-2.75-20.92-3.05-29.61,2.23-1.49.9-5.44,10.83-2.17,32.34,2.15,14.22,4.69,28.82,21.77,27.06s26.12-2.74,25.33-6.64-8-21.4-8.57-28.05C534.43,269.44,534.07,262.09,533.81,256.48Z"/><path class="cls-7" d="M543.36,257.16S514.21,297.54,521,303.62s12.91,5.1,19.63,3.8,15.67-34.73,15.14-38.71S551.38,252.52,543.36,257.16Z"/><path class="cls-7" d="M543.36,257.16s.15,14.13,3.12,25.1,7,26.14,7,26.14h8s-3.38-41.5-3.18-46.57S552.47,248.4,543.36,257.16Z"/><path class="cls-14" d="M532,274.24s-1.72,17.92,16.38,21.77c0,0-1.6,12.9-8.21,13.9s-28.3-.2-32.68-2.49C507.47,307.42,518.88,287.73,532,274.24Z"/><path class="cls-9" d="M561.09,304.57s3.7,4.87,5.69,5.14,6.36,1.19,6,2.92-7.39,2.51-11.66,1.72-8.64,1.5-7.65-6l-2-7.62a18.79,18.79,0,0,0,9.25-1.45l.39,4.14Z"/><path class="cls-20" d="M573.45,234.39l-15,1.72c-.44,0-.76.27-.8.52l-1.11,8.73c0,.38.57.67,1.22.57l14.59-2.25c.4-.07.69-.26.73-.49l1.52-8.2C574.67,234.61,574.09,234.31,573.45,234.39Z"/><path class="cls-21" d="M574.75,234.24l-15,1.72c-.44,0-.76.26-.8.52l-1.11,8.72c-.05.39.57.68,1.22.58l14.59-2.26c.4-.06.69-.25.73-.49l1.52-8.19C576,234.46,575.39,234.16,574.75,234.24Z"/><path class="cls-7" d="M575.64,236.26a4.26,4.26,0,0,0-2.32-1.43c-1.76-.22-1.83,1.6-1.09,2.92s2.48,2.52,2.8,2.29S576.41,237.55,575.64,236.26Z"/><path class="cls-7" d="M575.64,236.26a4.39,4.39,0,0,1-.94,5.1Z"/><path class="cls-7" d="M498.47,253.43s2.46,6.38,18.65,7.85,23.66,2.52,33.66-7.43a110.52,110.52,0,0,0,8.41-9l-1.74-3.3s-16.83,10.28-20.13,10.31C516.83,252.05,496.83,242.78,498.47,253.43Z"/><path class="cls-7" d="M566.68,240.21c-.61-.12-1.92-.61-3.24-1a2.76,2.76,0,0,0,1-1.07c.23-.75.39-1-.4-.75s-3.55,1.5-3.55,1.5h0c-1.57.46-3,2.68-3,2.68l1.74,3.3a8.08,8.08,0,0,1,3.94-.7c1.74.32,5.76,0,6.63-1.42S567.71,240.41,566.68,240.21Z"/><path class="cls-9" d="M512.69,243.3s-5.35-1-11.72,2.86-4.51,13-4.51,13l7.43,2.78s-2.19-12.23,8.7-14.62Z"/><path class="cls-7" d="M519.33,249a3.18,3.18,0,0,0,2.19-4.83,8.19,8.19,0,0,1-.86-2c-.06-.21-.11-.42-.16-.63a16.46,16.46,0,0,1-.18-5c0-.12,0-.24,0-.36a17.31,17.31,0,0,1,.41-2.28l-10-5.18a32.63,32.63,0,0,1-.29,7,27.63,27.63,0,0,1-2,7.09h0c-.31,4,4.45,4.87,8.46,6a5.4,5.4,0,0,0,2.23.21Z"/><path class="cls-22" d="M520.66,242.15c-4.26.38-10.17-6.43-10.17-6.43,4.35-.78,7.67-.24,9.83.8a16.17,16.17,0,0,0,.19,5Q520.57,241.83,520.66,242.15Z"/><path class="cls-7" d="M523.28,238.36s-11.37,2.95-15.24-6.1c-4.19-9.76.48-16.84,4.34-17.3,7.7-.92,12.15,2,13.49,5.14S529.55,236.79,523.28,238.36Z"/><path class="cls-9" d="M518.8,233.26s.47,1.17,3.47.53c0,0,2.52-.54,2.24-1.87A8.27,8.27,0,0,0,518.8,233.26Z"/><path class="cls-19" d="M510.05,235.43s-1.32-3.91-1.15-6c0,0-2.94-3.79-1.21-4.72s2.65,1.31,3.05.88,1.05-7.86,3.14-7.62,9.85,2.69,13.26-.23-4.78-14.42-18.79-10.05S497.14,227.61,510.05,235.43Z"/><path class="cls-19" d="M501.43,213.75a4.89,4.89,0,0,1,.06-3.24,5.13,5.13,0,0,0,.75,2.69C503,214,501.43,213.75,501.43,213.75Z"/><path class="cls-19" d="M501.73,212.43a2.82,2.82,0,0,0-2.56,1.12,2.25,2.25,0,0,1,2.45.06Z"/><path class="cls-9" d="M522.67,285.06s-2.06,19.47-9.23,23.85-16.11-11.53-16.22-21.82S522.67,285.06,522.67,285.06Z"/><g id="girl_2" data-name="girl 2"><path class="cls-23" d="M267.65,264.09a21.79,21.79,0,0,0-19.55,5.59,57.52,57.52,0,0,0-7.12,8.14c-5.73,8,5.24,15.93,3.78,18.64s-4.84,4.85-3.36,10.51,11.24,13,14.42,13.33c32.24,3.31,46.23-14.46,35.45-24s-6.38-23.48-15.13-28.88A27,27,0,0,0,267.65,264.09Z"/><path class="cls-12" d="M251.25,313.66s-30.36,13.23-35.87,13-39.47-10.34-39.47-10.34l.86,5.84s26.21,15.08,35.37,15.93S252,330,255,328.09,259.91,315.57,251.25,313.66Z"/><path class="cls-7" d="M247.56,328.1a29.25,29.25,0,0,0,10.21,4.35c15.74,3.63,21.77-9.66,24-18.79a13.51,13.51,0,0,0-5.33-1.64c-1.14-.13-2.33-.22-3.32-.27-1.77-1.36-4.4-6.89-5-15.49l-.74.19-12.4,3.4s.57,3.94.85,7.67c.22,2.91.25,5.7-.3,6.38l-1.55.35h0A80.8,80.8,0,0,0,247.56,328.1Z"/><path class="cls-12" d="M255,299.85s.57,3.94.85,7.67c7-.71,10.29-7.39,11.55-11.06Z"/><path class="cls-7" d="M252.93,303.55s16.67-.92,15.94-11.29.92-17.49-9.75-17.34-12.47,4.26-13.07,7.78S248.57,303.52,252.93,303.55Z"/><path class="cls-23" d="M246.14,276.89c2.35-3.3,4.34-2.76,5.5-1.9a11.68,11.68,0,0,1,15.14,1.33,19.89,19.89,0,0,0,7.32,11.24s-3,2.36-10,.79a17.71,17.71,0,0,1-12.58-11.05c-1,1-2.18,1.61-3.12,3.75a16.43,16.43,0,0,0-1.84,8.19S242.61,281.85,246.14,276.89Z"/><path class="cls-21" d="M286.55,362c1.51-7.7,6.42-38.46,1.51-48.35-1.77-3.56-8.69-3.88-16.28-3.57-2.36,1.53-11.36,7.29-15.06,6.57l-.21-.05c-1.74-.43-2.39-1.66-.94-2.71a33.35,33.35,0,0,0-8.43.52c-2.64.49-9.75,4.17-9.75,4.17s3.58,6.47,8.86,8.71c-.9,8,.44,11.58,8.77,30.14,7,15.68-1,29.81-1,29.81s41.47,33.33,41.7,16.36C295.94,390.83,284.63,371.85,286.55,362Z"/><path class="cls-24" d="M252,423.5a7.72,7.72,0,0,1-5.55-3.38l-.64-1c-4.72-7.14-6.55-29-17.17-52.33-2.59-5.68-11.87-6.7-14.4-13.11,0,0-6.23-20.8,11.92-21.41s48.62,57.86,49.1,64C275.75,402.23,287.28,427.48,252,423.5Z"/><path class="cls-20" d="M179.87,423h25.84s1-4.12-.73-6.93c-1.51-2.48-.93-3.89.18-5.94a10.24,10.24,0,0,1-4.35.82,9.07,9.07,0,0,1-3.84-1.36c-1.11,1.27-5.88,6.67-7.36,7.74C187.92,418.56,180.39,418.13,179.87,423Z"/><path class="cls-20" d="M283.83,321.72s3.36,30.59-18.45,37-28-28.15-10.39-30.63A170,170,0,0,0,283.83,321.72Z"/><path class="cls-24" d="M213.67,338.31c-1.55,11.67-7.63,48.48-18.35,66.44-3.45,5.79,8.71,9,8.77,9,1.63-.43,4.35-3,5.6-4.16,8.7-7.84,26.37-30,26.37-47.84,0-8.68.15-25.26-6.16-29.47C226,329.7,214.29,333.68,213.67,338.31Z"/><path class="cls-11" d="M267.43,423s-1-1.33-2.63-3.87c-2-3-4.19-8.93-6.85-16.52-2.81-8-6.13-17.77-10.29-28q-1.92-4.72-4.09-9.52c-2.58-5.67-9.7-4.89-12.23-11.3,0,0-9.87-22.24,8.28-22.86s52.65,59.5,54.63,65.32C296.42,402.66,307,429.12,267.43,423Z"/><path class="cls-21" d="M198.84,423h25.83s1-4.12-.73-6.93c-1.5-2.48-.92-3.89.19-5.94a10.27,10.27,0,0,1-4.35.82,9.15,9.15,0,0,1-3.85-1.36c-1.11,1.27-5.87,6.67-7.36,7.74C206.88,418.56,199.36,418.13,198.84,423Z"/><path class="cls-10" d="M258,402.63c-2.81-8-6.13-17.77-10.29-28,1.09-7.73,3.43-14.49,7.36-17.21C255,357.44,264.57,387,258,402.63Z"/><path class="cls-11" d="M228.75,337.48c-1.55,11.67-3.74,49.31-14.46,67.27-3.46,5.79,8.7,9,8.77,9,1.63-.43,4.35-3,5.6-4.16,8.7-7.84,26.36-30,26.36-47.84,0-8.68-10.18-24.56-16.49-28.78A6.36,6.36,0,0,0,228.75,337.48Z"/><path class="cls-20" d="M172.82,301.27l26.46-2.81a1.72,1.72,0,0,1,1.78,1.09l9.47,24.88a1.71,1.71,0,0,1-1.53,2.31l-26.26,1.06a1.71,1.71,0,0,1-1.64-1.05l-9.67-23.12A1.71,1.71,0,0,1,172.82,301.27Z"/><path class="cls-21" d="M170.53,301.51,197,298.7a1.7,1.7,0,0,1,1.77,1.09l9.47,24.88A1.71,1.71,0,0,1,206.7,327L180.45,328A1.71,1.71,0,0,1,178.8,327l-9.67-23.12A1.71,1.71,0,0,1,170.53,301.51Z"/><path class="cls-20" d="M185.19,313.13a1.09,1.09,0,0,1,1-1.61,2.56,2.56,0,0,1,2.2,1.61,1.09,1.09,0,0,1-1,1.6A2.56,2.56,0,0,1,185.19,313.13Z"/><path class="cls-20" d="M171.32,303.86c-.16-.44.06-.79.5-.79a1.24,1.24,0,0,1,1.08.79.54.54,0,0,1-.51.79A1.24,1.24,0,0,1,171.32,303.86Z"/><path class="cls-7" d="M281.8,313.66s-36.67,13.5-42.18,13.23c-3.56-.18-33.17-10.59-33.17-10.59l-2.65,5s28.81,18.52,36.73,18.43c15.64-.19,42-9.78,45-11.67S290.45,315.57,281.8,313.66Z"/><path class="cls-7" d="M206.45,316.3s-2.65-4.09-5.3-4.21-7.22,1.8-8.78,2.11-6,1.74-4.69,3.9,7.46,2.65,10.1,2.17,6,1.06,6,1.06Z"/><path class="cls-7" d="M201.87,312.22s-4.21-1.93-5.41-2.29-1,0-.6,1.14,2.52,2.23,2.52,2.59S201.87,312.22,201.87,312.22Z"/><path class="cls-7" d="M173.25,314.14s2.65-4.2,3.52-4.37c2.65-.53,2.65,3,2.09,5.21-.6,2.41-2.64,4.69-3.21,4.49S172.63,316.35,173.25,314.14Z"/><path class="cls-7" d="M173.15,315a7,7,0,0,0,3.62,7.16l-1.32-3.24Z"/><path class="cls-9" d="M249.8,297.58s1.58-.62,6-.26c0,0-.24,1.73-3.51,1.9A2.62,2.62,0,0,1,249.8,297.58Z"/><path class="cls-21" d="M262.91,320.32s3.28,10.38,14.54,12.74c0,0,18.6-5.73,9.34-18.4C286.79,314.66,277.63,307.86,262.91,320.32Z"/></g><path class="cls-11" d="M914.35,423.94l-184.6-1c-27.4-31.55-30.28-73.17,6.33-108.9,4.61-4.49,13.42-7.66,22.92-9.89,17.52-4.1,37.36-5,37.52-5.07s10.51-8.45,16.81-16c19.57-23.54,36.15-21.46,36.15-21.46,19.88-3.8,36.84-4.88,49.38,2.15h0c11.62,6.53,19.46,20,22.33,44.79.55,4.69.91,9.78,1.1,15.3.65,20.09,4.56,38,6.86,53.12h0C932.49,398.92,932.47,415.11,914.35,423.94Z"/><path class="cls-10" d="M888.93,289c-12.07,6.53-13.48,28.16-32.37,33.69s-50.92,4.91-69.15,24.57c-17.59,19-36.77-29.49-28.41-43.07,17.52-4.1,37.36-5,37.52-5.07s10.51-8.45,16.81-16c19.57-23.54,36.15-21.46,36.15-21.46,19.88-3.8,36.84-4.88,49.38,2.15h0C905.22,270.75,901,282.45,888.93,289Z"/><path class="cls-23" d="M814.9,295s-60.51-1-68.58,4.18,8.07,87.12,8.07,87.12,15.65.5,16.89-3.64c0,0-2.81-38.42-.35-45.06s.94-15.83.94-15.83,30.61,4.67,40.33,2.37S814.9,295,814.9,295Z"/><path class="cls-7" d="M829,252.65s-8.57,19.82-12.73,21.92-19.23,19.32-22.45,19,3.76,2.63,3.76,2.63,26.3-12,27.83-12.79,9.61-14,10.73-20.67S829,252.65,829,252.65Z"/><path class="cls-9" d="M757.7,382.09s3.44,9.23,2.71,12.65.45,10.05-.95,13-3.9,7.28-1.5,8.37c.91.41,11.51-7.8,12.11-10.23s1.08-9.58,3.11-13.46.33-7-2.6-8.45-7-9.25-7-9.25Z"/><path class="cls-9" d="M747.42,397.28s-3.31,9.26-6.08,11.41-6.14,8-9.13,9.33-7.67,3-6.54,5.42c.43.91,13.83,1.46,15.85,0s7-6.62,11.07-8.28,4.77-5.15,3.46-8.13.6-11.6.6-11.6Z"/><path class="cls-25" d="M846.43,243.9c-1.23-1.42,18.24-7.23,22.35,8.75,0,0,35.84-9.43,13.87-25.44-7.61-5.55-8.36-11.44-9.45-16.84s-8.65-20.92-21.87-13.26c0,0-6,0-9.85,3.3C832.78,207.91,823.16,255.67,846.43,243.9Z"/><path class="cls-14" d="M840.17,297.84s-62.76,6.21-68.3,12.6-27.44,89.61-27.44,89.61,6.39,3.59,12.22.27c0,0,16.68-28.21,24.05-37.06s10.2-36.22,11.42-36.5,40.51,5.6,54.09-4.75S840.17,297.84,840.17,297.84Z"/><path class="cls-9" d="M875.28,241a65.35,65.35,0,0,0-33.94-3.72c-3.88.61-7.37,1.88-10.16,6.44-3.94,6.44-5.78,9.9-5.78,9.9s.37,3,5.71,5.39c-1.47,5.34,1.29,14.7-1.29,18.32s-18.55,12.56-19.36,17.56c-1.47,9.19,27.18,25.93,35.75,24.17C870.85,314,887.76,248.07,875.28,241Z"/><path class="cls-25" d="M866.86,222.05s3-5.8,3.38-10.56c.28-3.4-2.55-15.65-14.85-12.73a17,17,0,0,0-6.78,3.3c-2.54,2.08-6.08,6.38-.73,16.8l1.47,3.55Z"/><path class="cls-7" d="M850,241.58c-1.25,1.31-.77,5.67,5,5.36,3.82-.21,12-4.9,11.26-8.17-.36-1.55-3.28-5.56-3.94-14.76l-.7.19L850,227.44s.55,3.71.82,7.22C851,237.61,850.47,241,850,241.58Z"/><path class="cls-26" d="M850,227.44s.55,3.71.82,7.22c6.62-.69,9.66-7,10.84-10.46Z"/><path class="cls-7" d="M849.69,232.83S865,229,862.45,219.57s-2.23-16.34-12.08-14.31-10.78,6.13-10.71,9.49S845.66,233.57,849.69,232.83Z"/><path class="cls-25" d="M843.38,206.87s5.1,9.77,14.75,10.85c5.66.63,7.2,4.36,7.2,4.36s-1.67-10.66-4.49-17.18C860.84,204.9,845.12,200.75,843.38,206.87Z"/><path class="cls-25" d="M845.13,208.16s-3.35,3.4-4.39,5.8c-1.53,3.56,1.42,11.06,2.64,12.68,0,0-7.06-12.06-4.67-17.27C841.24,203.85,845.13,208.16,845.13,208.16Z"/><path class="cls-7" d="M798.36,295.86s-3,3.21-3.41,3.38c-2,.93-4.55.38-5.77.68s-1-.45-.11-1.07,3.13-.37,2.22-.6-5.82-1.15-7.67-.66c-2.93.77-5.23-.16-5.41-.46s6.69-3.63,8.65-3.51,7.6-.14,7.6-.14Z"/><path class="cls-7" d="M880.42,247s18.79,42.78,13.52,49-41.64-1.47-41.64-1.47l1.14-4s26.79-1.55,28.7-2.09c2.74-.76-13.48-30.78-13.48-30.78Z"/><path class="cls-9" d="M873.38,240.29c.46,0,6.11,1.89,10.15,9.94s5.4,11.74,5.4,11.74-17.73,13.67-24.75,8.6S866.89,240.11,873.38,240.29Z"/><path class="cls-7" d="M856.56,290.37s-3-2-4.26-3.07-8.34-2-8.34-1.26,4.14,1.71,4.59,2.43,3,3.7,5.14,3.7A3.08,3.08,0,0,0,856.56,290.37Z"/><path class="cls-23" d="M815.58,266.12,842.29,271a2.35,2.35,0,0,1,1.74,1.45L852.5,297c.37,1.08-.46,1.9-1.63,1.62l-26.43-6.34a2.34,2.34,0,0,1-1.61-1.38l-8.75-23.05A1.23,1.23,0,0,1,815.58,266.12Z"/><path class="cls-14" d="M813.26,265.69,840,270.55a2.33,2.33,0,0,1,1.74,1.45l8.47,24.54c.37,1.07-.46,1.89-1.63,1.61l-26.43-6.34a2.35,2.35,0,0,1-1.61-1.37l-8.75-23.06C811.36,266.33,812.11,265.49,813.26,265.69Z"/><path class="cls-9" d="M827.51,280c-.29-.87.2-1.38,1.1-1.13a3.44,3.44,0,0,1,2.13,2c.29.87-.2,1.38-1.09,1.13A3.48,3.48,0,0,1,827.51,280Z"/><path class="cls-9" d="M814,268c-.14-.42.1-.67.54-.55a1.7,1.7,0,0,1,1,1c.15.43-.09.68-.53.56A1.71,1.71,0,0,1,814,268Z"/><path class="cls-7" d="M852.3,294.52a54.79,54.79,0,0,1-6.9-.28c-1.39-.33-4.91-4.73-4-5.83.59-.69,3.89.57,5.46.57s5.66-2.26,8.44,2.4C855.66,291.9,852.3,294.52,852.3,294.52Z"/><path class="cls-11" d="M876,305.1s-6,5.55-30.84,6.27-57.39,28.11-57.72,35.87,50,19.71,50.81,18.6,32-27.79,32-27.79Z"/><path class="cls-10" d="M929.15,377c-13.33-24.15-44,9-51.57-2.25S888.39,349.23,905,337c16.25-12,16.22-27.77,16.21-28.41.55,4.69.91,9.78,1.1,15.3C922.94,344,926.85,361.84,929.15,377Z"/><path class="cls-27" d="M118.06,265.31s-7.69-9-.47-14.68c0,0,5.27-3.19,9.57-2.93,0,0-6.09,10.21-4.12,11.23s6-11.87,6-11.87,12-1.17,15.86.69c0,0-10.25,8.39-8.09,8.89S150,248.9,150,248.9s11.16,1.9,10.57,8.72-4.45,8.91-6.14,8.73-11.58-4-11.8-2.57,5.74,5.91,9.91,6.13c0,0-7.87,8.68-13.1,6.17s-5.68-6.48-8.94-8-6-1.48-4.7,0,7.25,3,9.11,6.29,3.54,5.53-1.87,4.71-14.22-4.77-14.6-9.31Z"/><path class="cls-27" d="M155.09,257.8s-30.33-1.17-37,7.51a21.92,21.92,0,0,1-6,8.47l-.71,1.94s5.26-5.54,7.14-5.88C118.45,269.84,115.5,259.09,155.09,257.8Z"/><path class="cls-27" d="M112,273.78a19.06,19.06,0,0,0-7,13.42l1.18.11s2.08-8.9,5.84-12.38S112,273.78,112,273.78Z"/><path class="cls-28" d="M91.16,254s12.24-6.85,6.53-16.16c0,0-4.57-5.71-9.46-7.17,0,0,2.61,13.86,0,14.19s-1.8-15.66-1.8-15.66-12.89-6.2-18-5.71c0,0,8,13.54,5.39,13.21s-11.59-14-11.59-14-13.21-2.45-15.34,5.38,1.31,11.75,3.27,12.24,14.52.33,14.19,2-8.81,4.24-13.54,2.77c0,0,5.22,12.89,12.07,12.24s9-4.89,13.22-5.22,7.34.82,5.22,2-9.3.37-12.72,3.29-6.2,4.7.16,6,17.78.49,20.07-4.41Z"/><path class="cls-27" d="M53,230.52s34.27,11.1,38.18,23.5a26,26,0,0,0,3.27,11.91v2.45s-3.59-8.32-5.55-9.47C88.88,258.91,96.55,248.14,53,230.52Z"/><path class="cls-27" d="M94.43,265.93a22.6,22.6,0,0,1,2.27,17.79l-1.36-.36s1.32-10.76-1.45-16.17S94.43,265.93,94.43,265.93Z"/><path class="cls-28" d="M110.63,244.57s-16.13-9-8.6-21.3c0,0,6-7.52,12.47-9.46,0,0-3.44,18.28,0,18.71s2.37-20.65,2.37-20.65,17-8.17,23.66-7.52c0,0-10.54,17.85-7.1,17.42s15.27-18.5,15.27-18.5,17.42-3.23,20.22,7.1-1.72,15.48-4.3,16.13-19.14.43-18.71,2.58,11.61,5.59,17.85,3.66c0,0-6.89,17-15.92,16.13S136,242.42,130.42,242s-9.68,1.07-6.88,2.58,12.26.49,16.77,4.33,8.18,6.21-.21,7.93-23.45.64-26.46-5.81Z"/><path class="cls-27" d="M161,213.6s-45.17,14.62-50.33,31a34.25,34.25,0,0,1-4.3,15.7v3.22s4.73-11,7.31-12.47C113.64,251,103.53,236.82,161,213.6Z"/><path class="cls-27" d="M106.33,260.27s-7,10.58-3,23.45l1.79-.48s-1.74-14.18,1.9-21.31S106.33,260.27,106.33,260.27Z"/><path class="cls-29" d="M141.69,280.05a31.6,31.6,0,1,1-63.2,0Z"/><path class="cls-30" d="M120.89,280.05c0,11.83-2.84,23.89-12.48,29.3-1.6.9-7-.07-8.72.54a31.61,31.61,0,0,1-21.2-29.84Z"/><path class="cls-29" d="M142.12,313.25H78.05a3.91,3.91,0,0,1,3.9-3.9h56.28A3.9,3.9,0,0,1,142.12,313.25Z"/><path class="cls-30" d="M112.1,313.25h-34a3.91,3.91,0,0,1,3.9-3.9h26.26A3.9,3.9,0,0,1,112.1,313.25Z"/><rect class="cls-21" x="77.45" y="280.05" width="64.96" height="0.97"/><path class="cls-31" d="M232.88,221.36h-75.6a6.72,6.72,0,0,0-6.73,6.72v33.43a6.73,6.73,0,0,0,6.73,6.73h7.4v13l8-13h60.21a6.72,6.72,0,0,0,6.72-6.73V228.08A6.72,6.72,0,0,0,232.88,221.36Z"/><path class="cls-9" d="M172.85,240a7.71,7.71,0,1,0-7.71,7.71A7.71,7.71,0,0,0,172.85,240Z"/><path class="cls-9" d="M181.36,232.26h23.41a.32.32,0,0,1,.32.32V234a.32.32,0,0,1-.32.32H181.36A.31.31,0,0,1,181,234v-1.39A.32.32,0,0,1,181.36,232.26Z"/><rect class="cls-9" x="181.04" y="239.42" width="51.84" height="2.02" rx="0.32"/><rect class="cls-9" x="181.04" y="244.81" width="39.93" height="2.02" rx="0.32"/><path class="cls-9" d="M174.51,260a2.43,2.43,0,1,0-2.42,2.42A2.42,2.42,0,0,0,174.51,260Z"/><circle class="cls-9" cx="187.14" cy="259.97" r="2.43" transform="translate(-79.33 437.72) rotate(-87.96)"/><path class="cls-9" d="M201,262.39a2.43,2.43,0,1,0-2.43-2.42A2.42,2.42,0,0,0,201,262.39Z"/><path class="cls-31" d="M681.06,154.49H605.47a6.73,6.73,0,0,0-6.73,6.73v33.43a6.72,6.72,0,0,0,6.73,6.72h7.4v13l8-13h60.2a6.72,6.72,0,0,0,6.73-6.72V161.22A6.73,6.73,0,0,0,681.06,154.49Z"/><path class="cls-9" d="M621,173.1a7.71,7.71,0,1,0-7.71,7.72A7.71,7.71,0,0,0,621,173.1Z"/><path class="cls-9" d="M629.55,165.39H653a.31.31,0,0,1,.31.31v1.39a.31.31,0,0,1-.31.31H629.55a.32.32,0,0,1-.32-.32v-1.39A.32.32,0,0,1,629.55,165.39Z"/><path class="cls-9" d="M629.55,172.55h51.21a.31.31,0,0,1,.31.31v1.39a.31.31,0,0,1-.31.31H629.55a.32.32,0,0,1-.32-.32v-1.39A.31.31,0,0,1,629.55,172.55Z"/><path class="cls-9" d="M629.55,177.94h39.3a.31.31,0,0,1,.31.31v1.39a.32.32,0,0,1-.32.32h-39.3a.32.32,0,0,1-.32-.32v-1.39A.32.32,0,0,1,629.55,177.94Z"/><path class="cls-9" d="M622.7,193.1a2.43,2.43,0,1,0-2.42,2.43A2.42,2.42,0,0,0,622.7,193.1Z"/><circle class="cls-9" cx="635.33" cy="193.1" r="2.43"/><path class="cls-9" d="M649.19,195.53a2.43,2.43,0,1,0-2.42-2.43A2.43,2.43,0,0,0,649.19,195.53Z"/><path class="cls-32" d="M301.88,167H287.15a5.55,5.55,0,0,0-5.55,5.55v14.73a5.54,5.54,0,0,0,5.55,5.55h3.73a1.66,1.66,0,0,1,1.59,1.2l2,7.09,2.24-7.13a1.66,1.66,0,0,1,1.58-1.16h3.55a5.54,5.54,0,0,0,5.55-5.55V172.59A5.55,5.55,0,0,0,301.88,167Z"/><path class="cls-9" d="M302.21,175.91c-3.39-4.38-7.86,1-7.86,1s-4.47-5.37-7.86-1,7.86,12.8,7.86,12.8S305.6,180.28,302.21,175.91Z"/><path class="cls-32" d="M795.08,183.9H780.35a5.55,5.55,0,0,0-5.55,5.55v14.73a5.54,5.54,0,0,0,5.55,5.55h3.73a1.65,1.65,0,0,1,1.58,1.2l2.05,7.09,2.24-7.13a1.64,1.64,0,0,1,1.57-1.16h3.56a5.55,5.55,0,0,0,5.55-5.55V189.45A5.56,5.56,0,0,0,795.08,183.9Z"/><path class="cls-9" d="M795.41,192.77c-3.39-4.38-7.86,1-7.86,1s-4.48-5.37-7.86-1,7.86,12.8,7.86,12.8S798.79,197.14,795.41,192.77Z"/><path class="cls-31" d="M466.91,157.3H452.18a5.54,5.54,0,0,0-5.55,5.55v14.73a5.55,5.55,0,0,0,5.55,5.55h3.73a1.65,1.65,0,0,1,1.58,1.19l2.05,7.1,2.24-7.13a1.64,1.64,0,0,1,1.57-1.16h3.56a5.56,5.56,0,0,0,5.55-5.55V162.85A5.55,5.55,0,0,0,466.91,157.3Z"/><path class="cls-9" d="M467.61,165.6a4,4,0,1,0-4,4A4,4,0,0,0,467.61,165.6Z"/><path class="cls-9" d="M457.88,175.87h11.44s-.28-4.75-5.72-4.75S457.88,175.87,457.88,175.87Z"/><path class="cls-9" d="M453.6,166.08v2.62h2.52v.67H453.6V172h-.71v-2.64h-2.52v-.67h2.52v-2.62Z"/><path class="cls-31" d="M773.17,226.93H758.44a5.56,5.56,0,0,0-5.55,5.55v14.73a5.55,5.55,0,0,0,5.55,5.55h3.73a1.65,1.65,0,0,1,1.59,1.19l2,7.1,2.24-7.13a1.64,1.64,0,0,1,1.57-1.16h3.55a5.54,5.54,0,0,0,5.55-5.55V232.48A5.55,5.55,0,0,0,773.17,226.93Z"/><path class="cls-9" d="M773.88,235.24a4,4,0,1,0-4,4A4,4,0,0,0,773.88,235.24Z"/><path class="cls-9" d="M764.15,245.51h11.44s-.29-4.76-5.72-4.76S764.15,245.51,764.15,245.51Z"/><path class="cls-9" d="M759.87,235.71v2.62h2.52V239h-2.52v2.64h-.71V239h-2.52v-.67h2.52v-2.62Z"/><circle class="cls-33" cx="757.21" cy="84.27" r="13.24" transform="matrix(0.99, -0.14, 0.14, 0.99, -4.37, 105.84)"/><path class="cls-34" d="M780.93,70.05a4.38,4.38,0,0,1-3-1.2c-6.95-6.55-14.14-9.74-21.38-9.46-11.27.43-19.31,9.12-19.39,9.21a4.41,4.41,0,0,1-6.56-5.91c.42-.47,10.49-11.49,25.5-12.11,9.72-.41,19.11,3.58,27.89,11.85a4.41,4.41,0,0,1-3,7.62Z"/><path class="cls-35" d="M794.66,50.93a4.41,4.41,0,0,1-3-1.2C780.08,38.85,768,33.56,755.85,34.05c-19,.75-32.31,15.28-32.45,15.42a4.41,4.41,0,0,1-6.56-5.9c.64-.71,15.86-17.38,38.56-18.33,14.69-.62,28.91,5.46,42.29,18.07a4.41,4.41,0,0,1-3,7.62Z"/><path class="cls-36" d="M809.12,32.3a4.4,4.4,0,0,1-3-1.2c-16.4-15.45-33.54-22.94-51-22.23-27,1.09-46,21.76-46.21,22a4.41,4.41,0,0,1-6.56-5.9c.86-1,21.53-23.6,52.32-24.88,19.91-.84,39.24,7.45,57.45,24.61a4.41,4.41,0,0,1-3,7.63Z"/></g></g></svg>