<svg id="Layer_1" data-name="Layer 1" xmlns="http://www.w3.org/2000/svg" xmlns:xlink="http://www.w3.org/1999/xlink" viewBox="0 0 942.93 407.48"><defs><style>.cls-1{fill:#f39e8f;opacity:0.4;}.cls-2{fill:#b0d4ff;}.cls-3{fill:#8bb9ef;}.cls-4{fill:#77a4e5;}.cls-5{fill:#9fc3f7;}.cls-6{fill:#8bb3ee;}.cls-7{fill:#ffb27d;}.cls-8{fill:#d9ecff;}.cls-9{fill:#fff;}.cls-10{fill:#f4904d;}.cls-11{fill:#ffa561;}.cls-12{fill:#ed985f;}.cls-13{fill:#2b478b;}.cls-14{fill:#2a4e96;}.cls-15{fill:#193d77;}.cls-16{fill:#d2e3fc;}.cls-17{fill:#afcdfb;}.cls-18{fill:#f2a470;}.cls-19{fill:#2c3a64;}.cls-20{fill:#9e332e;}.cls-21{fill:#b5453c;}.cls-22{fill:#e8945b;}.cls-23{fill:#233862;}.cls-24{fill:#163560;}.cls-25{fill:#f4a269;}.cls-26{fill:#83caf9;}.cls-27{fill:#db2d7c;}.cls-28{fill:url(#linear-gradient);}.cls-29{fill:url(#linear-gradient-2);}.cls-30{fill:url(#linear-gradient-3);}.cls-31{fill:url(#linear-gradient-4);}</style><linearGradient id="linear-gradient" x1="739.97" y1="114.27" x2="766.45" y2="114.27" gradientTransform="translate(23.13 -103.37) rotate(7.97)" gradientUnits="userSpaceOnUse"><stop offset="0" stop-color="#e4e1fd"/><stop offset="1" stop-color="#cdc5fc"/></linearGradient><linearGradient id="linear-gradient-2" x1="725.45" y1="90.3" x2="781.34" y2="90.3" gradientTransform="matrix(1, 0, 0, 1, 0, 0)" xlink:href="#linear-gradient"/><linearGradient id="linear-gradient-3" x1="711.71" y1="68.06" x2="795.07" y2="68.06" gradientTransform="matrix(1, 0, 0, 1, 0, 0)" xlink:href="#linear-gradient"/><linearGradient id="linear-gradient-4" x1="697.25" y1="46.15" x2="809.54" y2="46.15" gradientTransform="matrix(1, 0, 0, 1, 0, 0)" xlink:href="#linear-gradient"/></defs><title>family-mobile</title><path class="cls-1" d="M30.36,407.48c-4.91,0-5.17-.06-9.72-3.75C1.39,388.11-4,364.09,2.83,340.79c8.5-28.94,30.62-52.76,54-70.84,16.93-13.12,37.82-24.09,50.68-41.67,14.73-20.15,10.34-46,3.45-68.31-5.35-17.31-6.5-34.85-.55-52.2,4.35-12.69,11.79-24.12,20.65-34.12,31.61-35.66,79.47-58,125.62-67.12C292.76-.6,330.07-1.83,366.76.39c35.8,2.16,71.95,7.4,106,18.87a253.69,253.69,0,0,1,86.07,49.16c13.47,11.6,25.41,24.78,38.47,36.81,12.23,11.28,25.29,19.91,42.48,19.39,16.77-.49,33.41-4.78,49.88-7.65,17.16-3,34.48-5.19,51.91-5.24a199.06,199.06,0,0,1,102.65,28.35c26.92,16,52.29,37.3,70.28,63.12,19.47,27.94,29,61.27,28.3,95.26,0,1.82.24-11.27,0,0-.72,32.48-9.89,64.8-24.36,93.77-1.08,2.18-6.11,15.15-8.41,15.15Z"/><path class="cls-2" d="M568.78,310.89c-1.1,2.61-11.67,5-27.34,7.17-2.76.38-5.68.75-8.74,1.11-53.35,6.28-199.47,9.79-208.48,7.94C311.78,324.55,287,199.39,287,199.39s72.92-1.26,130.83-1.88c19.81-.2,88.72-.73,101.5-.73C539.13,196.78,570.55,306.66,568.78,310.89Z"/><path class="cls-2" d="M548.59,294.82s-22.38-85.75-24-93a5.66,5.66,0,0,0-5.17-4.67c3.93-.38,6.79-.41,6.79-.41a18.18,18.18,0,0,1,17.12,13c5.42,16.9,16.19,49.36,26.31,81.1C569.12,290.83,548.59,294.82,548.59,294.82Z"/><path class="cls-2" d="M684.28,370.75C680.71,392.26,657.37,406,633.42,406H586l3.68-124.28s45.28-14.76,56.65-1.77c10,11.39,37,56.44,38.38,83.1A35.86,35.86,0,0,1,684.28,370.75Z"/><path class="cls-3" d="M684.28,370.75C680.71,392.26,657.37,406,633.42,406H610.15C625.67,396.07,639.7,365.6,684.28,370.75Z"/><path class="cls-4" d="M558.38,293.86s64-30.71,76.1-10.65c6.43,10.65,24.14,53.14,25.45,79.8C661.2,388.92,637.32,406,612.77,406H569.15Z"/><path class="cls-5" d="M642.68,385c-.71.57-1.44,1.13-2.18,1.68-9.24,6.81-21.3,12.23-35.08,15.59a138.21,138.21,0,0,1-33.76,3.79h-21l-98.18,0h-57.1v0l-2-10.22-17.81-103s246.59-5.55,266.64,5.9c9.31,5.31,14.59,27.32,17.52,51.58C661.31,363.29,654.7,375.41,642.68,385Z"/><path class="cls-6" d="M642.68,385c-.71.57-1.44,1.13-2.18,1.68-9.24,6.81-21.3,12.23-35.08,15.59a138.21,138.21,0,0,1-33.76,3.79h-21l-98.18,0H396.19l-.83,0-2-10.22c34.49-6.66,82.22-13.43,132-12.91C573,383.49,612.77,383.42,642.68,385Z"/><path class="cls-7" d="M473.91,198.14a9.21,9.21,0,0,1-1.78-.92h13s-5-2.82-8.22-4.26-11.18,0-11.18,0-29.38-4.37-45.85-4c-4.42.11-35.85-5-44.9-3.2-4.77,1-9.1,1.71-11.88,2.17a3,3,0,0,1-3.42-2.66v0a78.17,78.17,0,0,0-1.25-9.27l-11.05-5.35-5.56,3c.06.62.1,1.22.12,1.81a32.22,32.22,0,0,1-.76,8.12,12.08,12.08,0,0,1-8.73,9h-.06c8.29,7.14,50.45,19.57,51.16,15.92,1-4.9,82.19-11.22,82.19-11.22h0s2.27.85,2.83,1.66,5.09.69,5.94.81S474.9,198.45,473.91,198.14Z"/><path class="cls-8" d="M502.74,378.44s8.56,15.45,12.36,17.2c3,1.38,11.17,2.75,15.72,6.25,5.27,4.06-3.86,3.84-5.87,3.84,0,0-10.21-1.21-15.05-1.11-2.79.06-11.09,1.11-11.09,1.11a10.46,10.46,0,0,1-10.31-12.37,1.16,1.16,0,0,1,0-.18c1.18-6,2.1-13.67,2.1-13.67Z"/><path class="cls-9" d="M396,194.91c-.18,4-1.3,8.42-4.88,10.74-5.65,3.67-4.22,13.24-4.18,17L362.72,188a119.6,119.6,0,0,1,14.74-2.59c4.88-.53,17.73.94,17.73.94A34,34,0,0,1,396,194.91Z"/><path class="cls-9" d="M465.32,384.49s8.54,9.4,12.33,11.15c2.71,1.24,10,2,14.35,5.12,4.59,3.33,1.08,5-1.59,5,0,0-12.2,1-20-1.22-2.12-.59-7.92.59-10,1.05a42.15,42.15,0,0,1-5.25.39c-4.74-.61-5-5.15-4.51-10a25.63,25.63,0,0,1,.39-2.73c1.18-6,1.89-11.52,1.89-11.52Z"/><path class="cls-10" d="M507.39,379.32a27.84,27.84,0,0,1-5.79,3.06c-4.27,1.42-12.23.76-12.23.76s-20.32-39.42-24.61-49.39c-4.07-9.46-7.47-30.18-7.47-30.18-3.1-.17-26.32,3.12-46.71.91-10.85-1.17-20-3.85-23.14-9.33-9-15.78,19.67-33.38,19.67-33.38s56,10.09,68.27,19C487,289.26,507.39,379.32,507.39,379.32Z"/><path class="cls-11" d="M468.36,384a31.88,31.88,0,0,1-7.16,2.76,26.43,26.43,0,0,1-10.64-.84s-3.12-18.89-15.94-49.1c-3.21-7.58-2.72-23.13-3.15-23.32,0,0-70,.6-78.15-15.13-1.32-2.55-2.79-9.74-2.62-12.08.85-12.43,17-17.23,17-17.23s73,12.91,85.52,21.52S468.36,384,468.36,384Z"/><path class="cls-9" d="M413,262.28c-4.25,7.6-8.68,13.6-25,16.42-20.52,3.55-31.76,7.89-37.45,9.61-4.34,1.31-16.84-14.61-22.79-28.82-5.77-13.75-10.67-35.19-10.71-36.84C316.58,197.11,336,191,336,190.91s14.42,9.8,22.27,6.4,4.55-9.14,4.45-9.31l20.81,20.43s4.69,17.94,10.34,30.95C402.43,259.11,414.17,260.2,413,262.28Z"/><path class="cls-12" d="M358.41,176a78.17,78.17,0,0,1,1.25,9.27c-9.38-.31-16.81-10-16.86-10.65,1.13-.6,2.27-2.75,4.56-4Z"/><path class="cls-7" d="M360.6,182s-19.74-.57-19.2-12.85-1.65-20.64,11-20.8,14.87,4.64,15.68,8.78S365.75,181.82,360.6,182Z"/><path class="cls-13" d="M342.46,174.1s-.79-4.08,1.43-6.78c0,0-1.45-4,.08-4.91s2.36,2.52,3,1.87a16.85,16.85,0,0,0,4.55-7.69c.9-4,14.6-1.19,16.22-.72a2,2,0,0,0,1,0,4.49,4.49,0,0,0,1.8-7.68,4.63,4.63,0,0,1-.45-.42c-1.45-1.47-11.53-11.3-23.06-6.52s-12.38,10.7-11,15.5S337.34,173.14,342.46,174.1Z"/><path class="cls-7" d="M316.09,213.05s-2.75,4.38,5.2,15.89,42.8,44.81,46.28,42,7.82-7.14-.25-17.83-33.91-47.29-33.91-47.29Z"/><path class="cls-9" d="M352.51,228.82c-6.58,3.67-11.41,6.6-21.48,6.58a67.74,67.74,0,0,1-13.83-1.5s-7.78-31.66,6.77-38.18c5-2.24,12-4.81,12-4.81S364.29,222.25,352.51,228.82Z"/><path class="cls-14" d="M398.57,232.29l-8.19-.95a1.28,1.28,0,0,1-.94-1.85l6.25-18.07a2.14,2.14,0,0,1,2.09-1.49l8.2.95c.84.09,1.26.92.94,1.85l-6.25,18.07A2.16,2.16,0,0,1,398.57,232.29Z"/><path class="cls-15" d="M400.18,232.48l-8.19-.95a1.28,1.28,0,0,1-.94-1.85l6.24-18.07a2.17,2.17,0,0,1,2.1-1.5l8.19.95a1.29,1.29,0,0,1,.95,1.85L402.28,231A2.16,2.16,0,0,1,400.18,232.48Z"/><path class="cls-9" d="M398.5,212.08a.79.79,0,0,1,.74-.53c.28,0,.4.32.26.65a.78.78,0,0,1-.74.52C398.48,212.69,398.37,212.4,398.5,212.08Z"/><path class="cls-9" d="M399.94,212.31a.48.48,0,0,1,.44-.32c.17,0,.24.2.16.39a.48.48,0,0,1-.44.31C399.93,212.67,399.86,212.5,399.94,212.31Z"/><path class="cls-7" d="M391.44,223s-25.61,25.55-28.72,29.7,2.79,18.47,3.82,18.36,12.55-10.52,16.71-19.2,11.81-21.25,11.81-21.25Z"/><path class="cls-7" d="M394.78,233.82s5.35-3.53,8.1-5.21,5-12.58,3.75-12.4S394.75,221,391.2,226.29,394.78,233.82,394.78,233.82Z"/><path class="cls-7" d="M389.72,227.17s1-3.8.85-4.43,2-3.86,2.48-5.06,1.08-3.07,1.72-2.23.47,2.55,0,3.85.75,3.35.75,3.35L394,225.23Z"/><path class="cls-16" d="M444,371.88C440.19,392.74,419.08,406,397.45,406H353.83l3.41-125.38s41.62-13.66,52.07-.67c9.16,11.39,34,56.44,35.3,83.1A38,38,0,0,1,444,371.88Z"/><path class="cls-17" d="M444,371.88C440.19,392.74,419.08,406,397.45,406h-34.9C378.88,395.55,400.88,366.78,444,371.88Z"/><path class="cls-4" d="M419.08,372.75a38.26,38.26,0,0,1-12.24,20.67h0a48.15,48.15,0,0,1-12.39,7.95,53.72,53.72,0,0,1-18,4.49l-1,.06-.78,0-1.3,0H329.05v0l-2.52,0-13.53.14h-2.94c-4.3,0-8.1,0-10.81,0a76.57,76.57,0,0,1-10.79-.78,50.69,50.69,0,0,1-12-3.23c-.65-.28-1.3-.56-1.93-.86s-1.27-.63-1.89-1a38.78,38.78,0,0,1-4.73-3,40.92,40.92,0,0,1-10.06-11.11,58.74,58.74,0,0,1-5.23-10.72,97.33,97.33,0,0,1-4.5-16.71q0-.22-.09-.48c-.52-2.87-1-5.9-1.36-9.08-.17-1.44-.34-2.92-.48-4.43q-.78-8-1-17.23c0-.54,0-1.08,0-1.62,0-.12,0-.24,0-.36-.11-4.9-.11-10,0-15.47q.06-3.56.18-7.27l.12-3.42q.34-8.64,1-18.12c.18-2.84.39-5.73.61-8.69q1.4-18.26,3.74-39.54c1.77-16.12,3.81-27.39,6.77-30,4.37-3.79,13.48-5.31,19.82-5.92h0c3.93-.38,6.79-.41,6.79-.41h.72l.72,0,.41,0,.26,0,.4.06.7.11.48.1h0l.35.08.65.18.44.13.3.1a17.38,17.38,0,0,1,3.47,1.61,18.94,18.94,0,0,1,8.18,10.49c5.06,15.82,14.1,44.11,23.5,73.7.05.14.1.29.14.44l1.63,5.11.16.52.09.26,1.64-.69.06,0c2.26-.94,4.81-2,7.56-3h0c1.42-.54,2.9-1.1,4.43-1.65,4.3-1.55,8.95-3.08,13.66-4.4,2.09-.59,4.19-1.14,6.28-1.62,2.69-.63,5.35-1.16,7.95-1.55l.23,0,.91-.13c1.84-.25,3.63-.43,5.36-.53h0c8.87-.51,16.21,1.15,19.57,6.73a106.77,106.77,0,0,1,4.86,9.55,306,306,0,0,1,12.89,33.74c4,12.75,7.18,26,7.7,36.75A38.51,38.51,0,0,1,419.08,372.75Z"/><path class="cls-16" d="M306.45,294.82s-22.39-85.75-24-93a5.66,5.66,0,0,0-5.17-4.67c3.93-.38,6.79-.41,6.79-.41a18.18,18.18,0,0,1,17.12,13c5.42,16.9,15.4,48.06,25.52,79.8C326.19,289.53,306.45,294.82,306.45,294.82Z"/><path class="cls-18" d="M493.07,232.28s2.46,6.38,18.64,7.85,23.67,2.52,33.66-7.43a110.29,110.29,0,0,0,8.42-9l-1.74-3.3s-16.83,10.29-20.13,10.31C511.43,230.91,491.42,221.63,493.07,232.28Z"/><path class="cls-9" d="M502.26,226.59l15.87,3.13a7.83,7.83,0,0,1-2.92,8.06C510.9,241.3,502.26,226.59,502.26,226.59Z"/><path class="cls-18" d="M536.66,240.16s-29.15,40.38-22.37,46.46,12.91,5.1,19.64,3.8,15.67-34.73,15.14-38.71S544.69,235.52,536.66,240.16Z"/><path class="cls-18" d="M536.66,240.16s.15,14.13,3.12,25.1,7,26.14,7,26.14h8s-3.39-41.5-3.19-46.57S545.78,231.4,536.66,240.16Z"/><path class="cls-19" d="M525.28,257.24s-1.71,17.92,16.39,21.77c0,0-1.61,12.9-8.22,13.9s-28.3-.2-32.67-2.49C500.78,290.42,512.18,270.73,525.28,257.24Z"/><path class="cls-9" d="M554.4,287.57s3.69,4.87,5.68,5.14,6.37,1.19,6,2.92-7.38,2.51-11.65,1.72-8.65,1.5-7.65-6l-2-7.62a18.79,18.79,0,0,0,9.25-1.45l.39,4.14Z"/><path class="cls-9" d="M515.81,239.48c-.23-5.09-1.08-8.33-5.82-10.18-7-2.75-20.92-3.05-29.61,2.23-1.49.9-5.44,10.83-2.17,32.34,2.15,14.22,4.69,28.82,21.77,27.06s26.12-2.74,25.33-6.64-8-21.4-8.57-28.05C516.43,252.44,516.07,245.09,515.81,239.48Z"/><path class="cls-7" d="M525.36,240.16S496.21,280.54,503,286.62s12.91,5.1,19.63,3.8,15.67-34.73,15.14-38.71S533.38,235.52,525.36,240.16Z"/><path class="cls-7" d="M525.36,240.16s.15,14.13,3.12,25.1,7,26.14,7,26.14h8s-3.38-41.5-3.18-46.57S534.47,231.4,525.36,240.16Z"/><path class="cls-14" d="M514,257.24s-1.72,17.92,16.38,21.77c0,0-1.6,12.9-8.21,13.9s-28.3-.2-32.68-2.49C489.47,290.42,500.88,270.73,514,257.24Z"/><path class="cls-9" d="M543.09,287.57s3.7,4.87,5.69,5.14,6.36,1.19,6,2.92-7.39,2.51-11.66,1.72-8.64,1.5-7.65-6l-2-7.62a18.79,18.79,0,0,0,9.25-1.45l.39,4.14Z"/><path class="cls-20" d="M555.45,217.39l-15,1.72c-.44,0-.76.27-.8.52l-1.11,8.73c0,.38.57.67,1.22.57l14.59-2.25c.4-.07.69-.26.73-.49l1.52-8.2C556.67,217.61,556.09,217.31,555.45,217.39Z"/><path class="cls-21" d="M556.75,217.24l-15,1.72c-.44,0-.76.26-.8.52l-1.11,8.72c-.05.39.57.68,1.22.58l14.59-2.26c.4-.06.69-.25.73-.49l1.52-8.19C558,217.46,557.39,217.16,556.75,217.24Z"/><path class="cls-7" d="M557.64,219.26a4.26,4.26,0,0,0-2.32-1.43c-1.76-.22-1.83,1.6-1.09,2.92s2.48,2.52,2.8,2.29S558.41,220.55,557.64,219.26Z"/><path class="cls-7" d="M557.64,219.26a4.39,4.39,0,0,1-.94,5.1Z"/><path class="cls-7" d="M480.47,236.43s2.46,6.38,18.65,7.85,23.66,2.52,33.66-7.43a110.52,110.52,0,0,0,8.41-9l-1.74-3.3s-16.83,10.28-20.13,10.31C498.83,235.05,478.83,225.78,480.47,236.43Z"/><path class="cls-7" d="M548.68,223.21c-.61-.12-1.92-.61-3.24-1a2.76,2.76,0,0,0,1-1.07c.23-.75.39-1-.4-.75s-3.55,1.5-3.55,1.5h0c-1.57.46-3,2.68-3,2.68l1.74,3.3a8.08,8.08,0,0,1,3.94-.7c1.74.32,5.76,0,6.63-1.42S549.71,223.41,548.68,223.21Z"/><path class="cls-9" d="M494.69,226.3s-5.35-1-11.72,2.86-4.51,13-4.51,13l7.43,2.78s-2.19-12.23,8.7-14.62Z"/><path class="cls-7" d="M501.33,232a3.18,3.18,0,0,0,2.19-4.83,8.19,8.19,0,0,1-.86-2c-.06-.21-.11-.42-.16-.63a16.46,16.46,0,0,1-.18-5c0-.12,0-.24,0-.36a17.31,17.31,0,0,1,.41-2.28l-10-5.18a32.63,32.63,0,0,1-.29,7,27.63,27.63,0,0,1-2,7.09h0c-.31,4,4.45,4.87,8.46,6a5.4,5.4,0,0,0,2.23.21Z"/><path class="cls-22" d="M502.66,225.15c-4.26.38-10.17-6.43-10.17-6.43,4.35-.78,7.67-.24,9.83.8a16.17,16.17,0,0,0,.19,5Q502.57,224.83,502.66,225.15Z"/><path class="cls-7" d="M505.28,221.36s-11.37,2.95-15.24-6.1c-4.19-9.76.48-16.84,4.34-17.3,7.7-.92,12.15,2,13.49,5.14S511.55,219.79,505.28,221.36Z"/><path class="cls-9" d="M500.8,216.26s.47,1.17,3.47.53c0,0,2.52-.54,2.24-1.87A8.27,8.27,0,0,0,500.8,216.26Z"/><path class="cls-19" d="M492.05,218.43s-1.32-3.91-1.15-6c0,0-2.94-3.79-1.21-4.72s2.65,1.31,3.05.88,1.05-7.86,3.14-7.62,9.85,2.69,13.26-.23-4.78-14.42-18.79-10.05S479.14,210.61,492.05,218.43Z"/><path class="cls-19" d="M483.43,196.75a4.89,4.89,0,0,1,.06-3.24,5.13,5.13,0,0,0,.75,2.69C485,197,483.43,196.75,483.43,196.75Z"/><path class="cls-19" d="M483.73,195.43a2.82,2.82,0,0,0-2.56,1.12,2.25,2.25,0,0,1,2.45.06Z"/><path class="cls-9" d="M504.67,268.06s-2.06,19.47-9.23,23.85-16.11-11.53-16.22-21.82S504.67,268.06,504.67,268.06Z"/><path class="cls-11" d="M914.35,406.94l-184.6-1c-27.4-31.55-30.28-73.17,6.33-108.9,4.61-4.49,13.42-7.66,22.92-9.89,17.52-4.1,37.36-5,37.52-5.07s10.51-8.45,16.81-16c19.57-23.54,36.15-21.46,36.15-21.46,19.88-3.8,36.84-4.88,49.38,2.15h0c11.62,6.53,19.46,20,22.33,44.79.55,4.69.91,9.78,1.1,15.3.65,20.09,4.56,38,6.86,53.12h0C932.49,381.92,932.47,398.11,914.35,406.94Z"/><path class="cls-10" d="M888.93,272c-12.07,6.53-13.48,28.16-32.37,33.69s-50.92,4.91-69.15,24.57c-17.59,19-36.77-29.49-28.41-43.07,17.52-4.1,37.36-5,37.52-5.07s10.51-8.45,16.81-16c19.57-23.54,36.15-21.46,36.15-21.46,19.88-3.8,36.84-4.88,49.38,2.15h0C905.22,253.75,901,265.45,888.93,272Z"/><path class="cls-23" d="M814.9,278s-60.51-1-68.58,4.18,8.07,87.12,8.07,87.12,15.65.5,16.89-3.64c0,0-2.81-38.42-.35-45.06s.94-15.83.94-15.83,30.61,4.67,40.33,2.37S814.9,278,814.9,278Z"/><path class="cls-7" d="M829,235.65s-8.57,19.82-12.73,21.92-19.23,19.32-22.45,19,3.76,2.63,3.76,2.63,26.3-12,27.83-12.79,9.61-14,10.73-20.67S829,235.65,829,235.65Z"/><path class="cls-9" d="M757.7,365.09s3.44,9.23,2.71,12.65.45,10.05-.95,13-3.9,7.28-1.5,8.37c.91.41,11.51-7.8,12.11-10.23s1.08-9.58,3.11-13.46.33-7-2.6-8.45-7-9.25-7-9.25Z"/><path class="cls-9" d="M747.42,380.28s-3.31,9.26-6.08,11.41-6.14,8-9.13,9.33-7.67,3-6.54,5.42c.43.91,13.83,1.46,15.85,0s7-6.62,11.07-8.28,4.77-5.15,3.46-8.13.6-11.6.6-11.6Z"/><path class="cls-24" d="M846.43,226.9c-1.23-1.42,18.24-7.23,22.35,8.75,0,0,35.84-9.43,13.87-25.44-7.61-5.55-8.36-11.44-9.45-16.84s-8.65-20.92-21.87-13.26c0,0-6,0-9.85,3.3C832.78,190.91,823.16,238.67,846.43,226.9Z"/><path class="cls-14" d="M840.17,280.84s-62.76,6.21-68.3,12.6-27.44,89.61-27.44,89.61,6.39,3.59,12.22.27c0,0,16.68-28.21,24.05-37.06s10.2-36.22,11.42-36.5,40.51,5.6,54.09-4.75S840.17,280.84,840.17,280.84Z"/><path class="cls-9" d="M875.28,224a65.35,65.35,0,0,0-33.94-3.72c-3.88.61-7.37,1.88-10.16,6.44-3.94,6.44-5.78,9.9-5.78,9.9s.37,3,5.71,5.39c-1.47,5.34,1.29,14.7-1.29,18.32s-18.55,12.56-19.36,17.56c-1.47,9.19,27.18,25.93,35.75,24.17C870.85,297,887.76,231.07,875.28,224Z"/><path class="cls-24" d="M866.86,205.05s3-5.8,3.38-10.56c.28-3.4-2.55-15.65-14.85-12.73a17,17,0,0,0-6.78,3.3c-2.54,2.08-6.08,6.38-.73,16.8l1.47,3.55Z"/><path class="cls-7" d="M850,224.58c-1.25,1.31-.77,5.67,5,5.36,3.82-.21,12-4.9,11.26-8.17-.36-1.55-3.28-5.56-3.94-14.76l-.7.19L850,210.44s.55,3.71.82,7.22C851,220.61,850.47,224,850,224.58Z"/><path class="cls-25" d="M850,210.44s.55,3.71.82,7.22c6.62-.69,9.66-7,10.84-10.46Z"/><path class="cls-7" d="M849.69,215.83S865,212,862.45,202.57s-2.23-16.34-12.08-14.31-10.78,6.13-10.71,9.49S845.66,216.57,849.69,215.83Z"/><path class="cls-24" d="M843.38,189.87s5.1,9.77,14.75,10.85c5.66.63,7.2,4.36,7.2,4.36s-1.67-10.66-4.49-17.18C860.84,187.9,845.12,183.75,843.38,189.87Z"/><path class="cls-24" d="M845.13,191.16s-3.35,3.4-4.39,5.8c-1.53,3.56,1.42,11.06,2.64,12.68,0,0-7.06-12.06-4.67-17.27C841.24,186.85,845.13,191.16,845.13,191.16Z"/><path class="cls-7" d="M798.36,278.86s-3,3.21-3.41,3.38c-2,.93-4.55.38-5.77.68s-1-.45-.11-1.07,3.13-.37,2.22-.6-5.82-1.15-7.67-.66c-2.93.77-5.23-.16-5.41-.46s6.69-3.63,8.65-3.51,7.6-.14,7.6-.14Z"/><path class="cls-7" d="M880.42,230s18.79,42.78,13.52,49-41.64-1.47-41.64-1.47l1.14-4s26.79-1.55,28.7-2.09c2.74-.76-13.48-30.78-13.48-30.78Z"/><path class="cls-9" d="M873.38,223.29c.46,0,6.11,1.89,10.15,9.94s5.4,11.74,5.4,11.74-17.73,13.67-24.75,8.6S866.89,223.11,873.38,223.29Z"/><path class="cls-7" d="M856.56,273.37s-3-2-4.26-3.07-8.34-2-8.34-1.26,4.14,1.71,4.59,2.43,3,3.7,5.14,3.7A3.08,3.08,0,0,0,856.56,273.37Z"/><path class="cls-23" d="M815.58,249.12,842.29,254a2.35,2.35,0,0,1,1.74,1.45L852.5,280c.37,1.08-.46,1.9-1.63,1.62l-26.43-6.34a2.34,2.34,0,0,1-1.61-1.38l-8.75-23.05A1.23,1.23,0,0,1,815.58,249.12Z"/><path class="cls-14" d="M813.26,248.69,840,253.55a2.33,2.33,0,0,1,1.74,1.45l8.47,24.54c.37,1.07-.46,1.89-1.63,1.61l-26.43-6.34a2.35,2.35,0,0,1-1.61-1.37l-8.75-23.06C811.36,249.33,812.11,248.49,813.26,248.69Z"/><path class="cls-9" d="M827.51,263c-.29-.87.2-1.38,1.1-1.13a3.44,3.44,0,0,1,2.13,2c.29.87-.2,1.38-1.09,1.13A3.48,3.48,0,0,1,827.51,263Z"/><path class="cls-9" d="M814,251c-.14-.42.1-.67.54-.55a1.7,1.7,0,0,1,1,1c.15.43-.09.68-.53.56A1.71,1.71,0,0,1,814,251Z"/><path class="cls-7" d="M852.3,277.52a54.79,54.79,0,0,1-6.9-.28c-1.39-.33-4.91-4.73-4-5.83.59-.69,3.89.57,5.46.57s5.66-2.26,8.44,2.4C855.66,274.9,852.3,277.52,852.3,277.52Z"/><path class="cls-11" d="M876,288.1s-6,5.55-30.84,6.27-57.39,28.11-57.72,35.87,50,19.71,50.81,18.6,32-27.79,32-27.79Z"/><path class="cls-10" d="M929.15,360c-13.33-24.15-44,9-51.57-2.25S888.39,332.23,905,320c16.25-12,16.22-27.77,16.21-28.41.55,4.69.91,9.78,1.1,15.3C922.94,327,926.85,344.84,929.15,360Z"/><path class="cls-26" d="M499.06,113.49H423.47a6.73,6.73,0,0,0-6.73,6.73v33.43a6.72,6.72,0,0,0,6.73,6.72h7.4v13l8-13h60.2a6.72,6.72,0,0,0,6.73-6.72V120.22A6.73,6.73,0,0,0,499.06,113.49Z"/><path class="cls-9" d="M439,132.1a7.71,7.71,0,1,0-7.71,7.72A7.71,7.71,0,0,0,439,132.1Z"/><path class="cls-9" d="M447.55,124.39H471a.31.31,0,0,1,.31.31v1.39a.31.31,0,0,1-.31.31H447.55a.32.32,0,0,1-.32-.32v-1.39A.31.31,0,0,1,447.55,124.39Z"/><path class="cls-9" d="M447.55,131.55h51.21a.31.31,0,0,1,.31.31v1.39a.31.31,0,0,1-.31.31H447.55a.32.32,0,0,1-.32-.32v-1.39A.31.31,0,0,1,447.55,131.55Z"/><path class="cls-9" d="M447.55,136.94h39.3a.31.31,0,0,1,.31.31v1.39a.32.32,0,0,1-.32.32h-39.3a.32.32,0,0,1-.32-.32v-1.39A.32.32,0,0,1,447.55,136.94Z"/><path class="cls-9" d="M440.7,152.1a2.43,2.43,0,1,0-2.42,2.43A2.42,2.42,0,0,0,440.7,152.1Z"/><circle class="cls-9" cx="453.33" cy="152.1" r="2.43"/><path class="cls-9" d="M467.19,154.53a2.43,2.43,0,1,0-2.42-2.43A2.43,2.43,0,0,0,467.19,154.53Z"/><path class="cls-26" d="M655.06,144.49H579.47a6.73,6.73,0,0,0-6.73,6.73v33.43a6.72,6.72,0,0,0,6.73,6.72h7.4v13l8-13h60.2a6.72,6.72,0,0,0,6.73-6.72V151.22A6.73,6.73,0,0,0,655.06,144.49Z"/><path class="cls-9" d="M595,163.1a7.71,7.71,0,1,0-7.71,7.72A7.71,7.71,0,0,0,595,163.1Z"/><path class="cls-9" d="M603.55,155.39H627a.31.31,0,0,1,.31.31v1.39a.31.31,0,0,1-.31.31H603.55a.32.32,0,0,1-.32-.32v-1.39A.31.31,0,0,1,603.55,155.39Z"/><path class="cls-9" d="M603.55,162.55h51.21a.31.31,0,0,1,.31.31v1.39a.31.31,0,0,1-.31.31H603.55a.32.32,0,0,1-.32-.32v-1.39a.31.31,0,0,1,.31-.31Z"/><path class="cls-9" d="M603.55,167.94h39.3a.31.31,0,0,1,.31.31v1.39a.32.32,0,0,1-.32.32h-39.3a.32.32,0,0,1-.32-.32v-1.39A.32.32,0,0,1,603.55,167.94Z"/><path class="cls-9" d="M596.7,183.1a2.43,2.43,0,1,0-2.42,2.43A2.42,2.42,0,0,0,596.7,183.1Z"/><circle class="cls-9" cx="609.33" cy="183.1" r="2.43"/><path class="cls-9" d="M623.19,185.53a2.43,2.43,0,1,0-2.42-2.43A2.43,2.43,0,0,0,623.19,185.53Z"/><path class="cls-27" d="M407.88,122H393.15a5.55,5.55,0,0,0-5.55,5.55v14.73a5.54,5.54,0,0,0,5.55,5.55h3.73a1.66,1.66,0,0,1,1.59,1.2l2,7.09,2.24-7.13a1.66,1.66,0,0,1,1.58-1.16h3.55a5.54,5.54,0,0,0,5.55-5.55V127.59A5.55,5.55,0,0,0,407.88,122Z"/><path class="cls-9" d="M408.21,130.91c-3.39-4.38-7.86,1-7.86,1s-4.47-5.37-7.86-1,7.86,12.8,7.86,12.8S411.6,135.28,408.21,130.91Z"/><path class="cls-27" d="M795.08,166.9H780.35a5.55,5.55,0,0,0-5.55,5.55v14.73a5.54,5.54,0,0,0,5.55,5.55h3.73a1.65,1.65,0,0,1,1.58,1.2l2.05,7.09,2.24-7.13a1.64,1.64,0,0,1,1.57-1.16h3.56a5.55,5.55,0,0,0,5.55-5.55V172.45A5.56,5.56,0,0,0,795.08,166.9Z"/><path class="cls-9" d="M795.41,175.77c-3.39-4.38-7.86,1-7.86,1s-4.48-5.37-7.86-1,7.86,12.8,7.86,12.8S798.79,180.14,795.41,175.77Z"/><path class="cls-26" d="M773.17,209.93H758.44a5.56,5.56,0,0,0-5.55,5.55v14.73a5.55,5.55,0,0,0,5.55,5.55h3.73a1.65,1.65,0,0,1,1.59,1.19l2,7.1,2.24-7.13a1.64,1.64,0,0,1,1.57-1.16h3.55a5.54,5.54,0,0,0,5.55-5.55V215.48A5.55,5.55,0,0,0,773.17,209.93Z"/><path class="cls-9" d="M773.88,218.24a4,4,0,1,0-4,4A4,4,0,0,0,773.88,218.24Z"/><path class="cls-9" d="M764.15,228.51h11.44s-.29-4.76-5.72-4.76S764.15,228.51,764.15,228.51Z"/><path class="cls-9" d="M759.87,218.71v2.62h2.52V222h-2.52v2.64h-.71V222h-2.52v-.67h2.52v-2.62Z"/><circle class="cls-28" cx="753.21" cy="114.27" r="13.24" transform="matrix(0.99, -0.14, 0.14, 0.99, -8.57, 105.57)"/><path class="cls-29" d="M776.93,100.05a4.38,4.38,0,0,1-3-1.2c-6.95-6.55-14.14-9.74-21.38-9.46-11.27.43-19.31,9.12-19.39,9.21a4.41,4.41,0,0,1-6.56-5.91c.42-.47,10.49-11.49,25.5-12.11,9.72-.41,19.11,3.58,27.89,11.85a4.41,4.41,0,0,1-3,7.62Z"/><path class="cls-30" d="M790.66,80.93a4.41,4.41,0,0,1-3-1.2C776.08,68.85,764,63.56,751.85,64.05c-19,.75-32.31,15.28-32.45,15.42a4.41,4.41,0,0,1-6.56-5.9c.64-.71,15.86-17.38,38.56-18.33,14.69-.62,28.91,5.46,42.29,18.07a4.41,4.41,0,0,1-3,7.62Z"/><path class="cls-31" d="M805.12,62.3a4.4,4.4,0,0,1-3-1.2c-16.4-15.45-33.54-22.94-51-22.23-27,1.09-46,21.76-46.21,22a4.41,4.41,0,0,1-6.56-5.9c.86-1,21.53-23.6,52.32-24.88,19.91-.84,39.24,7.45,57.45,24.61a4.41,4.41,0,0,1-3,7.63Z"/></svg>