<svg xmlns="http://www.w3.org/2000/svg" viewBox="0 0 226.77 75.58"><defs><style>.cls-1{fill:#fff;}</style></defs><title>letai-logo-white</title><g id="Layer_2" data-name="Layer 2"><g id="Слой_1" data-name="Слой 1"><path class="cls-1" d="M46.2,59.07a9.94,9.94,0,0,0,1.37-3.26,45.86,45.86,0,0,0,.74-8c0-1,0-1.74,0-1.84s.08,1,.11,2.57a49.7,49.7,0,0,1-.23,5.63c-.27,2.8-1.29,4.24-2,4.87m-1.46,0a11.41,11.41,0,0,0,1.38-3.62c.71-3.05.78-10.66.76-11a62.15,62.15,0,0,1-.11,9.22c-.28,3.16-1.35,4.82-2,5.43m-1.88,0a8.16,8.16,0,0,0,1.69-3.73c.63-2.9,1-11.4,1.05-12.83,0,0,.12,4.71-.17,8.69-.45,6.29-1.72,7.29-2.57,7.87M42.31,57c-.06-.1-3.33-10.34-5.46-18.16,1.95,5.53,3.35,10,5.69,17.47a5.08,5.08,0,0,1-.23.69m-2.14-.41c-.82-2-1.14-3.39-2.54-7.85-1.63-5.2-3.19-11.87-3.19-11.87s2.44,7.71,4,13c1.2,3.94,2.54,7.76,3,8.19-.06.07-.46.67-1.31-1.44M39,57.94c-2.85-5.29-6.49-21.33-7-23,0,0,5.93,20.92,7.61,23.27.36.51.61.68.91.55,0,0-.75.74-1.56-.77M27.92,59h0a1.93,1.93,0,0,1-1.24-.46c2.35-2.1,5.1-6.34,7.31-10.3l.6,2.21C31.49,56.14,29.26,59,27.92,59m-1.84-1.37a5.63,5.63,0,0,1-.17-2A107.89,107.89,0,0,0,32.81,44l.75,2.77c-2.69,5-5.47,9-7.48,10.87m-2,1.17H24a.71.71,0,0,1-.54-.36,17.43,17.43,0,0,0,1.62-1.79,4.72,4.72,0,0,0,.32,1.54,2.43,2.43,0,0,1-1.33.62m-1.26-3.73c1.24-1.57,2.49-3.37,3.64-5.17a25.62,25.62,0,0,0-1.27,4.79,23.69,23.69,0,0,1-2.13,2.67,9.25,9.25,0,0,1-.24-2.29m-1-1.29a27.3,27.3,0,0,1-2.5,2.89,10.82,10.82,0,0,1-.25-1.95c1.2-1.62,2.44-3.54,3.67-5.61a26,26,0,0,0-.92,4.67m-1.07,5.05h-.09a1.08,1.08,0,0,1-.77-.59,19.6,19.6,0,0,0,1.91-1.94,9.25,9.25,0,0,0,.33,1.74s0,.09.05.13a2.49,2.49,0,0,1-1.43.66M15,51.91a23.55,23.55,0,0,1,1.59-7.19c1.26-3.61,6.88-19.62,9.89-17.26a3.77,3.77,0,0,1,1,1.15c-.68,1.17-1.6,2.56-3,5.36-.34.69-.89,1.78-1.32,2.66-1.82,3.74-5.1,10.26-8.17,15.28m3,1.6a27,27,0,0,1-2.47,3.06,11.58,11.58,0,0,1-.33-2.13c1.14-1.65,2.31-3.61,3.51-5.76A24.74,24.74,0,0,0,18,53.51m-1.35,4.75a.72.72,0,0,1-.43-.22,20.35,20.35,0,0,0,1.88-2,10.22,10.22,0,0,0,.31,1.5,2.84,2.84,0,0,1-1.76.77M14.51,44c-1.11,2.29-2.65,5.78-3.68,7.55.53-10.6,9.08-26.5,14-33.56,3-4.33,5.72-6.58,8.08-7,3.43-.64,4.5,2.57,5,3.57A2.5,2.5,0,0,0,36.66,14a5.58,5.58,0,0,0-2.14.15c-2.49.66-5.12,3-7.86,6.93h0a33.58,33.58,0,0,0-2.95,4.66c-2.71,2.18-6.65,10.9-8.62,16.56-.28.8-.45,1.44-.58,1.71M12.84,58.27h-.1a1,1,0,0,1-.46-.19,20,20,0,0,0,1.55-1.75c.07.34.16.68.26,1,0,.14.08.26.13.39a2.62,2.62,0,0,1-1.38.54m-1.48-1.81A9.42,9.42,0,0,1,11,55.14c.89-1.32,1.8-2.85,2.72-4.53A21.21,21.21,0,0,0,13.58,54a24.47,24.47,0,0,1-2.13,2.71c0-.1-.07-.19-.09-.28M9,58.33H8.86a.75.75,0,0,1-.29-.09,15.9,15.9,0,0,0,1.22-1.39l0,.11a8.63,8.63,0,0,0,.36.91A2.26,2.26,0,0,1,9,58.33M7.36,56.09C4.25,44.94,15.85,22.41,21.69,13.9c3.12-4.55,6.1-7,8.59-7.5,3.69-.76,5.18,3,5.48,3.52a4.32,4.32,0,0,0-3.54-.45c-2.71.74-5.68,3.16-8.76,7.62h0C19.17,23.3,8.28,42.22,9.27,54a23.12,23.12,0,0,1-1.82,2.41l-.09-.29m-1.85,1.7a2.36,2.36,0,0,1-2.83-1.61C-.58,43.74,12,18.9,17.75,10.63c2.88-4.12,5.55-6.75,8-7.87a6.91,6.91,0,0,1,2.76-.66c2.23,0,3.48,1.2,4.68,3-.39-.21-5.36-3.42-13.06,7.53,0,0-18.65,28.68-14.42,43.9a8,8,0,0,0,.42,1,1.6,1.6,0,0,1-.59.24m34-38.67c-.13-.06-.35-.33-1.53-.23-2.51.21-5.2,2.34-8,6.34l-1,1.41A4,4,0,0,0,25.74,25c.7-1.14,1.54-2.32,2.12-3.17,2.78-4,5.43-5.95,7.66-6.21,2.73-.31,3.58,2.48,4,3.52M31.85,40.58c.19.65.37,1.29.55,1.93-1.44,2.68-3.75,7-6,10.52a45.5,45.5,0,0,1,2.75-7.44c1.29-2.23,2.28-4.1,2.75-5M19.24,51.72a38.5,38.5,0,0,1,2.29-8.31C23,39.93,27.84,30.9,28.39,30.06c.37.87.76,1.9,1.15,3-.49.83-1,1.8-1.54,2.85L28,36c-.17.32-.4.79-.69,1.35a153.17,153.17,0,0,1-8,14.35m6.83-8.52c.9-1.7,1.79-3.42,2.64-5.1.28-.56,1.25-2.43,1.52-2.94.33,1,.66,2.11,1,3.2-.24.44-.49.91-.76,1.43A114,114,0,0,1,23.17,52a43,43,0,0,1,2.9-8.77M40,20.9c.81,2.62.7,2.25.81,2.69a.26.26,0,0,0-.14-.05l-.13,0C38,23.37,35.16,25.4,32,29.94c-.49-.55-1.21-1.34-2.06-2.27a24.23,24.23,0,0,1,2-3.06c2.53-3.14,4.11-4.27,6.54-4.41,0,0,1.31,0,1.53.7m-6.6,9c2.66-3.76,5.12-5.51,7.31-5.24a.36.36,0,0,1,.3.19c.14.35.79,3,.8,3.21l-.41,0h0c-1.95,0-3.9,1.4-6,4.33l-.5.73L32.8,30.79Zm2.09,3.86a9.63,9.63,0,0,1,.59-1c1.91-2.63,3.65-3.95,5.3-4,0,0,.56,0,.6.15a62,62,0,0,1,1.92,11.89v.44s0,1.26,0,1.35Zm6.84,9.68a12.28,12.28,0,0,1,1.46,4.35c-.63-1.82-.92-3.08-1.46-4.35m1,10.42c-.06.29-.12.57-.18.83-.7-2.1-1.64-5.11-2.48-8-.47-1.64-1.24-4.5-1.6-5.87,2.08,6.08,3.53,10.95,4.26,13.07m.24-2.61c-.55-1.68-1-3.24-1.58-5s-.78-2.77-1.17-4.1c1.33,3.67,1.78,5,2.77,8a7.9,7.9,0,0,1,0,1.09m6.24-4a42.12,42.12,0,0,1-.05,7.31,6.47,6.47,0,0,1-1.83,4.36A8.52,8.52,0,0,0,49.18,56a52,52,0,0,0,.63-8.73m1.45,1.14a31.15,31.15,0,0,1,0,6.53,5.72,5.72,0,0,1-1.87,4,8.32,8.32,0,0,0,1.27-2.72c.65-2.2.66-7.57.64-7.84m1.37,1.09a25.64,25.64,0,0,1,0,5.87A5.1,5.1,0,0,1,50.89,59a8.07,8.07,0,0,0,1.17-2.45c.61-1.94.59-6.79.57-7m1.53,2.8c.38-13.87-10.23-34.08-15-42.44-3.91-6.32-6-9.32-10-9.79A7.5,7.5,0,0,0,27.09.1a9.91,9.91,0,0,0-3.66,1.48C21.06,3.08,18.59,5.67,16,9.4,10.81,16.81-3,42.83.6,56.72A4.31,4.31,0,0,0,5,60a4.72,4.72,0,0,0,1-.09,3.52,3.52,0,0,0,1.27-.54,2.62,2.62,0,0,0,1.51.58,3.64,3.64,0,0,0,2.32-.8,2.49,2.49,0,0,0,1.57.74A3.81,3.81,0,0,0,15,59.06a2.32,2.32,0,0,0,1.54.8,4,4,0,0,0,2.54-.93,2,2,0,0,0,1.51,1,3.2,3.2,0,0,0,2.1-.78,1.71,1.71,0,0,0,1.28.74h.12A3.48,3.48,0,0,0,26,59.08a2.73,2.73,0,0,0,1.85.74c1.95.09,4.57-3.77,7-8.23A53.06,53.06,0,0,0,36.69,57c.8,1.95,1.8,2.66,3,2.87h0A93.32,93.32,0,0,0,50.58,60a2.57,2.57,0,0,0,1.85-.9c.88-1.08,1.89-2.91,1.73-6.83"/><path class="cls-1" d="M213.87,29.37c4.18,0,7.82-2.66,8.19-6.09-1.53,0-3,0-4.55,0-.24,0-.49.23-.7.39a4.57,4.57,0,0,1-5.68,0c-.22-.16-.46-.41-.7-.41-1.63,0-3.25,0-4.9,0,.71,4.07,4.54,6.1,8.34,6.08"/><path class="cls-1" d="M115.56,41.6c0-2.54-1.21-4.86-4.58-5-3.14,0-5,2-5.35,5Zm7.51,4.63H105.63c.5,3.7,2.54,5.36,6.46,5.36a13.62,13.62,0,0,0,7.72-2.65,8.35,8.35,0,0,1,3,5.57,18.24,18.24,0,0,1-11.59,3.7c-8.11,0-14-5-14-13.8,0-8.27,5.85-14.07,13.69-14.07,7.39,0,12.41,4.69,12.41,12a22.71,22.71,0,0,1-.27,3.86"/><path class="cls-1" d="M157.48,30.18a16.47,16.47,0,0,0-8.66,2.48,13.7,13.7,0,0,0-8.55-2.48,22.83,22.83,0,0,0-6.41.92,25.35,25.35,0,0,0-6.83.18v26a25.42,25.42,0,0,0,4.08.33,26.26,26.26,0,0,0,4.14-.33V38.73a8.07,8.07,0,0,1,4.25-1.1c3.09,0,4.69,1.71,4.69,5V57.27a25,25,0,0,0,4.08.33,26.26,26.26,0,0,0,4.14-.33V40.77c0-.55-.06-1.1-.11-1.65a7,7,0,0,1,4.41-1.49c3.09,0,4.64,1.71,4.64,5V57.27a26.07,26.07,0,0,0,8.27,0V40.77c0-6.12-3.91-10.59-12.14-10.59"/><path class="cls-1" d="M185.66,52.41a14.37,14.37,0,0,0,4-.6V47a15.91,15.91,0,0,0-4.53-.61c-2.59,0-4.19.88-4.19,2.81s1.6,3.2,4.75,3.2M197.8,41.82V55.56a35.23,35.23,0,0,1-13.25,2.59c-7.5,0-11.86-2.87-11.86-8.61,0-5.51,4.75-8.33,11.42-8.27a20.14,20.14,0,0,1,5.52.77V41c0-2.26-1.55-3.86-5.41-3.86a12.33,12.33,0,0,0-7.12,2.26,7.2,7.2,0,0,1-3.53-5.24,18,18,0,0,1,11.37-3.81c7.61,0,12.86,3.31,12.86,11.48"/><path class="cls-1" d="M73.18,21.84a1.15,1.15,0,0,0-1.12,1S69.34,39.73,68.18,47c-.29,1.82-1,3.22-2.85,3.68l-.39.08a1,1,0,0,0-.73.42,2,2,0,0,0-.43.94,11.39,11.39,0,0,0,0,5.29c.28,1.22.55,1.39,1.36,1.25A27.22,27.22,0,0,0,68,58c4.9-1.76,7.6-5.45,8.62-10.38.74-3.6,3-18.37,3-18.37h5.66v28a26.36,26.36,0,0,0,4.14.39,25.61,25.61,0,0,0,4.08-.39V21.84Z"/><path class="cls-1" d="M222.63,31a25,25,0,0,0-4.08.34V50.21a9.59,9.59,0,0,1-4.14.82c-4,0-5-1.71-5-5.29V31.34a24.42,24.42,0,0,0-4.08-.34,25.13,25.13,0,0,0-4.14.34V47.56c0,5.46,2.56,9.3,8.81,10.36a16.44,16.44,0,0,0,4.89,0c1.4-.18,2.95-.51,3.68-.62a26.26,26.26,0,0,0,4.14.33,25.51,25.51,0,0,0,4.08-.33v-26a25.13,25.13,0,0,0-4.14-.34"/><polygon class="cls-1" points="74.04 64.34 69.56 70.04 65.08 64.34 64.4 64.34 64.4 75.39 66.24 75.39 66.24 68.5 69.44 72.58 69.69 72.58 72.87 68.5 72.87 75.39 74.71 75.39 74.71 64.34 74.04 64.34"/><path class="cls-1" d="M80.76,74a2.45,2.45,0,1,0-2.33-2.45A2.28,2.28,0,0,0,80.76,74m0,1.52a4,4,0,1,1,4-4,3.83,3.83,0,0,1-4,4"/><path class="cls-1" d="M90.22,74.06a2.21,2.21,0,0,0,2.29-2.37,2.26,2.26,0,0,0-2.32-2.33,2.35,2.35,0,0,0,0,4.7m4-2.35a4,4,0,0,1-7.9.39c-.41-3.11.39-5.78,3.57-6.89.62-.21,1.72-.62,1.4-1.39h1.58c.42,1.23-.66,2.16-1.72,2.57-1.87.72-3,1.11-3.35,2.93a3.28,3.28,0,0,1,2.71-1.44,3.57,3.57,0,0,1,3.71,3.83"/><polygon class="cls-1" points="102.4 67.79 97.64 72.37 97.64 67.8 95.97 67.8 95.97 75.41 96.44 75.41 101.28 70.81 101.28 75.39 102.93 75.39 102.93 67.79 102.4 67.79"/><path class="cls-1" d="M108,69.32l-.36,3.38c-.22,2.36-.87,3-3.29,2.69l0-1.25c1.32.18,1.45-.38,1.57-1.5l.57-4.84h5.78v7.59h-1.69V69.32Z"/><path class="cls-1" d="M116.21,71.47v2.62h1.49c.93,0,1.7-.41,1.7-1.31s-.77-1.31-1.7-1.31Zm-1.66,3.92V67.8h1.66v2.37h1.53c1.73,0,3.33.67,3.33,2.61s-1.63,2.61-3.35,2.61Z"/><polygon class="cls-1" points="127.95 67.8 127.95 70.72 124.29 70.72 124.29 67.8 122.63 67.8 122.63 75.39 124.29 75.39 124.29 72.21 127.95 72.21 127.95 75.39 129.62 75.39 129.62 67.8 127.95 67.8"/><path class="cls-1" d="M136.47,72.17a3.81,3.81,0,0,0-2-.52A1.42,1.42,0,0,0,133,73.08c0,.76.7,1.1,1.39,1.1a2,2,0,0,0,2.12-1.38ZM134,75.54a2.52,2.52,0,0,1-2.72-2.37c-.05-1.81,1.27-2.67,2.94-2.67a4.84,4.84,0,0,1,2.25.56v-.75c0-2-3.41-1.34-4.36-.87l-.25-1.23a6.43,6.43,0,0,1,2.8-.59c1.85,0,3.48.64,3.48,2.74v3c0,.71,0,1.16.79,1.08l0,1c-1.19.21-2.12.21-2.17-1.29A3,3,0,0,1,134,75.54"/><path class="cls-1" d="M145,71.58V69.13H143.4A1.3,1.3,0,0,0,142,70.39c0,.71.6,1.19,1.45,1.19Zm-3.11,1.06a2.45,2.45,0,0,1-1.64-2.28,2.55,2.55,0,0,1,2.68-2.56h3.81v7.59H145V73h-1.43l-1.83,2.44h-1.84v-.18Z"/><path class="cls-1" d="M158.52,70.32a2.06,2.06,0,0,0-2-1.21,2.34,2.34,0,0,0-2.37,2.46A2.32,2.32,0,0,0,156.47,74a2.14,2.14,0,0,0,2.05-1.39h1.64a3.62,3.62,0,0,1-3.72,2.87,3.83,3.83,0,0,1-4-4,3.88,3.88,0,0,1,4-4,3.56,3.56,0,0,1,3.68,2.74Z"/><path class="cls-1" d="M165,74.09c.74,0,1.78,0,1.78-1s-1.07-1-1.86-1h-1.42v2.07Zm-.16-3.23c.66,0,1.51-.08,1.51-.9s-.83-.91-1.51-.91h-1.34v1.81Zm2.16.46a1.9,1.9,0,0,1,1.45,1.92c0,2-1.78,2.17-3.28,2.17h-3.34V67.79h2.92c1.4,0,3.29.09,3.29,2a1.5,1.5,0,0,1-1,1.53"/><path class="cls-1" d="M174.68,71.58V69.13h-1.59a1.3,1.3,0,0,0-1.45,1.26c0,.71.6,1.19,1.45,1.19Zm-3.12,1.06a2.45,2.45,0,0,1-1.64-2.28,2.55,2.55,0,0,1,2.68-2.56h3.81v7.59h-1.73V73h-1.44l-1.82,2.44h-1.84v-.18Z"/><path class="cls-1" d="M178.35,68.25a6.17,6.17,0,0,1,2.78-.6c1.5,0,3,.49,3,2.08A1.55,1.55,0,0,1,183,71.32a2,2,0,0,1,1.63,2c0,1.7-1.65,2.31-3.32,2.31a6.63,6.63,0,0,1-3.2-.77l.1-1.45a5.91,5.91,0,0,0,2.85.79c.91,0,1.76-.25,1.76-1.07,0-1-1.05-1.06-1.89-1.06H179.8V70.84h1c.73,0,1.53-.06,1.53-.93s-.77-1-1.53-1a5.57,5.57,0,0,0-2.39.54Z"/><path class="cls-1" d="M188,71.47v2.62h1.5c.92,0,1.7-.41,1.7-1.31s-.78-1.31-1.7-1.31Zm-1.65,3.92V67.8H188v2.37h1.53c1.73,0,3.34.67,3.34,2.61s-1.64,2.61-3.36,2.61Z"/></g></g></svg>