<?xml version="1.0" encoding="utf-8"?>
<!-- Generator: Adobe Illustrator 23.0.2, SVG Export Plug-In . SVG Version: 6.00 Build 0)  -->
<svg version="1.1" id="Layer_1" xmlns="http://www.w3.org/2000/svg" xmlns:xlink="http://www.w3.org/1999/xlink" x="0px" y="0px"
	 viewBox="0 0 226.8 60.1" style="enable-background:new 0 0 226.8 60.1;" xml:space="preserve">
<style type="text/css">
	.st0{fill:#FFFFFF;}
</style>
<title>letai-logo-white</title>
<g>
	<g id="Слой_1">
		<path class="st0" d="M46.2,59c0.6-1,1.1-2.1,1.4-3.3c0.5-2.6,0.7-5.3,0.7-8c0-1,0-1.7,0-1.8s0.1,1,0.1,2.6c0,1.9,0,3.8-0.2,5.6
			C47.9,56.9,46.9,58.4,46.2,59 M44.7,59c0.7-1.1,1.1-2.3,1.4-3.6c0.7-3,0.8-10.7,0.8-11c0.2,3.1,0.2,6.2-0.1,9.2
			C46.5,56.8,45.4,58.4,44.7,59 M42.9,59c0.9-1.1,1.5-2.4,1.7-3.7c0.6-2.9,1-11.4,1-12.8c0,0,0.1,4.7-0.2,8.7
			C45,57.5,43.7,58.5,42.9,59 M42.3,57c-0.1-0.1-3.3-10.3-5.5-18.2c2,5.5,3.3,10,5.7,17.5C42.5,56.5,42.4,56.7,42.3,57 M40.2,56.6
			c-0.8-2-1.1-3.4-2.5-7.8c-1.6-5.2-3.2-11.9-3.2-11.9s2.4,7.7,4,13c1.2,3.9,2.5,7.8,3,8.2C41.4,58.1,41,58.7,40.2,56.6 M39,57.9
			c-2.8-5.3-6.5-21.3-7-23c0,0,5.9,20.9,7.6,23.3c0.4,0.5,0.6,0.7,0.9,0.5C40.5,58.7,39.8,59.5,39,57.9 M27.9,59L27.9,59
			c-0.5,0-0.9-0.2-1.2-0.5c2.4-2.1,5.1-6.3,7.3-10.3l0.6,2.2C31.5,56.1,29.3,59,27.9,59 M26.1,57.6c-0.2-0.7-0.2-1.3-0.2-2
			c2.5-3.7,4.8-7.6,6.9-11.6l0.8,2.8C30.9,51.7,28.1,55.7,26.1,57.6 M24.1,58.8L24.1,58.8c-0.3,0-0.5-0.2-0.6-0.4
			c0.6-0.6,1.1-1.2,1.6-1.8c0,0.5,0.1,1,0.3,1.5C25,58.5,24.6,58.7,24.1,58.8 M22.8,55.1c1.2-1.6,2.5-3.4,3.6-5.2
			c-0.6,1.6-1,3.2-1.3,4.8c-0.6,0.9-1.4,1.8-2.1,2.7C22.9,56.6,22.8,55.8,22.8,55.1 M21.8,53.8c-0.8,1-1.6,2-2.5,2.9
			c-0.1-0.6-0.2-1.3-0.2-2c1.2-1.6,2.4-3.5,3.7-5.6C22.3,50.6,22,52.2,21.8,53.8 M20.7,58.8L20.7,58.8c-0.4-0.1-0.7-0.3-0.9-0.6
			c0.7-0.6,1.3-1.2,1.9-1.9c0.1,0.6,0.2,1.2,0.3,1.7c0,0,0,0.1,0,0.1C21.8,58.5,21.3,58.8,20.7,58.8 M15,51.9
			c0.1-2.5,0.7-4.9,1.6-7.2c1.3-3.6,6.9-19.6,9.9-17.3c0.4,0.3,0.7,0.7,1,1.1c-0.7,1.2-1.6,2.6-3,5.4c-0.3,0.7-0.9,1.8-1.3,2.7
			C21.3,40.3,18.1,46.9,15,51.9 M18,53.5c-0.7,1.1-1.6,2.1-2.5,3.1c-0.2-0.7-0.3-1.4-0.3-2.1c1.1-1.7,2.3-3.6,3.5-5.8
			C18.3,50.2,18.1,51.8,18,53.5 M16.6,58.2c-0.2,0-0.3-0.1-0.4-0.2c0.7-0.6,1.3-1.3,1.9-2c0.1,0.5,0.2,1,0.3,1.5
			C17.9,58,17.3,58.2,16.6,58.2 M14.5,44c-1.1,2.3-2.6,5.8-3.7,7.5c0.5-10.6,9.1-26.5,14-33.6c3-4.3,5.7-6.6,8.1-7
			c3.4-0.6,4.5,2.6,5,3.6c-0.4-0.3-0.8-0.5-1.2-0.6c-0.7-0.1-1.4,0-2.1,0.1c-2.5,0.7-5.1,3-7.9,6.9l0,0c-1.1,1.5-2.1,3-3,4.7
			c-2.7,2.2-6.6,10.9-8.6,16.6C14.8,43.1,14.6,43.7,14.5,44 M12.8,58.2h-0.1c-0.2,0-0.3-0.1-0.5-0.2c0.6-0.6,1.1-1.1,1.6-1.8
			c0.1,0.3,0.2,0.7,0.3,1c0,0.1,0.1,0.3,0.1,0.4C13.8,58,13.3,58.2,12.8,58.2 M11.4,56.4c-0.2-0.4-0.3-0.9-0.4-1.3
			c0.9-1.3,1.8-2.8,2.7-4.5c-0.1,1.1-0.2,2.3-0.1,3.4c-0.6,1-1.4,1.9-2.1,2.7C11.4,56.6,11.4,56.5,11.4,56.4 M9,58.3H8.9
			c-0.1,0-0.2,0-0.3-0.1c0.4-0.4,0.8-0.9,1.2-1.4v0.1c0.1,0.3,0.2,0.6,0.4,0.9C9.8,58.1,9.4,58.2,9,58.3 M7.4,56.1
			c-3.1-11.2,8.5-33.7,14.3-42.2c3.1-4.6,6.1-7,8.6-7.5c3.7-0.8,5.2,3,5.5,3.5c-1.1-0.7-2.4-0.8-3.5-0.4c-2.7,0.7-5.7,3.2-8.8,7.6
			l0,0C19.2,23.3,8.3,42.2,9.3,54c-0.6,0.8-1.2,1.6-1.8,2.4L7.4,56.1 M5.5,57.8c-1.2,0.3-2.5-0.4-2.8-1.6
			C-0.6,43.7,12,18.9,17.7,10.6c2.9-4.1,5.5-6.8,8-7.9c0.9-0.4,1.8-0.6,2.8-0.7c2.2,0,3.5,1.2,4.7,3c-0.4-0.2-5.4-3.4-13.1,7.5
			c0,0-18.6,28.7-14.4,43.9c0.1,0.3,0.3,0.7,0.4,1C5.9,57.6,5.7,57.7,5.5,57.8 M39.5,19.1c-0.1-0.1-0.3-0.3-1.5-0.2
			c-2.5,0.2-5.2,2.3-8,6.3l-1,1.4c-0.8-1-2-1.6-3.3-1.6c0.7-1.1,1.5-2.3,2.1-3.2c2.8-4,5.4-6,7.7-6.2C38.2,15.3,39.1,18.1,39.5,19.1
			 M31.8,40.5c0.2,0.7,0.4,1.3,0.6,1.9c-1.4,2.7-3.8,7-6,10.5c0.7-2.6,1.6-5,2.8-7.4C30.4,43.3,31.4,41.5,31.8,40.5 M19.2,51.7
			c0.4-2.8,1.2-5.6,2.3-8.3c1.5-3.5,6.3-12.5,6.9-13.4c0.4,0.9,0.8,1.9,1.1,3c-0.5,0.8-1,1.8-1.5,2.8V36c-0.2,0.3-0.4,0.8-0.7,1.3
			C24.9,42.2,22.2,47,19.2,51.7 M26.1,43.1c0.9-1.7,1.8-3.4,2.6-5.1c0.3-0.6,1.2-2.4,1.5-2.9c0.3,1,0.7,2.1,1,3.2
			c-0.2,0.4-0.5,0.9-0.8,1.4C28.3,44,25.9,48,23.2,52C23.8,48.9,24.8,46,26.1,43.1 M40,20.9c0.8,2.6,0.7,2.2,0.8,2.7
			c0,0-0.1,0-0.1,0h-0.1c-2.5-0.2-5.4,1.9-8.5,6.4c-0.5-0.5-1.2-1.3-2.1-2.3c0.6-1.1,1.3-2.1,2-3.1c2.5-3.1,4.1-4.3,6.5-4.4
			C38.5,20.2,39.8,20.2,40,20.9 M33.4,29.9c2.7-3.8,5.1-5.5,7.3-5.2c0.1,0,0.2,0.1,0.3,0.2c0.1,0.4,0.8,3,0.8,3.2h-0.4l0,0
			c-2,0-3.9,1.4-6,4.3l-0.5,0.7l-2.1-2.3L33.4,29.9z M35.5,33.7c0.2-0.3,0.4-0.7,0.6-1c1.9-2.6,3.7-4,5.3-4c0,0,0.6,0,0.6,0.1
			c1,3.9,1.7,7.9,1.9,11.9v0.4c0,0,0,1.3,0,1.3L35.5,33.7z M42.3,43.4c0.8,1.3,1.3,2.8,1.5,4.3C43.2,45.9,42.9,44.7,42.3,43.4
			 M43.3,53.8c-0.1,0.3-0.1,0.6-0.2,0.8c-0.7-2.1-1.6-5.1-2.5-8c-0.5-1.6-1.2-4.5-1.6-5.9C41.2,46.9,42.6,51.7,43.3,53.8 M43.6,51.2
			c-0.5-1.7-1-3.2-1.6-5s-0.8-2.8-1.2-4.1c1.3,3.7,1.8,5,2.8,8C43.6,50.5,43.6,50.9,43.6,51.2 M49.8,47.2c0.2,2.4,0.2,4.9,0,7.3
			c0,1.6-0.7,3.2-1.8,4.4c0.6-0.9,1-1.9,1.2-2.9C49.6,53.1,49.8,50.2,49.8,47.2 M51.3,48.4c0.2,2.2,0.2,4.4,0,6.5
			c-0.1,1.5-0.7,3-1.9,4c0.6-0.8,1-1.7,1.3-2.7C51.3,54,51.3,48.6,51.3,48.4 M52.7,49.4c0.2,2,0.2,3.9,0,5.9
			C52.6,56.7,52,58,50.9,59c0.5-0.7,0.9-1.6,1.2-2.5C52.7,54.6,52.6,49.7,52.7,49.4 M54.2,52.3c0.4-13.9-10.2-34.1-15-42.4
			c-3.9-6.3-6-9.3-10-9.8c-0.7-0.1-1.4-0.1-2.1,0c-1.3,0.2-2.6,0.7-3.7,1.5C21.1,3,18.6,5.6,16,9.4C10.8,16.8-3,42.8,0.6,56.7
			c0.5,2,2.3,3.4,4.4,3.3c0.3,0,0.7,0,1-0.1c0.5-0.1,0.9-0.3,1.3-0.5c0.4,0.3,1,0.6,1.5,0.6c0.8,0,1.7-0.3,2.3-0.8
			c0.4,0.4,1,0.7,1.6,0.7c0.8,0,1.7-0.3,2.3-0.8c0.4,0.5,0.9,0.7,1.5,0.8c0.9,0,1.8-0.3,2.5-0.9c0.3,0.6,0.9,0.9,1.5,1
			c0.8,0,1.5-0.3,2.1-0.8c0.3,0.4,0.8,0.7,1.3,0.7h0.1c0.7-0.1,1.4-0.4,1.9-0.8c0.5,0.5,1.2,0.7,1.9,0.7c2,0.1,4.6-3.8,7-8.2
			c0.5,1.8,1.1,3.6,1.8,5.4c0.8,2,1.8,2.7,3,2.9l0,0c3.6,0.3,7.3,0.3,10.9,0.1c0.7,0,1.4-0.4,1.8-0.9C53.3,58,54.3,56.2,54.2,52.3"
			/>
		<path class="st0" d="M213.9,29.3c4.2,0,7.8-2.7,8.2-6.1c-1.5,0-3,0-4.6,0c-0.2,0-0.5,0.2-0.7,0.4c-1.7,1.3-4,1.3-5.7,0
			c-0.2-0.2-0.5-0.4-0.7-0.4c-1.6,0-3.2,0-4.9,0C206.2,27.3,210.1,29.3,213.9,29.3"/>
		<path class="st0" d="M115.6,41.6c0-2.5-1.2-4.9-4.6-5c-3.1,0-5,2-5.3,5H115.6z M123.1,46.2h-17.4c0.5,3.7,2.5,5.4,6.5,5.4
			c2.8-0.1,5.5-1,7.7-2.7c1.7,1.4,2.8,3.4,3,5.6c-3.3,2.5-7.4,3.8-11.6,3.7c-8.1,0-14-5-14-13.8c0-8.3,5.8-14.1,13.7-14.1
			c7.4,0,12.4,4.7,12.4,12C123.3,43.6,123.2,44.9,123.1,46.2"/>
		<path class="st0" d="M157.5,30.1c-3.1,0-6.1,0.9-8.7,2.5c-2.5-1.8-5.5-2.6-8.6-2.5c-2.2,0-4.3,0.3-6.4,0.9
			c-2.3-0.2-4.6-0.2-6.8,0.2v26c1.3,0.2,2.7,0.3,4.1,0.3c1.4,0,2.8-0.1,4.1-0.3V38.7c1.3-0.8,2.8-1.1,4.2-1.1c3.1,0,4.7,1.7,4.7,5
			v14.6c1.3,0.2,2.7,0.3,4.1,0.3c1.4,0,2.8-0.1,4.1-0.3V40.7c0-0.5-0.1-1.1-0.1-1.7c1.3-1,2.8-1.5,4.4-1.5c3.1,0,4.6,1.7,4.6,5v14.6
			c2.7,0.4,5.5,0.4,8.3,0V40.7C169.6,34.6,165.7,30.1,157.5,30.1"/>
		<path class="st0" d="M185.7,52.4c1.4,0,2.7-0.2,4-0.6V47c-1.5-0.4-3-0.6-4.5-0.6c-2.6,0-4.2,0.9-4.2,2.8S182.5,52.4,185.7,52.4
			 M197.8,41.8v13.7c-4.2,1.7-8.7,2.6-13.2,2.6c-7.5,0-11.9-2.9-11.9-8.6c0-5.5,4.8-8.3,11.4-8.3c1.9,0,3.7,0.3,5.5,0.8v-1
			c0-2.3-1.6-3.9-5.4-3.9c-2.5,0-5,0.8-7.1,2.3c-1.9-1.1-3.2-3-3.5-5.2c3.2-2.5,7.3-3.9,11.4-3.8C192.5,30.3,197.8,33.6,197.8,41.8"
			/>
		<path class="st0" d="M73.2,21.8c-0.6,0-1,0.4-1.1,1c0,0-2.7,16.9-3.9,24.2c-0.3,1.8-1,3.2-2.8,3.7l-0.4,0.1
			c-0.3,0-0.6,0.2-0.7,0.4c-0.2,0.3-0.4,0.6-0.4,0.9c-0.4,1.7-0.4,3.6,0,5.3c0.3,1.2,0.6,1.4,1.4,1.2c1-0.2,1.9-0.4,2.9-0.7
			c4.9-1.8,7.6-5.5,8.6-10.4c0.7-3.6,3-18.4,3-18.4h5.7v28c1.4,0.2,2.8,0.4,4.1,0.4c1.4,0,2.7-0.2,4.1-0.4V21.8H73.2z"/>
		<path class="st0" d="M222.6,31c-1.4,0-2.7,0.1-4.1,0.3v18.9c-1.3,0.6-2.7,0.9-4.1,0.8c-4,0-5-1.7-5-5.3V31.3
			c-1.3-0.2-2.7-0.3-4.1-0.3c-1.4,0-2.8,0.1-4.1,0.3v16.2c0,5.5,2.6,9.3,8.8,10.4c1.6,0.2,3.3,0.2,4.9,0c1.4-0.2,2.9-0.5,3.7-0.6
			c1.4,0.2,2.8,0.3,4.1,0.3c1.4,0,2.7-0.1,4.1-0.3v-26C225.4,31,224,30.9,222.6,31"/>
	</g>
</g>
</svg>
