<?xml version="1.0" encoding="utf-8"?>
<!-- Generator: Adobe Illustrator 23.0.2, SVG Export Plug-In . SVG Version: 6.00 Build 0)  -->
<svg version="1.1" id="Layer_1" xmlns="http://www.w3.org/2000/svg" xmlns:xlink="http://www.w3.org/1999/xlink" x="0px" y="0px"
	 viewBox="0 0 60 60" style="enable-background:new 0 0 60 60;" xml:space="preserve">
<style type="text/css">
	.st0{fill:#FFFFFF;}
</style>
<title>fast</title>
<g>
	<g>
		<g>
			<path class="st0" d="M44,23.4c-0.4-0.4-1.1-0.4-1.5,0c0,0,0,0,0,0l-5.8,5.8c-2.5-1.7-5.9-1-7.6,1.6c-1.7,2.5-1,5.9,1.6,7.6
				c0.9,0.6,2,0.9,3,0.9c3,0,5.5-2.4,5.5-5.5c0,0,0,0,0,0c0-1.1-0.4-2.2-1-3.1l5.8-5.8C44.4,24.5,44.4,23.9,44,23.4
				C44,23.4,44,23.4,44,23.4z M36.1,36.2c-1.3,1.3-3.5,1.3-4.8,0c-1.3-1.3-1.3-3.5,0-4.8c0.6-0.6,1.5-1,2.4-1c1.9,0,3.4,1.5,3.4,3.4
				C37.1,34.7,36.8,35.6,36.1,36.2z"/>
			<path class="st0" d="M4.4,32.8c0,0.6,0.5,1,1,1h17.9c0.6,0,1-0.5,1-1c0-0.6-0.5-1-1-1H5.4C4.8,31.8,4.4,32.3,4.4,32.8z"/>
			<path class="st0" d="M1,25.2H19c0.6,0,1-0.5,1-1s-0.5-1-1-1H1c-0.6,0-1,0.5-1,1S0.5,25.2,1,25.2z"/>
			<path class="st0" d="M20,41.5c0-0.6-0.5-1-1-1H1c-0.6,0-1,0.5-1,1c0,0.6,0.5,1,1,1H19C19.5,42.6,20,42.1,20,41.5z"/>
			<path class="st0" d="M52.8,15.1l1.1-1c0.5,0.3,1.1,0.5,1.7,0.5c1.9,0,3.5-1.6,3.5-3.5s-1.6-3.5-3.5-3.5C53.6,7.5,52,9.1,52,11
				c0,0.5,0.1,1.1,0.4,1.6l-1.2,1.2c-4.5-3.9-10.2-6.2-16.1-6.4V2.9h3.7c0.6,0,1-0.5,1-1s-0.5-1-1-1h-9.4c-0.6,0-1,0.5-1,1
				s0.5,1,1,1h3.6v4.4c-6.2,0.2-12.2,2.7-16.8,7c-0.4,0.4-0.4,1,0,1.5c0.2,0.2,0.5,0.3,0.8,0.3h7.4c0.2,0,0.3,0,0.5-0.1
				c2.8-1.5,6-2.3,9.2-2.3c10.9,0,19.7,8.9,19.7,19.7C53.7,44.2,44.9,53,34,53c-2.8,0-5.6-0.6-8.2-1.8c-0.1-0.1-0.3-0.1-0.4-0.1
				h-7.7c-0.6,0-1,0.5-1,1c0,0.3,0.1,0.6,0.4,0.8c10.9,9.4,27.4,8.1,36.8-2.9C62.4,39.9,62,24.8,52.8,15.1z M55.5,9.5
				c0.8,0,1.5,0.6,1.5,1.5c0,0.8-0.6,1.5-1.5,1.5l0,0c-0.3,0-0.6-0.1-0.9-0.3c0-0.1-0.1-0.2-0.1-0.2c-0.1,0-0.1-0.1-0.2-0.1
				c-0.2-0.2-0.2-0.5-0.2-0.8C54.1,10.2,54.7,9.5,55.5,9.5C55.5,9.5,55.5,9.5,55.5,9.5z"/>
		</g>
	</g>
</g>
</svg>
