<?xml version="1.0" encoding="utf-8"?>
<!-- Generator: Adobe Illustrator 23.0.2, SVG Export Plug-In . SVG Version: 6.00 Build 0)  -->
<svg version="1.1" id="Layer_1" xmlns="http://www.w3.org/2000/svg" xmlns:xlink="http://www.w3.org/1999/xlink" x="0px" y="0px"
	 viewBox="0 0 60 60" style="enable-background:new 0 0 60 60;" xml:space="preserve">
<style type="text/css">
	.st0{fill:#FFFFFF;}
</style>
<g>
	<circle class="st0" cx="40.3" cy="30" r="1"/>
	<path class="st0" d="M41.4,14.5v7.3c0.8,0.1,1.6,0.3,2.4,0.7l3.8-6.2C45.7,15.3,43.6,14.7,41.4,14.5z"/>
	<path class="st0" d="M36.9,22.5c0.8-0.4,1.6-0.6,2.4-0.7v-7.3c-2.2,0.1-4.3,0.8-6.2,1.8L36.9,22.5z"/>
	<path class="st0" d="M27,22.2l6.5,3.2c0.5-0.7,1-1.3,1.7-1.8l-3.8-6.2C29.6,18.7,28.1,20.3,27,22.2z"/>
	<path class="st0" d="M40.3,10.3c-10.9,0-19.7,8.8-19.7,19.7s8.8,19.7,19.7,19.7S60,40.9,60,30C60,19.1,51.2,10.4,40.3,10.3z
		 M40.3,47.6c-9.7,0-17.6-7.9-17.6-17.6h2.1c0,8.6,7,15.5,15.5,15.5V47.6z M44.5,47.6h-2.1v-2.1h2.1V47.6z M54.4,39.7
		c-0.2,0-0.4-0.1-0.5-0.2L46,34.7c-0.5-0.3-0.6-0.9-0.3-1.4c0,0,0,0,0,0c0.1-0.1,0.1-0.3,0.2-0.4l-3.2-0.7c-1.2,1.2-3.1,1.3-4.4,0.1
		c-1.2-1.2-1.3-3.1-0.1-4.4c1.2-1.2,3.1-1.3,4.4-0.1c0.6,0.6,1,1.4,1,2.2c0,0.1,0,0.1,0,0.2l3.1,0.7c0.2-1.2,0-2.5-0.6-3.6l0,0
		c-1.5-3.1-5.3-4.3-8.3-2.8c-1.2,0.6-2.2,1.6-2.8,2.8c-0.3,0.5-0.9,0.7-1.4,0.5c0,0,0,0,0,0l-8.3-4.2c-0.5-0.3-0.7-0.9-0.5-1.4
		c0,0,0,0,0,0c4.3-8.7,14.9-12.2,23.6-7.8c3.4,1.7,6.1,4.5,7.8,7.8c2.7,5.4,2.5,11.9-0.8,17.1C55.1,39.6,54.8,39.7,54.4,39.7z"/>
	<path class="st0" d="M49.4,17.4l-3.8,6.2c0.6,0.5,1.2,1.1,1.7,1.8l6.5-3.2C52.6,20.3,51.1,18.7,49.4,17.4z"/>
	<path class="st0" d="M48.1,27.3c0.2,0.6,0.3,1.1,0.4,1.7h7.3c-0.1-1.7-0.5-3.4-1.2-5L48.1,27.3z"/>
	<path class="st0" d="M48.5,31.3l3.5,0.8l-0.4,2l-3.6-0.8c0,0,0,0.1,0,0.1l6.2,3.8c1-1.9,1.6-4.1,1.8-6.2h-7.3
		C48.5,31.1,48.5,31.2,48.5,31.3z"/>
	<rect y="47.6" class="st0" width="25.9" height="2.1"/>
	<rect x="2.1" y="43.4" class="st0" width="19.7" height="2.1"/>
	<path class="st0" d="M9,23.8c4.9-0.4,5.7,1.3,5.8,1.8c0.2,0.9,1.2,5.4-0.9,7.1c-0.6,0.5-1.7,1-3.6,0.3c-0.9-0.4-1.7-0.9-2.4-1.6
		c-0.6-0.6-1.4-1.1-2.2-1.3c1.2,2.4,3.2,6,5.1,7.2c2.5,1.5,5.4,2.1,8.3,1.7c-1.1-2.9-1.7-6-1.7-9.1c0-7.3,3.1-14.3,8.6-19.2
		c-2.2-0.2-5,0-6.9,1.4c-2.8,2.1-6,1.4-8.1,0.4c0.8,2,2.5,3.4,4.6,3.9c0.6,0.1,0.9,0.7,0.8,1.2c0,0.1-0.1,0.2-0.1,0.3
		c-0.9,1.4-2.4,2.5-4.1,2.8c-2.4,0.4-4.9-0.1-6.9-1.4c0.2,1.3,0.7,2.5,1.6,3.5C7.4,23.6,8.2,23.9,9,23.8z"/>
</g>
</svg>
