<svg xmlns="http://www.w3.org/2000/svg" xmlns:xlink="http://www.w3.org/1999/xlink" viewBox="0 0 327.45 249"><defs><style>.cls-1{isolation:isolate;}.cls-2{fill:#463497;}.cls-10,.cls-11,.cls-12,.cls-13,.cls-14,.cls-15,.cls-16,.cls-17,.cls-18,.cls-19,.cls-23,.cls-24,.cls-25,.cls-26,.cls-29,.cls-3,.cls-30,.cls-31,.cls-32,.cls-33,.cls-34,.cls-35,.cls-36,.cls-37,.cls-38,.cls-39,.cls-4,.cls-40,.cls-41,.cls-42,.cls-43,.cls-44,.cls-45,.cls-46,.cls-47,.cls-48,.cls-49,.cls-5,.cls-50,.cls-51,.cls-6,.cls-7,.cls-8,.cls-9{fill-rule:evenodd;}.cls-3{fill:url(#_ÂÁ_Ï_ÌÌ_È_ËÂÌÚ_8);}.cls-4{fill:url(#_ÂÁ_Ï_ÌÌ_È_ËÂÌÚ_4);}.cls-5{fill:url(#_ÂÁ_Ï_ÌÌ_È_ËÂÌÚ_4-2);}.cls-6{fill:url(#_ÂÁ_Ï_ÌÌ_È_ËÂÌÚ_4-3);}.cls-7{fill:url(#_ÂÁ_Ï_ÌÌ_È_ËÂÌÚ_4-4);}.cls-8{fill:url(#_ÂÁ_Ï_ÌÌ_È_ËÂÌÚ_8-2);}.cls-9{fill:url(#_ÂÁ_Ï_ÌÌ_È_ËÂÌÚ_8-3);}.cls-10{fill:url(#_ÂÁ_Ï_ÌÌ_È_ËÂÌÚ_4-5);}.cls-11{fill:url(#_ÂÁ_Ï_ÌÌ_È_ËÂÌÚ_8-4);}.cls-12{fill:url(#_ÂÁ_Ï_ÌÌ_È_ËÂÌÚ_6);}.cls-13{fill:#fbfbfb;}.cls-13,.cls-18,.cls-31{opacity:0.5;}.cls-13,.cls-27{mix-blend-mode:soft-light;}.cls-14{fill:url(#_ÂÁ_Ï_ÌÌ_È_ËÂÌÚ_5);}.cls-15{fill:url(#_ÂÁ_Ï_ÌÌ_È_ËÂÌÚ_5-2);}.cls-16{fill:url(#_ÂÁ_Ï_ÌÌ_È_ËÂÌÚ_5-3);}.cls-17{fill:url(#_ÂÁ_Ï_ÌÌ_È_ËÂÌÚ_5-4);}.cls-18{fill:#403e39;}.cls-18,.cls-31,.cls-43,.cls-48,.cls-51{mix-blend-mode:multiply;}.cls-19{fill:url(#_ÂÁ_Ï_ÌÌ_È_ËÂÌÚ_4-6);}.cls-20{fill:#e8dcd6;}.cls-21{fill:url(#_ÂÁ_Ï_ÌÌ_È_ËÂÌÚ_98);}.cls-22{opacity:0.43;}.cls-23{fill:url(#_ÂÁ_Ï_ÌÌ_È_ËÂÌÚ_348);}.cls-24{fill:url(#_ÂÁ_Ï_ÌÌ_È_ËÂÌÚ_348-2);}.cls-25{fill:url(#_ÂÁ_Ï_ÌÌ_È_ËÂÌÚ_348-3);}.cls-26{fill:url(#_ÂÁ_Ï_ÌÌ_È_ËÂÌÚ_132);}.cls-28,.cls-45{fill:#fff;}.cls-29{fill:url(#_ÂÁ_Ï_ÌÌ_È_ËÂÌÚ_9);}.cls-30{fill:url(#_ÂÁ_Ï_ÌÌ_È_ËÂÌÚ_50);}.cls-31{fill:#401734;}.cls-32{fill:url(#_ÂÁ_Ï_ÌÌ_È_ËÂÌÚ_93);}.cls-33{fill:url(#_ÂÁ_Ï_ÌÌ_È_ËÂÌÚ_93-2);}.cls-34{fill:url(#_ÂÁ_Ï_ÌÌ_È_ËÂÌÚ_93-3);}.cls-35{fill:url(#_ÂÁ_Ï_ÌÌ_È_ËÂÌÚ_93-4);}.cls-36{fill:url(#_ÂÁ_Ï_ÌÌ_È_ËÂÌÚ_93-5);}.cls-37{fill:url(#_ÂÁ_Ï_ÌÌ_È_ËÂÌÚ_93-6);}.cls-38{fill:url(#_ÂÁ_Ï_ÌÌ_È_ËÂÌÚ_135);}.cls-39{fill:url(#_ÂÁ_Ï_ÌÌ_È_ËÂÌÚ_45);}.cls-40{fill:url(#_ÂÁ_Ï_ÌÌ_È_ËÂÌÚ_104);}.cls-41{fill:url(#_ÂÁ_Ï_ÌÌ_È_ËÂÌÚ_10);}.cls-42{fill:url(#_ÂÁ_Ï_ÌÌ_È_ËÂÌÚ_139);}.cls-43{fill:#ac2a41;}.cls-43,.cls-48,.cls-51{opacity:0.3;}.cls-44{fill:url(#_ÂÁ_Ï_ÌÌ_È_ËÂÌÚ_139-2);}.cls-46{fill:url(#_ÂÁ_Ï_ÌÌ_È_ËÂÌÚ_36);}.cls-47{fill:url(#_ÂÁ_Ï_ÌÌ_È_ËÂÌÚ_57);}.cls-48{fill:#5c1748;}.cls-49{fill:url(#_ÂÁ_Ï_ÌÌ_È_ËÂÌÚ_3);}.cls-50{fill:url(#_ÂÁ_Ï_ÌÌ_È_ËÂÌÚ_60);}.cls-51{fill:#792a7c;}</style><linearGradient id="_ÂÁ_Ï_ÌÌ_È_ËÂÌÚ_8" x1="-135.99" y1="126.21" x2="-135.99" y2="10.57" gradientTransform="matrix(-0.87, -0.49, -0.5, 0.87, 147.37, 33.61)" gradientUnits="userSpaceOnUse"><stop offset="0" stop-color="#82776e"/><stop offset="0.99" stop-color="#514b48"/></linearGradient><radialGradient id="_ÂÁ_Ï_ÌÌ_È_ËÂÌÚ_4" cx="-175.23" cy="11.26" r="3.67" gradientTransform="matrix(-0.7, -0.4, -0.5, 0.87, 139.68, 29.94)" gradientUnits="userSpaceOnUse"><stop offset="0" stop-color="#d3c6c2"/><stop offset="0.99" stop-color="#92877e"/></radialGradient><radialGradient id="_ÂÁ_Ï_ÌÌ_È_ËÂÌÚ_4-2" cx="-170.73" cy="69.08" r="40.09" xlink:href="#_ÂÁ_Ï_ÌÌ_È_ËÂÌÚ_4"/><radialGradient id="_ÂÁ_Ï_ÌÌ_È_ËÂÌÚ_4-3" cx="-12.14" cy="127.13" r="41.45" gradientTransform="matrix(0.87, -0.5, 0.5, 0.87, 30.81, 25.9)" xlink:href="#_ÂÁ_Ï_ÌÌ_È_ËÂÌÚ_4"/><radialGradient id="_ÂÁ_Ï_ÌÌ_È_ËÂÌÚ_4-4" cx="-19.83" cy="69.56" r="3.67" gradientTransform="matrix(0.7, -0.4, 0.5, 0.87, 37.89, 22.33)" xlink:href="#_ÂÁ_Ï_ÌÌ_È_ËÂÌÚ_4"/><linearGradient id="_ÂÁ_Ï_ÌÌ_È_ËÂÌÚ_8-2" x1="-15.82" y1="185.17" x2="-15.82" y2="70.82" gradientTransform="matrix(0.7, -0.4, 0.5, 0.87, 37.89, 22.33)" xlink:href="#_ÂÁ_Ï_ÌÌ_È_ËÂÌÚ_8"/><linearGradient id="_ÂÁ_Ï_ÌÌ_È_ËÂÌÚ_8-3" x1="-108.96" y1="186.12" x2="31.76" y2="196.57" gradientTransform="matrix(-0.98, -0.22, -0.22, 0.97, 154.08, 21.82)" xlink:href="#_ÂÁ_Ï_ÌÌ_È_ËÂÌÚ_8"/><radialGradient id="_ÂÁ_Ï_ÌÌ_È_ËÂÌÚ_4-5" cx="-37.59" cy="170.79" r="51.15" gradientTransform="matrix(-0.98, -0.22, -0.22, 0.97, 154.08, 21.82)" xlink:href="#_ÂÁ_Ï_ÌÌ_È_ËÂÌÚ_4"/><linearGradient id="_ÂÁ_Ï_ÌÌ_È_ËÂÌÚ_8-4" x1="-90.87" y1="170.98" x2="13.34" y2="178.71" gradientTransform="matrix(-0.98, -0.22, -0.22, 0.97, 154.08, 21.82)" xlink:href="#_ÂÁ_Ï_ÌÌ_È_ËÂÌÚ_8"/><radialGradient id="_ÂÁ_Ï_ÌÌ_È_ËÂÌÚ_6" cx="-38.82" cy="164.7" r="37.93" gradientTransform="matrix(-0.98, -0.22, -0.22, 0.97, 154.08, 21.82)" gradientUnits="userSpaceOnUse"><stop offset="0" stop-color="#d3bcb5"/><stop offset="0.99" stop-color="#b6aba6"/></radialGradient><radialGradient id="_ÂÁ_Ï_ÌÌ_È_ËÂÌÚ_5" cx="-52.07" cy="173.31" r="1.03" gradientTransform="matrix(-0.98, -0.22, -0.22, 0.97, 154.08, 21.82)" gradientUnits="userSpaceOnUse"><stop offset="0" stop-color="#f48aff"/><stop offset="0.99" stop-color="#ffb8eb"/></radialGradient><radialGradient id="_ÂÁ_Ï_ÌÌ_È_ËÂÌÚ_5-2" cx="-37.41" cy="173.58" r="1.03" xlink:href="#_ÂÁ_Ï_ÌÌ_È_ËÂÌÚ_5"/><radialGradient id="_ÂÁ_Ï_ÌÌ_È_ËÂÌÚ_5-3" cx="-32.21" cy="173.77" r="1.03" xlink:href="#_ÂÁ_Ï_ÌÌ_È_ËÂÌÚ_5"/><radialGradient id="_ÂÁ_Ï_ÌÌ_È_ËÂÌÚ_5-4" cx="-25.98" cy="173.96" r="1.03" xlink:href="#_ÂÁ_Ï_ÌÌ_È_ËÂÌÚ_5"/><radialGradient id="_ÂÁ_Ï_ÌÌ_È_ËÂÌÚ_4-6" cx="-37.85" cy="197.29" r="44.63" gradientTransform="matrix(-0.98, -0.22, -0.22, 0.97, 154.08, 21.82)" xlink:href="#_ÂÁ_Ï_ÌÌ_È_ËÂÌÚ_4"/><radialGradient id="_ÂÁ_Ï_ÌÌ_È_ËÂÌÚ_98" cx="275.54" cy="-170.97" r="33.51" gradientTransform="translate(34.63 281.25) rotate(-23.78)" gradientUnits="userSpaceOnUse"><stop offset="0.02" stop-color="#e2dceb"/><stop offset="0.2" stop-color="#cfc4e7"/><stop offset="0.48" stop-color="#b7a4e3"/><stop offset="0.72" stop-color="#a891e0"/><stop offset="0.88" stop-color="#a38adf"/><stop offset="0.98" stop-color="#93d1ff"/></radialGradient><radialGradient id="_ÂÁ_Ï_ÌÌ_È_ËÂÌÚ_348" cx="274.65" cy="-171" r="29.34" gradientTransform="translate(34.63 281.25) rotate(-23.78)" gradientUnits="userSpaceOnUse"><stop offset="0" stop-color="#a998ff"/><stop offset="0.99" stop-color="#9845b8"/></radialGradient><radialGradient id="_ÂÁ_Ï_ÌÌ_È_ËÂÌÚ_348-2" cx="251.23" cy="-18.54" r="29.34" gradientTransform="translate(-12.38 6.15) rotate(2.03)" xlink:href="#_ÂÁ_Ï_ÌÌ_È_ËÂÌÚ_348"/><radialGradient id="_ÂÁ_Ï_ÌÌ_È_ËÂÌÚ_348-3" cx="274.65" cy="-171" r="29.34" xlink:href="#_ÂÁ_Ï_ÌÌ_È_ËÂÌÚ_348"/><linearGradient id="_ÂÁ_Ï_ÌÌ_È_ËÂÌÚ_132" x1="274.6" y1="-183.57" x2="274.6" y2="-183.78" gradientTransform="translate(34.63 281.25) rotate(-23.78)" gradientUnits="userSpaceOnUse"><stop offset="0" stop-color="#fdcdd3"/><stop offset="1" stop-color="#ffeacd"/></linearGradient><radialGradient id="_ÂÁ_Ï_ÌÌ_È_ËÂÌÚ_9" cx="59.11" cy="28.68" r="35.91" gradientTransform="translate(-29.51 13.42) rotate(-7.44)" gradientUnits="userSpaceOnUse"><stop offset="0" stop-color="#5178fe"/><stop offset="0.99" stop-color="#713592"/></radialGradient><linearGradient id="_ÂÁ_Ï_ÌÌ_È_ËÂÌÚ_50" x1="27.91" y1="59.1" x2="87.99" y2="63.56" gradientTransform="translate(-29.51 13.42) rotate(-7.44)" gradientUnits="userSpaceOnUse"><stop offset="0" stop-color="#603082"/><stop offset="0.99" stop-color="#2a0e51"/></linearGradient><radialGradient id="_ÂÁ_Ï_ÌÌ_È_ËÂÌÚ_93" cx="62.41" cy="43.76" r="19.11" gradientTransform="translate(-31.85 10.37) rotate(-6.84)" gradientUnits="userSpaceOnUse"><stop offset="0.01" stop-color="#4bffff"/><stop offset="1" stop-color="#2fc5ff"/></radialGradient><radialGradient id="_ÂÁ_Ï_ÌÌ_È_ËÂÌÚ_93-2" cx="61.34" cy="43.71" r="18.83" xlink:href="#_ÂÁ_Ï_ÌÌ_È_ËÂÌÚ_93"/><radialGradient id="_ÂÁ_Ï_ÌÌ_È_ËÂÌÚ_93-3" cx="61.53" cy="43.71" r="18.72" xlink:href="#_ÂÁ_Ï_ÌÌ_È_ËÂÌÚ_93"/><radialGradient id="_ÂÁ_Ï_ÌÌ_È_ËÂÌÚ_93-4" cx="61.47" cy="43.71" r="18.78" xlink:href="#_ÂÁ_Ï_ÌÌ_È_ËÂÌÚ_93"/><radialGradient id="_ÂÁ_Ï_ÌÌ_È_ËÂÌÚ_93-5" cx="61.57" cy="43.71" r="18.56" xlink:href="#_ÂÁ_Ï_ÌÌ_È_ËÂÌÚ_93"/><radialGradient id="_ÂÁ_Ï_ÌÌ_È_ËÂÌÚ_93-6" cx="61.31" cy="43.71" r="18.65" xlink:href="#_ÂÁ_Ï_ÌÌ_È_ËÂÌÚ_93"/><linearGradient id="_ÂÁ_Ï_ÌÌ_È_ËÂÌÚ_135" x1="238.28" y1="169.71" x2="254.2" y2="110.56" gradientTransform="matrix(0.96, 0.27, -0.27, 0.96, -49.48, -121.56)" gradientUnits="userSpaceOnUse"><stop offset="0" stop-color="#ffa700"/><stop offset="1" stop-color="#ffd328"/></linearGradient><linearGradient id="_ÂÁ_Ï_ÌÌ_È_ËÂÌÚ_45" x1="211.81" y1="142.32" x2="207.13" y2="112.52" gradientTransform="matrix(0.98, 0.19, -0.19, 0.98, -36.32, -80.13)" gradientUnits="userSpaceOnUse"><stop offset="0.02" stop-color="#e2dceb"/><stop offset="1" stop-color="#fff"/></linearGradient><radialGradient id="_ÂÁ_Ï_ÌÌ_È_ËÂÌÚ_104" cx="211.26" cy="140.32" r="16.26" gradientTransform="matrix(0.98, 0.19, -0.19, 0.98, -36.32, -80.13)" gradientUnits="userSpaceOnUse"><stop offset="0" stop-color="#d8b3c9"/><stop offset="0.98" stop-color="#ab99c6"/></radialGradient><linearGradient id="_ÂÁ_Ï_ÌÌ_È_ËÂÌÚ_10" x1="184.7" y1="147.28" x2="236.96" y2="147.28" gradientTransform="matrix(0.98, 0.19, -0.19, 0.98, -36.32, -80.13)" gradientUnits="userSpaceOnUse"><stop offset="0" stop-color="#c93347"/><stop offset="1" stop-color="#ff7527"/></linearGradient><linearGradient id="_ÂÁ_Ï_ÌÌ_È_ËÂÌÚ_139" x1="195.24" y1="138.8" x2="195.24" y2="123.74" gradientTransform="matrix(0.98, 0.19, -0.19, 0.98, -36.32, -80.13)" gradientUnits="userSpaceOnUse"><stop offset="0.02" stop-color="#bdafd2"/><stop offset="1" stop-color="#ebd7e3"/></linearGradient><linearGradient id="_ÂÁ_Ï_ÌÌ_È_ËÂÌÚ_139-2" x1="212.62" y1="78.92" x2="212.62" y2="66.86" gradientTransform="matrix(1.04, 0.2, -0.21, 1.1, -66.31, -56.17)" xlink:href="#_ÂÁ_Ï_ÌÌ_È_ËÂÌÚ_139"/><linearGradient id="_ÂÁ_Ï_ÌÌ_È_ËÂÌÚ_36" x1="181.38" y1="-24.04" x2="181.38" y2="-69.16" gradientTransform="translate(152.92 207.58) rotate(-25.79)" gradientUnits="userSpaceOnUse"><stop offset="0.02" stop-color="#d4cbe2"/><stop offset="1" stop-color="#f3e6ee"/></linearGradient><radialGradient id="_ÂÁ_Ï_ÌÌ_È_ËÂÌÚ_57" cx="180.13" cy="-23.97" r="17.64" gradientTransform="translate(152.92 207.58) rotate(-25.79)" gradientUnits="userSpaceOnUse"><stop offset="0" stop-color="#b3819d"/><stop offset="1" stop-color="#785ca6"/></radialGradient><linearGradient id="_ÂÁ_Ï_ÌÌ_È_ËÂÌÚ_3" x1="182.09" y1="-37.06" x2="182.09" y2="-58.02" gradientTransform="translate(152.92 207.58) rotate(-25.79)" gradientUnits="userSpaceOnUse"><stop offset="0" stop-color="#e03347"/><stop offset="1" stop-color="#ff6e27"/></linearGradient><linearGradient id="_ÂÁ_Ï_ÌÌ_È_ËÂÌÚ_60" x1="171.47" y1="-43.65" x2="193.02" y2="-43.65" gradientTransform="translate(152.92 207.58) rotate(-25.79)" gradientUnits="userSpaceOnUse"><stop offset="0" stop-color="#bb152c"/><stop offset="1" stop-color="#c73e27"/></linearGradient></defs><title>router</title><g class="cls-1"><g id="Layer_2" data-name="Layer 2"><g id="Layer_1-2" data-name="Layer 1"><rect class="cls-2" x="0.45" width="327" height="249"/><polygon class="cls-3" points="199.66 208.31 208.32 211.24 261.45 110.23 256.29 110.22 199.66 208.31"/><polygon class="cls-4" points="261.45 110.23 253.11 108.43 256.29 110.22 261.45 110.23"/><polygon class="cls-5" points="253.11 108.43 198.55 198.39 199.66 208.31 256.29 110.22 253.11 108.43"/><polygon class="cls-6" points="116.68 190.82 108.03 193.78 54.52 91.54 59.68 91.52 116.68 190.82"/><polygon class="cls-7" points="54.52 91.54 62.85 89.72 59.68 91.52 54.52 91.54"/><polygon class="cls-8" points="62.85 89.72 115.72 177.56 116.68 190.82 59.68 91.52 62.85 89.72"/><polygon class="cls-9" points="220.72 218.04 212.24 235.53 146.62 234.49 81.42 206.35 81.69 188.9 220.72 218.04"/><polygon class="cls-10" points="190.3 189.33 220.72 218.04 151.69 212.34 81.69 188.9 122.68 173.99 190.3 189.33"/><polygon class="cls-11" points="204.38 212.34 154.07 197.38 101.4 190.97 204.38 212.34"/><polygon class="cls-12" points="101.4 190.97 133.95 176.55 158.79 179.66 183.85 187.87 204.38 212.34 154.07 197.38 101.4 190.97"/><polygon class="cls-13" points="154.07 197.38 158.79 179.66 133.95 176.55 101.4 190.97 154.07 197.38"/><path class="cls-14" d="M165.38,202.15a1,1,0,1,0,1.24-.78A1,1,0,0,0,165.38,202.15Z"/><path class="cls-15" d="M151,199.15a1,1,0,1,0,1.24-.78A1,1,0,0,0,151,199.15Z"/><path class="cls-16" d="M145.81,198.18a1,1,0,1,0,1.24-.77A1,1,0,0,0,145.81,198.18Z"/><path class="cls-17" d="M139.66,197a1,1,0,1,0,1.24-.78A1,1,0,0,0,139.66,197Z"/><polygon class="cls-13" points="151.69 212.34 146.62 234.49 81.42 206.35 81.69 188.9 151.69 212.34"/><polygon class="cls-18" points="209.88 230.84 214.83 221.06 150.26 218.58 85.15 193.84 86.33 205.5 147.67 229.89 209.88 230.84"/><polygon class="cls-19" points="209.88 230.84 208.03 229.24 148.54 226.64 89.6 204.72 86.33 205.5 147.67 229.89 209.88 230.84"/><path class="cls-20" d="M175.45,169.55l2.09-3.67a50.35,50.35,0,0,0-13.82-5.37,51.27,51.27,0,0,0-15.43-1l.34,4.2a46.75,46.75,0,0,1,14.16,1A46.08,46.08,0,0,1,175.45,169.55Z"/><path class="cls-20" d="M171.8,175.79l2.19-3.6a41.18,41.18,0,0,0-25.07-5.48l.47,4.18a35.84,35.84,0,0,1,11.8.72A35.47,35.47,0,0,1,171.8,175.79Z"/><path class="cls-20" d="M179.12,163.29l2.12-3.65a56.78,56.78,0,0,0-15.91-6.19,57.75,57.75,0,0,0-17.66-1.21l.36,4.2a53.78,53.78,0,0,1,16.37,1.11A52.73,52.73,0,0,1,179.12,163.29Z"/><path class="cls-21" d="M242.48,14.34a23.09,23.09,0,0,1,1.72,5.94A23.34,23.34,0,0,1,230.53,45.1a22.43,22.43,0,0,1-3.48,1.21A23.29,23.29,0,0,1,205,40.55h0a23.35,23.35,0,0,1-.46-33.15,23.43,23.43,0,0,1,7.24-5l.13-.05.19-.08A23.23,23.23,0,0,1,231.69,3a22.6,22.6,0,0,1,4.47,3A23.2,23.2,0,0,1,242.48,14.34Z"/><g class="cls-22"><path class="cls-23" d="M242.48,14.34a23.09,23.09,0,0,1,1.72,5.94,5.08,5.08,0,0,1-2.45.73c-1.31,0-2.6.15-3.94.09-2.69-.11-3.26-2.16-5-3.82a23.19,23.19,0,0,0-2.19-2c-.84-.62-2-1-2.72-1.66-1.17,1,1.23,1.43,1.65,1.81.92.82.4,2,.51,3,.24,2.14,1.55,4.23.2,6.14-.49.68-.92,1.49-1.43,2.07s-1.42.8-2.06,1.37c-.92.85-1.9,4.56-3.42,3.58-.91-.58-.42-1.92-.91-2.6s-1.32-.79-1.79-1.68-.83-1.56-1.25-2.31a22.4,22.4,0,0,0-1.33-2.09c-.5-.73-.73-1.67-1.22-2.46-.27-.42-.63-.54-.83-1s0-.92-.2-1.34c-.51-1.09-1.44-.75-.65-2a10.56,10.56,0,0,1,1.54-1.81c.57-.4,1.51-.68,2.18-1.1a8.32,8.32,0,0,1,2.27-1c.94-.22,2.09-.06,3-.37.7-.24,1.53-.69,2.26-1-.19-1.08-2.48-1.16-3.47-1.19.71,2.62-2.75,1.17-3.7,1.56.12-1.9.63-3.82,2.19-4.68,1.26-.7,3.45-2.05,4.85-1.91-.3,2.71,4.88.94,6.11,1.11a18.68,18.68,0,0,0,3.48.33l.32,0A23.2,23.2,0,0,1,242.48,14.34Z"/><path class="cls-24" d="M235.47,33.09c-.67-.71-2.22-1-3.15-1.18-1.43-.34-2,.22-3.28.55-.73.19-.63,0-1.27,0a2.71,2.71,0,0,0-1.68.21c-1.23.73-.84,2-1.1,3.23a24.79,24.79,0,0,1-.92,3.8,13.79,13.79,0,0,0,1.44-.18,11.54,11.54,0,0,1,1.92.2,27.53,27.53,0,0,1,3.22.8c2.64.53,4.31-2.06,5.23-4.18C236.21,35.59,237.08,33,235.47,33.09Z"/><path class="cls-25" d="M206.78,9.6a8.84,8.84,0,0,1-1.32,3.27c-.63,1-.94,2.35-1.81,3.24-1.65,1.65-4.71,6.32-5.76,5.62A23.31,23.31,0,0,1,204.48,7.4C205.58,7.69,206.83,8.63,206.78,9.6Z"/></g><path class="cls-26" d="M211.85,2.34c0,.08,0,.14,0,.22l-.05-.2Z"/><g class="cls-27"><rect class="cls-28" x="197.83" y="23.44" width="46.6" height="0.55" transform="translate(162.92 238.37) rotate(-80.95)"/><path class="cls-28" d="M218.49,46.88l-.25-.49a30.26,30.26,0,0,0,14.17-21C234.92,9.61,224.71,1,224.61.92L225,.49c.11.09,10.55,8.88,8,25A30.81,30.81,0,0,1,218.49,46.88Z"/><path class="cls-28" d="M218.38,46.91l0-.56c.19,0,18.47-1.11,22.08-19.7C243.87,8.89,224.88,1,224.68,1l.21-.51c.2.08,19.61,8.09,16.08,26.31C237.28,45.78,218.57,46.9,218.38,46.91Z"/><path class="cls-28" d="M216.42,46.55a30.76,30.76,0,0,1-7.12-24.83C211.85,5.62,224.51.49,224.64.44l.2.52c-.13,0-12.49,5.07-15,20.85a30.19,30.19,0,0,0,7,24.35Z"/><path class="cls-28" d="M216.52,46.61c-.18-.07-17.62-6.93-15.24-26.15C203.56,2,224.51.44,224.72.42l0,.55c-.21,0-20.7,1.6-22.93,19.55C199.5,39.32,216.54,46,216.72,46.09Z"/><path class="cls-28" d="M244.09,27.52a116.39,116.39,0,0,0-46-7.3l0-.55A117,117,0,0,1,244.29,27Z"/><path class="cls-28" d="M231.83,44.69A76.12,76.12,0,0,0,205,40.82l0-.55A76.39,76.39,0,0,1,232,44.17Z"/><path class="cls-28" d="M236.78,6.79C220.57,1.16,209.07,4.13,209,4.16l-.14-.54c.12,0,11.79-3,28.16,2.65Z"/></g><polygon class="cls-29" points="6.04 72.34 0 34 62.21 25.87 65.68 59.78 9.89 66.17 6.04 72.34"/><polygon class="cls-30" points="65.68 59.78 59.76 63.19 10.23 69.24 7.16 73.6 6.04 72.34 9.89 66.17 65.68 59.78"/><polygon class="cls-31" points="10.23 69.24 9.89 66.17 6.04 72.34 7.16 73.6 10.23 69.24"/><polygon class="cls-32" points="12.64 41.03 12.93 43.17 52.06 38.27 51.75 35.66 12.64 41.03"/><polygon class="cls-33" points="14.92 55.45 15.22 57.6 53.8 52.77 53.58 50.87 14.92 55.45"/><polygon class="cls-34" points="13.76 48.05 14.05 50.2 44.76 46.35 44.48 43.84 13.76 48.05"/><polygon class="cls-35" points="45.31 43.74 45.59 46.27 51.65 45.66 51.49 43 45.31 43.74"/><polygon class="cls-36" points="13.14 44.54 13.43 46.69 31.57 44.41 31.33 42.16 13.14 44.54"/><polygon class="cls-37" points="14.31 51.58 14.6 53.73 26.63 52.22 26.23 50.02 14.31 51.58"/><polygon class="cls-38" points="118.05 97.21 130.18 52.63 175.47 60.15 169.52 106.25 118.05 97.21"/><polygon class="cls-39" points="122.84 91.33 136.23 78.54 138.28 84.22 159.64 69.44 167.94 99.88 167.94 99.88 122.84 91.33"/><polygon class="cls-40" points="122.84 91.33 126.54 95.12 164.08 102.24 167.94 99.88 122.84 91.33"/><polygon class="cls-41" points="118.05 97.21 123.64 102.36 162.28 110.01 169.52 106.25 118.05 97.21"/><polygon class="cls-42" points="138.28 84.22 128.66 92.26 122.84 91.33 136.23 78.54 138.28 84.22"/><path class="cls-43" d="M146.19,68.48c-.8,4.2-4.26,7.07-7.73,6.41s-5.64-4.6-4.84-8.79,4.26-7.07,7.73-6.42S147,64.28,146.19,68.48Z"/><path class="cls-44" d="M146.37,67.53a6.41,6.41,0,1,1-5-7.85A6.6,6.6,0,0,1,146.37,67.53Z"/><path class="cls-45" d="M146.15,66.73a6,6,0,1,1-4.8-7.05A6,6,0,0,1,146.15,66.73Z"/><polygon class="cls-43" points="126.54 95.12 128.13 98.98 161.47 104.83 164.08 102.24 126.54 95.12"/><path class="cls-46" d="M261.35,78.37l20,38.14L327,96.75,311.51,55.62Z"/><polygon class="cls-47" points="281.37 116.51 286.98 117.37 323.96 100.68 327.02 96.75 281.37 116.51"/><polygon class="cls-48" points="281.77 80.87 293.22 103.83 307.76 81 281.77 80.87"/><polygon class="cls-49" points="281.77 80.87 291.18 99.6 304.36 77.34 281.77 80.87"/><polygon class="cls-50" points="304.36 77.34 304.73 82.46 292.93 100.03 291.18 99.6 304.36 77.34"/><polygon class="cls-51" points="90.36 242.17 76.84 248.99 214.45 248.21 201.13 241.72 90.36 242.17"/></g></g></g></svg>