<svg xmlns="http://www.w3.org/2000/svg" xmlns:xlink="http://www.w3.org/1999/xlink" viewBox="0 0 100 106.6"><defs><style>.cls-1{isolation:isolate;}.cls-2{fill:#540041;opacity:0.3;}.cls-10,.cls-11,.cls-12,.cls-2,.cls-7,.cls-9{fill-rule:evenodd;}.cls-2,.cls-7,.cls-8{mix-blend-mode:multiply;}.cls-3{fill:url(#_ÂÁ_Ï_ÌÌ_È_ËÂÌÚ_57);}.cls-4{fill:url(#_ÂÁ_Ï_ÌÌ_È_ËÂÌÚ_34);}.cls-5{fill:url(#_ÂÁ_Ï_ÌÌ_È_ËÂÌÚ_178);}.cls-6{fill:url(#_ÂÁ_Ï_ÌÌ_È_ËÂÌÚ_76);}.cls-7,.cls-9{fill:#701768;}.cls-11,.cls-7{opacity:0.5;}.cls-8{fill:#8e4072;opacity:0.2;}.cls-10{fill:url(#_ÂÁ_Ï_ÌÌ_È_ËÂÌÚ_27);}.cls-11{fill:#ffffb6;mix-blend-mode:soft-light;}.cls-12{mix-blend-mode:screen;fill:url(#_ÂÁ_Ï_ÌÌ_È_ËÂÌÚ_78);}.cls-13{fill:#ff464d;}</style><radialGradient id="_ÂÁ_Ï_ÌÌ_È_ËÂÌÚ_57" cx="28.69" cy="-1989.88" r="68.43" gradientTransform="translate(0 2658.89) scale(1 1.33)" gradientUnits="userSpaceOnUse"><stop offset="0" stop-color="#b3819d"/><stop offset="1" stop-color="#785ca6"/></radialGradient><radialGradient id="_ÂÁ_Ï_ÌÌ_È_ËÂÌÚ_34" cx="52.12" cy="-1935.71" r="45.07" gradientTransform="translate(-1830.12 1859.41) rotate(45) scale(1 1.33)" gradientUnits="userSpaceOnUse"><stop offset="0" stop-color="#ba94a5"/><stop offset="1" stop-color="#66439a"/></radialGradient><radialGradient id="_ÂÁ_Ï_ÌÌ_È_ËÂÌÚ_178" cx="50" cy="50" r="40.2" gradientTransform="translate(50 -20.71) rotate(45)" gradientUnits="userSpaceOnUse"><stop offset="0" stop-color="#faf5f8"/><stop offset="0.98" stop-color="#d4cbe2"/></radialGradient><linearGradient id="_ÂÁ_Ï_ÌÌ_È_ËÂÌÚ_76" x1="10.88" y1="32.78" x2="85.65" y2="32.78" gradientUnits="userSpaceOnUse"><stop offset="0.01" stop-color="#ff6b59"/><stop offset="1" stop-color="#c90046"/></linearGradient><linearGradient id="_ÂÁ_Ï_ÌÌ_È_ËÂÌÚ_27" x1="47.99" y1="52.92" x2="52.01" y2="52.92" gradientUnits="userSpaceOnUse"><stop offset="0.02" stop-color="#e3dfd8"/><stop offset="1" stop-color="#cfc7ff"/></linearGradient><linearGradient id="_ÂÁ_Ï_ÌÌ_È_ËÂÌÚ_78" x1="46.69" y1="93.3" x2="46.69" y2="7.2" gradientUnits="userSpaceOnUse"><stop offset="0"/><stop offset="1" stop-color="#8184b1"/></linearGradient></defs><title>speedometer</title><g class="cls-1"><g id="Layer_2" data-name="Layer 2"><g id="Layer_1-2" data-name="Layer 1"><path class="cls-2" d="M92.48,69.94A43.46,43.46,0,0,1,9.62,80.27a41.38,41.38,0,0,1-1.79-5Z"/><circle class="cls-3" cx="50" cy="50" r="50"/><circle class="cls-4" cx="50" cy="50" r="43.56" transform="translate(-20.71 50) rotate(-45)"/><circle class="cls-5" cx="50" cy="50" r="40.2" transform="translate(-20.71 50) rotate(-45)"/><path class="cls-6" d="M16.88,50a32,32,0,0,1,1.7-12.3,32.67,32.67,0,0,1,6.43-11A33.2,33.2,0,0,1,35.4,18.93a34,34,0,0,1,12.87-3.31,34.79,34.79,0,0,1,13.44,1.92,35.65,35.65,0,0,1,11.93,7.09A36.37,36.37,0,0,1,82.11,36a37.29,37.29,0,0,1,3.54,14h-12a26.13,26.13,0,0,0-6.37-19,27.68,27.68,0,0,0-19-9.38,29.14,29.14,0,0,0-21.13,7.26A30.64,30.64,0,0,0,16.88,50Z"/><path class="cls-7" d="M93.56,50a44.8,44.8,0,0,1-.38,5.82,43.57,43.57,0,0,0-86.36,0A44.8,44.8,0,0,1,6.44,50a43.56,43.56,0,0,1,87.12,0Z"/><circle class="cls-8" cx="50" cy="52.92" r="11.2" transform="translate(-15.28 20.69) rotate(-20.35)"/><path class="cls-9" d="M54.39,52.92A4.39,4.39,0,1,1,50,48.53,4.39,4.39,0,0,1,54.39,52.92Z"/><polygon class="cls-9" points="46.62 50.18 73.93 21.63 53.59 55.53 46.62 50.18"/><path class="cls-10" d="M52,52.92a2,2,0,1,1-2-2A2,2,0,0,1,52,52.92Z"/><path class="cls-11" d="M39.46,92.27l2.47-2.88a37.44,37.44,0,0,0,16.14,0l2.2,2.88S51.87,95.31,39.46,92.27Z"/><path class="cls-11" d="M18.28,11.35l5.33,4S39.46,2.9,58.39,7.25l1.88-6.19S37.26-4.6,18.28,11.35Z"/><path class="cls-12" d="M24.74,16.16,39.46,92.27S58.61,96,68.63,89.39L58.47,8.2A39.27,39.27,0,0,0,24.74,16.16Z"/><path class="cls-11" d="M64.17,91.51l-3-2.9A54.8,54.8,0,0,0,67,86.33l2.56,2.59S66,91.32,64.17,91.51Z"/><path class="cls-13" d="M36.48,70.2a1.38,1.38,0,0,0-.82.21.71.71,0,0,0-.29.63.82.82,0,0,0,.42.68,5.15,5.15,0,0,0,1.13.56,4.71,4.71,0,0,1,1,.48,2.21,2.21,0,0,1,.68.74,2.42,2.42,0,0,1,.27,1.2,2.18,2.18,0,0,1-1.28,2,3.32,3.32,0,0,1-1.5.31,5.07,5.07,0,0,1-1.44-.21,4.53,4.53,0,0,1-1.34-.66L34,74.91a3.66,3.66,0,0,0,1,.51,2.9,2.9,0,0,0,1,.2,1.76,1.76,0,0,0,.88-.21.76.76,0,0,0,.38-.71c0-.41-.4-.78-1.18-1.09a9.38,9.38,0,0,1-1.16-.53,2.31,2.31,0,0,1-.8-.73,2,2,0,0,1-.34-1.19,2.16,2.16,0,0,1,.69-1.68,2.8,2.8,0,0,1,1.84-.7,5,5,0,0,1,1.51.2,5.38,5.38,0,0,1,1.18.58l-.61,1.23A3.94,3.94,0,0,0,36.48,70.2Z"/><path class="cls-13" d="M45.18,69.56a2.54,2.54,0,0,1,.82,2,3.25,3.25,0,0,1-.28,1.36,2.38,2.38,0,0,1-.92,1,3,3,0,0,1-1.64.4H42v2.57h-1.6V68.82h2.46A3.31,3.31,0,0,1,45.18,69.56Zm-1.3,3a1.08,1.08,0,0,0,.4-.48,1.31,1.31,0,0,0,.12-.53,1.54,1.54,0,0,0-.25-.83,1.08,1.08,0,0,0-1-.4H42v2.45h1.13A1.17,1.17,0,0,0,43.88,72.61Z"/><path class="cls-13" d="M53,68.82v1.55H49V72.1h3.49v1.55H49V75.4h4.1v1.54h-5.7V68.82Z"/><path class="cls-13" d="M60.32,68.82v1.55H56.38V72.1h3.49v1.55H56.38V75.4h4.09v1.54H54.78V68.82Z"/><path class="cls-13" d="M62.13,68.82h2.42a4.92,4.92,0,0,1,2.56.61A3.7,3.7,0,0,1,68.58,71,4.76,4.76,0,0,1,69,73a3.8,3.8,0,0,1-.55,2.06A3.68,3.68,0,0,1,67,76.46a4.42,4.42,0,0,1-2,.48H62.13Zm2.55,6.58a2.85,2.85,0,0,0,2-.64,2.31,2.31,0,0,0,.73-1.84,2.74,2.74,0,0,0-.4-1.55,2.25,2.25,0,0,0-.94-.79,2.6,2.6,0,0,0-1-.22h-1.3v5Z"/></g></g></g></svg>