<svg xmlns="http://www.w3.org/2000/svg" xmlns:xlink="http://www.w3.org/1999/xlink" viewBox="0 0 99.92 119.31"><defs><style>.cls-1{isolation:isolate;}.cls-2{fill:#7e38c1;}.cls-3{fill:#2c0045;}.cls-4{fill:url(#_ÂÁ_Ï_ÌÌ_È_ËÂÌÚ_12);}.cls-5{fill:url(#linear-gradient);}.cls-6{fill:#a27a7a;}.cls-7{fill:#540041;opacity:0.3;}.cls-10,.cls-13,.cls-14,.cls-17,.cls-18,.cls-19,.cls-20,.cls-7{fill-rule:evenodd;}.cls-13,.cls-15,.cls-7{mix-blend-mode:multiply;}.cls-8{fill:#8b0c42;}.cls-9{fill:url(#_ÂÁ_Ï_ÌÌ_È_ËÂÌÚ_244);}.cls-10{fill:url(#_ÂÁ_Ï_ÌÌ_È_ËÂÌÚ_178);}.cls-11{fill:#4f4f4f;}.cls-11,.cls-12{opacity:0.8;}.cls-13{fill:#8e4072;}.cls-13,.cls-19{opacity:0.5;}.cls-14{fill:#a695cf;}.cls-15{opacity:0.2;fill:url(#_ÂÁ_Ï_ÌÌ_È_ËÂÌÚ_12-2);}.cls-16{fill:#ff4f4a;}.cls-17{fill:#ff4e4a;}.cls-18{fill:url(#_ÂÁ_Ï_ÌÌ_È_ËÂÌÚ_178-2);}.cls-19{fill:#ffffb6;mix-blend-mode:soft-light;}.cls-20{mix-blend-mode:screen;fill:url(#_ÂÁ_Ï_ÌÌ_È_ËÂÌÚ_78);}</style><linearGradient id="_ÂÁ_Ï_ÌÌ_È_ËÂÌÚ_12" x1="46.72" y1="16.37" x2="46.72" y2="9.2" gradientUnits="userSpaceOnUse"><stop offset="0" stop-color="#e8467a"/><stop offset="1" stop-color="#e37b55"/></linearGradient><linearGradient id="linear-gradient" x1="46.81" y1="7.07" x2="45.21" y2="-1.04" gradientUnits="userSpaceOnUse"><stop offset="0" stop-color="#cc4973"/><stop offset="1" stop-color="#e45620"/></linearGradient><linearGradient id="_ÂÁ_Ï_ÌÌ_È_ËÂÌÚ_244" x1="-112.46" y1="216.27" x2="-112.46" y2="121.16" gradientTransform="matrix(1, 0, 0, 1.02, 162.23, -111.29)" gradientUnits="userSpaceOnUse"><stop offset="0" stop-color="#ff3363"/><stop offset="1" stop-color="#ff6e27"/></linearGradient><radialGradient id="_ÂÁ_Ï_ÌÌ_È_ËÂÌÚ_178" cx="-112.88" cy="170.22" r="68.85" gradientTransform="translate(118.75 -144.79) rotate(-12.56)" gradientUnits="userSpaceOnUse"><stop offset="0" stop-color="#faf5f8"/><stop offset="0.98" stop-color="#d4cbe2"/></radialGradient><linearGradient id="_ÂÁ_Ï_ÌÌ_È_ËÂÌÚ_12-2" x1="50.04" y1="75.06" x2="50.04" y2="49.91" xlink:href="#_ÂÁ_Ï_ÌÌ_È_ËÂÌÚ_12"/><radialGradient id="_ÂÁ_Ï_ÌÌ_È_ËÂÌÚ_178-2" cx="-112.15" cy="187.36" r="2.2" xlink:href="#_ÂÁ_Ï_ÌÌ_È_ËÂÌÚ_178"/><linearGradient id="_ÂÁ_Ï_ÌÌ_È_ËÂÌÚ_78" x1="45.88" y1="105.86" x2="45.88" y2="21.45" gradientUnits="userSpaceOnUse"><stop offset="0"/><stop offset="1" stop-color="#8184b1"/></linearGradient></defs><title>stopwatch</title><g class="cls-1"><g id="Layer_2" data-name="Layer 2"><g id="Layer_1-2" data-name="Layer 1"><rect class="cls-2" x="84.52" y="21.49" width="4.78" height="9.17" transform="translate(7.73 70.4) rotate(-45.94)"/><path class="cls-3" d="M84.65,22.86h0c-.18-.18-.53-.11-.79.16l-1.71,1.77.66.64,1.71-1.77A.59.59,0,0,0,84.65,22.86Z"/><path class="cls-3" d="M85.76,23.94h0c-.18-.18-.53-.1-.79.17l-1.71,1.76.66.64,1.71-1.76C85.88,24.47,85.94,24.11,85.76,23.94Z"/><path class="cls-3" d="M86.87,25h0c-.18-.18-.53-.11-.79.16l-1.71,1.77.66.64,1.71-1.77A.59.59,0,0,0,86.87,25Z"/><path class="cls-3" d="M88,26.09h0c-.19-.18-.54-.1-.8.17L85.47,28l.66.64,1.71-1.76C88.1,26.62,88.16,26.26,88,26.09Z"/><path class="cls-3" d="M89.09,27.16h0c-.19-.17-.54-.1-.8.17l-1.71,1.77.67.64L89,28A.59.59,0,0,0,89.09,27.16Z"/><path class="cls-3" d="M90.2,28.24h0c-.18-.18-.54-.1-.8.17l-1.71,1.76.67.64L90.06,29C90.32,28.77,90.38,28.41,90.2,28.24Z"/><rect class="cls-2" x="4.1" y="28.32" width="9.17" height="4.78" transform="translate(-20.6 18.04) rotate(-50.83)"/><path class="cls-3" d="M10.55,27.24h0c.16-.2.53-.17.81.07l1.91,1.55-.59.72L10.78,28C10.49,27.79,10.39,27.44,10.55,27.24Z"/><path class="cls-3" d="M9.57,28.44h0c.16-.2.52-.17.81.07l1.9,1.55-.58.71L9.8,29.22C9.52,29,9.41,28.64,9.57,28.44Z"/><path class="cls-3" d="M8.59,29.64h0c.16-.19.52-.16.81.07l1.9,1.56-.58.71-1.9-1.55A.61.61,0,0,1,8.59,29.64Z"/><path class="cls-3" d="M7.62,30.84h0c.16-.19.53-.16.81.07l1.91,1.55-.59.72-1.9-1.55C7.56,31.38,7.46,31,7.62,30.84Z"/><path class="cls-3" d="M6.64,32h0c.16-.19.52-.16.81.07l1.9,1.55-.58.72L6.87,32.82C6.59,32.58,6.48,32.23,6.64,32Z"/><path class="cls-3" d="M5.67,33.24h0c.16-.2.52-.17.81.07l1.91,1.55-.59.72L5.9,34C5.61,33.78,5.51,33.43,5.67,33.24Z"/><path class="cls-4" d="M52.24,13.9l-10.81.64L41.2,10.7a.69.69,0,0,1,.65-.73l9.44-.56a.69.69,0,0,1,.72.65Z"/><path class="cls-5" d="M51.38,4.05l-10.25.61v0a4.28,4.28,0,0,1,4-4.51L46.87,0a4.25,4.25,0,0,1,4.5,4Z"/><rect class="cls-6" x="44.23" y="4.35" width="4.35" height="5.35" transform="translate(-0.33 2.75) rotate(-3.38)"/><path class="cls-7" d="M94,82.65A43.47,43.47,0,0,1,11.09,93,41.52,41.52,0,0,1,9.3,88Z"/><circle class="cls-8" cx="50.04" cy="62.49" r="49.87" transform="translate(-29.53 53.69) rotate(-45)"/><ellipse class="cls-9" cx="49.77" cy="61.29" rx="49.82" ry="48.64" transform="translate(-12.14 12.29) rotate(-12.56)"/><ellipse class="cls-8" cx="49.74" cy="61.11" rx="42.4" ry="41.39" transform="translate(-12.1 12.28) rotate(-12.56)"/><path class="cls-10" d="M91.33,52.81c4.86,21.8-9.74,43.61-32.59,48.7S13.41,93.06,8.55,71.25a37.62,37.62,0,0,1-.67-4s0-.09,0-.28l-.08-.78v0C6,46.13,20.08,27.24,41.15,22.55c17-3.78,33.72,2.72,43.22,15.24A39,39,0,0,1,88.7,45v0h0A39.12,39.12,0,0,1,91.33,52.81Z"/><path class="cls-11" d="M50.32,91.15C33.46,91.15,19.75,78,19.75,61.74S33.46,32.33,50.32,32.33s30.56,13.2,30.56,29.41S67.17,91.15,50.32,91.15Zm0-58.12C33.86,33,20.47,45.91,20.47,61.74S33.86,90.45,50.32,90.45,80.16,77.57,80.16,61.74,66.77,33,50.32,33Z"/><g class="cls-12"><rect class="cls-3" x="47.12" y="25.37" width="1.69" height="4.99" transform="matrix(1, -0.06, 0.06, 1, -1.68, 3.12)"/><polygon class="cls-3" points="71.95 38.49 71.48 38.09 75.1 34.13 75.57 34.53 71.95 38.49"/><polygon class="cls-3" points="74.61 82.93 75.02 82.48 78.88 85.74 78.47 86.19 74.61 82.93"/><polygon class="cls-3" points="28.17 85.52 28.64 85.91 25.23 89.64 24.77 89.24 28.17 85.52"/><polygon class="cls-3" points="25.73 40.84 25.31 41.29 21.45 38.02 21.86 37.57 25.73 40.84"/><polygon class="cls-3" points="36.22 33.3 35.66 33.56 33.44 29.1 34 28.84 36.22 33.3"/><polygon class="cls-3" points="19.16 51.89 18.96 52.46 13.95 50.89 14.15 50.32 19.16 51.89"/><polygon class="cls-3" points="20.86 76.67 21.16 77.19 16.73 79.47 16.44 78.95 20.86 76.67"/><polygon class="cls-3" points="38.6 91.61 39.19 91.81 37.44 96.43 36.85 96.23 38.6 91.61"/><polygon class="cls-3" points="65.07 90.16 65.63 89.88 67.93 94.16 67.38 94.44 65.07 90.16"/><polygon class="cls-3" points="81.23 72.47 81.43 71.9 86.18 73.47 85.97 74.04 81.23 72.47"/><polygon class="cls-3" points="79.5 47.75 79.22 47.22 83.94 44.9 84.22 45.43 79.5 47.75"/><polygon class="cls-3" points="62.04 32.35 61.45 32.15 63.28 27.47 63.87 27.68 62.04 32.35"/><rect class="cls-3" x="82.85" y="58.66" width="5.49" height="1.72" transform="translate(-3.63 5.59) rotate(-3.66)"/><rect class="cls-3" x="51.72" y="93.09" width="1.85" height="5.43" transform="translate(-6.01 3.56) rotate(-3.66)"/><rect class="cls-3" x="12.29" y="63.56" width="5.15" height="1.62" transform="matrix(1, -0.06, 0.06, 1, -4.08, 1.08)"/></g><path class="cls-13" d="M89.09,45.69a56.6,56.6,0,0,1,2.64,8C91.25,52.34,83,31.2,51.82,31.2A48.07,48.07,0,0,0,8,57.78s0-.1,0-.29.06-.44.1-.78v0c3.23-21.3,22.23-35.3,42.07-35.28C68.38,21.42,82.55,31.4,89.09,45.69Z"/><path class="cls-14" d="M52.73,61.41a2.86,2.86,0,1,1-3.38-2A2.78,2.78,0,0,1,52.73,61.41Z"/><ellipse class="cls-15" cx="50.04" cy="62.49" rx="13.07" ry="12.57"/><rect class="cls-16" x="55.38" y="27.39" width="2" height="46" transform="translate(29.41 -20.25) rotate(27.32)"/><path class="cls-17" d="M54.48,61.5a4.54,4.54,0,1,1-5.43-3.45A4.55,4.55,0,0,1,54.48,61.5Z"/><path class="cls-18" d="M52.19,62a2.2,2.2,0,1,1-2.63-1.67A2.2,2.2,0,0,1,52.19,62Z"/><path class="cls-13" d="M88.71,45h0Z"/><path class="cls-19" d="M17.38,24.74l5,4.65s16-13,36.08-9l1.92-6.65S36.82,7.61,17.38,24.74Z"/><path class="cls-20" d="M24.38,30.39,39.7,104.85s18.18,3.62,27.68-2.83l-9-79.63S42.38,17.39,24.38,30.39Z"/></g></g></g></svg>