<svg id="Layer_1" data-name="Layer 1" xmlns="http://www.w3.org/2000/svg" xmlns:xlink="http://www.w3.org/1999/xlink" viewBox="0 0 303 264"><defs><style>.cls-1,.cls-10,.cls-6,.cls-7{fill:none;}.cls-2{clip-path:url(#clip-path);}.cls-3{fill:#feb27c;}.cls-4{fill:#ed985f;}.cls-5{fill:#0281c8;}.cls-6,.cls-7{stroke:#282828;stroke-linecap:round;stroke-linejoin:round;}.cls-6{stroke-width:1.53px;}.cls-7{stroke-width:1.4px;}.cls-8{fill:#282828;}.cls-9{fill:#d79466;}.cls-10{stroke:#fff;stroke-miterlimit:10;stroke-width:1.95px;}</style><clipPath id="clip-path"><rect class="cls-1" width="303" height="325"/></clipPath></defs><title>support-guy</title><g class="cls-2"><path class="cls-3" d="M292,201.81c3.32,36.73-.18,63.5.79,131.09l-32,1.34L256,207.72Z"/><path class="cls-4" d="M259.94,230.47s19.82-1.81,33.37-10.75l-.36-7.87-33,4.5Z"/><path class="cls-5" d="M228.14,117.23s63,15.84,74.36,95.75c0,0-30.81,13.36-61.69,7.61l6.95-26.72Z"/><path class="cls-3" d="M40.08,150.46,87,205.82l-14.34,40.4S37,196.68,21,158.4Z"/><path class="cls-3" d="M41.62,152.46S25.16,161.76,21,158.4C13.65,152.52,7.61,131,7.61,131s30.78-11.61,30.49-11.15S41.62,152.46,41.62,152.46Z"/><path class="cls-3" d="M41.62,152.46c-.29-1.66,6.1-19.53,8.29-26.24a2.94,2.94,0,0,0-2.34-3.72h0a3.42,3.42,0,0,0-3.81,1.56L36,137.25Z"/><path class="cls-3" d="M41.05,133.13l-5.3-26.37a3.32,3.32,0,0,0-3.84-2.63h0a2.85,2.85,0,0,0-2.34,3.17l2.31,19.64Z"/><path class="cls-3" d="M30.51,123.41l-7.2-18.84a3.3,3.3,0,0,0-4.09-2h0a2.85,2.85,0,0,0-1.88,3.38l5.34,21.76Z"/><path class="cls-3" d="M22.77,129l-9.1-18.51A3.64,3.64,0,0,0,9,108.68H9a3.16,3.16,0,0,0-1.62,4.17l7.26,17.47Z"/><path class="cls-3" d="M7.61,131,.46,119.66a2.56,2.56,0,0,1,1.25-3.42h0a2.92,2.92,0,0,1,3.57,1l9.4,13Z"/><path class="cls-6" d="M39.61,131.15S28.88,130,27.78,144.33"/><path class="cls-3" d="M63.1,227.33s8.82,30.51,26.39,26.45,45-41.58,45-41.58l-6.13-64.07L79,208.82Z"/><path class="cls-4" d="M94.29,190s16.65,25.11,30.86,34l9.29-11.74L98.58,184.46Z"/><path class="cls-5" d="M167.14,115.85s-48.88,11-74.93,67.82c0,0,15.74,23.72,41,34.26l16.89-20.7Z"/><path class="cls-5" d="M167.14,115.67A122.39,122.39,0,0,0,136,138.46l3.76,166H260.13l-.39-165.2s-15.17-14.84-31.6-22.08C214.17,111.09,180.71,108.71,167.14,115.67Z"/><path class="cls-7" d="M207.34,163.12h33.47a0,0,0,0,1,0,0v16.74a16.74,16.74,0,0,1-16.74,16.74h0a16.74,16.74,0,0,1-16.74-16.74V163.12A0,0,0,0,1,207.34,163.12Z"/><line class="cls-7" x1="259.94" y1="221.21" x2="261.5" y2="166.89"/><line class="cls-7" x1="137.89" y1="212.16" x2="135.29" y2="165.07"/><path class="cls-8" d="M168.55,55l-5-24.82c-.28-2-1.07-5.14-.11-8.07C165,17.28,170.85,8,180.83,12.24L183,22.06s-10.37,2.09-14.52,15.65Z"/><path class="cls-8" d="M180.1,17.36c-.19,3.26-3.06,17.52-13.18,22.72C166.92,40.08,158.06,21.08,180.1,17.36Z"/><path class="cls-3" d="M215.59,111.1h0V69H176.74V111.1l-11.56,5.27s2.71,17.47,31.39,17.86,31.57-17,31.57-17Z"/><path class="cls-8" d="M180.83,12.24S188-6.57,209.94,3.43c13.31,6.05,17,14.16,18.62,19.91a22.8,22.8,0,0,1,.59,6.71l-5.31,25L203.08,20.47,183,22.06Z"/><path class="cls-4" d="M223.84,55s2.62-4.17,8-2.12,2.95,15.17-5.15,16.84a6.43,6.43,0,0,1-5.18-1.35S223.52,58.7,223.84,55Z"/><path class="cls-7" d="M230.79,57.53s-4.53-1.51-7.74,5.15"/><path class="cls-4" d="M168.55,55s-2.62-4.17-8-2.12-3,15.17,5.14,16.84a6.43,6.43,0,0,0,5.18-1.35S168.86,58.7,168.55,55Z"/><path class="cls-7" d="M161.6,57.53s4.52-1.51,7.73,5.15"/><path class="cls-3" d="M224.38,42.57c0,7.91-.78,24.45-5.64,34.27-4.56,9.22-12.11,14.18-22,14.48s-17.27-3.52-23.18-15.49-5.63-33.11-5.63-33.11,0-28.25,27.92-28.25C225.25,14.47,224.38,42.57,224.38,42.57Z"/><path class="cls-9" d="M177,81.73s3.25,16.51,17.61,18.4c16.54,2.19,20.94-18,20.94-18s-7.31,9.16-18.86,9.17A25.26,25.26,0,0,1,177,81.73Z"/><path class="cls-7" d="M194.16,54.3v6.54a2.06,2.06,0,0,0,.15.79,2.1,2.1,0,0,0,2.51,1.17l2.17-.58"/><path class="cls-8" d="M185.91,51.18a2.54,2.54,0,1,1-2.54-2.54A2.54,2.54,0,0,1,185.91,51.18Z"/><path class="cls-8" d="M209.74,51.18a2.54,2.54,0,1,1-2.54-2.54A2.54,2.54,0,0,1,209.74,51.18Z"/><path class="cls-8" d="M200.7,38.53,217.79,43s-.78-4.8-7.77-6.54S200.7,38.53,200.7,38.53Z"/><path class="cls-8" d="M190.08,38.53,173,43s.78-4.8,7.77-6.54S190.08,38.53,190.08,38.53Z"/><path class="cls-7" d="M186.68,67.42s2.52,1.94,9.15,1.94a23.06,23.06,0,0,0,9.79-1.94"/><circle class="cls-10" cx="182.69" cy="51.92" r="10.8"/><circle class="cls-10" cx="209.22" cy="51.92" r="10.8"/><path class="cls-10" d="M193.49,51.92s2.56-2.39,4.93,0"/><line class="cls-10" x1="171.89" y1="51.92" x2="168.27" y2="51.83"/><line class="cls-10" x1="220.02" y1="51.92" x2="224.06" y2="51.85"/><path class="cls-8" d="M177,18s5.18,14.74,28.59,14.29c15.9-.31,19.7,11.2,19.7,11.2S222.56,17.76,221.84,18s-24.2-6.26-24.2-6.26Z"/></g></svg>