<svg xmlns="http://www.w3.org/2000/svg" xmlns:xlink="http://www.w3.org/1999/xlink" viewBox="0 0 789.6 628"><defs><style>.cls-1{fill:url(#radial-gradient);}.cls-2{fill:#82b378;}.cls-3{fill:#a8d29f;}.cls-4{fill:#cbdaff;}.cls-5{fill:#6784be;}.cls-6{fill:#9495a6;}.cls-7{fill:#b0d4ff;}.cls-8{fill:#365faa;}.cls-9{fill:#6daaeb;}.cls-10{fill:#6390eb;}.cls-11{fill:#323692;}.cls-12{fill:#34b3d1;}.cls-13{fill:#5dd1dd;}.cls-14{fill:#fff;}.cls-15{fill:#d1e7f2;}.cls-16{fill:#91b8d9;}.cls-17{fill:#544029;}.cls-18{fill:#a33500;}.cls-19{fill:#e45620;}.cls-20{fill:#f3dedc;}.cls-21{fill:#e6e6e6;}.cls-22{fill:#2a478b;}.cls-23{fill:#ffb27c;}.cls-24{fill:#bc8057;opacity:0.6;}.cls-25{fill:#e45b17;}.cls-26{fill:#1ca1b7;}.cls-27{fill:#ffb27b;}.cls-28{fill:#0a8c99;}.cls-29{fill:#b5453c;}.cls-30{fill:#163560;}.cls-31{fill:#ffc08f;}.cls-32{fill:#cf6459;}.cls-33{fill:#ffc399;}.cls-34{fill:#ffc398;}.cls-35{fill:#2a3f96;}.cls-36{fill:#ffba89;}.cls-37{fill:#1b1e44;}.cls-38{fill:#2a4e96;}.cls-39{fill:#252e76;}</style><radialGradient id="radial-gradient" cx="314" cy="314" r="314" gradientUnits="userSpaceOnUse"><stop offset="0" stop-color="#ec8a64"/><stop offset="0.22" stop-color="#eb865f"/><stop offset="0.48" stop-color="#ea7c51"/><stop offset="0.76" stop-color="#e76a3a"/><stop offset="1" stop-color="#e45620"/></radialGradient></defs><title>watching-tv-recolored</title><g id="Layer_2" data-name="Layer 2"><g id="Layer_1-2" data-name="Layer 1"><circle class="cls-1" cx="314" cy="314" r="314"/><path class="cls-2" d="M482.51,282.32s-10.38-12.1-.64-19.79c0,0,7.11-4.31,12.91-4,0,0-8.22,13.78-5.56,15.15s8-16,8-16,16.19-1.57,21.39.93c0,0-13.83,11.32-10.92,12S525.6,260.2,525.6,260.2s15.06,2.56,14.26,11.75-6,12-8.28,11.78-15.62-5.34-15.91-3.47,7.74,8,13.37,8.27c0,0-10.63,11.71-17.68,8.33s-7.66-8.74-12.06-10.75-8.16-2-6.34.05,9.78,4,12.29,8.49,4.78,7.45-2.53,6.35-19.17-6.44-19.69-12.56Z"/><path class="cls-2" d="M532.46,272.2s-40.92-1.58-50,10.12a29.6,29.6,0,0,1-8.15,11.44l-1,2.61s7.09-7.48,9.63-7.93C483,288.44,479.06,274,532.46,272.2Z"/><path class="cls-2" d="M474.36,293.76a25.68,25.68,0,0,0-9.39,18.1l1.59.14s2.81-12,7.88-16.69S474.36,293.76,474.36,293.76Z"/><path class="cls-3" d="M446.22,267.1s16.51-9.25,8.81-21.79c0,0-6.16-7.71-12.77-9.69,0,0,3.52,18.71,0,19.15s-2.42-21.13-2.42-21.13-17.39-8.36-24.21-7.7c0,0,10.79,18.27,7.26,17.83s-15.62-18.93-15.62-18.93-17.83-3.3-20.69,7.26,1.76,15.85,4.4,16.51,19.59.44,19.15,2.64S398.24,257,391.86,255c0,0,7,17.39,16.29,16.51s12.1-6.6,17.83-7,9.9,1.1,7,2.64-12.55.5-17.17,4.43-8.36,6.35.22,8.11,24,.66,27.07-5.94Z"/><path class="cls-2" d="M394.72,235.4s46.22,15,51.5,31.7a35.09,35.09,0,0,0,4.41,16.07v3.3s-4.85-11.23-7.49-12.77C443.14,273.7,453.49,259.17,394.72,235.4Z"/><path class="cls-2" d="M450.63,283.17s7.12,10.82,3.06,24l-1.83-.5s1.78-14.51-1.95-21.81S450.63,283.17,450.63,283.17Z"/><path class="cls-3" d="M472.49,254.35s-21.76-12.19-11.61-28.72c0,0,8.13-10.16,16.83-12.77,0,0-4.64,24.66,0,25.24s3.19-27.85,3.19-27.85,22.92-11,31.91-10.16c0,0-14.21,24.09-9.57,23.51s20.6-25,20.6-25,23.5-4.35,27.27,9.58-2.32,20.89-5.8,21.76-25.82.58-25.24,3.48,15.67,7.54,24.08,4.93c0,0-9.29,22.92-21.47,21.76s-16-8.7-23.5-9.28-13.06,1.45-9.29,3.48,16.54.66,22.63,5.84,11,8.38-.29,10.7-31.62.87-35.68-7.84Z"/><path class="cls-2" d="M540.38,212.57s-60.93,19.73-67.89,41.78a46.26,46.26,0,0,1-5.81,21.18v4.35s6.39-14.8,9.87-16.83C476.55,263.05,462.91,243.9,540.38,212.57Z"/><path class="cls-2" d="M466.68,275.53s-9.39,14.27-4,31.64l2.42-.65s-2.34-19.13,2.57-28.76S466.68,275.53,466.68,275.53Z"/><polygon class="cls-4" points="562.96 344.96 563.42 411.68 740.08 454.33 777.99 438.5 789.6 364.86 562.96 344.96"/><path class="cls-5" d="M744.68,377.05c.7,1.65-4.6,77.28-4.6,77.28L778,438.5l11.61-73.64Z"/><polygon class="cls-6" points="562.96 344.96 744.68 377.05 789.6 364.86 615.07 333.59 562.96 344.96"/><polygon class="cls-7" points="568.59 351.72 569.21 375.06 735.52 409.46 737.61 381.05 568.59 351.72"/><polygon class="cls-7" points="569.32 379.89 569.33 406.81 732.86 447.47 734.43 414.21 569.32 379.89"/><polygon class="cls-8" points="625.26 348.06 625.42 352.08 696.94 365.58 721.79 359.82 721.28 354.97 625.26 348.06"/><polygon class="cls-9" points="625.26 348.06 697.18 361.57 721.28 354.97 644.88 342.39 625.26 348.06"/><polygon class="cls-10" points="656.98 321.42 656.13 349.09 689.53 355.09 691.29 325.46 656.98 321.42"/><polygon class="cls-11" points="689.53 355.09 694 354.15 695.6 327.33 691.29 325.46 689.53 355.09"/><polygon class="cls-11" points="592.24 187.06 589.19 313.91 762.24 340.53 773.53 178.87 592.24 187.06"/><polygon class="cls-12" points="598.34 192.57 595.44 308.92 753.28 330.35 763.35 187.91 598.34 192.57"/><path class="cls-13" d="M763.35,187.91l-165,4.66-2.55,102.26c21.11-1.3,60.39-5.84,99.61-21.56,29.82-11.95,51.91-38.78,66.29-61.88Z"/><path class="cls-14" d="M713,219.66c11.4-.37,21-.72,32.44-.88a6.72,6.72,0,0,0-.32-4.39c-.71-1.32-2.45-2.18-3.76-1.45a4.51,4.51,0,0,0-7.9-4.21c-1.78-1.49-4-2.74-6.3-2.54s-4.55,2.33-4.1,4.61a5.36,5.36,0,0,0-8.36,4.27,3.79,3.79,0,0,0-5.44,4.64A24.31,24.31,0,0,1,713,219.66Z"/><path class="cls-14" d="M615.4,212.24c11.4-.37,21-.72,32.44-.88a6.66,6.66,0,0,0-.33-4.39c-.7-1.32-2.45-2.18-3.76-1.45a4.51,4.51,0,0,0-7.89-4.21c-1.78-1.49-4-2.74-6.3-2.55s-4.55,2.34-4.1,4.62a5.36,5.36,0,0,0-8.36,4.27,3.79,3.79,0,0,0-5.44,4.64A24.31,24.31,0,0,1,615.4,212.24Z"/><path class="cls-15" d="M757.66,268.46l1.75-24.8c-1.53-1.55-6.85-4.36-6.85-4.36l-22.17,3.36-6.71,64.42-6.75-1.49s2.47-35.5,2.55-36.93-9.11-10.27-9.11-10.27L691.31,258l-4.23,46.92-7.53-.45,6.22-98.65-9.24-8.11-14.44.58-4.63,59.86-8.32.59,2.53-30.46-5.08-5.34-22.72.45-3.79,57.74-5-1,3-51.31L612.37,223l-14.78-.23-2.15,86.11,157.84,21.43C752.91,328.87,755.61,293.37,757.66,268.46Z"/><polygon class="cls-16" points="607.47 225.14 610.43 225.31 610.25 228.41 607.03 228.08 607.47 225.14"/><polygon class="cls-16" points="607.08 231.86 610.03 232.04 609.85 235.13 606.63 234.81 607.08 231.86"/><polygon class="cls-16" points="606.67 238.59 609.63 238.77 609.45 241.86 606.23 241.54 606.67 238.59"/><polygon class="cls-16" points="606.27 245.32 609.24 245.5 609.05 248.59 605.83 248.26 606.27 245.32"/><polygon class="cls-16" points="605.88 252.05 608.84 252.22 608.65 255.32 605.43 254.99 605.88 252.05"/><polygon class="cls-16" points="605.48 258.78 608.43 258.95 608.25 262.05 605.03 261.72 605.48 258.78"/><polygon class="cls-16" points="601.02 224.75 603.98 224.93 603.79 228.02 600.57 227.7 601.02 224.75"/><polygon class="cls-16" points="600.62 231.48 603.58 231.66 603.39 234.75 600.17 234.43 600.62 231.48"/><polygon class="cls-16" points="600.22 238.21 603.18 238.38 602.99 241.48 599.77 241.15 600.22 238.21"/><polygon class="cls-16" points="599.82 244.94 602.78 245.11 602.59 248.21 599.37 247.88 599.82 244.94"/><polygon class="cls-16" points="599.42 251.66 602.38 251.84 602.19 254.94 598.97 254.61 599.42 251.66"/><polygon class="cls-16" points="599.02 258.39 601.98 258.57 601.79 261.66 598.57 261.34 599.02 258.39"/><polygon class="cls-16" points="598.66 264.31 601.63 264.49 601.44 267.58 598.22 267.26 598.66 264.31"/><polygon class="cls-16" points="598.26 271.04 601.23 271.22 601.04 274.31 597.82 273.98 598.26 271.04"/><polygon class="cls-16" points="597.87 277.77 600.83 277.94 600.64 281.04 597.42 280.71 597.87 277.77"/><polygon class="cls-16" points="597.47 284.5 600.42 284.67 600.24 287.77 597.02 287.44 597.47 284.5"/><polygon class="cls-16" points="597.07 291.22 600.02 291.4 599.84 294.49 596.62 294.17 597.07 291.22"/><polygon class="cls-16" points="596.66 297.95 599.63 298.13 599.44 301.22 596.22 300.89 596.66 297.95"/><polygon class="cls-16" points="664.46 201.31 666.68 201.45 666.54 203.77 664.12 203.52 664.46 201.31"/><polygon class="cls-16" points="664.16 206.36 666.38 206.49 666.24 208.81 663.82 208.57 664.16 206.36"/><polygon class="cls-16" points="663.86 211.41 666.08 211.54 665.94 213.86 663.52 213.62 663.86 211.41"/><polygon class="cls-16" points="663.56 216.45 665.78 216.58 665.64 218.91 663.22 218.66 663.56 216.45"/><polygon class="cls-16" points="663.26 221.5 665.48 221.63 665.34 223.95 662.92 223.71 663.26 221.5"/><polygon class="cls-16" points="662.96 226.54 665.18 226.68 665.04 229 662.62 228.75 662.96 226.54"/><polygon class="cls-16" points="669.36 201.81 671.58 201.94 671.44 204.26 669.02 204.02 669.36 201.81"/><polygon class="cls-16" points="669.05 206.85 671.27 206.99 671.14 209.31 668.72 209.06 669.05 206.85"/><polygon class="cls-16" points="668.75 211.9 670.98 212.03 670.84 214.35 668.42 214.11 668.75 211.9"/><polygon class="cls-16" points="668.46 216.95 670.67 217.08 670.54 219.4 668.12 219.15 668.46 216.95"/><polygon class="cls-16" points="668.15 221.99 670.38 222.12 670.24 224.44 667.82 224.2 668.15 221.99"/><polygon class="cls-16" points="667.86 227.04 670.08 227.17 669.94 229.49 667.52 229.25 667.86 227.04"/><polygon class="cls-16" points="667.56 231.95 669.78 232.08 669.65 234.4 667.23 234.16 667.56 231.95"/><polygon class="cls-16" points="667.26 237 669.48 237.13 669.35 239.45 666.93 239.2 667.26 237"/><polygon class="cls-16" points="666.96 242.04 669.18 242.17 669.05 244.49 666.63 244.25 666.96 242.04"/><polygon class="cls-16" points="666.66 247.09 668.88 247.22 668.75 249.54 666.33 249.29 666.66 247.09"/><polygon class="cls-16" points="666.36 252.13 668.58 252.26 668.45 254.59 666.03 254.34 666.36 252.13"/><polygon class="cls-16" points="666.06 257.18 668.28 257.31 668.15 259.63 665.73 259.39 666.06 257.18"/><polygon class="cls-16" points="665.77 262.09 667.99 262.22 667.85 264.54 665.44 264.3 665.77 262.09"/><polygon class="cls-16" points="665.47 267.13 667.69 267.27 667.55 269.59 665.14 269.34 665.47 267.13"/><polygon class="cls-16" points="665.17 272.18 667.39 272.31 667.25 274.63 664.84 274.39 665.17 272.18"/><polygon class="cls-16" points="664.87 277.23 667.09 277.36 666.95 279.68 664.54 279.44 664.87 277.23"/><polygon class="cls-16" points="664.57 282.27 666.79 282.4 666.65 284.73 664.24 284.48 664.57 282.27"/><polygon class="cls-16" points="664.27 287.32 666.49 287.45 666.36 289.77 663.94 289.53 664.27 287.32"/><polygon class="cls-16" points="660.46 251.51 662.68 251.64 662.54 253.96 660.13 253.72 660.46 251.51"/><polygon class="cls-16" points="660.16 256.56 662.38 256.69 662.24 259.01 659.83 258.76 660.16 256.56"/><polygon class="cls-16" points="659.86 261.6 662.08 261.74 661.94 264.06 659.53 263.81 659.86 261.6"/><polygon class="cls-16" points="659.56 266.65 661.78 266.78 661.64 269.1 659.23 268.86 659.56 266.65"/><polygon class="cls-16" points="659.26 271.69 661.48 271.83 661.34 274.15 658.93 273.9 659.26 271.69"/><polygon class="cls-16" points="658.96 276.74 661.18 276.87 661.04 279.19 658.63 278.95 658.96 276.74"/><polygon class="cls-16" points="738.52 260.4 740.74 260.54 740.6 262.86 738.18 262.61 738.52 260.4"/><polygon class="cls-16" points="738.22 265.45 740.44 265.58 740.3 267.9 737.88 267.66 738.22 265.45"/><polygon class="cls-16" points="737.92 270.5 740.14 270.63 740 272.95 737.59 272.7 737.92 270.5"/><polygon class="cls-16" points="737.62 275.54 739.84 275.67 739.7 278 737.28 277.75 737.62 275.54"/><polygon class="cls-16" points="737.32 280.59 739.54 280.72 739.4 283.04 736.99 282.8 737.32 280.59"/><polygon class="cls-16" points="737.02 285.63 739.24 285.76 739.1 288.09 736.68 287.84 737.02 285.63"/><polygon class="cls-16" points="745.87 245.85 748.09 245.98 747.95 248.31 745.53 248.06 745.87 245.85"/><polygon class="cls-16" points="745.57 250.9 747.78 251.03 747.65 253.35 745.23 253.11 745.57 250.9"/><polygon class="cls-16" points="745.26 255.94 747.49 256.08 747.35 258.4 744.93 258.15 745.26 255.94"/><polygon class="cls-16" points="744.97 260.99 747.18 261.12 747.05 263.44 744.63 263.2 744.97 260.99"/><polygon class="cls-16" points="744.66 266.04 746.89 266.17 746.75 268.49 744.33 268.24 744.66 266.04"/><polygon class="cls-16" points="744.37 271.08 746.59 271.21 746.45 273.54 744.03 273.29 744.37 271.08"/><polygon class="cls-16" points="733.74 245.33 735.96 245.47 735.83 247.79 733.41 247.54 733.74 245.33"/><polygon class="cls-16" points="733.44 250.38 735.66 250.51 735.52 252.83 733.11 252.59 733.44 250.38"/><polygon class="cls-16" points="733.14 255.43 735.36 255.56 735.23 257.88 732.81 257.63 733.14 255.43"/><polygon class="cls-16" points="732.84 260.47 735.06 260.6 734.93 262.93 732.51 262.68 732.84 260.47"/><polygon class="cls-16" points="732.54 265.52 734.76 265.65 734.63 267.97 732.21 267.73 732.54 265.52"/><polygon class="cls-16" points="732.24 270.56 734.46 270.7 734.33 273.02 731.91 272.77 732.24 270.56"/><polygon class="cls-16" points="730.23 281.65 732.45 281.78 732.32 284.11 729.9 283.86 730.23 281.65"/><polygon class="cls-16" points="729.93 286.7 732.15 286.83 732.02 289.15 729.6 288.91 729.93 286.7"/><polygon class="cls-16" points="729.63 291.74 731.85 291.88 731.72 294.2 729.3 293.95 729.63 291.74"/><polygon class="cls-16" points="729.33 296.79 731.55 296.92 731.42 299.24 729 299 729.33 296.79"/><polygon class="cls-16" points="729.03 301.83 731.25 301.97 731.12 304.29 728.7 304.04 729.03 301.83"/><polygon class="cls-16" points="728.74 306.88 730.96 307.01 730.82 309.33 728.4 309.09 728.74 306.88"/><polygon class="cls-16" points="694.13 262.15 696.35 262.29 696.21 264.61 693.79 264.36 694.13 262.15"/><polygon class="cls-16" points="693.83 267.2 696.04 267.33 695.91 269.65 693.49 269.41 693.83 267.2"/><polygon class="cls-16" points="693.52 272.25 695.75 272.38 695.61 274.7 693.19 274.45 693.52 272.25"/><polygon class="cls-16" points="693.23 277.29 695.45 277.42 695.31 279.75 692.89 279.5 693.23 277.29"/><polygon class="cls-16" points="692.92 282.34 695.14 282.47 695.01 284.79 692.59 284.55 692.92 282.34"/><polygon class="cls-16" points="692.63 287.38 694.85 287.51 694.71 289.84 692.29 289.59 692.63 287.38"/><polygon class="cls-16" points="699.76 262.76 701.98 262.89 701.84 265.21 699.43 264.97 699.76 262.76"/><polygon class="cls-16" points="699.46 267.81 701.68 267.94 701.54 270.26 699.13 270.01 699.46 267.81"/><polygon class="cls-16" points="699.16 272.85 701.38 272.98 701.24 275.3 698.83 275.06 699.16 272.85"/><polygon class="cls-16" points="698.86 277.9 701.08 278.03 700.94 280.35 698.53 280.11 698.86 277.9"/><polygon class="cls-16" points="698.56 282.94 700.78 283.07 700.64 285.39 698.23 285.15 698.56 282.94"/><polygon class="cls-16" points="698.26 287.99 700.48 288.12 700.34 290.44 697.93 290.2 698.26 287.99"/><polygon class="cls-16" points="705.39 263.36 707.62 263.5 707.48 265.82 705.06 265.57 705.39 263.36"/><polygon class="cls-16" points="705.1 268.41 707.32 268.54 707.18 270.86 704.76 270.62 705.1 268.41"/><polygon class="cls-16" points="704.79 273.46 707.02 273.59 706.88 275.91 704.46 275.66 704.79 273.46"/><polygon class="cls-16" points="704.5 278.5 706.72 278.63 706.58 280.95 704.16 280.71 704.5 278.5"/><polygon class="cls-16" points="704.2 283.55 706.42 283.68 706.28 286 703.86 285.76 704.2 283.55"/><polygon class="cls-16" points="703.9 288.59 706.12 288.73 705.98 291.05 703.56 290.8 703.9 288.59"/><polygon class="cls-16" points="633.59 226.42 636.55 226.59 636.37 229.69 633.15 229.36 633.59 226.42"/><polygon class="cls-16" points="633.19 233.15 636.15 233.32 635.97 236.42 632.75 236.09 633.19 233.15"/><polygon class="cls-16" points="632.79 239.88 635.75 240.05 635.57 243.15 632.35 242.82 632.79 239.88"/><polygon class="cls-16" points="632.39 246.6 635.36 246.78 635.17 249.87 631.95 249.55 632.39 246.6"/><polygon class="cls-16" points="632 253.33 634.96 253.51 634.77 256.6 631.55 256.27 632 253.33"/><polygon class="cls-16" points="631.6 260.06 634.55 260.23 634.37 263.33 631.15 263 631.6 260.06"/><polygon class="cls-16" points="637.52 246.64 640.48 246.81 640.3 249.91 637.08 249.58 637.52 246.64"/><polygon class="cls-16" points="637.12 253.37 640.08 253.54 639.9 256.64 636.68 256.31 637.12 253.37"/><polygon class="cls-16" points="636.72 260.09 639.68 260.27 639.5 263.36 636.28 263.04 636.72 260.09"/><polygon class="cls-16" points="636.32 266.82 639.28 267 639.1 270.09 635.88 269.76 636.32 266.82"/><polygon class="cls-16" points="635.92 273.55 638.88 273.72 638.7 276.82 635.48 276.49 635.92 273.55"/><polygon class="cls-16" points="635.52 280.28 638.49 280.45 638.3 283.55 635.08 283.22 635.52 280.28"/><polygon class="cls-16" points="627.14 226.03 630.1 226.21 629.91 229.31 626.69 228.98 627.14 226.03"/><polygon class="cls-16" points="626.74 232.76 629.7 232.94 629.51 236.03 626.29 235.71 626.74 232.76"/><polygon class="cls-16" points="626.34 239.49 629.3 239.67 629.11 242.76 625.89 242.44 626.34 239.49"/><polygon class="cls-16" points="625.94 246.22 628.9 246.39 628.71 249.49 625.49 249.16 625.94 246.22"/><polygon class="cls-16" points="625.54 252.95 628.5 253.12 628.31 256.22 625.09 255.89 625.54 252.95"/><polygon class="cls-16" points="625.14 259.67 628.1 259.85 627.91 262.94 624.69 262.62 625.14 259.67"/><polygon class="cls-16" points="624.78 265.59 627.75 265.77 627.56 268.87 624.34 268.54 624.78 265.59"/><polygon class="cls-16" points="624.38 272.32 627.35 272.5 627.16 275.59 623.94 275.27 624.38 272.32"/><polygon class="cls-16" points="623.99 279.05 626.95 279.23 626.76 282.32 623.54 281.99 623.99 279.05"/><polygon class="cls-16" points="623.59 285.78 626.54 285.95 626.36 289.05 623.14 288.72 623.59 285.78"/><polygon class="cls-16" points="623.18 292.51 626.14 292.68 625.96 295.78 622.74 295.45 623.18 292.51"/><polygon class="cls-16" points="622.78 299.23 625.75 299.41 625.56 302.5 622.34 302.18 622.78 299.23"/><polygon class="cls-8" points="773.53 178.87 778.27 180.36 767.24 338.82 762.24 340.53 773.53 178.87"/><path class="cls-17" d="M509.74,410.94l1.54,21.84s4.49,4.36,11.23.45c3.1-19.47,3.53-25.07,3.53-25.07Z"/><path class="cls-17" d="M107.74,407.48,107.4,438s1.48,7,11.08,2.46c3.29-16.64,5-23.35,5-23.35Z"/><path class="cls-17" d="M162.57,468.8l2.16,24.3s4.28,7.17,13.6,1c2.64-13.48,4.33-25,4.33-25l-20.09-.33"/><path class="cls-18" d="M540.5,311.32c-.37-3.05-13.79-8.1-22.16-10.88-11.54-3.85-45.86-14.85-50.06-15.17s-23.12,2.45-23.12,2.45-10.25-47.25-12.47-49.83-4-2.72-13.61-3.46S148.17,242,144.48,243s-8.63,2.36-9.64,7.71,4.86,46.83,4.86,46.83-20.54.24-34.38,7.63c-5.22,2.79-1.26,103.08-1.26,103.08s58.34,65.42,64.76,68.32,163.75-26.67,163.75-26.67l196.7-39.23s5.45-.18,6.14-9.18S540.87,314.36,540.5,311.32Z"/><path class="cls-19" d="M499.07,308.75s33-3,42.17.82c-22.4-12.18-73.53-24.75-73.53-24.75l-22.55,2.9Z"/><path class="cls-19" d="M139.7,297.49c-18-1.38-34.38,7.63-34.38,7.63s20,14.2,53.63,40.31c7.43-2.45,56.07-7.17,56.07-7.17C203.43,331.94,139.7,297.49,139.7,297.49Z"/><path class="cls-14" d="M230.2,234.64s14.25-10.17,27-5.58c13.09,4.73,13.78,6.49,13.78,6.49l-13.07,34,31.32,53.29s-28.1,12.33-35.62,16a34.58,34.58,0,0,0-19.2,24.87l-8,2.2s-36.66-106.79-38-113.13S199.7,241.09,210,237.92A68.82,68.82,0,0,1,230.2,234.64Z"/><path class="cls-20" d="M234.31,301.73c-2.4-8-8.33-27.79-9.84-31.73-.76-2-4.33-8.8-1.39-9.95,1.72-.66,6.15,1.28,7.95,1.69l9.52,2.2a40.52,40.52,0,0,1-2.48-4.41c-.43-.85-.86-1.71-1.3-2.56a30.11,30.11,0,0,0,6.52-6.85c1.25-2.34,7.93-15.54,11.11-21.83-5.37-1.08-10.94.05-16,2-3.73,1.47-7,3.83-11,4.44-12.05,1.85-25.52,3.5-35.48,11.33l1.6,4.84,7.79,40,1.77,6.68c7,20.66,14.77,43.46,19.33,56.78l9.82,8.1s1-15,7.13-22.18,13.08-10.46,33.94-22.94C269.81,316.11,236.71,309.76,234.31,301.73Z"/><path class="cls-21" d="M260,273.88a1,1,0,0,1-.74-.44l-8.6-13.74a1,1,0,0,1,.3-1.32,1,1,0,0,1,1.32.31l8.6,13.73a1,1,0,0,1-.3,1.32A1,1,0,0,1,260,273.88Z"/><path class="cls-22" d="M206.24,184a8.79,8.79,0,0,1,.36-4c.92-2.27,3.15-2.77,5.31-2.11.69-2.49.91-3.49,3.09-4.85a17.47,17.47,0,0,1,7.68-2.75c4.08-.4,8.17.38,12.25.81s8.36.5,12.08-1.21c.54,3.77.93,8.07-1.57,10.94a13.43,13.43,0,0,1-5.36,3.19l-17.3,6.9q1.62,9.93,3.22,19.87c-4.62-3.11-10.92-5.91-13.59-10.77C209.51,194.68,206.81,190.23,206.24,184Z"/><path class="cls-23" d="M219.66,209.49l-15,35.26s17.1,15.79,31.59,15.69c-2.72-17.1-5.06-41.62-5.06-41.62Z"/><path class="cls-24" d="M219,211.12c1.16,3.88,4.64,12.72,13.26,17.58-.64-5.88-1-9.88-1-9.88l-6.82-5.51-4.91-3.41Z"/><path class="cls-23" d="M241.41,183.18s11.27,20.6,5.06,38.62c-13.26-.21-25.78-4.79-28.06-11.8-4.8-.37-9.11-12.37-2.74-11.48,4,.71,7.51,7,7.51,7L219.7,188S237.45,183.93,241.41,183.18Z"/><path class="cls-25" d="M540.84,309.53c-.58-.23-1.19-.45-1.81-.66-11.32-2.75-40-.12-40-.12-1,5.35-9.59,62-9.59,62l-248.79,34s-3.1-22.56-6.3-41.11-14-24.4-19.37-25.42S159,345.43,159,345.43c1.87,3.33,8.68,106.33,10.3,131.21,11.09,1.83,163.32-26.79,163.32-26.79l196.7-39.23s5.45-.18,6.14-9.18S541.21,312.58,540.84,309.53Z"/><path class="cls-26" d="M480,352.34c-.44-4.86-2.07-25.5-46.06-28.87S356,328,356,328l3,34s52-.84,80.9-5.86c3.66,10.55,7.57,21.55,11.42,32.2l31.5-4.51C481.29,365,480.28,355.11,480,352.34Z"/><path class="cls-23" d="M498.46,447.76c-4.63-2.2-8.72-4-10.42-4.79a1.55,1.55,0,0,1-.91-1.31c-1.67-24.78-3.13-43.81-4.29-57.86l-31.5,4.51c10.53,29.17,20.58,55.71,23.45,63.23a1.54,1.54,0,0,0,1.46,1,144.21,144.21,0,0,0,21.81-1.84A1.55,1.55,0,0,0,498.46,447.76Z"/><path class="cls-27" d="M451.34,388.31q1.62,4.5,3.22,8.89c10.44-2.23,28.28-13.4,28.28-13.4Z"/><path class="cls-28" d="M406.05,351.9l-7.27,8.45c14.19-.89,29.52-2.23,41.14-4.24,3.66,10.55,7.57,21.55,11.42,32.2l10.81-1.55c-5-14.59-12.47-35.53-10.66-39.82,0,0-10.74,3.6-20.74,2.83,3-2.58,18.33-18.71,18.33-18.71Z"/><path class="cls-13" d="M467.41,307.12c-7-8.47-13.22-12.86-24.28-11.71-12.3,1.27-24.27,5.46-35.55,10.35a501.59,501.59,0,0,0-46.05,23.42s-5,2.83-36.48,19.33c18.84,48.1,65.72,19.11,65.72,19.11s18.21-11.88,58.31-36.56a91.53,91.53,0,0,1,18.48,7c4.46-5.44,9-10.87,11.64-14.08C474,316.19,469.69,309.89,467.41,307.12Z"/><path class="cls-23" d="M478.8,347.42c.81,5.29,3.06,23.16,3.06,23.16l33,21.83a1,1,0,0,0,1.28-.16l13.93-15.13a1,1,0,0,0-1.16-1.58l-12.08,5.73a1,1,0,0,1-1.27-.37c-3.26-5.21-22.72-36.33-36.34-56.9-2.67,3.21-7.18,8.64-11.64,14.08C473.66,341.22,478.39,344.7,478.8,347.42Z"/><path class="cls-27" d="M485.45,354.82c-2.63-3.49-5.29-7-6.95-11.08a34.11,34.11,0,0,1-1.68-11.58c.14-.48.27-1,.4-1.39l-.35.33a12.86,12.86,0,0,1,1.62-6.24c-2.72,3.26-6.84,8.23-10.93,13.22,6.1,3.14,10.83,6.62,11.24,9.34.81,5.29,3.06,23.16,3.06,23.16L512.63,391Z"/><path class="cls-12" d="M446.8,313.59l-.58,12.83s-36.14,20.16-48.91,18.78-28.46-17.07-28.46-17.07l24.09,38.09c5.89-3.8,24-15.35,56.14-35.16a91.53,91.53,0,0,1,18.48,7c1.39-1.7,2.79-3.39,4.13-5C458.23,329.82,446.8,313.59,446.8,313.59Z"/><path class="cls-29" d="M288.36,265.64s7.57-4.24,19.85,3.54,36.3,24.9,36.3,24.9l-15.07,18.16-48.39-35.09A12.06,12.06,0,0,1,288.36,265.64Z"/><path class="cls-30" d="M280.5,200.28s11.69-5.54,18.8,11.9,8.78,37.68,8.78,37.68l-38-2.91L270,200.68Z"/><path class="cls-31" d="M291.06,214.76s8,27.16,5.42,29-23,1-26.86-1.26-5.6-10.88-7.23-21.07S279.58,196.58,291.06,214.76Z"/><path class="cls-31" d="M279.4,240.82l14.93,30.91s-20.05-.73-28.05-1.34c1.13-25.26,1-34.12,1-34.12Z"/><path class="cls-23" d="M269.62,242.48l-2.38-.41c0,1.28-.05,2.8-.1,4.56,6.4,4.42,14,6.14,18.36,6.8l-4.3-8.9A101.85,101.85,0,0,1,269.62,242.48Z"/><path class="cls-30" d="M274.81,195.82s11.5,2.09,16.12,10.08c2.45,4.24.13,8.86.13,8.86s-4.31-6.76-7.94-6.64-6.83,5.11-7.57,9.48-2.33,35.62-2.33,35.62c-22.73-2.55-25.93-2.79-25.93-2.79-.5-25-.38-42.27,8.23-49.65S274.81,195.82,274.81,195.82Z"/><path class="cls-32" d="M278.89,273.77s10.09-.44,13-7.45c6.77.92,11.57,1.29,19.63,11.56,11.05,2.86,13.81,3.47,15.57,6.83S337.32,304,337.32,304l37.19,13.31s-6.3,24.46-25.77,31.82-29.22,3.39-29.22,3.39l-55.3-65.79Z"/><path class="cls-29" d="M285.48,272.23l.13.44,6.5,12.37,12.54,17.45,7.6,11c7.6,11.05,0,0,7.37,6.2s0,0,6-1.75,7.26-8.1,7.26-8.1l3.45-7.83L333.07,296c-3.74,1.81-14.45,6.67-16.57,4-2.56-3.21-22.17-28.25-22.17-28.25a4.25,4.25,0,0,0-2.4-5.41A11.46,11.46,0,0,1,285.48,272.23Z"/><path class="cls-14" d="M333.84,286.43s35.53-1.7,52.05,3.18c-4.24,34.27-4.42,36.67-4.42,36.67l-45.72-1.89Z"/><path class="cls-33" d="M308.06,302.55c1.14.9,10.25,13.26,10.25,13.26l36.26-37.45s5.65,0,8.36,1.05a16,16,0,0,1,8.47,7.68l-6.2-.47s2.54,8.84-10.14,6.26c-10.57,33-17.92,55.35-39.11,48.49a66.8,66.8,0,0,1-30.59-26.07Z"/><path class="cls-34" d="M293,325.3c1.1-.24,2.39-.58,3.92-1.07,4.11-7.29,12.35-14.84,14.88-17.06-.62-.81-1.22-1.57-1.75-2.24l-24.72,10.36A57,57,0,0,0,293,325.3Z"/><path class="cls-32" d="M260.84,283.65s-7.24-15.84,3.87-19,22.7,2.94,35.75,21.64L313.51,305l-27.87,17.17S266.5,299,260.84,283.65Z"/><path class="cls-29" d="M260.84,283.65c5.66,15.32,24.8,38.5,24.8,38.5l10.2-6.28a109.37,109.37,0,0,1-21.53-24.35c-10.25-15.87-9.6-26.88-9.6-26.88C253.6,267.81,260.84,283.65,260.84,283.65Z"/><path class="cls-27" d="M355.06,292.88s-1.81.06-5.93-3.87A204.45,204.45,0,0,1,347,316.2Z"/><path class="cls-35" d="M383.71,345.33a41.87,41.87,0,0,0-5.94-7.52l-1.47-1.87-.11.38c-7.59-6.7-14.66-7.14-14.66-7.14s-71-.21-87.78,6.34-5.11,43.06-5.11,43.06l73-7.68,15.23,13.84c34.32,25.66,60,42.65,75.93,55.1l11-18.34Z"/><path class="cls-36" d="M459,459.34c2.06-.65,22-28.34,20-30.25-3-2.09-21.28,10-21.28,10L443.79,421.5l-11,18.34c7.95,5.63,13.27,9.26,13.27,9.26S456.9,460,459,459.34Z"/><path class="cls-23" d="M439.17,444.32l4.62-22.82-11,18.34Z"/><path class="cls-37" d="M380.5,402.08l3.67,2.64c-1.91-15,4.93-41.83,7.1-49.79l-7.56-9.6a41.87,41.87,0,0,0-5.94-7.52l-1.47-1.87-.11.38c-.46-.41-.93-.8-1.39-1.16Z"/><path class="cls-37" d="M345.6,374.5c.88-5.63,2.83-18.1,3-18.55L268,369.07l.67,9.51,73-7.68Z"/><path class="cls-36" d="M372.81,469.26a319.82,319.82,0,0,0,32,2.36,2.5,2.5,0,0,0,1.34-4.65c-12.26-7.38-18-10.93-19.33-11.78a.77.77,0,0,1-.36-.59q-.82-9.09-1.51-18.09l-22.34,5.28c2.5,4.51,4.06,9.85,7.19,14.62a.66.66,0,0,1,.12.27,97.79,97.79,0,0,1,2.19,11.84A.82.82,0,0,0,372.81,469.26Z"/><path class="cls-23" d="M384.78,436.54l-22.18,5.25c1.32,2.38,2.38,5,3.55,7.63Z"/><path class="cls-38" d="M377.68,328.41c-2.68-7.05-16.64-8.52-33.25-7-10.78,1-45.12,4.6-67.91,7-8.48,3.76-18.8,8.37-22.93,10.38a34.58,34.58,0,0,0-19.2,24.87h0s.14,16.51,13.25,18.72,96.18-21.59,96.18-21.59-7.89,33,18.78,81l22.34-5.28C380.87,383.3,380.09,334.72,377.68,328.41Z"/><path class="cls-39" d="M362.6,441.79l10.11-2.39c-3-8.95-14.66-44.11-16-62.72-1.58-21.44,3.25-31.94,3.25-31.94l-14.18,6.56s-77.92,19.37-86.07,15.53c-7.12-3.36-11.05-20.25-11.93-24.5a34.39,34.39,0,0,0-13.37,21.35h0s.14,16.51,13.25,18.72,96.18-21.59,96.18-21.59S335.93,393.77,362.6,441.79Z"/><path class="cls-36" d="M190.69,301.83l10.81,33.64s1.11,3.71,6.36,3.53,91.79-10.84,91.79-10.84,14.8,3.64,16.2-3.89C321.94,323.54,328,323,328,323c-6.17-8.54-10.23-10.49-16-8.93a103.29,103.29,0,0,0-13.49,5.16s-68.24-7-69.19-7.69-5.11-19.32-5.11-19.32Z"/><path class="cls-23" d="M224.29,292.45,191,302.83l1,3.21c4.62,1,14.39,1.29,35-2C225.82,299.22,224.56,293.65,224.29,292.45Z"/><path class="cls-14" d="M188.41,247.12s12.29-8.11,22.47.72,18.07,45,18.07,45l-44.37,14.7s-4.65-20.67-7.24-34.14S180.54,250.14,188.41,247.12Z"/><path class="cls-20" d="M198.41,303c-1.93-4.89-7.56-19.81-10.24-34.37-2.63-14.28,1.86-21.11,3.71-23.23a21.76,21.76,0,0,0-3.47,1.73c-7.87,3-13.65,12.83-11.07,26.31s7.24,34.14,7.24,34.14Z"/></g></g></svg>