<svg version="1" xmlns="http://www.w3.org/2000/svg" width="1056" height="1056" viewBox="0 0 792 792"><path d="M397.8 1.4c-3.2.7-5.8 1-5.8.8 0-.2-.7.1-1.5.8-.8.7-1.5 1-1.5.7 0-.7-14.9 4.4-21.4 7.3-11.5 5.2-30.9 18.2-42.5 28.5-10.7 9.4-20.5 19-29.1 28.5-1.7 1.9-4.6 5.1-6.3 7-5.4 6-25.8 31.8-30.7 39-.8 1.2-2.5 3.6-3.8 5.3-2.2 3-11.5 17-18.7 28.2-3.4 5.4-21.6 36-22.8 38.5-.4.8-1.3 2.4-2 3.5-2 3.4-16.8 30.4-22.9 42-6.3 11.9-34.5 68.7-39.8 80-1.7 3.8-4.7 10.1-6.5 14-4.3 9.3-7 15.4-11.2 25-2 4.4-4.3 9.8-5.3 12-3.7 8.2-5.3 12-5.5 12.5-.1.3-.9 2.2-1.8 4.4-.9 2.1-1.7 4-1.7 4.2 0 .2-.9 2.3-2 4.7-2.2 4.8-8 18.7-8.4 20.2-.1.5-1 2.8-2 5-2.5 5.7-20.7 53.7-21.1 55.5-.2.8-1.5 4.9-3 9-3.3 9.3-3.6 10.4-3.7 11 0 .3-.6 2-1.4 3.9-1.5 3.5-13.3 41.2-14 44.5-.2 1-1.1 4.4-2 7.5-2.1 7.3-10.1 38.7-10.8 42.6-.2 1.6-.7 4.1-1 5.5-.3 1.4-.7 3.7-1 5.3-.3 1.5-.7 3.5-1 4.5-.3.9-.7 3.3-1 5.2-.3 1.9-.8 4.6-1.1 6-.2 1.3-.7 4-1 6-.3 2-.7 4.7-1 6-.3 1.4-.7 4.9-1 8-.3 3.1-.7 6.6-1 7.9-1.9 10-2.7 50.9-1.3 64.6 4.6 42.4 22.9 72.5 48.8 80.1 8.2 2.4 8.9 2.5 16.5 2.4 10.1 0 13.7-.7 23.7-4l8.9-3 2.7 1.9c1.5 1.1 5.6 2.9 9.1 4.1 10.2 3.4 22.6 1.5 33.4-5.1 2.6-1.6 5-2.9 5.3-2.9.3 0 2.1 1.2 3.9 2.6 5.5 4.1 13.1 6.6 19.8 6.3 7.1-.3 18.6-3.9 23.7-7.4 4.3-3 5.5-3.1 7.2-.7 3.6 4.8 13.3 8.3 21.6 7.8 5.9-.4 18.4-3.9 20.7-5.8.5-.4 2.7-2 4.8-3.3l3.9-2.6 3.4 3.9c6.2 7.1 15 10 24.9 8.1 4.7-.9 15-5.4 17.3-7.6 1.9-1.8 2.4-1.7 5.2 1.5 7.4 8.4 23.8 7.8 37.2-1.4l3.7-2.6 4.3 2.9c13.3 9 25.5 8.8 39.3-.7 5-3.4 18.3-16.5 22.4-22 1.4-1.9 3.4-4.4 4.4-5.5 6-6.6 37.8-57.1 44.1-70.2 1.5-3 2.4-2.9 3.2.5.3 1.5 3.3 11.2 6.6 21.7 3.4 10.4 6.2 19.4 6.4 20 .2 1 5.9 16.4 7.4 20 4.6 11.2 7.2 16.8 8.3 17.6.5.3.9 1 .9 1.5.1 1.4 5.2 8.5 9 12.4 3.8 4 11.1 9 13.8 9.5 1 .2 2.7.8 3.7 1.3 2.2 1.1 8.5 2.2 18.3 3 8.6.7 122.9.9 130.5.3 12.1-1.1 20.8-6.1 28.2-16.5 8-11.1 14.9-27.8 16.9-40.6.3-1.9.7-4.6 1-6 2.5-13.3 2.4-77.8-.1-93-.2-1.4-.7-5-1-8-.3-3-.7-6.6-1-8-.2-1.4-.7-5-1.1-8-.3-3-.8-5.8-1-6.1-.2-.4-.6-3.1-1-6-.3-3-.8-5.8-1.1-6.2-.3-.4-.7-2.4-.9-4.5-.3-2-.7-4.4-.9-5.2-.2-.8-.7-2.9-.9-4.5-.3-1.7-1.3-6.2-2.2-10-.8-3.9-1.7-7.9-1.9-9-.1-1.1-.8-4-1.5-6.5s-1.3-5.2-1.5-6c-.5-2.6-4.6-18.4-5.5-21.5-.5-1.7-2.1-7.1-3.6-12-5.1-17.6-16.2-52.8-19.2-60.5-.3-.8-.6-1.7-.7-2-.1-.3-.5-1.4-.9-2.5s-1.8-4.9-3.1-8.5c-6.9-19-20.5-54.2-25.2-65-2.6-6-3-7-11.7-27-4.6-10.7-10.8-24.9-13.9-31.5-3-6.6-6.5-14.3-7.7-17-4.5-9.8-39.9-81.1-43.8-88.3-2.2-3.9-3.8-7.2-3.5-7.2.3 0-.1-.8-.9-1.8-.8-.9-3.4-5.5-5.8-10.2-2.3-4.7-4.6-9-5-9.5-.4-.6-2.5-4.4-4.7-8.5-22.9-43-57.9-99-75-120.1-12.4-15.2-29.5-32.9-32-32.9-.6 0-1.3-.4-1.5-.8-1-2.5-17.3-11.6-26.3-14.7-13.7-4.7-36.8-6.7-48.7-4.1zm34.4 28c1 .1 2.1.5 2.4.9.4.4 1.4.7 2.2.7 1.9 0 13 5.6 14.9 7.5.8.8 1.8 1.5 2.2 1.5 1.3 0 12.8 12.1 17.6 18.5 1.6 2.2 3.5 4.6 4.2 5.3 2.5 2.6 1.3 3.1-2.9 1.3-3.8-1.6-5.8-2.2-11.8-3.8-.8-.2-4.6-.6-8.5-.9-3.8-.3-7.4-.6-8-.6-1.5-.1-10.5 1.2-15.5 2.3-19.9 4.4-44.3 18.5-65.5 37.9-7.7 7.1-16.8 16.3-22.8 23.1-2.6 3-5.8 6.5-7.1 7.9-1.9 2.1-7.6 9.1-10.9 13.5-2.3 3-10.8 14.2-11.7 15.2-.5.7-1 1.6-1 2.2 0 .5-.4 1.1-.9 1.3-1.1.4-18.1 27.3-18.1 28.7 0 .5-.4 1.1-.8 1.3-1.3.5-28.7 47.4-29.9 51-.3 1-.9 1.8-1.4 1.8-.5 0-.9.4-.9.9s-1.7 4-3.8 7.8c-5.1 8.9-10.4 18.7-16.4 29.8-5 9.2-41.3 82.2-44.1 88.5-.8 1.9-3.6 8.2-6.2 14-12.6 28.3-16.8 38.1-30 71.5-.4 1.1-.9 2.4-1 3-.2.5-1.3 3.5-2.5 6.5-2.2 5.5-6.8 18.2-7.5 21-.3.8-2.2 6.7-4.4 13-3.6 10.4-7.7 23.2-8.7 27-.2.8-2 7.1-4 14-1.9 6.9-3.7 13.3-4 14.3-.2.9-.6 2.5-.8 3.5-1.4 5.3-6.6 28.1-7 30.7l-2.1 10.5c-.7 3.2-1 5.3-2 11.5-1 5.8-.8 5-1.9 14-.5 3.8-1 7.8-1.2 8.8-1.3 7.5-2.3 24.3-2.3 42.2-.1 20.9.6 29.7 4.4 52 1.2 7.5 6 22.9 7.8 25.2 3.6 4.8-10.5 9.3-21.2 6.9-6.9-1.6-14.6-7.4-20.5-15.6-3-4.1-9.4-17.5-10.1-21-.2-.8-.8-2.6-1.3-4s-1-2.8-1-3.3c0-.4-.4-2.6-.8-5-3.6-21.3-3.7-50.8 0-75.1.2-1.7.8-5.4 1.2-8.1.3-2.8.8-5.9 1-7 .3-1.1.7-3.6 1-5.5.3-1.9.9-5.3 1.4-7.5.5-2.2 1.1-5.4 1.4-7 .3-1.7.8-3.9 1-5 .3-1.5 7.2-29.7 9-37 .1-.6.8-3 1.5-5.5.8-2.5 1.4-5 1.6-5.5.1-.6.5-1.7.8-2.5.5-1.3 2.4-8 3.3-11.5.1-.6 3-9.6 6.5-20 3.5-10.5 6.3-19.2 6.4-19.5 0-.3.5-1.9 1.2-3.5.6-1.7 3.5-9.5 6.3-17.5s5.5-15.4 6-16.5c.5-1.1 4.7-11.7 9.4-23.6 4.6-11.8 9.3-23.6 10.4-26 1.2-2.5 3.1-7 4.2-10 1.2-3 2.8-6.8 3.5-8.4.8-1.7 3.9-8.9 7.1-16 6.7-15.4 10.2-23.2 15.4-34 2.1-4.4 5.1-10.9 6.8-14.5 1.6-3.6 6-12.8 9.8-20.5 3.7-7.7 6.7-14.2 6.5-14.4-.1-.2.1-.7.6-1 .4-.3 4.9-8.7 10-18.6 16.5-32.5 17.8-35 18.4-35.5.3-.3 2.5-4.2 4.8-8.7 2.4-4.6 4.7-8.5 5.2-8.9.5-.3.7-1 .4-1.5-.4-.5-.1-.9.4-.9.6 0 1.1-.4 1.1-.9 0-.4 3-5.9 6.6-12.2 3.6-6.3 7.1-12.3 7.7-13.4.6-1.1 1.8-3.1 2.7-4.5.9-1.4 2.7-4.5 4.1-7 1.3-2.5 2.7-4.9 3.2-5.5 1.4-1.9 5.3-8.1 8.1-13 1.6-2.8 3.2-5.2 3.6-5.5.3-.3 3.2-4.6 6.5-9.5 3.3-5 6.3-9.5 6.7-10 .5-.6 2.7-3.5 4.9-6.5 6.9-9.5 8.2-11.2 16.4-21.5 20.2-25.2 42.1-47 58.5-58 2.5-1.6 4.7-3.3 5-3.6.3-.3 3.2-2.1 6.5-3.9 3.3-1.8 7.5-4.1 9.3-5.2 1.7-1.1 3.2-1.7 3.2-1.4 0 .4 1.8-.3 4-1.4 2.2-1.1 4-1.8 4-1.5 0 .4.6.3 1.3-.2.6-.4 1.7-.9 2.2-1 .6-.1 2.8-.7 5-1.2 2.2-.6 6.9-1.4 10.5-1.7 3.6-.3 6.6-.7 6.7-.8.2-.2 11.8 1 16.5 1.8zM467 85.2c3 1 6 2 6.6 2.1.7.2 1.8.7 2.5 1.3.8.5 2.7 1.6 4.4 2.4 3.9 1.9 17.3 15.2 21.2 21 1.6 2.5 4.6 7.5 6.6 11.2 3.5 6.5 3.3 7.7-.8 4.8-.9-.7-9.8-3.8-13.5-4.8-.8-.2-6.2-.4-12-.4-8.8-.1-11.9.4-19 2.7-8.7 2.8-25.4 10.6-31.2 14.7-8.3 5.7-17.3 12.4-20.6 15.2-5.8 4.9-26.2 25.5-31.7 32-2.8 3.2-5.9 6.8-7 8-1.1 1.2-2.4 2.9-3 3.7-.5.9-4.5 6.3-8.8 12-9.3 12.2-26.2 37.5-36.6 54.4-4.1 6.6-8.4 13.6-9.7 15.6-1.3 1.9-2.4 4-2.4 4.7 0 .7-.3 1.2-.7 1.2-.5 0-1.3 1-1.9 2.3-.6 1.2-4 7.1-7.5 13.2-3.6 6-8.1 13.9-10.1 17.5-2 3.6-4.8 8.7-6.3 11.5-1.5 2.7-3.5 6.3-4.5 8-5.9 10.1-31 59.6-38.9 76.5-16.2 34.7-21.9 47.8-31.7 73-3.6 9.1-6.9 17.4-7.4 18.5-1.4 3-13.7 38.5-14.4 41.5-.2.8-1.5 5.1-2.9 9.5-2.7 8.5-3.8 12.1-4.2 13.9-.1.6-.5 1.8-.8 2.6-.8 1.9-7.6 29.3-8.3 33.4-.3 1.7-1 5.1-1.5 7.6-1.4 6.1-1.6 7.2-2.4 11.6-1.4 9.4-3.3 21.8-3.9 26.4-1.3 9.3-2 26.1-1.9 41.4.2 14.8 0 17.3-1.6 19.5-1 1.4-2 3.3-2.3 4.1-1.5 4.1-17.1 24-18.8 24-.6 0-3.1-7.1-3.5-10-.1-.3-.4-1.9-.8-3.5-.8-3.6-1.4-7.5-2.2-13.5-.3-2.5-.8-6.5-1.2-9-1.4-9.9-.6-48 1.2-61.5.7-5.5 1.7-13 2-15.5.5-4.1 1.6-11.2 2.7-16.5.5-2.8 1.2-6.4 1.5-8 .4-2.4 4.6-21.3 5.7-26 .1-.6.6-2.6 1-4.5 3.7-16.5 17.1-60.1 26.6-86.6 6.2-17.2 21.7-56.4 25.6-65 1.3-2.9 2.4-5.5 2.4-5.8 0-.3 1.8-4.4 4-9.1 2.2-4.7 4-8.8 4-9 0-.3 1.8-4.4 4.1-9.2 2.2-4.9 5.9-12.9 8.2-17.8 7.1-15.5 33.2-67.2 43.2-85.5 5.2-9.6 9.5-17.8 9.5-18.2 0-.5.5-.8 1-.8.6 0 1-.5 1-1.1 0-1.9 29.7-52.1 31.2-52.7.4-.2.8-.8.8-1.4 0-2.3 32.1-49 40.9-59.4 1.4-1.7 4.8-5.7 7.6-9 7.5-8.9 23.8-25.3 30.6-30.9 3.4-2.8 6.7-5.5 7.3-6 .6-.6 2.7-2.2 4.6-3.5 1.9-1.3 3.7-2.7 4-3 .8-.9 4.4-2.9 7-4.1 1.3-.5 2.7-1.4 3-1.9.5-.7 13.3-7 15.5-7.5.6-.1 1.7-.5 2.5-.8 8.7-3.7 27.3-4.5 36-1.5zm29.9 59.8c11.3 3 22.6 11.4 29.7 22 3.1 4.6 9.7 17 11.4 21.5l.9 2.5-5.4-3.1c-4.7-2.6-10.5-4-18-4.1-7.6-.2-21.9 2.8-30 6.3-1.6.7-3.2 1.3-3.5 1.4-1.5.3-11.8 6-16.6 9.1-13 8.3-32.5 26.1-45.4 41.4-3 3.6-5.7 6.7-6 7-.3.3-3.8 4.8-7.8 10-3.9 5.2-7.6 10-8 10.5-.5.6-1.7 2.4-2.8 4-1 1.7-2.1 3.2-2.4 3.5-.9.8-12 16.5-17.8 25.1-2.8 4.2-8.8 14.1-13.3 22s-9.8 16-11.8 18c-8 7.8-19 22-25.6 33.1-14.9 25-29.4 53.4-44.8 88-5.3 12-9.7 22-9.7 22.3 0 .3-.9 2.4-1.9 4.8-5.6 12.3-16.4 39.1-35.6 88.2-2.6 6.6-5.3 13.3-6 15-.7 1.6-3.6 8.6-6.5 15.5-7.5 17.8-33.3 69.6-36 72.4-.8.8-.7-3.2.4-13.9.3-2.8.8-7.3 1.1-10 .3-2.8.7-6.1 1-7.5.3-1.4.8-4.3 1.1-6.5.3-2.2.7-4.5.8-5 .2-.6.7-3.3 1.1-6 .5-2.8 1-5.2 1-5.5.1-.3.7-3.2 1.4-6.5.8-3.3 2.4-10.3 3.8-15.5 1.3-5.2 2.6-10.3 2.8-11.3 3.1-14.3 24.3-78.3 29.2-87.9.7-1.5 1.3-2.9 1.3-3-.2-.4 1-3.4 6.3-16.3 2.7-6.6 5.4-13.5 6-15.3.6-1.7 1.3-3.2 1.7-3.2.4 0 .7-.6.7-1.3 0-.6 3-7.7 6.5-15.7 24.8-55.3 55.2-113.9 83.7-161.2 15.9-26.4 30.7-49 43.5-66.3 4.4-6.1 8.3-11.2 8.6-11.5.3-.3 2.5-3 5-6 7.7-9.4 8.3-10 17-19 4.7-4.8 11-10.9 14-13.5 3-2.5 6.4-5.4 7.5-6.4 3.6-3.2 17.4-12.1 23.2-15 7.6-3.8 17.5-7 23.8-7.7 2.7-.4 5.1-.7 5.2-.8.7-.6 11.4.4 15.2 1.4zm31.1 62.5c13.1 5.3 22.2 15.9 29.8 34.9 1.8 4.4 3.1 8 3 8.2-.2.1-2.5-.3-5.3-1-9.7-2.5-26.2.1-39.8 6.2-18.7 8.5-38.8 25.3-59.3 49.7-8.2 9.8-14.9 18.8-27 36.2-3.1 4.6-5.8 8.3-6.1 8.3-.2 0-2.8-2.4-5.8-5.4-8.5-8.5-19.7-14-31-15.2-2.7-.3-5.2-.8-5.4-1-.7-.7 37-55.9 39.8-58.4.3-.3 3.5-4.1 7.1-8.5 6.3-7.8 22-24 29-29.9 15.3-13.1 33.6-22.8 48.1-25.5 6.8-1.3 17.9-.6 22.9 1.4zm34 61.7c5.6 2.4 5.8 2.9 14.9 33.2 1.2 3.7 2.1 6.9 2.1 7.1 0 .1-4.2.5-9.2.8-8.5.5-17.1 2.3-22.3 4.7-13.8 6.2-13.9 6.3-26.2 15.3-16 11.8-41 38.8-54.1 58.4-1.9 2.9-3.8 5.3-4.1 5.3-.4 0-3.4-3-6.6-6.6-6-6.7-10.8-11.8-17.1-18.6-1.9-2-3.4-3.9-3.4-4.2 0-2.5 27.1-42.5 30.9-45.6.3-.3 3.1-3.4 6.1-7 13.4-15.9 30.1-30.4 42.4-36.7 8.2-4.2 18.1-7.1 26.6-7.9 3-.3 5.6-.6 5.7-.8.7-.6 11.2 1.2 14.3 2.6zm19 56.4c1.3 1.3 8.6 29 10.5 40.1l.6 3.3h-5.3c-4.9 0-16.2 2.1-19.8 3.7-.8.3-1.7.7-2 .7-2.1.5-12.5 6.5-17.5 10.1-11.8 8.4-28.5 26.5-40.9 44.2-2.7 4-5.3 7.3-5.6 7.3-.4 0-9.7-9.6-22.7-23.8-2.4-2.6-4.3-5-4.3-5.4 0-2.4 11.9-19 24.1-33.8 21.5-25.9 41.8-41.3 61.3-46.5 5.9-1.5 20-1.5 21.6.1zm-190.5 36.9c4.6 3.6 7.8 6.9 10.8 11.6 1.7 2.5 1.6 2.8-1 7.5-1.5 2.7-2.9 5.1-3.3 5.4-1 .8-9 15.2-9 16.1 0 .5-.4.9-1 .9-.5 0-1 .4-1 1 0 .5-1.3 3.1-2.9 5.8-1.6 2.8-5 9-7.6 13.8-2.5 4.9-5.1 9.6-5.6 10.4-.5.8-1.3 2.6-1.9 4-.5 1.4-1.4 3.2-2 4-.5.8-12.2 24.2-25.9 52-25.9 52.3-48 95.4-55.1 107.5-1 1.6-3.5 6.4-5.7 10.5s-5.4 10-7 13c-4 7.3-21.2 37.2-25.1 43.5-1.7 2.7-4.1 6.9-5.3 9.2-1.2 2.3-2.6 4-3.1 3.7-.4-.3-.7-.8-.4-1.2.2-.4.7-4.4 1-8.8.9-11.2 1.5-14.7 5.1-31.9 2.1-10.4 8.6-32.8 14-48.5 7-20.3 17.5-49.2 19.6-53.7 1-2.4 1.9-4.7 1.9-5.2 0-1.9 23.2-58.9 29.8-73.1 1.6-3.6 4-8.8 5.2-11.5 14.3-32.2 34.5-66.1 46.9-78.5 7.4-7.4 11.1-9.9 16.3-10.9 4.9-.9 7.9 0 12.3 3.4zm203.7 18.3c.7.7 1.3 1.7 1.4 2.4.1.7 1.3 5.8 2.7 11.3 1.4 5.5 2.8 11.1 3.1 12.5.3 1.4 1.2 5.5 2 9.1.8 3.6 1.7 8.1 2 10 .3 2 .8 4.2 1 5 .3.8.8 3.2 1.2 5.4.3 2.2.8 4.9.9 6 .2 1.1.9 4.9 1.5 8.5 1.3 7.2 1.5 8.3 2.5 15.5.3 2.7.8 5.7 1 6.5.2.8.7 4.2 1 7.5.4 3.3.9 7.3 1.1 9 .3 1.6.7 5.2 1 8 .2 2.7.7 7 .9 9.5 1.3 11.4 1.6 15.7 1.9 33.3.2 10.3 0 18.9-.4 19.2-.7.4-5-3.9-28-28.5-7.4-7.9-15.1-16-17-18.1-1.9-2-8.7-9.2-15-15.9-6.3-6.8-13.1-14-15-16-1.9-2-9.1-9.6-16-16.9-6.9-7.4-13.9-14.8-15.7-16.6l-3.2-3.2 3.7-5.9c11.9-19.2 32.5-41.3 46.1-49.6 2-1.2 3.8-2.4 4.1-2.7.7-.9 6.7-3.1 13.5-5.1 6.6-1.9 15.9-2 17.7-.2zM420.8 410c2.8 7.1 5.4 14.2 5.8 15.7.4 1.5 1 3.2 1.4 3.8.4.5 1.1 2.5 1.5 4.3.5 2.6.1 4.2-2.4 8.2-1.7 2.8-3.1 5.4-3.1 5.9s-.6 1.6-1.2 2.3c-1.4 1.4-1.9 2.4-28.8 55.5-9.8 19.3-18.5 36.2-19.3 37.5-.8 1.3-3.9 7-6.9 12.8-3.1 5.8-6.7 12.5-8 15-1.4 2.5-4 7.2-5.8 10.5-1.8 3.3-5.7 10.1-8.6 15.2-3 5.1-5.4 9.4-5.4 9.6 0 .3-1.8 3.5-4 7.1-2.2 3.6-4 6.8-4 7.1 0 .3-.5 1.1-1.1 1.8-.8.9-21.9 35.7-26.4 43.5-.5 1-2 3.2-3.2 4.9-1.3 1.7-2.3 3.6-2.3 4.2 0 .6-.4 1.1-1 1.1-.5 0-1 .6-1 1.4 0 .8-.4 1.7-.8 2-.9.5-.7-4.1.3-8.4.3-1.4.7-3.6 1-5 .7-5 4.7-22.7 7.1-32 7.2-27.3 15.4-51.2 24.5-71.5 1.2-2.8 2.3-5.2 2.4-5.5 0-.3 3.3-7.2 7.3-15.4s7.2-15.3 7.2-15.7c0-.5.5-.9 1-.9.6 0 1-.5 1-1.1 0-1.1 9-19.3 19-38.4 2.6-5 7.8-14.9 11.5-22 7.2-13.8 12-22.8 15.2-28.5 1-1.9 6.1-11.3 11.3-20.8 5.2-9.4 9.7-17.2 10.1-17.2.3 0 2.9 5.8 5.7 13zm20.3 58.2c.7 2.4 1.4 4.7 1.5 5.3.1.5 1.6 5.1 3.2 10.2 4.7 14.5 6.8 23.3 5.7 24.1-.6.4-2.1 2.9-3.5 5.7-1.4 2.7-3.2 6.1-4.1 7.5-.8 1.4-2.2 4.1-2.9 6-.8 1.9-1.7 3.7-2 4-.4.3-1.9 2.9-3.4 5.9-5.1 10.3-18.1 33.6-18.8 33.9-.5.2-.8.8-.8 1.4 0 .8-6.3 11.9-13.7 24.3-.7 1.1-1.6 2.7-2 3.5-1.4 3-23.6 38.7-28.4 45.8-2.7 4-4.9 7.5-4.9 7.8 0 .5-4 6.4-5 7.4-.3.3-3.8 5.6-7.9 11.7-4.1 6.2-7.5 11.3-7.7 11.3-.1 0 .2-1.5.7-3.3.5-1.7 1.1-4.4 1.4-5.8.8-4.5 5.5-22.2 7.9-29.9 1.3-4.1 3.4-10.9 4.6-15 5-16.4 20.6-55.7 26.3-66 6-10.9 16.8-31.5 29.6-57 20-39.5 21.8-43 22.6-43 .2 0 1 1.9 1.6 4.2zm27.6 12c.2 1.2.1 1.9-.2 1.6-.3-.3-.8-1.6-1-2.8-.2-1.2-.1-2 .2-1.6.4.4.8 1.6 1 2.8zm1.6 4.8c.3 1.1.1 2-.4 2s-.9-.9-.9-2 .2-2 .4-2 .6.9.9 2zm5.3 18.8c2.3 8.1 6.1 21 8.4 28.7 2.3 7.7 4.4 14.9 4.6 16 .7 2.8 1 3.8 1.7 5.5.5 1.3 3.5 11.4 4.3 14.5.3 1.1 4.9 16.5 8.8 29 1.3 4.4 3.9 12.5 5.6 18 1.7 5.5 3.3 10.4 3.4 11 1.4 6.3 28 86.1 33.1 99.5 2 5.2 3.8 9.9 3.9 10.5.2.5.8 2.1 1.3 3.5.6 1.4 1.9 4.5 2.8 7 1 2.5 2.2 4.9 2.7 5.4.4.6.8 1.6.8 2.2 0 2.1 7 13.4 10.2 16.5 1.7 1.6 4 2.9 5.2 3h2.1l-2.1.9c-1.2.5-3 .7-4 .5-1.1-.2-2.3-.4-2.9-.4-3-.3-9.8-8.7-13.7-17.1-6.6-14-9.2-20.2-14.1-33-7.2-19.1-22.8-65.8-23.3-70-.1-.8-.9-3.5-1.7-6-1.6-4.5-11.5-38.7-12.3-42.5-.3-1.1-.7-3.1-1-4.4-.3-1.3-.9-3.2-1.5-4.3-.5-1-.7-1.8-.4-1.8.4 0 .3-.6-.2-1.3-.4-.6-.8-1.7-.9-2.2-.1-.6-1-3.9-1.9-7.5-.9-3.6-1.8-7-1.9-7.5-.2-.6-.8-3-1.5-5.5s-1.5-5.2-1.6-6c-.2-.8-4.4-17.5-9.3-37-10.7-42.1-10.6-41.7-9.6-40.7.4.4 2.7 7.4 5 15.5zm24.9-.1c1.5 4.9 2.9 9.5 3.2 10.3.4.8.7 1.7.7 2 .2.8 6.6 21 8 25.5.8 2.2 2 6.2 2.9 9 .9 2.7 2.9 9.3 4.5 14.5 7.4 23.6 8.6 27.5 8.7 28 .1.9 4.6 15.3 6.5 21 3.2 9.6 7.4 23.4 7.7 25 .1.8 1.2 4.4 2.3 8 1.2 3.6 3.5 10.8 5.1 16 1.7 5.2 3.3 10.2 3.6 11 .3.8.7 2.1.9 2.9.5 2.7 12.6 38.7 14 41.8.8 1.7 1.4 3.5 1.4 4 0 2.3 10.3 28.1 14.6 36.5 3 6 3 6.8 0 6.8-1.6 0-3.3-1.1-4.9-3.3-2.5-3.2-5.7-9-5.8-10.4 0-.5-.6-1.4-1.2-2.1-2.3-2.8-14.8-39.2-21.7-63.2-1.2-4.1-2.5-8.2-3-9-.6-1.3-1.6-4.7-2.5-9-.1-.3-1.6-5.2-3.4-11-1.8-5.8-3.7-12.1-4.3-14-.6-1.9-1.5-4.4-1.9-5.5-.5-1.1-1.7-5.2-2.8-9-1.1-3.9-2.9-10.2-4-14-1.2-3.9-2.3-7.9-2.6-9-.3-1.1-1.1-4.3-1.9-7-3.1-10.3-4.7-16.1-5.1-17.8-.2-1-1.4-5.2-2.5-9.5-1.2-4.2-2.3-8.4-2.5-9.2-.2-.8-.4-1.5-.5-1.5-.1 0-.3-.9-.5-2s-1.6-6.3-3-11.5-2.8-10.4-3-11.5c-.2-1.1-.8-3.5-1.3-5.3-.6-1.7-.9-3.2-.7-3.2.2 0-.4-2.4-1.4-5.3-1-2.8-1.8-5.4-1.8-5.7 0-.9-4.3-18.9-4.9-20.5-.4-.8-.4-1.5 0-1.5.3 0 1.7 3.9 3.1 8.7zm35.4 35.3c2.3 6.3 4.4 12.5 4.6 13.7.3 1.2.9 3.3 1.4 4.5.5 1.3 1 2.7 1.1 3.3.1.5.6 1.8 1.2 2.8.5 1 1.1 2.8 1.4 4 .3 2 4.6 15.3 6.5 20.2 3.4 9.1 4.1 11 3.9 11-.3 0 13.6 43.7 15.5 48.5.7 1.9 1.3 3.8 1.3 4.3 0 .4 1 3.8 2.2 7.5 1.2 3.7 2.3 7.1 2.5 7.7.1.5.5 1.7.8 2.5.3.8 2.4 7.6 4.7 15 2.3 7.4 4.8 15.2 5.6 17.2.8 2.1 1.1 3.8.8 3.8-.4 0-.2.6.4 1.3.6.7 1.3 2.4 1.6 3.7.2 1.4 1.3 5.2 2.4 8.5 7.6 23.2 8 25.4 5.4 30.1-.8 1.4-2.1-1.5-6.1-14.3-2.9-8.8-5.4-16.9-5.6-17.9-.2-1.1-1.4-4.6-2.5-7.9-1.1-3.3-2.2-6.7-2.4-7.5-.2-.8-.6-2.2-.9-3-.4-.8-1.9-5.3-3.3-10-2.8-9.3-3.7-12.4-11.4-37.5-2.8-9.4-6.5-21.3-8-26.5-1.6-5.2-3.8-12.7-5-16.5-1.2-3.9-2.4-7.9-2.7-9-.2-1.1-.7-2.7-1-3.5-.3-.8-.7-2-.8-2.5-.2-.6-2.6-8.9-5.4-18.5-2.8-9.6-5.4-18.4-5.6-19.5-.3-1.1-1.1-4.3-2-7-.8-2.8-2.2-7.7-3.2-11-.9-3.3-1.8-6.5-2-7-.1-.6-.5-2.4-.8-4-.4-2.7-.4-2.8.4-.5.5 1.4 2.8 7.7 5 14zm-73 2.7c1.1 3.8 2.7 9.5 3.5 12.7l1.6 5.9-4.2 7.6c-4.9 9-10 18.7-13.7 25.6-1.4 2.7-2.8 5.2-3.1 5.5-.3.3-2.3 3.9-4.4 8-2.2 4.1-4.2 7.7-4.5 8-.3.3-1.5 2.3-2.6 4.5-3.9 7.9-22.4 39.5-35 59.9-1.1 1.8-4 6.5-6.4 10.4-2.4 4-4.5 7.2-4.7 7.2-2.1 0 18.1-58.8 26.8-77.8 4.4-9.7 11.8-24.8 13.5-27.7 4.9-8 13.1-23 23.5-42.7 4-7.6 7.4-13.8 7.5-13.8.1 0 1.1 3 2.2 6.7zm107.2 37c.1.2.2.6.3 1 .1.5 1.2 3.9 2.5 7.8 1.3 3.8 2.4 7.4 2.5 8 .1.5.4 1.4.7 2 .3.5 1.1 3 1.9 5.5.7 2.5 2.6 8.3 4.2 13 1.6 4.7 3.1 9.2 3.3 10 .3 1.7 4.2 13.9 17.6 55.2 8.2 25.2 8.9 28 8 31.8-.5 2.3-1.1 4.4-1.4 4.6-.4.5-6-15-7.2-19.9-.2-.9-2.6-8.8-5.4-17.5-4-12.6-7.4-23.8-8.6-28.2-.1-.3-.4-1.2-.8-2-.6-1.6-5.7-18.5-6.3-21-.2-.8-2.2-7.8-4.4-15.5-2.3-7.7-5.7-19.9-7.6-27-1.9-7.2-4.6-17.1-6-22-5.3-19.4-5-19.9 1.1-2 3 8.8 5.5 16.1 5.6 16.2zm16.8-1.9c1.7 4.5 2.7 8.2 2.3 8.2-.4 0-.2.4.4.8.5.4 2 3.6 3.2 7.2 1.1 3.6 4.9 14.4 8.2 24 3.4 9.6 6.3 18.2 6.5 19 .2.8 2 6.2 4 12 2.7 7.7 3.8 12.6 4.1 18.5.4 7.7.3 7.9-1.1 5.1-.9-1.6-1.7-3.9-2-5-.2-1.2-.4-2.1-.5-2.1-.1 0-.3-.7-.5-1.5-.1-.8-2.1-7.1-4.3-14-5.6-17.1-11.3-35.3-11.6-36.5-.1-.6-1-3.5-2-6.5-2.5-7.8-7.7-26.1-8.2-28.6-.2-1.2-1.1-4.1-1.9-6.5-.9-2.4-1.1-3.9-.6-3.4.6.6 2.4 4.7 4 9.3zm55.5-4.3c.3.8.1 1.5-.4 1.5-.6 0-1-.7-1-1.5s.2-1.5.4-1.5.6.7 1 1.5zM603 578c0 .5-.2 1-.4 1-.3 0-.8-.5-1.1-1-.3-.6-.1-1 .4-1 .6 0 1.1.4 1.1 1zm39.4 14.2c-.2 19.5-1.4 62.3-1.9 70.8-1 15.4-2.4 31.5-3 35-.3 1.4-.7 5.4-1.1 9-.3 3.6-.7 6.7-.9 7-.2.3-.6 2.6-1 5-1.1 7.5-4.4 21.1-7.1 29-3.4 9.9-8.3 18.5-13.6 23.8-4.2 4.3-7.8 6.9-7.8 5.7 0-.5 5.6-8.1 7-9.5.3-.3 1-1.4 1.6-2.5.6-1.1 2.3-4.1 3.7-6.8 1.5-2.6 2.4-4.7 2.2-4.7-.3 0 .3-1.7 1.4-3.8 1.6-3.2 3.6-9.3 4.6-14.2.2-.8.4-1.5.5-1.5.2 0 .6-2 1.4-6.5.4-1.9.9-4.2 1.1-5 .4-1.5 1.5-10.1 2.1-15.5.1-1.7.5-4.6.8-6.5.8-5.3 1.6-13.7 2.2-21.5.2-3.8.7-8.6 1-10.5.3-1.9.7-6.7.9-10.5.2-3.9.7-10.4 1-14.5.3-4.1.8-11.3 1.1-16 .2-4.7.7-12.8 1-18 .3-5.2.7-12.2.9-15.5.2-3.3.4-8.6.4-11.8.1-3.1.4-5.7.9-5.7.4 0 .6 6.9.6 15.2zM477 591c1.2 4.7 2.3 8.9 2.4 9.5.1.5 1 3.7 2 7s1.9 6.7 2.1 7.5c.2 1.6-3 7.8-13.2 25.4-3.5 6-6.3 11.3-6.3 11.7 0 .5-.4.9-1 .9-.5 0-1 .5-1 1 0 1.4-16.4 27.8-26.8 43-8.2 12.1-25.9 36.2-29.8 40.6-1 1.2-3.8 4.4-6.1 7.1-6 7.1-13.4 14.5-14 14-.2-.3-.6-1.1-.7-1.9-2.4-12.5-2.5-24.8-.1-27.2 1.9-1.8 26.9-40.2 34.6-53.1 3-5 5.6-9.2 6-9.5.3-.3 2.3-3.7 4.6-7.5 2.2-3.9 6.4-11.1 9.3-16 4.5-7.7 13.9-24.5 24-43 1.5-2.8 4.4-8.3 6.5-12.3 2-4.1 4.1-7 4.5-6.5.4.4 1.7 4.6 3 9.3zm130.5-2.3c4.9 12.1 10.5 30.2 11 35.6.3 3.1-1.2 2.4-1.8-.8-.2-1.1-.7-2.7-1-3.5-2.6-6.8-12.1-38-11.6-38 .4 0 1.9 3 3.4 6.7zm52.1 22c.8 21.6.9 31.3.4 31.3-.3 0-.6 6.9-.6 15.3-.2 30.4-2.3 55.5-6 72.2-.9 3.8-1.7 7.7-1.9 8.5-1.9 9.1-11.4 29.1-16.7 35-3.4 3.9-3.4 3.6.3-3.5 2.7-5.1 8-17.7 8.3-19.8.1-.7.4-1.7.8-2.2.7-1.2 5.5-22.2 6.3-28 .4-2.2 1-6.7 1.5-10s1.2-9.4 1.5-13.5c.3-4.1.8-9.1 1-11 1.4-10.6 3.6-57.7 3.7-77.3.1-5.9.3-10.5.6-10.3.2.3.6 6.2.8 13.3zm19.1 8.8c0 .8-.4 1.5-.9 1.5-1 0-1.1-1.4-.1-2.3.9-1 1-.9 1 .8zm19 6.7c-.3.7-.5.2-.5-1.2s.2-1.9.5-1.3c.2.7.2 1.9 0 2.5zm-18.6 22.4c0 23.2-.5 37.3-1.6 51.9-1 11.6-1.4 15.9-1.6 16.5-.1.3-.1.8 0 1.2 0 .4-.4 3.1-.9 6-.6 2.9-1.3 6.6-1.6 8.3-.5 2.8-2.9 11.1-4.2 14.5-.3.8-.6 1.7-.6 2-.3 1.7-7.1 15-9.2 18-4.7 6.6-5.9 8-6.6 8-.8 0 4-9.9 5.3-11 .7-.6 6-14.5 6.1-15.7 0-.4.4-1.4 1-2.1.6-.6.8-1.2.5-1.2-.4 0 0-1.9.9-4.1.8-2.3 1.6-5.3 1.9-6.7.2-1.4.9-4.8 1.4-7.6 1.3-6.6 2.1-12.1 2.6-17.1.2-2.2.7-5.8 1-8 1.4-10.4 3.1-38.7 4-64.5.4-13 .4-12.4 1-11.8.3.3.6 10.8.6 23.4zm19.9-7.9c1.1 30.9-.5 71.8-3.5 89.3-2.4 14-8.8 29.7-15.5 38.3-5.3 6.7-5.4 6.1-.7-3.3 2.9-5.8 5.4-10.7 5.4-11 0-.3 1-3.7 2.1-7.5 2-6.9 4.2-16.8 4.8-21.2.1-1.3.5-4 .8-6 .3-2.1.8-6.1 1.1-8.8.2-2.8.7-7 1-9.5 1-9.7 2.2-35.4 2.5-55.8.2-7.8.6-14.2 1-14.2.3 0 .8 4.4 1 9.7zm-209.2-2.5c.1 1.7.6 3.7 3.5 14.3 1.4 4.9 2.7 9.9 2.8 11 .3 2.1-5.7 14.7-7.2 15.3-.5.2-.9.9-.9 1.6 0 .7-4.3 8.4-9.5 17.1-5.2 8.8-9.5 16-9.5 16.2 0 .7-15.5 23.3-21.1 30.8-18.4 24.6-32.4 35-43.8 32.4-4.9-1.1-11.2-4-10.9-5 .2-.4 4.3-4.9 9.1-10.1 11-11.6 11-11.6 18.6-21.3 3.4-4.4 7-8.9 8-10 1.6-1.9 9.4-12.8 11.6-16.4.6-.9 1.3-1.8 1.6-2.1 1.9-1.7 25.9-39.7 25.9-41.1 0-.5.5-.9 1-.9.6 0 1-.4 1-.9 0-.4 1.9-4.1 4.3-8 6.1-10.4 5.9-10 10-17.4 3.8-6.5 5.3-8 5.5-5.5zm-203.3 10.5c-.8 2.9-1.6 6.7-1.9 8.5-1.1 6.5-1.6 9.3-2.1 11.3-.2 1.1-.7 4.2-1 7-.3 2.7-.8 6.6-1 8.5-.3 1.9-.8 7.3-1.1 12-.5 8.4-1.6 11.3-6.9 17.8-.7.9-4.2 5.3-7.6 9.7-8.8 11.2-18.8 22.2-19 20.8 0-.4-.2-1.5-.4-2.3-.2-.8-.6-3.3-1-5.5-.3-2.2-.8-4.7-1-5.5-.3-.8-.7-4.2-1-7.6l-.6-6.1 8.7-13.4c4.7-7.4 9.7-15 10.9-16.9 2.8-4.4 17.3-28.9 20.7-35.1 3.3-5.8 5.2-8.9 5.4-8.6.1.1-.4 2.5-1.1 5.4zm50.9 10.8c-1.3 4.9-2.7 10.6-3 12.5-.3 1.9-.9 5.1-1.4 7-.5 2-1.2 5.1-1.4 7-3.3 23.9-3.3 23.8-7.3 28.7-12.2 15.4-27.4 31.7-28.4 30.6-.7-.7-1.5-5.5-2.5-14.3-1.1-8.9-.8-9.5 9.4-24.3 5.5-7.8 11.9-17.4 14.3-21.2 2.4-3.9 4.6-7.2 4.9-7.5.4-.3 3.3-4.9 6.6-10.3 7.5-12.5 7.7-12.7 9.3-15.5 2.2-4 2-2.1-.5 7.3zm380.4-5.3c.3 17.4.2 39.9-.3 46.8-1.3 17.7-1.5 19.6-2 23-.5 4.1-1.6 10.1-1.9 11.5-.1.5-.6 2.6-1 4.5-1.7 7.1-6 16.7-11.2 24.5-6.6 10-11 13.4-5.5 4.2 3.5-5.9 8.1-15 8.6-17.2.1-.6.5-1.7.8-2.5.8-2 3.8-13 4.3-15.5.2-1.1.6-3.1.9-4.5.6-3 1.2-7 2-13 .3-2.5.8-6.1 1-8 1.2-8.7 2.7-35 2.8-48.8.1-4.5.4-8.2.7-8.2.4 0 .7 1.5.8 3.2zM388.7 661c-.1 1.1-.4 2-.7 2-.4 0-.7.6-.7 1.2-.1.7-1.3 5.1-2.8 9.8-4 13.1-9.2 35.3-10 43.2-.4 3.8-8.4 14.7-26.5 36-.8 1-1.7 1.8-2.1 1.8-1.2 0-2.7-10.1-3.2-22.3l-.4-7.8 5.1-6.7c10-13 24.2-33.1 32.6-46 4.7-7.2 8.6-13.1 8.7-13.1.1-.1.1.8 0 1.9zm347.5 10.2c.2 2.3.3 11.6.2 20.7-.3 28.6-2.3 46.1-6.5 57.1-1.1 3-2.1 6.1-2.2 6.7 0 .7-.4 1.3-.9 1.3-.4 0-.8.5-.8 1 0 2.4-10.7 17-12.5 17-.4 0 .3-1.5 1.5-3.3 5.5-8.3 12.4-24.9 13.7-33 .7-4.1 1.1-6.2 1.3-6.2.2 0 1.6-11 2.6-20.5.7-7.4 1.7-26.9 1.8-35.7.1-9.6 1.1-12.4 1.8-5.1zm-513.7-2c-.9 2.4-1.5 10.2-2 26.7-.5 14.4-.8 16.7-2.6 19-1.1 1.4-4.4 5.8-7.2 9.7-7.4 10.1-17 21.4-18.2 21.4-1.1 0-4.2-10.4-5-16.8-.5-3.3.4-5 8-16.7 4.7-7.2 9.2-14.1 9.9-15.5.7-1.4 2.2-4.1 3.3-6 1.1-1.9 3.4-6 5.2-9 1.7-3 3.6-6.2 4.2-7 .5-.8 1.5-2.7 2.2-4.3 1.1-2.6 3.1-4 2.2-1.5zm58.1 73c.5 3 1.8 8.9 3 13 1.4 4.9-18.7 14.2-25.4 11.7-1.2-.5-2.2-1.2-2.2-1.7s2.4-3.3 5.3-6.3c5-5.2 8.7-9.4 15.2-17.1 1.7-2 3.1-3.4 3.3-3.3.2.2.6 1.8.8 3.7zm-55.7 5.5c.6 2.7 1.4 5.7 1.7 6.8 1.7 5.6 1.1 6.9-4.6 9.7-6.4 3.2-12.4 4.1-16.3 2.4l-2.7-1.1 6-6.5c3.3-3.6 7.7-8.6 9.8-11.2 2-2.6 4-4.7 4.4-4.8.3 0 1.1 2.1 1.7 4.7zm104.1-1.5c.1 1.8.8 6.2 1.6 9.8 2.5 10.6 2.5 11-2.6 14.2-2.5 1.5-6.8 3.4-9.7 4.1-4.6 1.2-5.4 1.2-8.6-.5-2-1-4.2-2.7-5.1-3.9-1.4-2-.9-2.7 10.7-14.5 6.7-6.7 12.5-12.3 13-12.3.4-.1.7 1.4.7 3.1zm44.6 11.3c.8 3.3 1.7 6.8 2 7.7.9 2.9-9.2 8.2-17.4 9.2-2.2.3-3.6-.2-5.3-2l-2.3-2.4 4.5-4.7c2.4-2.6 5.1-5.4 5.9-6.3.9-.8 3.6-4 6-6.9 4.2-5.1 4.5-5.3 4.8-3 .2 1.3 1 5.1 1.8 8.4zm-199 3.6c.5 1.6-1.4 2.9-9.1 6-3.3 1.3-8.5 1.2-10-.2-.6-.6.5-2.2 2.8-4.4 2-1.9 3.7-3.7 3.7-3.9 0-.3 1.9-2.5 4.2-5l4.1-4.6 1.9 5.3c1 2.8 2.1 5.9 2.4 6.8z"/></svg>