<svg xmlns="http://www.w3.org/2000/svg" viewBox="0 0 323.57 270"><defs><style>.cls-1{fill:#374a57}.cls-2{fill:#8a9ca8}.cls-3{fill:#3c3c3b}.cls-4{fill:#fff}.cls-8{fill:#c6c6c6}</style></defs><g id="Layer_2" data-name="Layer 2"><g id="Layer_1-2" data-name="Layer 1"><path class="cls-1" d="M314.57 175.77l-58.78-33.94c-5-2.86-9-.54-9 5.2v67.87c0 5.74 4 12.71 9 15.58l58.78 33.94c5 2.87 9 .54 9-5.2v-67.87c0-5.74-4.03-12.71-9-15.58z"/><path class="cls-1" d="M261.65 145.21l-12.1-4.07-8.12 4.68 16.26 5.86 3.96-6.47zm59.59 119.63l-14.13-5.37-8.12 4.68 13.87 5.47 8.38-4.78z"/><path class="cls-2" d="M307 268.77l-58.78-33.93c-5-2.87-9-9.85-9-15.59v-67.87c0-5.73 4-8.06 9-5.19L307 180.12c5 2.87 9 9.85 9 15.59v67.87c0 5.73-4.07 8.06-9 5.19z"/><path class="cls-1" d="M252.25 160c0 2-1.39 2.79-3.11 1.79a6.86 6.86 0 01-3.11-5.39c0-2 1.39-2.79 3.11-1.79a6.86 6.86 0 013.11 5.39zm56.85 32.8c0 2-1.39 2.79-3.11 1.79a6.86 6.86 0 01-3.11-5.39c0-2 1.39-2.78 3.11-1.79a6.86 6.86 0 013.11 5.39z"/><path class="cls-3" d="M252.25 225c0 2-1.39 2.79-3.11 1.8a6.88 6.88 0 01-3.11-5.39c0-2 1.39-2.79 3.11-1.8a6.88 6.88 0 013.11 5.39z"/><path class="cls-1" d="M309.1 257.78c0 2-1.39 2.79-3.11 1.8a6.88 6.88 0 01-3.11-5.39c0-2 1.39-2.79 3.11-1.8a6.88 6.88 0 013.11 5.39z"/><path class="cls-3" d="M290.93 215.19c0 8.52-6 12-13.36 7.72s-13.36-14.62-13.36-23.14 6-12 13.36-7.72 13.36 14.62 13.36 23.14z"/><path class="cls-4" d="M295.23 219.83c0 13.64-9.58 19.17-21.39 12.35s-21.39-23.41-21.39-37.05S262 176 273.84 182.78s21.39 23.41 21.39 37.05z"/><path class="cls-2" d="M196.89 241.09a10.1 10.1 0 01-2.89-19.77l75.67-22.48c5.34-1.6 9.51 1.49 11.11 6.83s0 10.92-5.34 12.51l-75.67 22.49a10.31 10.31 0 01-2.88.42z"/><path class="cls-1" d="M211.84 231a21.92 21.92 0 11-21.92-21.91A21.91 21.91 0 01211.84 231z"/><path class="cls-2" d="M184.82 223.26a10.1 10.1 0 01-9.8-7.73l-16.83-69.71a10.1 10.1 0 0119.63-4.74l16.82 69.72a10.09 10.09 0 01-7.44 12.2 10.24 10.24 0 01-2.38.26z"/><path class="cls-1" d="M192.6 133.43a31.21 31.21 0 11-31.21-31.21 31.21 31.21 0 0131.21 31.21zM6.12 106.64L185.84 2.88c7.81-4.51 18.6-3.88 30.5 3L13.43 123C4.17 128.38-5 115.6 3.17 108.72a1.19 1.19 0 01.18-.15 12.78 12.78 0 011.1-.84l.27.28z"/><path class="cls-2" d="M176.23 33.86c0-24.53 17.22-34.47 38.46-22.2s38.45 42.08 38.45 66.6-17.21 34.47-38.45 22.21-38.46-42.09-38.46-66.61z"/><path class="cls-2" transform="rotate(-30 134.47 102.371)" d="M41.85 47.99H227.1v108.77H41.85z"/><path d="M15.8 126.48c0 24.52 17.2 54.35 38.46 66.61s38.45 2.32 38.45-22.2-17.22-54.35-38.45-66.61S15.8 102 15.8 126.48zm22.87-16.6a27.18 27.18 0 0110.21 3.72c8.53 4.93 17 14 23.25 24.77S81.94 161 82 170.88a27.14 27.14 0 01-1.88 10.7 10.19 10.19 0 01-4 4.88c-3.74 2.16-9.73 1.17-16.43-2.7-8.54-4.92-17-13.95-23.26-24.75s-9.82-22.67-9.81-32.53c0-7.73 2.14-13.41 5.88-15.57a10 10 0 016.17-1.03z" fill="#ededed"/><path class="cls-1" d="M26.57 126.48c0 9.86 3.57 21.71 9.81 32.53s14.72 19.83 23.26 24.75c6.7 3.87 12.69 4.86 16.43 2.7a10.19 10.19 0 004-4.88 27.14 27.14 0 001.93-10.7c0-9.85-3.59-21.7-9.82-32.51s-14.77-19.84-23.3-24.77a27.18 27.18 0 00-10.21-3.72 10 10 0 00-6.22 1c-3.74 2.19-5.89 7.87-5.88 15.6z"/><path class="cls-2" d="M38.67 109.88a27.18 27.18 0 0110.21 3.72c.3.17.58.35.88.54a49.8 49.8 0 016.3 4.59 75.76 75.76 0 0116.07 19.64 75.15 75.15 0 019 23.74 48.51 48.51 0 01.84 7.74v1a27.14 27.14 0 01-1.88 10.7c-3.66.81-8.55-.28-13.86-3.18-8.4-4.6-16.65-13.18-22.64-23.54s-9.29-21.81-9.07-31.39c.12-6.01 1.62-10.8 4.15-13.56z"/><path class="cls-3" d="M43.9 128.35c0 14.54 10.21 32.21 22.79 39.47 5.86 3.39 11.21 3.91 15.24 2a48.51 48.51 0 00-.84-7.74 75.15 75.15 0 00-9-23.74 75.76 75.76 0 00-16.07-19.64 49.8 49.8 0 00-6.3-4.59c-3.6 2.58-5.82 7.48-5.82 14.24z"/><path d="M56.06 118.73a75.76 75.76 0 0116.07 19.64 75.15 75.15 0 019 23.74c-3.21 2.08-7.79 1.89-12.85-1-9.79-5.66-17.73-19.4-17.72-30.69-.04-5.89 2.09-9.93 5.5-11.69z" fill="#1d1d1b"/><path d="M72.85 150.79a24.63 24.63 0 01-8.13-8.53l-5.34 4.17a31.2 31.2 0 0010.1 10.19 12.3 12.3 0 007.8 1.95l-1.19-6.63a7 7 0 01-3.24-1.15z" opacity=".5" fill="#ededed"/><path class="cls-8" d="M238.07 68.84a4.87 4.87 0 001.78-5.43c-.62-2.08-2.43-3-4-2.07L98 140.93a4.86 4.86 0 00-1.79 5.43c.63 2.07 2.44 3 4 2.07zm3.53 16.59a5.74 5.74 0 002.68-4.91c-.13-1.78-1.54-2.47-3.15-1.55l-137.87 79.6a5.77 5.77 0 00-2.67 4.91c.13 1.78 1.54 2.48 3.15 1.55z"/><path class="cls-4" d="M184.14 3.86l.06.07a18.31 18.31 0 011.64-1.05c7.81-4.51 18.6-3.88 30.5 3s22.66 18.68 30.49 32.2A95.64 95.64 0 01258.58 70a14.92 14.92 0 01-7.28 15.29l-135.17 78c-16.14 9.31-37 3.12-44.94-13.72-1.25-2.64-2.62-5.22-4.08-7.76-7.8-13.53-18.58-25.32-30.49-32.2s-22.68-7.53-30.5-3z"/><path class="cls-8" d="M4.38 107.65l1.74-1a16.49 16.49 0 00-1.67 1.09z"/><path class="cls-1" d="M112.38 151.11a3.48 3.48 0 015.2 2 5.53 5.53 0 01-2.33 6.35 3.46 3.46 0 01-5.19-2 5.56 5.56 0 012.32-6.35zM155.93 126a3.47 3.47 0 015.2 2 5.55 5.55 0 01-2.33 6.36 3.47 3.47 0 01-5.19-2 5.54 5.54 0 012.32-6.36zm43.55-25.17a3.47 3.47 0 015.2 2 5.53 5.53 0 01-2.33 6.35 3.46 3.46 0 01-5.19-2 5.54 5.54 0 012.32-6.35zM243 75.68a3.48 3.48 0 015.2 2 5.53 5.53 0 01-2.33 6.35 3.46 3.46 0 01-5.19-2 5.56 5.56 0 012.32-6.35z"/></g></g></svg>