<svg xmlns="http://www.w3.org/2000/svg" xmlns:xlink="http://www.w3.org/1999/xlink" viewBox="0 0 99.92 106.75"><defs><linearGradient id="_ÂÁ_Ï_ÌÌ_È_ËÂÌÚ_244" x1="4.18" y1="131.16" x2="4.18" y2="36.04" gradientTransform="matrix(1 0 0 1.02 45.59 -36.78)" gradientUnits="userSpaceOnUse"><stop offset="0" stop-color="#ff3363"/><stop offset="1" stop-color="#ff6e27"/></linearGradient><linearGradient id="_ÂÁ_Ï_ÌÌ_È_ËÂÌÚ_127" x1="89.75" y1="-83.36" x2="89.75" y2="-117.29" gradientTransform="rotate(31 -171.767 -89.52)" gradientUnits="userSpaceOnUse"><stop offset=".01" stop-color="#2a0e45"/><stop offset="1" stop-color="#561f7d"/></linearGradient><linearGradient id="_ÂÁ_Ï_ÌÌ_È_ËÂÌÚ_127-2" x1="13.23" y1="-280.98" x2="13.23" y2="-305.8" gradientTransform="rotate(82.5 -159.438 -94.464)" xlink:href="#_ÂÁ_Ï_ÌÌ_È_ËÂÌÚ_127"/><linearGradient id="_ÂÁ_Ï_ÌÌ_È_ËÂÌÚ_127-3" x1="4.47" y1="94.01" x2="4.47" y2="84.92" gradientTransform="rotate(-12.56 -152.41 -137.345)" xlink:href="#_ÂÁ_Ï_ÌÌ_È_ËÂÌÚ_127"/><radialGradient id="_ÂÁ_Ï_ÌÌ_È_ËÂÌÚ_178" cx="3.74" cy="72.33" r="68.85" gradientTransform="rotate(-12.56 -152.41 -137.345)" gradientUnits="userSpaceOnUse"><stop offset="0" stop-color="#faf5f8"/><stop offset=".98" stop-color="#d4cbe2"/></radialGradient><radialGradient id="_ÂÁ_Ï_ÌÌ_È_ËÂÌÚ_178-2" cx="4.47" cy="89.47" r="2.2" xlink:href="#_ÂÁ_Ï_ÌÌ_È_ËÂÌÚ_178"/><style>.cls-7{fill-rule:evenodd;mix-blend-mode:multiply}.cls-3{fill:#8b0c42}.cls-7{opacity:.5;fill:#8e4072}</style></defs><g style="isolation:isolate"><g id="Layer_2" data-name="Layer 2"><g id="Layer_1-2" data-name="Layer 1"><path d="M94 70.09a43.47 43.47 0 01-82.91 10.33 40.91 40.91 0 01-1.79-5z" style="mix-blend-mode:multiply" fill-rule="evenodd" fill="#540041" opacity=".3"/><circle class="cls-3" cx="50.04" cy="49.93" r="49.87" transform="rotate(-45 50.042 49.932)"/><ellipse cx="49.77" cy="48.73" rx="49.82" ry="48.64" transform="rotate(-12.56 49.771 48.75)" fill="url(#_ÂÁ_Ï_ÌÌ_È_ËÂÌÚ_244)"/><path d="M45.17 7.17L44.89.31S66-2.84 81.41 10.84l-5.53 4.86zM20.6 79.24l-3.47 6.57A32.58 32.58 0 0030 93.61l2.81-6.74z" style="mix-blend-mode:soft-light" fill="#fbf9fa" opacity=".5" fill-rule="evenodd"/><ellipse class="cls-3" cx="49.74" cy="48.55" rx="42.4" ry="41.39" transform="rotate(-12.56 49.746 48.562)"/><path d="M91.33 40.25c4.86 21.8-9.74 43.61-32.59 48.7S13.41 80.5 8.55 58.7a38.23 38.23 0 01-.67-4v-.28l-.08-.78C6 33.57 20.08 14.68 41.15 10c17-3.78 33.72 2.72 43.22 15.24a39 39 0 014.33 7.23 39.34 39.34 0 012.63 7.78z" fill="url(#_ÂÁ_Ï_ÌÌ_È_ËÂÌÚ_178)" fill-rule="evenodd"/><path class="cls-7" d="M89.09 33.13a56.6 56.6 0 012.64 8c-.48-1.31-8.7-22.45-39.91-22.45A48.07 48.07 0 008 45.22v-.29c0-.19.06-.44.1-.78 3.23-21.3 22.23-35.3 42.07-35.28 18.21-.01 32.38 9.97 38.92 24.26z"/><path d="M52.73 48.85a2.86 2.86 0 11-3.38-2 2.8 2.8 0 013.38 2z" fill="#a695cf" fill-rule="evenodd"/><path d="M39.22 14.56l2.23 10-1.78.44-1.85-8.32-1 .23-.38-1.7zm11.17 6.24l.38 1.7-7 1.55.42-.66c.78-1.23 1.38-2.22 1.81-3a11.72 11.72 0 001-2.23 3.78 3.78 0 00.17-2 1.68 1.68 0 00-.79-1.15 1.89 1.89 0 00-1.34-.16 1.72 1.72 0 00-1.14.73 1.43 1.43 0 00-.21 1.12 2.22 2.22 0 00.94 1.43l-.86 1.23a2.21 2.21 0 01-1.13-.89 3.69 3.69 0 01-.64-1.28 3.21 3.21 0 01.09-1.68 3.25 3.25 0 011-1.48 4.28 4.28 0 011.91-.89 3.41 3.41 0 011.8.07 3.24 3.24 0 011.43.93 3.43 3.43 0 01.77 1.52 4.21 4.21 0 010 1.8 8.76 8.76 0 01-.6 1.79 47.3 47.3 0 01-1.13 2.25zm6.05 58.26a3.16 3.16 0 011.37.9 3.42 3.42 0 01.79 1.55 3.33 3.33 0 01-.1 1.91 3.49 3.49 0 01-1.06 1.48 4 4 0 01-1.66.81 3.69 3.69 0 01-2-.08 3.6 3.6 0 01-1.64-1.14 4.75 4.75 0 01-1-2.11 5.34 5.34 0 01.51-3.61 13.24 13.24 0 012.61-3.54l1.47 1a7.91 7.91 0 00-1.83 1.88 6 6 0 00-.89 2A2.91 2.91 0 0154.89 79a2.84 2.84 0 011.55.06zm.1 4.3a1.81 1.81 0 00.22-1.44 1.63 1.63 0 00-.76-1.14 1.89 1.89 0 00-1.41-.18 2 2 0 00-1.19.73 1.4 1.4 0 00-.3 1.19l.07.3a1.65 1.65 0 00.43.8 1.94 1.94 0 003-.26zM16.93 51a3.58 3.58 0 011.62 1 3.65 3.65 0 01.91 1.74 5.45 5.45 0 01-.1 2.87 8 8 0 01-1.27 2.47A24.78 24.78 0 0116 61.53l-1.47-1a12.33 12.33 0 001.85-1.72 7.5 7.5 0 001.15-1.7 3.07 3.07 0 01-1.63.85 2.76 2.76 0 01-1.53-.09 3.27 3.27 0 01-1.37-.94 3.38 3.38 0 01-.79-1.54 3.62 3.62 0 01.08-2 3.47 3.47 0 011-1.55A3.69 3.69 0 0115 51a3.89 3.89 0 011.93 0zm-2.14 5a1.85 1.85 0 001.41.22 1.93 1.93 0 001.19-.77 1.57 1.57 0 00.26-1.29l-.07-.31a1.89 1.89 0 00-3.4-.58 1.91 1.91 0 00-.22 1.5 1.84 1.84 0 00.83 1.31zm68.63-15.51a3.11 3.11 0 011.16 2 3.51 3.51 0 01-.08 1.94 3.37 3.37 0 01-1 1.49 3.89 3.89 0 01-1.69.83 4.17 4.17 0 01-1.58 0 3.44 3.44 0 01-1.4-.53l.57-1.66a2.45 2.45 0 00.92.43 2.29 2.29 0 001.07 0 1.81 1.81 0 001.15-.79 1.86 1.86 0 00.22-1.48 1.67 1.67 0 00-.76-1.06 1.75 1.75 0 00-1.35-.19 3.59 3.59 0 00-.64.19 5.5 5.5 0 00-.55.27h-.06l1.25-3.75-2.79.62-.38-1.7 5.34-1.19L81.49 40a2.79 2.79 0 011.93.49z" fill="#2c0045"/><path class="cls-7" d="M47.7 50.55a6.4 6.4 0 004.81 2.89l15.08-29.56s-.36-.73-1.88-1.13z"/><path d="M47.14 48.46A6.4 6.4 0 0052 51.35l15-29.56s-.36-.73-1.88-1.13z" fill="url(#_ÂÁ_Ï_ÌÌ_È_ËÂÌÚ_127)" fill-rule="evenodd"/><path transform="rotate(-52.9 38.776 65.054)" fill="#ff4f4a" d="M23.5 64.48h30.54v1.15H23.5z"/><path class="cls-7" d="M47.9 49.21a39 39 0 002.53 5.24l21.9-5.32a2.08 2.08 0 00-.22-1.6z"/><path d="M48 48.12s-.58 3.48.76 5.66L72.46 48a2 2 0 00-.21-1.59z" fill="url(#_ÂÁ_Ï_ÌÌ_È_ËÂÌÚ_127-2)" fill-rule="evenodd"/><path d="M54.48 48.94a4.54 4.54 0 11-5.43-3.45 4.55 4.55 0 015.43 3.45z" fill="url(#_ÂÁ_Ï_ÌÌ_È_ËÂÌÚ_127-3)" fill-rule="evenodd"/><path d="M52.19 49.45a2.2 2.2 0 11-2.63-1.67 2.2 2.2 0 012.63 1.67z" fill="url(#_ÂÁ_Ï_ÌÌ_È_ËÂÌÚ_178-2)" fill-rule="evenodd"/></g></g></g></svg>