<svg id="Layer_1" data-name="Layer 1" xmlns="http://www.w3.org/2000/svg" xmlns:xlink="http://www.w3.org/1999/xlink" viewBox="0 0 942.93 407.48"><defs><linearGradient id="linear-gradient" x1="739.97" y1="114.27" x2="766.45" y2="114.27" gradientTransform="rotate(7.97 753.486 114.327)" gradientUnits="userSpaceOnUse"><stop offset="0" stop-color="#e4e1fd"/><stop offset="1" stop-color="#cdc5fc"/></linearGradient><linearGradient id="linear-gradient-2" x1="725.45" y1="90.3" x2="781.34" y2="90.3" xlink:href="#linear-gradient"/><linearGradient id="linear-gradient-3" x1="711.71" y1="68.06" x2="795.07" y2="68.06" xlink:href="#linear-gradient"/><linearGradient id="linear-gradient-4" x1="697.25" y1="46.15" x2="809.54" y2="46.15" xlink:href="#linear-gradient"/><style>.cls-2{fill:#b0d4ff}.cls-4{fill:#77a4e5}.cls-7{fill:#ffb27d}.cls-9{fill:#fff}.cls-10{fill:#f4904d}.cls-11{fill:#ffa561}.cls-14{fill:#2a4e96}.cls-16{fill:#d2e3fc}.cls-18{fill:#f2a470}.cls-19{fill:#2c3a64}.cls-23{fill:#233862}.cls-24{fill:#163560}.cls-26{fill:#83caf9}.cls-27{fill:#db2d7c}</style></defs><path d="M30.36 407.48c-4.91 0-5.17-.06-9.72-3.75C1.39 388.11-4 364.09 2.83 340.79c8.5-28.94 30.62-52.76 54-70.84 16.93-13.12 37.82-24.09 50.68-41.67 14.73-20.15 10.34-46 3.45-68.31-5.35-17.31-6.5-34.85-.55-52.2 4.35-12.69 11.79-24.12 20.65-34.12 31.61-35.66 79.47-58 125.62-67.12C292.76-.6 330.07-1.83 366.76.39c35.8 2.16 71.95 7.4 106 18.87a253.69 253.69 0 0186.07 49.16c13.47 11.6 25.41 24.78 38.47 36.81 12.23 11.28 25.29 19.91 42.48 19.39 16.77-.49 33.41-4.78 49.88-7.65 17.16-3 34.48-5.19 51.91-5.24a199.06 199.06 0 01102.65 28.35c26.92 16 52.29 37.3 70.28 63.12 19.47 27.94 29 61.27 28.3 95.26 0 1.82.24-11.27 0 0-.72 32.48-9.89 64.8-24.36 93.77-1.08 2.18-6.11 15.15-8.41 15.15z" fill="#f39e8f" opacity=".4"/><path class="cls-2" d="M568.78 310.89c-1.1 2.61-11.67 5-27.34 7.17-2.76.38-5.68.75-8.74 1.11-53.35 6.28-199.47 9.79-208.48 7.94C311.78 324.55 287 199.39 287 199.39s72.92-1.26 130.83-1.88c19.81-.2 88.72-.73 101.5-.73 19.8 0 51.22 109.88 49.45 114.11z"/><path class="cls-2" d="M548.59 294.82s-22.38-85.75-24-93a5.66 5.66 0 00-5.17-4.67c3.93-.38 6.79-.41 6.79-.41a18.18 18.18 0 0117.12 13c5.42 16.9 16.19 49.36 26.31 81.1-.52-.01-21.05 3.98-21.05 3.98zm135.69 75.93c-3.57 21.51-26.91 35.25-50.86 35.25H586l3.68-124.28s45.28-14.76 56.65-1.77c10 11.39 37 56.44 38.38 83.1a35.86 35.86 0 01-.43 7.7z"/><path d="M684.28 370.75c-3.57 21.51-26.91 35.25-50.86 35.25h-23.27c15.52-9.93 29.55-40.4 74.13-35.25z" fill="#8bb9ef"/><path class="cls-4" d="M558.38 293.86s64-30.71 76.1-10.65c6.43 10.65 24.14 53.14 25.45 79.8 1.27 25.91-22.61 42.99-47.16 42.99h-43.62z"/><path d="M642.68 385c-.71.57-1.44 1.13-2.18 1.68-9.24 6.81-21.3 12.23-35.08 15.59a138.21 138.21 0 01-33.76 3.79H395.38l-2-10.22-17.81-103s246.59-5.55 266.64 5.9c9.31 5.31 14.59 27.32 17.52 51.58 1.58 12.97-5.03 25.09-17.05 34.68z" fill="#9fc3f7"/><path d="M642.68 385c-.71.57-1.44 1.13-2.18 1.68-9.24 6.81-21.3 12.23-35.08 15.59a138.21 138.21 0 01-33.76 3.79h-176.3l-2-10.22c34.49-6.66 82.22-13.43 132-12.91 47.64.56 87.41.49 117.32 2.07z" fill="#8bb3ee"/><path class="cls-7" d="M473.91 198.14a9.21 9.21 0 01-1.78-.92h13s-5-2.82-8.22-4.26-11.18 0-11.18 0-29.38-4.37-45.85-4c-4.42.11-35.85-5-44.9-3.2-4.77 1-9.1 1.71-11.88 2.17a3 3 0 01-3.42-2.66 78.17 78.17 0 00-1.25-9.27l-11.05-5.35-5.56 3c.06.62.1 1.22.12 1.81a32.22 32.22 0 01-.76 8.12 12.08 12.08 0 01-8.73 9h-.06c8.29 7.14 50.45 19.57 51.16 15.92 1-4.9 82.19-11.22 82.19-11.22s2.27.85 2.83 1.66 5.09.69 5.94.81.39-1.3-.6-1.61z"/><path d="M502.74 378.44s8.56 15.45 12.36 17.2c3 1.38 11.17 2.75 15.72 6.25 5.27 4.06-3.86 3.84-5.87 3.84 0 0-10.21-1.21-15.05-1.11-2.79.06-11.09 1.11-11.09 1.11a10.46 10.46 0 01-10.31-12.37 1.16 1.16 0 010-.18c1.18-6 2.1-13.67 2.1-13.67z" fill="#d9ecff"/><path class="cls-9" d="M396 194.91c-.18 4-1.3 8.42-4.88 10.74-5.65 3.67-4.22 13.24-4.18 17L362.72 188a119.6 119.6 0 0114.74-2.59c4.88-.53 17.73.94 17.73.94a34 34 0 01.81 8.56zm69.32 189.58s8.54 9.4 12.33 11.15c2.71 1.24 10 2 14.35 5.12 4.59 3.33 1.08 5-1.59 5 0 0-12.2 1-20-1.22-2.12-.59-7.92.59-10 1.05a42.15 42.15 0 01-5.25.39c-4.74-.61-5-5.15-4.51-10a25.63 25.63 0 01.39-2.73c1.18-6 1.89-11.52 1.89-11.52z"/><path class="cls-10" d="M507.39 379.32a27.84 27.84 0 01-5.79 3.06c-4.27 1.42-12.23.76-12.23.76s-20.32-39.42-24.61-49.39c-4.07-9.46-7.47-30.18-7.47-30.18-3.1-.17-26.32 3.12-46.71.91-10.85-1.17-20-3.85-23.14-9.33-9-15.78 19.67-33.38 19.67-33.38s56 10.09 68.27 19c11.62 8.49 32.01 98.55 32.01 98.55z"/><path class="cls-11" d="M468.36 384a31.88 31.88 0 01-7.16 2.76 26.43 26.43 0 01-10.64-.84s-3.12-18.89-15.94-49.1c-3.21-7.58-2.72-23.13-3.15-23.32 0 0-70 .6-78.15-15.13-1.32-2.55-2.79-9.74-2.62-12.08.85-12.43 17-17.23 17-17.23s73 12.91 85.52 21.52S468.36 384 468.36 384z"/><path class="cls-9" d="M413 262.28c-4.25 7.6-8.68 13.6-25 16.42-20.52 3.55-31.76 7.89-37.45 9.61-4.34 1.31-16.84-14.61-22.79-28.82-5.77-13.75-10.67-35.19-10.71-36.84C316.58 197.11 336 191 336 190.91s14.42 9.8 22.27 6.4 4.55-9.14 4.45-9.31l20.81 20.43s4.69 17.94 10.34 30.95c8.56 19.73 20.3 20.82 19.13 22.9z"/><path d="M358.41 176a78.17 78.17 0 011.25 9.27c-9.38-.31-16.81-10-16.86-10.65 1.13-.6 2.27-2.75 4.56-4z" fill="#ed985f"/><path class="cls-7" d="M360.6 182s-19.74-.57-19.2-12.85-1.65-20.64 11-20.8 14.87 4.64 15.68 8.78-2.33 24.69-7.48 24.87z"/><path d="M342.46 174.1s-.79-4.08 1.43-6.78c0 0-1.45-4 .08-4.91s2.36 2.52 3 1.87a16.85 16.85 0 004.55-7.69c.9-4 14.6-1.19 16.22-.72a2 2 0 001 0 4.49 4.49 0 001.8-7.68 4.63 4.63 0 01-.45-.42c-1.45-1.47-11.53-11.3-23.06-6.52s-12.38 10.7-11 15.5 1.31 16.39 6.43 17.35z" fill="#2b478b"/><path class="cls-7" d="M316.09 213.05s-2.75 4.38 5.2 15.89 42.8 44.81 46.28 42 7.82-7.14-.25-17.83-33.91-47.29-33.91-47.29z"/><path class="cls-9" d="M352.51 228.82c-6.58 3.67-11.41 6.6-21.48 6.58a67.74 67.74 0 01-13.83-1.5s-7.78-31.66 6.77-38.18c5-2.24 12-4.81 12-4.81s28.32 31.34 16.54 37.91z"/><path class="cls-14" d="M398.57 232.29l-8.19-.95a1.28 1.28 0 01-.94-1.85l6.25-18.07a2.14 2.14 0 012.09-1.49l8.2.95c.84.09 1.26.92.94 1.85l-6.25 18.07a2.16 2.16 0 01-2.1 1.49z"/><path d="M400.18 232.48l-8.19-.95a1.28 1.28 0 01-.94-1.85l6.24-18.07a2.17 2.17 0 012.1-1.5l8.19.95a1.29 1.29 0 01.95 1.85L402.28 231a2.16 2.16 0 01-2.1 1.48z" fill="#193d77"/><path class="cls-9" d="M398.5 212.08a.79.79 0 01.74-.53c.28 0 .4.32.26.65a.78.78 0 01-.74.52c-.28-.03-.39-.32-.26-.64zm1.44.23a.48.48 0 01.44-.32c.17 0 .24.2.16.39a.48.48 0 01-.44.31c-.17-.02-.24-.19-.16-.38z"/><path class="cls-7" d="M391.44 223s-25.61 25.55-28.72 29.7 2.79 18.47 3.82 18.36 12.55-10.52 16.71-19.2 11.81-21.25 11.81-21.25z"/><path class="cls-7" d="M394.78 233.82s5.35-3.53 8.1-5.21 5-12.58 3.75-12.4-11.88 4.79-15.43 10.08 3.58 7.53 3.58 7.53z"/><path class="cls-7" d="M389.72 227.17s1-3.8.85-4.43 2-3.86 2.48-5.06 1.08-3.07 1.72-2.23.47 2.55 0 3.85.75 3.35.75 3.35l-1.52 2.58z"/><path class="cls-16" d="M444 371.88c-3.81 20.86-24.92 34.12-46.55 34.12h-43.62l3.41-125.38s41.62-13.66 52.07-.67c9.16 11.39 34 56.44 35.3 83.1a38 38 0 01-.61 8.83z"/><path d="M444 371.88c-3.81 20.86-24.92 34.12-46.55 34.12h-34.9c16.33-10.45 38.33-39.22 81.45-34.12z" fill="#afcdfb"/><path class="cls-4" d="M419.08 372.75a38.26 38.26 0 01-12.24 20.67 48.15 48.15 0 01-12.39 7.95 53.72 53.72 0 01-18 4.49l-1 .06h-48.92l-13.53.14h-13.75a76.57 76.57 0 01-10.79-.78 50.69 50.69 0 01-12-3.23c-.65-.28-1.3-.56-1.93-.86s-1.27-.63-1.89-1a38.78 38.78 0 01-4.73-3 40.92 40.92 0 01-10.06-11.11 58.74 58.74 0 01-5.23-10.72 97.33 97.33 0 01-4.5-16.71q0-.22-.09-.48c-.52-2.87-1-5.9-1.36-9.08-.17-1.44-.34-2.92-.48-4.43q-.78-8-1-17.23v-1.98c-.11-4.9-.11-10 0-15.47q.06-3.56.18-7.27l.12-3.42q.34-8.64 1-18.12c.18-2.84.39-5.73.61-8.69q1.4-18.26 3.74-39.54c1.77-16.12 3.81-27.39 6.77-30 4.37-3.79 13.48-5.31 19.82-5.92 3.93-.38 6.79-.41 6.79-.41h2.11l.4.06.7.11.48.1.35.08.65.18.44.13.3.1a17.38 17.38 0 013.47 1.61 18.94 18.94 0 018.18 10.49c5.06 15.82 14.1 44.11 23.5 73.7.05.14.1.29.14.44l1.63 5.11.16.52.09.26 1.64-.69h.06c2.26-.94 4.81-2 7.56-3 1.42-.54 2.9-1.1 4.43-1.65 4.3-1.55 8.95-3.08 13.66-4.4 2.09-.59 4.19-1.14 6.28-1.62 2.69-.63 5.35-1.16 7.95-1.55h.23l.91-.13c1.84-.25 3.63-.43 5.36-.53 8.87-.51 16.21 1.15 19.57 6.73a106.77 106.77 0 014.86 9.55 306 306 0 0112.89 33.74c4 12.75 7.18 26 7.7 36.75a38.51 38.51 0 01-.84 10.05z"/><path class="cls-16" d="M306.45 294.82s-22.39-85.75-24-93a5.66 5.66 0 00-5.17-4.67c3.93-.38 6.79-.41 6.79-.41a18.18 18.18 0 0117.12 13c5.42 16.9 15.4 48.06 25.52 79.8-.52-.01-20.26 5.28-20.26 5.28z"/><path class="cls-18" d="M493.07 232.28s2.46 6.38 18.64 7.85 23.67 2.52 33.66-7.43a110.29 110.29 0 008.42-9l-1.74-3.3s-16.83 10.29-20.13 10.31c-20.49.2-40.5-9.08-38.85 1.57z"/><path class="cls-9" d="M502.26 226.59l15.87 3.13a7.83 7.83 0 01-2.92 8.06c-4.31 3.52-12.95-11.19-12.95-11.19z"/><path class="cls-18" d="M536.66 240.16s-29.15 40.38-22.37 46.46 12.91 5.1 19.64 3.8 15.67-34.73 15.14-38.71-4.38-16.19-12.41-11.55z"/><path class="cls-18" d="M536.66 240.16s.15 14.13 3.12 25.1 7 26.14 7 26.14h8s-3.39-41.5-3.19-46.57-5.81-13.43-14.93-4.67z"/><path class="cls-19" d="M525.28 257.24s-1.71 17.92 16.39 21.77c0 0-1.61 12.9-8.22 13.9s-28.3-.2-32.67-2.49c0 0 11.4-19.69 24.5-33.18z"/><path class="cls-9" d="M554.4 287.57s3.69 4.87 5.68 5.14 6.37 1.19 6 2.92-7.38 2.51-11.65 1.72-8.65 1.5-7.65-6l-2-7.62a18.79 18.79 0 009.25-1.45l.39 4.14zm-38.59-48.09c-.23-5.09-1.08-8.33-5.82-10.18-7-2.75-20.92-3.05-29.61 2.23-1.49.9-5.44 10.83-2.17 32.34 2.15 14.22 4.69 28.82 21.77 27.06s26.12-2.74 25.33-6.64-8-21.4-8.57-28.05c-.31-3.8-.67-11.15-.93-16.76z"/><path class="cls-7" d="M525.36 240.16s-29.15 40.38-22.36 46.46 12.91 5.1 19.63 3.8 15.67-34.73 15.14-38.71-4.39-16.19-12.41-11.55z"/><path class="cls-7" d="M525.36 240.16s.15 14.13 3.12 25.1 7 26.14 7 26.14h8s-3.38-41.5-3.18-46.57-5.83-13.43-14.94-4.67z"/><path class="cls-14" d="M514 257.24s-1.72 17.92 16.38 21.77c0 0-1.6 12.9-8.21 13.9s-28.3-.2-32.68-2.49c-.02 0 11.39-19.69 24.51-33.18z"/><path class="cls-9" d="M543.09 287.57s3.7 4.87 5.69 5.14 6.36 1.19 6 2.92-7.39 2.51-11.66 1.72-8.64 1.5-7.65-6l-2-7.62a18.79 18.79 0 009.25-1.45l.39 4.14z"/><path d="M555.45 217.39l-15 1.72c-.44 0-.76.27-.8.52l-1.11 8.73c0 .38.57.67 1.22.57l14.59-2.25c.4-.07.69-.26.73-.49l1.52-8.2c.07-.38-.51-.68-1.15-.6z" fill="#9e332e"/><path d="M556.75 217.24l-15 1.72c-.44 0-.76.26-.8.52l-1.11 8.72c-.05.39.57.68 1.22.58l14.59-2.26c.4-.06.69-.25.73-.49l1.52-8.19c.1-.38-.51-.68-1.15-.6z" fill="#b5453c"/><path class="cls-7" d="M557.64 219.26a4.26 4.26 0 00-2.32-1.43c-1.76-.22-1.83 1.6-1.09 2.92s2.48 2.52 2.8 2.29 1.38-2.49.61-3.78z"/><path class="cls-7" d="M557.64 219.26a4.39 4.39 0 01-.94 5.1zm-77.17 17.17s2.46 6.38 18.65 7.85 23.66 2.52 33.66-7.43a110.52 110.52 0 008.41-9l-1.74-3.3s-16.83 10.28-20.13 10.31c-20.49.19-40.49-9.08-38.85 1.57zm68.21-13.22c-.61-.12-1.92-.61-3.24-1a2.76 2.76 0 001-1.07c.23-.75.39-1-.4-.75s-3.55 1.5-3.55 1.5c-1.57.46-3 2.68-3 2.68l1.74 3.3a8.08 8.08 0 013.94-.7c1.74.32 5.76 0 6.63-1.42s-2.09-2.34-3.12-2.54z"/><path class="cls-9" d="M494.69 226.3s-5.35-1-11.72 2.86-4.51 13-4.51 13l7.43 2.78s-2.19-12.23 8.7-14.62z"/><path class="cls-7" d="M501.33 232a3.18 3.18 0 002.19-4.83 8.19 8.19 0 01-.86-2c-.06-.21-.11-.42-.16-.63a16.46 16.46 0 01-.18-5v-.36a17.31 17.31 0 01.41-2.28l-10-5.18a32.63 32.63 0 01-.29 7 27.63 27.63 0 01-2 7.09c-.31 4 4.45 4.87 8.46 6a5.4 5.4 0 002.23.21z"/><path d="M502.66 225.15c-4.26.38-10.17-6.43-10.17-6.43 4.35-.78 7.67-.24 9.83.8a16.17 16.17 0 00.19 5q.06.31.15.63z" fill="#e8945b"/><path class="cls-7" d="M505.28 221.36s-11.37 2.95-15.24-6.1c-4.19-9.76.48-16.84 4.34-17.3 7.7-.92 12.15 2 13.49 5.14s3.68 16.69-2.59 18.26z"/><path class="cls-9" d="M500.8 216.26s.47 1.17 3.47.53c0 0 2.52-.54 2.24-1.87a8.27 8.27 0 00-5.71 1.34z"/><path class="cls-19" d="M492.05 218.43s-1.32-3.91-1.15-6c0 0-2.94-3.79-1.21-4.72s2.65 1.31 3.05.88 1.05-7.86 3.14-7.62 9.85 2.69 13.26-.23-4.78-14.42-18.79-10.05-11.21 19.92 1.7 27.74z"/><path class="cls-19" d="M483.43 196.75a4.89 4.89 0 01.06-3.24 5.13 5.13 0 00.75 2.69c.76.8-.81.55-.81.55z"/><path class="cls-19" d="M483.73 195.43a2.82 2.82 0 00-2.56 1.12 2.25 2.25 0 012.45.06z"/><path class="cls-9" d="M504.67 268.06s-2.06 19.47-9.23 23.85-16.11-11.53-16.22-21.82 25.45-2.03 25.45-2.03z"/><path class="cls-11" d="M914.35 406.94l-184.6-1c-27.4-31.55-30.28-73.17 6.33-108.9 4.61-4.49 13.42-7.66 22.92-9.89 17.52-4.1 37.36-5 37.52-5.07s10.51-8.45 16.81-16c19.57-23.54 36.15-21.46 36.15-21.46 19.88-3.8 36.84-4.88 49.38 2.15 11.62 6.53 19.46 20 22.33 44.79.55 4.69.91 9.78 1.1 15.3.65 20.09 4.56 38 6.86 53.12 3.34 21.94 3.32 38.13-14.8 46.96z"/><path class="cls-10" d="M888.93 272c-12.07 6.53-13.48 28.16-32.37 33.69s-50.92 4.91-69.15 24.57c-17.59 19-36.77-29.49-28.41-43.07 17.52-4.1 37.36-5 37.52-5.07s10.51-8.45 16.81-16c19.57-23.54 36.15-21.46 36.15-21.46 19.88-3.8 36.84-4.88 49.38 2.15 6.36 6.94 2.14 18.64-9.93 25.19z"/><path class="cls-23" d="M814.9 278s-60.51-1-68.58 4.18 8.07 87.12 8.07 87.12 15.65.5 16.89-3.64c0 0-2.81-38.42-.35-45.06s.94-15.83.94-15.83 30.61 4.67 40.33 2.37 2.7-29.14 2.7-29.14z"/><path class="cls-7" d="M829 235.65s-8.57 19.82-12.73 21.92-19.23 19.32-22.45 19 3.76 2.63 3.76 2.63 26.3-12 27.83-12.79 9.61-14 10.73-20.67-7.14-10.09-7.14-10.09z"/><path class="cls-9" d="M757.7 365.09s3.44 9.23 2.71 12.65.45 10.05-.95 13-3.9 7.28-1.5 8.37c.91.41 11.51-7.8 12.11-10.23s1.08-9.58 3.11-13.46.33-7-2.6-8.45-7-9.25-7-9.25z"/><path class="cls-9" d="M747.42 380.28s-3.31 9.26-6.08 11.41-6.14 8-9.13 9.33-7.67 3-6.54 5.42c.43.91 13.83 1.46 15.85 0s7-6.62 11.07-8.28 4.77-5.15 3.46-8.13.6-11.6.6-11.6z"/><path class="cls-24" d="M846.43 226.9c-1.23-1.42 18.24-7.23 22.35 8.75 0 0 35.84-9.43 13.87-25.44-7.61-5.55-8.36-11.44-9.45-16.84s-8.65-20.92-21.87-13.26c0 0-6 0-9.85 3.3-8.7 7.5-18.32 55.26 4.95 43.49z"/><path class="cls-14" d="M840.17 280.84s-62.76 6.21-68.3 12.6-27.44 89.61-27.44 89.61 6.39 3.59 12.22.27c0 0 16.68-28.21 24.05-37.06s10.2-36.22 11.42-36.5 40.51 5.6 54.09-4.75-6.04-24.17-6.04-24.17z"/><path class="cls-9" d="M875.28 224a65.35 65.35 0 00-33.94-3.72c-3.88.61-7.37 1.88-10.16 6.44-3.94 6.44-5.78 9.9-5.78 9.9s.37 3 5.71 5.39c-1.47 5.34 1.29 14.7-1.29 18.32s-18.55 12.56-19.36 17.56c-1.47 9.19 27.18 25.93 35.75 24.17 24.64-5.06 41.55-70.99 29.07-78.06z"/><path class="cls-24" d="M866.86 205.05s3-5.8 3.38-10.56c.28-3.4-2.55-15.65-14.85-12.73a17 17 0 00-6.78 3.3c-2.54 2.08-6.08 6.38-.73 16.8l1.47 3.55z"/><path class="cls-7" d="M850 224.58c-1.25 1.31-.77 5.67 5 5.36 3.82-.21 12-4.9 11.26-8.17-.36-1.55-3.28-5.56-3.94-14.76l-.7.19-11.62 3.24s.55 3.71.82 7.22c.18 2.95-.35 6.34-.82 6.92z"/><path d="M850 210.44s.55 3.71.82 7.22c6.62-.69 9.66-7 10.84-10.46z" fill="#f4a269"/><path class="cls-7" d="M849.69 215.83S865 212 862.45 202.57s-2.23-16.34-12.08-14.31-10.78 6.13-10.71 9.49 6 18.82 10.03 18.08z"/><path class="cls-24" d="M843.38 189.87s5.1 9.77 14.75 10.85c5.66.63 7.2 4.36 7.2 4.36s-1.67-10.66-4.49-17.18c0 0-15.72-4.15-17.46 1.97z"/><path class="cls-24" d="M845.13 191.16s-3.35 3.4-4.39 5.8c-1.53 3.56 1.42 11.06 2.64 12.68 0 0-7.06-12.06-4.67-17.27 2.53-5.52 6.42-1.21 6.42-1.21z"/><path class="cls-7" d="M798.36 278.86s-3 3.21-3.41 3.38c-2 .93-4.55.38-5.77.68s-1-.45-.11-1.07 3.13-.37 2.22-.6-5.82-1.15-7.67-.66c-2.93.77-5.23-.16-5.41-.46s6.69-3.63 8.65-3.51 7.6-.14 7.6-.14zM880.42 230s18.79 42.78 13.52 49-41.64-1.47-41.64-1.47l1.14-4s26.79-1.55 28.7-2.09c2.74-.76-13.48-30.78-13.48-30.78z"/><path class="cls-9" d="M873.38 223.29c.46 0 6.11 1.89 10.15 9.94s5.4 11.74 5.4 11.74-17.73 13.67-24.75 8.6 2.71-30.46 9.2-30.28z"/><path class="cls-7" d="M856.56 273.37s-3-2-4.26-3.07-8.34-2-8.34-1.26 4.14 1.71 4.59 2.43 3 3.7 5.14 3.7a3.08 3.08 0 002.87-1.8z"/><path class="cls-23" d="M815.58 249.12l26.71 4.88a2.35 2.35 0 011.74 1.45L852.5 280c.37 1.08-.46 1.9-1.63 1.62l-26.43-6.34a2.34 2.34 0 01-1.61-1.38l-8.75-23.05a1.23 1.23 0 011.5-1.73z"/><path class="cls-14" d="M813.26 248.69l26.74 4.86a2.33 2.33 0 011.74 1.45l8.47 24.54c.37 1.07-.46 1.89-1.63 1.61l-26.43-6.34a2.35 2.35 0 01-1.61-1.37l-8.75-23.06c-.43-1.05.32-1.89 1.47-1.69z"/><path class="cls-9" d="M827.51 263c-.29-.87.2-1.38 1.1-1.13a3.44 3.44 0 012.13 2c.29.87-.2 1.38-1.09 1.13a3.48 3.48 0 01-2.14-2zM814 251c-.14-.42.1-.67.54-.55a1.7 1.7 0 011 1c.15.43-.09.68-.53.56A1.71 1.71 0 01814 251z"/><path class="cls-7" d="M852.3 277.52a54.79 54.79 0 01-6.9-.28c-1.39-.33-4.91-4.73-4-5.83.59-.69 3.89.57 5.46.57s5.66-2.26 8.44 2.4c.36.52-3 3.14-3 3.14z"/><path class="cls-11" d="M876 288.1s-6 5.55-30.84 6.27-57.39 28.11-57.72 35.87 50 19.71 50.81 18.6 32-27.79 32-27.79z"/><path class="cls-10" d="M929.15 360c-13.33-24.15-44 9-51.57-2.25S888.39 332.23 905 320c16.25-12 16.22-27.77 16.21-28.41.55 4.69.91 9.78 1.1 15.3.63 20.11 4.54 37.95 6.84 53.11z"/><path class="cls-26" d="M499.06 113.49h-75.59a6.73 6.73 0 00-6.73 6.73v33.43a6.72 6.72 0 006.73 6.72h7.4v13l8-13h60.2a6.72 6.72 0 006.73-6.72v-33.43a6.73 6.73 0 00-6.74-6.73z"/><path class="cls-9" d="M439 132.1a7.71 7.71 0 10-7.71 7.72 7.71 7.71 0 007.71-7.72zm8.55-7.71H471a.31.31 0 01.31.31v1.39a.31.31 0 01-.31.31h-23.45a.32.32 0 01-.32-.32v-1.39a.31.31 0 01.32-.3zm0 7.16h51.21a.31.31 0 01.31.31v1.39a.31.31 0 01-.31.31h-51.21a.32.32 0 01-.32-.32v-1.39a.31.31 0 01.32-.3zm0 5.39h39.3a.31.31 0 01.31.31v1.39a.32.32 0 01-.32.32h-39.3a.32.32 0 01-.32-.32v-1.39a.32.32 0 01.33-.31zm-6.85 15.16a2.43 2.43 0 10-2.42 2.43 2.42 2.42 0 002.42-2.43z"/><circle class="cls-9" cx="453.33" cy="152.1" r="2.43"/><path class="cls-9" d="M467.19 154.53a2.43 2.43 0 10-2.42-2.43 2.43 2.43 0 002.42 2.43z"/><path class="cls-26" d="M655.06 144.49h-75.59a6.73 6.73 0 00-6.73 6.73v33.43a6.72 6.72 0 006.73 6.72h7.4v13l8-13h60.2a6.72 6.72 0 006.73-6.72v-33.43a6.73 6.73 0 00-6.74-6.73z"/><path class="cls-9" d="M595 163.1a7.71 7.71 0 10-7.71 7.72 7.71 7.71 0 007.71-7.72zm8.55-7.71H627a.31.31 0 01.31.31v1.39a.31.31 0 01-.31.31h-23.45a.32.32 0 01-.32-.32v-1.39a.31.31 0 01.32-.3zm0 7.16h51.21a.31.31 0 01.31.31v1.39a.31.31 0 01-.31.31h-51.21a.32.32 0 01-.32-.32v-1.39a.31.31 0 01.31-.31zm0 5.39h39.3a.31.31 0 01.31.31v1.39a.32.32 0 01-.32.32h-39.3a.32.32 0 01-.32-.32v-1.39a.32.32 0 01.33-.31zm-6.85 15.16a2.43 2.43 0 10-2.42 2.43 2.42 2.42 0 002.42-2.43z"/><circle class="cls-9" cx="609.33" cy="183.1" r="2.43"/><path class="cls-9" d="M623.19 185.53a2.43 2.43 0 10-2.42-2.43 2.43 2.43 0 002.42 2.43z"/><path class="cls-27" d="M407.88 122h-14.73a5.55 5.55 0 00-5.55 5.55v14.73a5.54 5.54 0 005.55 5.55h3.73a1.66 1.66 0 011.59 1.2l2 7.09 2.24-7.13a1.66 1.66 0 011.58-1.16h3.55a5.54 5.54 0 005.55-5.55v-14.69a5.55 5.55 0 00-5.51-5.59z"/><path class="cls-9" d="M408.21 130.91c-3.39-4.38-7.86 1-7.86 1s-4.47-5.37-7.86-1 7.86 12.8 7.86 12.8 11.25-8.43 7.86-12.8z"/><path class="cls-27" d="M795.08 166.9h-14.73a5.55 5.55 0 00-5.55 5.55v14.73a5.54 5.54 0 005.55 5.55h3.73a1.65 1.65 0 011.58 1.2l2.05 7.09 2.24-7.13a1.64 1.64 0 011.57-1.16h3.56a5.55 5.55 0 005.55-5.55v-14.73a5.56 5.56 0 00-5.55-5.55z"/><path class="cls-9" d="M795.41 175.77c-3.39-4.38-7.86 1-7.86 1s-4.48-5.37-7.86-1 7.86 12.8 7.86 12.8 11.24-8.43 7.86-12.8z"/><path class="cls-26" d="M773.17 209.93h-14.73a5.56 5.56 0 00-5.55 5.55v14.73a5.55 5.55 0 005.55 5.55h3.73a1.65 1.65 0 011.59 1.19l2 7.1 2.24-7.13a1.64 1.64 0 011.57-1.16h3.55a5.54 5.54 0 005.55-5.55v-14.73a5.55 5.55 0 00-5.5-5.55z"/><path class="cls-9" d="M773.88 218.24a4 4 0 10-4 4 4 4 0 004-4zm-9.73 10.27h11.44s-.29-4.76-5.72-4.76-5.72 4.76-5.72 4.76zm-4.28-9.8v2.62h2.52v.67h-2.52v2.64h-.71V222h-2.52v-.67h2.52v-2.62z"/><circle cx="753.21" cy="114.27" r="13.24" transform="rotate(-8.1 745.893 114.492)" fill="url(#linear-gradient)"/><path d="M776.93 100.05a4.38 4.38 0 01-3-1.2c-6.95-6.55-14.14-9.74-21.38-9.46-11.27.43-19.31 9.12-19.39 9.21a4.41 4.41 0 01-6.56-5.91c.42-.47 10.49-11.49 25.5-12.11 9.72-.41 19.11 3.58 27.89 11.85a4.41 4.41 0 01-3 7.62z" fill="url(#linear-gradient-2)"/><path d="M790.66 80.93a4.41 4.41 0 01-3-1.2C776.08 68.85 764 63.56 751.85 64.05c-19 .75-32.31 15.28-32.45 15.42a4.41 4.41 0 01-6.56-5.9c.64-.71 15.86-17.38 38.56-18.33 14.69-.62 28.91 5.46 42.29 18.07a4.41 4.41 0 01-3 7.62z" fill="url(#linear-gradient-3)"/><path d="M805.12 62.3a4.4 4.4 0 01-3-1.2c-16.4-15.45-33.54-22.94-51-22.23-27 1.09-46 21.76-46.21 22a4.41 4.41 0 01-6.56-5.9c.86-1 21.53-23.6 52.32-24.88 19.91-.84 39.24 7.45 57.45 24.61a4.41 4.41 0 01-3 7.63z" fill="url(#linear-gradient-4)"/></svg>