<svg xmlns="http://www.w3.org/2000/svg" viewBox="0 0 226.8 60.1"><path d="M46.2 59c.6-1 1.1-2.1 1.4-3.3.5-2.6.7-5.3.7-8v-1.8c0-.1.1 1 .1 2.6 0 1.9 0 3.8-.2 5.6-.3 2.8-1.3 4.3-2 4.9m-1.5 0c.7-1.1 1.1-2.3 1.4-3.6.7-3 .8-10.7.8-11 .2 3.1.2 6.2-.1 9.2-.3 3.2-1.4 4.8-2.1 5.4m-1.8 0c.9-1.1 1.5-2.4 1.7-3.7.6-2.9 1-11.4 1-12.8 0 0 .1 4.7-.2 8.7-.4 6.3-1.7 7.3-2.5 7.8m-.6-2c-.1-.1-3.3-10.3-5.5-18.2 2 5.5 3.3 10 5.7 17.5 0 .2-.1.4-.2.7m-2.1-.4c-.8-2-1.1-3.4-2.5-7.8-1.6-5.2-3.2-11.9-3.2-11.9s2.4 7.7 4 13c1.2 3.9 2.5 7.8 3 8.2-.1 0-.5.6-1.3-1.5M39 57.9c-2.8-5.3-6.5-21.3-7-23 0 0 5.9 20.9 7.6 23.3.4.5.6.7.9.5 0 0-.7.8-1.5-.8M27.9 59c-.5 0-.9-.2-1.2-.5 2.4-2.1 5.1-6.3 7.3-10.3l.6 2.2c-3.1 5.7-5.3 8.6-6.7 8.6m-1.8-1.4c-.2-.7-.2-1.3-.2-2 2.5-3.7 4.8-7.6 6.9-11.6l.8 2.8c-2.7 4.9-5.5 8.9-7.5 10.8m-2 1.2c-.3 0-.5-.2-.6-.4.6-.6 1.1-1.2 1.6-1.8 0 .5.1 1 .3 1.5-.4.4-.8.6-1.3.7m-1.3-3.7c1.2-1.6 2.5-3.4 3.6-5.2-.6 1.6-1 3.2-1.3 4.8-.6.9-1.4 1.8-2.1 2.7-.1-.8-.2-1.6-.2-2.3m-1-1.3c-.8 1-1.6 2-2.5 2.9-.1-.6-.2-1.3-.2-2 1.2-1.6 2.4-3.5 3.7-5.6-.5 1.5-.8 3.1-1 4.7m-1.1 5c-.4-.1-.7-.3-.9-.6.7-.6 1.3-1.2 1.9-1.9.1.6.2 1.2.3 1.7v.1c-.2.4-.7.7-1.3.7M15 51.9c.1-2.5.7-4.9 1.6-7.2 1.3-3.6 6.9-19.6 9.9-17.3.4.3.7.7 1 1.1-.7 1.2-1.6 2.6-3 5.4-.3.7-.9 1.8-1.3 2.7-1.9 3.7-5.1 10.3-8.2 15.3m3 1.6c-.7 1.1-1.6 2.1-2.5 3.1-.2-.7-.3-1.4-.3-2.1 1.1-1.7 2.3-3.6 3.5-5.8-.4 1.5-.6 3.1-.7 4.8m-1.4 4.7c-.2 0-.3-.1-.4-.2.7-.6 1.3-1.3 1.9-2l.3 1.5c-.5.5-1.1.7-1.8.7M14.5 44c-1.1 2.3-2.6 5.8-3.7 7.5.5-10.6 9.1-26.5 14-33.6 3-4.3 5.7-6.6 8.1-7 3.4-.6 4.5 2.6 5 3.6-.4-.3-.8-.5-1.2-.6-.7-.1-1.4 0-2.1.1-2.5.7-5.1 3-7.9 6.9-1.1 1.5-2.1 3-3 4.7-2.7 2.2-6.6 10.9-8.6 16.6l-.6 1.8m-1.7 14.2h-.1c-.2 0-.3-.1-.5-.2.6-.6 1.1-1.1 1.6-1.8.1.3.2.7.3 1 0 .1.1.3.1.4-.4.4-.9.6-1.4.6m-1.4-1.8c-.2-.4-.3-.9-.4-1.3.9-1.3 1.8-2.8 2.7-4.5-.1 1.1-.2 2.3-.1 3.4-.6 1-1.4 1.9-2.1 2.7-.1-.1-.1-.2-.1-.3M9 58.3h-.1c-.1 0-.2 0-.3-.1.4-.4.8-.9 1.2-1.4v.1c.1.3.2.6.4.9-.4.3-.8.4-1.2.5m-1.6-2.2c-3.1-11.2 8.5-33.7 14.3-42.2 3.1-4.6 6.1-7 8.6-7.5 3.7-.8 5.2 3 5.5 3.5-1.1-.7-2.4-.8-3.5-.4-2.7.7-5.7 3.2-8.8 7.6C19.2 23.3 8.3 42.2 9.3 54l-1.8 2.4-.1-.3m-1.9 1.7c-1.2.3-2.5-.4-2.8-1.6-3.3-12.5 9.3-37.3 15-45.6 2.9-4.1 5.5-6.8 8-7.9.9-.4 1.8-.6 2.8-.7 2.2 0 3.5 1.2 4.7 3-.4-.2-5.4-3.4-13.1 7.5 0 0-18.6 28.7-14.4 43.9.1.3.3.7.4 1-.2.2-.4.3-.6.4m34-38.7c-.1-.1-.3-.3-1.5-.2-2.5.2-5.2 2.3-8 6.3l-1 1.4c-.8-1-2-1.6-3.3-1.6.7-1.1 1.5-2.3 2.1-3.2 2.8-4 5.4-6 7.7-6.2 2.7-.3 3.6 2.5 4 3.5m-7.7 21.4c.2.7.4 1.3.6 1.9-1.4 2.7-3.8 7-6 10.5.7-2.6 1.6-5 2.8-7.4 1.2-2.2 2.2-4 2.6-5M19.2 51.7c.4-2.8 1.2-5.6 2.3-8.3 1.5-3.5 6.3-12.5 6.9-13.4.4.9.8 1.9 1.1 3-.5.8-1 1.8-1.5 2.8v.2c-.2.3-.4.8-.7 1.3-2.4 4.9-5.1 9.7-8.1 14.4m6.9-8.6c.9-1.7 1.8-3.4 2.6-5.1.3-.6 1.2-2.4 1.5-2.9.3 1 .7 2.1 1 3.2-.2.4-.5.9-.8 1.4C28.3 44 25.9 48 23.2 52c.6-3.1 1.6-6 2.9-8.9M40 20.9c.8 2.6.7 2.2.8 2.7h-.2c-2.5-.2-5.4 1.9-8.5 6.4-.5-.5-1.2-1.3-2.1-2.3.6-1.1 1.3-2.1 2-3.1 2.5-3.1 4.1-4.3 6.5-4.4 0 0 1.3 0 1.5.7m-6.6 9c2.7-3.8 5.1-5.5 7.3-5.2.1 0 .2.1.3.2.1.4.8 3 .8 3.2h-.4c-2 0-3.9 1.4-6 4.3l-.5.7-2.1-2.3.6-.9zm2.1 3.8c.2-.3.4-.7.6-1 1.9-2.6 3.7-4 5.3-4 0 0 .6 0 .6.1 1 3.9 1.7 7.9 1.9 11.9v1.7l-8.4-8.7zm6.8 9.7c.8 1.3 1.3 2.8 1.5 4.3-.6-1.8-.9-3-1.5-4.3m1 10.4c-.1.3-.1.6-.2.8-.7-2.1-1.6-5.1-2.5-8-.5-1.6-1.2-4.5-1.6-5.9 2.2 6.2 3.6 11 4.3 13.1m.3-2.6c-.5-1.7-1-3.2-1.6-5s-.8-2.8-1.2-4.1c1.3 3.7 1.8 5 2.8 8v1.1m6.2-4c.2 2.4.2 4.9 0 7.3 0 1.6-.7 3.2-1.8 4.4.6-.9 1-1.9 1.2-2.9.4-2.9.6-5.8.6-8.8m1.5 1.2c.2 2.2.2 4.4 0 6.5-.1 1.5-.7 3-1.9 4 .6-.8 1-1.7 1.3-2.7.6-2.2.6-7.6.6-7.8m1.4 1c.2 2 .2 3.9 0 5.9-.1 1.4-.7 2.7-1.8 3.7.5-.7.9-1.6 1.2-2.5.6-1.9.5-6.8.6-7.1m1.5 2.9c.4-13.9-10.2-34.1-15-42.4-3.9-6.3-6-9.3-10-9.8-.7-.1-1.4-.1-2.1 0-1.3.2-2.6.7-3.7 1.5-2.3 1.4-4.8 4-7.4 7.8C10.8 16.8-3 42.8.6 56.7c.5 2 2.3 3.4 4.4 3.3.3 0 .7 0 1-.1.5-.1.9-.3 1.3-.5.4.3 1 .6 1.5.6.8 0 1.7-.3 2.3-.8.4.4 1 .7 1.6.7.8 0 1.7-.3 2.3-.8.4.5.9.7 1.5.8.9 0 1.8-.3 2.5-.9.3.6.9.9 1.5 1 .8 0 1.5-.3 2.1-.8.3.4.8.7 1.3.7h.1c.7-.1 1.4-.4 1.9-.8.5.5 1.2.7 1.9.7 2 .1 4.6-3.8 7-8.2.5 1.8 1.1 3.6 1.8 5.4.8 2 1.8 2.7 3 2.9 3.6.3 7.3.3 10.9.1.7 0 1.4-.4 1.8-.9 1-1.1 2-2.9 1.9-6.8m159.7-23c4.2 0 7.8-2.7 8.2-6.1h-4.6c-.2 0-.5.2-.7.4-1.7 1.3-4 1.3-5.7 0-.2-.2-.5-.4-.7-.4h-4.9c.7 4.1 4.6 6.1 8.4 6.1m-98.3 12.3c0-2.5-1.2-4.9-4.6-5-3.1 0-5 2-5.3 5h9.9zm7.5 4.6h-17.4c.5 3.7 2.5 5.4 6.5 5.4 2.8-.1 5.5-1 7.7-2.7 1.7 1.4 2.8 3.4 3 5.6-3.3 2.5-7.4 3.8-11.6 3.7-8.1 0-14-5-14-13.8 0-8.3 5.8-14.1 13.7-14.1 7.4 0 12.4 4.7 12.4 12l-.3 3.9m34.4-16.1c-3.1 0-6.1.9-8.7 2.5-2.5-1.8-5.5-2.6-8.6-2.5-2.2 0-4.3.3-6.4.9-2.3-.2-4.6-.2-6.8.2v26c1.3.2 2.7.3 4.1.3 1.4 0 2.8-.1 4.1-.3V38.7c1.3-.8 2.8-1.1 4.2-1.1 3.1 0 4.7 1.7 4.7 5v14.6c1.3.2 2.7.3 4.1.3 1.4 0 2.8-.1 4.1-.3V40.7c0-.5-.1-1.1-.1-1.7 1.3-1 2.8-1.5 4.4-1.5 3.1 0 4.6 1.7 4.6 5v14.6c2.7.4 5.5.4 8.3 0V40.7c.1-6.1-3.8-10.6-12-10.6m28.2 22.3c1.4 0 2.7-.2 4-.6V47c-1.5-.4-3-.6-4.5-.6-2.6 0-4.2.9-4.2 2.8s1.5 3.2 4.7 3.2m12.1-10.6v13.7c-4.2 1.7-8.7 2.6-13.2 2.6-7.5 0-11.9-2.9-11.9-8.6 0-5.5 4.8-8.3 11.4-8.3 1.9 0 3.7.3 5.5.8v-1c0-2.3-1.6-3.9-5.4-3.9-2.5 0-5 .8-7.1 2.3-1.9-1.1-3.2-3-3.5-5.2 3.2-2.5 7.3-3.9 11.4-3.8 7.5-.1 12.8 3.2 12.8 11.4m-124.6-20c-.6 0-1 .4-1.1 1 0 0-2.7 16.9-3.9 24.2-.3 1.8-1 3.2-2.8 3.7l-.4.1c-.3 0-.6.2-.7.4-.2.3-.4.6-.4.9-.4 1.7-.4 3.6 0 5.3.3 1.2.6 1.4 1.4 1.2 1-.2 1.9-.4 2.9-.7 4.9-1.8 7.6-5.5 8.6-10.4.7-3.6 3-18.4 3-18.4h5.7v28c1.4.2 2.8.4 4.1.4 1.4 0 2.7-.2 4.1-.4V21.8H73.2zM222.6 31c-1.4 0-2.7.1-4.1.3v18.9c-1.3.6-2.7.9-4.1.8-4 0-5-1.7-5-5.3V31.3c-1.3-.2-2.7-.3-4.1-.3-1.4 0-2.8.1-4.1.3v16.2c0 5.5 2.6 9.3 8.8 10.4 1.6.2 3.3.2 4.9 0 1.4-.2 2.9-.5 3.7-.6 1.4.2 2.8.3 4.1.3 1.4 0 2.7-.1 4.1-.3v-26c-1.4-.3-2.8-.4-4.2-.3" fill="#fff"/></svg>