<svg version="1.1" id="Layer_1" xmlns="http://www.w3.org/2000/svg" x="0" y="0" viewBox="0 0 60 60" xml:space="preserve"><style>.st0{fill:#fff}</style><circle class="st0" cx="40.3" cy="30" r="1"/><path class="st0" d="M41.4 14.5v7.3c.8.1 1.6.3 2.4.7l3.8-6.2c-1.9-1-4-1.6-6.2-1.8zm-4.5 8c.8-.4 1.6-.6 2.4-.7v-7.3c-2.2.1-4.3.8-6.2 1.8l3.8 6.2zm-9.9-.3l6.5 3.2c.5-.7 1-1.3 1.7-1.8l-3.8-6.2c-1.8 1.3-3.3 2.9-4.4 4.8z"/><path class="st0" d="M40.3 10.3c-10.9 0-19.7 8.8-19.7 19.7s8.8 19.7 19.7 19.7S60 40.9 60 30c0-10.9-8.8-19.6-19.7-19.7zm0 37.3c-9.7 0-17.6-7.9-17.6-17.6h2.1c0 8.6 7 15.5 15.5 15.5v2.1zm4.2 0h-2.1v-2.1h2.1v2.1zm9.9-7.9c-.2 0-.4-.1-.5-.2L46 34.7c-.5-.3-.6-.9-.3-1.4.1-.1.1-.3.2-.4l-3.2-.7c-1.2 1.2-3.1 1.3-4.4.1-1.2-1.2-1.3-3.1-.1-4.4 1.2-1.2 3.1-1.3 4.4-.1.6.6 1 1.4 1 2.2v.2l3.1.7c.2-1.2 0-2.5-.6-3.6-1.5-3.1-5.3-4.3-8.3-2.8-1.2.6-2.2 1.6-2.8 2.8-.3.5-.9.7-1.4.5l-8.3-4.2c-.5-.3-.7-.9-.5-1.4 4.3-8.7 14.9-12.2 23.6-7.8 3.4 1.7 6.1 4.5 7.8 7.8 2.7 5.4 2.5 11.9-.8 17.1-.3.3-.6.4-1 .4z"/><path class="st0" d="M49.4 17.4l-3.8 6.2c.6.5 1.2 1.1 1.7 1.8l6.5-3.2c-1.2-1.9-2.7-3.5-4.4-4.8zm-1.3 9.9c.2.6.3 1.1.4 1.7h7.3c-.1-1.7-.5-3.4-1.2-5l-6.5 3.3zm.4 4l3.5.8-.4 2-3.6-.8v.1l6.2 3.8c1-1.9 1.6-4.1 1.8-6.2h-7.3c-.2.1-.2.2-.2.3zM0 47.6h25.9v2.1H0zm2.1-4.2h19.7v2.1H2.1zM9 23.8c4.9-.4 5.7 1.3 5.8 1.8.2.9 1.2 5.4-.9 7.1-.6.5-1.7 1-3.6.3-.9-.4-1.7-.9-2.4-1.6-.6-.6-1.4-1.1-2.2-1.3 1.2 2.4 3.2 6 5.1 7.2 2.5 1.5 5.4 2.1 8.3 1.7-1.1-2.9-1.7-6-1.7-9.1 0-7.3 3.1-14.3 8.6-19.2-2.2-.2-5 0-6.9 1.4-2.8 2.1-6 1.4-8.1.4.8 2 2.5 3.4 4.6 3.9.6.1.9.7.8 1.2 0 .1-.1.2-.1.3-.9 1.4-2.4 2.5-4.1 2.8-2.4.4-4.9-.1-6.9-1.4.2 1.3.7 2.5 1.6 3.5.5.8 1.3 1.1 2.1 1z"/></svg>