<svg version="1.1" id="Layer_1" xmlns="http://www.w3.org/2000/svg" x="0" y="0" viewBox="0 0 60 60" xml:space="preserve"><style>.st0{fill:#fff}</style><path class="st0" d="M44 23.4c-.4-.4-1.1-.4-1.5 0l-5.8 5.8c-2.5-1.7-5.9-1-7.6 1.6-1.7 2.5-1 5.9 1.6 7.6.9.6 2 .9 3 .9 3 0 5.5-2.4 5.5-5.5 0-1.1-.4-2.2-1-3.1l5.8-5.8c.4-.4.4-1 0-1.5zm-7.9 12.8c-1.3 1.3-3.5 1.3-4.8 0-1.3-1.3-1.3-3.5 0-4.8.6-.6 1.5-1 2.4-1 1.9 0 3.4 1.5 3.4 3.4 0 .9-.3 1.8-1 2.4zM4.4 32.8c0 .6.5 1 1 1h17.9c.6 0 1-.5 1-1 0-.6-.5-1-1-1H5.4c-.6 0-1 .5-1 1zM1 25.2h18c.6 0 1-.5 1-1s-.5-1-1-1H1c-.6 0-1 .5-1 1s.5 1 1 1zm19 16.3c0-.6-.5-1-1-1H1c-.6 0-1 .5-1 1 0 .6.5 1 1 1h18c.5.1 1-.4 1-1z"/><path class="st0" d="M52.8 15.1l1.1-1c.5.3 1.1.5 1.7.5 1.9 0 3.5-1.6 3.5-3.5s-1.6-3.5-3.5-3.5c-2-.1-3.6 1.5-3.6 3.4 0 .5.1 1.1.4 1.6l-1.2 1.2C46.7 9.9 41 7.6 35.1 7.4V2.9h3.7c.6 0 1-.5 1-1s-.5-1-1-1h-9.4c-.6 0-1 .5-1 1s.5 1 1 1H33v4.4c-6.2.2-12.2 2.7-16.8 7-.4.4-.4 1 0 1.5.2.2.5.3.8.3h7.4c.2 0 .3 0 .5-.1 2.8-1.5 6-2.3 9.2-2.3 10.9 0 19.7 8.9 19.7 19.7C53.7 44.2 44.9 53 34 53c-2.8 0-5.6-.6-8.2-1.8-.1-.1-.3-.1-.4-.1h-7.7c-.6 0-1 .5-1 1 0 .3.1.6.4.8C28 62.3 44.5 61 53.9 50c8.5-10.1 8.1-25.2-1.1-34.9zm2.7-5.6c.8 0 1.5.6 1.5 1.5 0 .8-.6 1.5-1.5 1.5-.3 0-.6-.1-.9-.3 0-.1-.1-.2-.1-.2-.1 0-.1-.1-.2-.1-.2-.2-.2-.5-.2-.8 0-.9.6-1.6 1.4-1.6z"/></svg>