<svg xmlns="http://www.w3.org/2000/svg" xmlns:xlink="http://www.w3.org/1999/xlink" viewBox="0 0 327.45 249"><defs><radialGradient id="_ÂÁ_Ï_ÌÌ_È_ËÂÌÚ_348-3" cx="274.65" cy="-171" r="29.34" xlink:href="#_ÂÁ_Ï_ÌÌ_È_ËÂÌÚ_348"/><radialGradient id="_ÂÁ_Ï_ÌÌ_È_ËÂÌÚ_93-4" cx="61.47" cy="43.71" r="18.78" xlink:href="#_ÂÁ_Ï_ÌÌ_È_ËÂÌÚ_93"/><radialGradient id="_ÂÁ_Ï_ÌÌ_È_ËÂÌÚ_4-2" cx="-170.73" cy="69.08" r="40.09" xlink:href="#_ÂÁ_Ï_ÌÌ_È_ËÂÌÚ_4"/><radialGradient id="_ÂÁ_Ï_ÌÌ_È_ËÂÌÚ_4-3" cx="-12.14" cy="127.13" r="41.45" gradientTransform="matrix(.87 -.5 .5 .87 30.81 25.9)" xlink:href="#_ÂÁ_Ï_ÌÌ_È_ËÂÌÚ_4"/><radialGradient id="_ÂÁ_Ï_ÌÌ_È_ËÂÌÚ_4-4" cx="-19.83" cy="69.56" r="3.67" gradientTransform="matrix(.7 -.4 .5 .87 37.89 22.33)" xlink:href="#_ÂÁ_Ï_ÌÌ_È_ËÂÌÚ_4"/><radialGradient id="_ÂÁ_Ï_ÌÌ_È_ËÂÌÚ_4-5" cx="-37.59" cy="170.79" r="51.15" gradientTransform="matrix(-.98 -.22 -.22 .97 154.08 21.82)" xlink:href="#_ÂÁ_Ï_ÌÌ_È_ËÂÌÚ_4"/><radialGradient id="_ÂÁ_Ï_ÌÌ_È_ËÂÌÚ_6" cx="-38.82" cy="164.7" r="37.93" gradientTransform="matrix(-.98 -.22 -.22 .97 154.08 21.82)" gradientUnits="userSpaceOnUse"><stop offset="0" stop-color="#d3bcb5"/><stop offset=".99" stop-color="#b6aba6"/></radialGradient><radialGradient id="_ÂÁ_Ï_ÌÌ_È_ËÂÌÚ_5" cx="-52.07" cy="173.31" r="1.03" gradientTransform="matrix(-.98 -.22 -.22 .97 154.08 21.82)" gradientUnits="userSpaceOnUse"><stop offset="0" stop-color="#f48aff"/><stop offset=".99" stop-color="#ffb8eb"/></radialGradient><radialGradient id="_ÂÁ_Ï_ÌÌ_È_ËÂÌÚ_5-2" cx="-37.41" cy="173.58" r="1.03" xlink:href="#_ÂÁ_Ï_ÌÌ_È_ËÂÌÚ_5"/><radialGradient id="_ÂÁ_Ï_ÌÌ_È_ËÂÌÚ_5-3" cx="-32.21" cy="173.77" r="1.03" xlink:href="#_ÂÁ_Ï_ÌÌ_È_ËÂÌÚ_5"/><radialGradient id="_ÂÁ_Ï_ÌÌ_È_ËÂÌÚ_5-4" cx="-25.98" cy="173.96" r="1.03" xlink:href="#_ÂÁ_Ï_ÌÌ_È_ËÂÌÚ_5"/><radialGradient id="_ÂÁ_Ï_ÌÌ_È_ËÂÌÚ_4-6" cx="-37.85" cy="197.29" r="44.63" gradientTransform="matrix(-.98 -.22 -.22 .97 154.08 21.82)" xlink:href="#_ÂÁ_Ï_ÌÌ_È_ËÂÌÚ_4"/><radialGradient id="_ÂÁ_Ï_ÌÌ_È_ËÂÌÚ_4" cx="-175.23" cy="11.26" r="3.67" gradientTransform="matrix(-.7 -.4 -.5 .87 139.68 29.94)" gradientUnits="userSpaceOnUse"><stop offset="0" stop-color="#d3c6c2"/><stop offset=".99" stop-color="#92877e"/></radialGradient><radialGradient id="_ÂÁ_Ï_ÌÌ_È_ËÂÌÚ_348" cx="274.65" cy="-171" r="29.34" gradientTransform="rotate(-23.78 685.206 58.388)" gradientUnits="userSpaceOnUse"><stop offset="0" stop-color="#a998ff"/><stop offset=".99" stop-color="#9845b8"/></radialGradient><radialGradient id="_ÂÁ_Ï_ÌÌ_È_ËÂÌÚ_348-2" cx="251.23" cy="-18.54" r="29.34" gradientTransform="rotate(2.03 -179.753 -346.308)" xlink:href="#_ÂÁ_Ï_ÌÌ_È_ËÂÌÚ_348"/><radialGradient id="_ÂÁ_Ï_ÌÌ_È_ËÂÌÚ_9" cx="59.11" cy="28.68" r="35.91" gradientTransform="rotate(-7.44 88.448 233.648)" gradientUnits="userSpaceOnUse"><stop offset="0" stop-color="#5178fe"/><stop offset=".99" stop-color="#713592"/></radialGradient><radialGradient id="_ÂÁ_Ï_ÌÌ_È_ËÂÌÚ_93" cx="62.41" cy="43.76" r="19.11" gradientTransform="rotate(-6.84 70.837 271.662)" gradientUnits="userSpaceOnUse"><stop offset=".01" stop-color="#4bffff"/><stop offset="1" stop-color="#2fc5ff"/></radialGradient><radialGradient id="_ÂÁ_Ï_ÌÌ_È_ËÂÌÚ_93-2" cx="61.34" cy="43.71" r="18.83" xlink:href="#_ÂÁ_Ï_ÌÌ_È_ËÂÌÚ_93"/><radialGradient id="_ÂÁ_Ï_ÌÌ_È_ËÂÌÚ_93-3" cx="61.53" cy="43.71" r="18.72" xlink:href="#_ÂÁ_Ï_ÌÌ_È_ËÂÌÚ_93"/><radialGradient id="_ÂÁ_Ï_ÌÌ_È_ËÂÌÚ_98" cx="275.54" cy="-170.97" r="33.51" gradientTransform="rotate(-23.78 685.206 58.388)" gradientUnits="userSpaceOnUse"><stop offset=".02" stop-color="#e2dceb"/><stop offset=".2" stop-color="#cfc4e7"/><stop offset=".48" stop-color="#b7a4e3"/><stop offset=".72" stop-color="#a891e0"/><stop offset=".88" stop-color="#a38adf"/><stop offset=".98" stop-color="#93d1ff"/></radialGradient><radialGradient id="_ÂÁ_Ï_ÌÌ_È_ËÂÌÚ_93-5" cx="61.57" cy="43.71" r="18.56" xlink:href="#_ÂÁ_Ï_ÌÌ_È_ËÂÌÚ_93"/><radialGradient id="_ÂÁ_Ï_ÌÌ_È_ËÂÌÚ_93-6" cx="61.31" cy="43.71" r="18.65" xlink:href="#_ÂÁ_Ï_ÌÌ_È_ËÂÌÚ_93"/><radialGradient id="_ÂÁ_Ï_ÌÌ_È_ËÂÌÚ_104" cx="211.26" cy="140.32" r="16.26" gradientTransform="rotate(11.5 397.214 -232.97)" gradientUnits="userSpaceOnUse"><stop offset="0" stop-color="#d8b3c9"/><stop offset=".98" stop-color="#ab99c6"/></radialGradient><radialGradient id="_ÂÁ_Ï_ÌÌ_È_ËÂÌÚ_57" cx="180.13" cy="-23.97" r="17.64" gradientTransform="rotate(-25.79 529.813 -230.186)" gradientUnits="userSpaceOnUse"><stop offset="0" stop-color="#b3819d"/><stop offset="1" stop-color="#785ca6"/></radialGradient><linearGradient id="_ÂÁ_Ï_ÌÌ_È_ËÂÌÚ_8-2" x1="-15.82" y1="185.17" x2="-15.82" y2="70.82" gradientTransform="matrix(.7 -.4 .5 .87 37.89 22.33)" xlink:href="#_ÂÁ_Ï_ÌÌ_È_ËÂÌÚ_8"/><linearGradient id="_ÂÁ_Ï_ÌÌ_È_ËÂÌÚ_50" x1="27.91" y1="59.1" x2="87.99" y2="63.56" gradientTransform="rotate(-7.44 88.448 233.648)" gradientUnits="userSpaceOnUse"><stop offset="0" stop-color="#603082"/><stop offset=".99" stop-color="#2a0e51"/></linearGradient><linearGradient id="_ÂÁ_Ï_ÌÌ_È_ËÂÌÚ_8" x1="-135.99" y1="126.21" x2="-135.99" y2="10.57" gradientTransform="matrix(-.87 -.49 -.5 .87 147.37 33.61)" gradientUnits="userSpaceOnUse"><stop offset="0" stop-color="#82776e"/><stop offset=".99" stop-color="#514b48"/></linearGradient><linearGradient id="_ÂÁ_Ï_ÌÌ_È_ËÂÌÚ_132" x1="274.6" y1="-183.57" x2="274.6" y2="-183.78" gradientTransform="rotate(-23.78 685.206 58.388)" gradientUnits="userSpaceOnUse"><stop offset="0" stop-color="#fdcdd3"/><stop offset="1" stop-color="#ffeacd"/></linearGradient><linearGradient id="_ÂÁ_Ï_ÌÌ_È_ËÂÌÚ_8-3" x1="-108.96" y1="186.12" x2="31.76" y2="196.57" gradientTransform="matrix(-.98 -.22 -.22 .97 154.08 21.82)" xlink:href="#_ÂÁ_Ï_ÌÌ_È_ËÂÌÚ_8"/><linearGradient id="_ÂÁ_Ï_ÌÌ_È_ËÂÌÚ_135" x1="238.28" y1="169.71" x2="254.2" y2="110.56" gradientTransform="matrix(.96 .27 -.27 .96 -49.48 -121.56)" gradientUnits="userSpaceOnUse"><stop offset="0" stop-color="#ffa700"/><stop offset="1" stop-color="#ffd328"/></linearGradient><linearGradient id="_ÂÁ_Ï_ÌÌ_È_ËÂÌÚ_45" x1="211.81" y1="142.32" x2="207.13" y2="112.52" gradientTransform="rotate(11.5 397.214 -232.97)" gradientUnits="userSpaceOnUse"><stop offset=".02" stop-color="#e2dceb"/><stop offset="1" stop-color="#fff"/></linearGradient><linearGradient id="_ÂÁ_Ï_ÌÌ_È_ËÂÌÚ_8-4" x1="-90.87" y1="170.98" x2="13.34" y2="178.71" gradientTransform="matrix(-.98 -.22 -.22 .97 154.08 21.82)" xlink:href="#_ÂÁ_Ï_ÌÌ_È_ËÂÌÚ_8"/><linearGradient id="_ÂÁ_Ï_ÌÌ_È_ËÂÌÚ_10" x1="184.7" y1="147.28" x2="236.96" y2="147.28" gradientTransform="rotate(11.5 397.214 -232.97)" gradientUnits="userSpaceOnUse"><stop offset="0" stop-color="#c93347"/><stop offset="1" stop-color="#ff7527"/></linearGradient><linearGradient id="_ÂÁ_Ï_ÌÌ_È_ËÂÌÚ_139" x1="195.24" y1="138.8" x2="195.24" y2="123.74" gradientTransform="rotate(11.5 397.214 -232.97)" gradientUnits="userSpaceOnUse"><stop offset=".02" stop-color="#bdafd2"/><stop offset="1" stop-color="#ebd7e3"/></linearGradient><linearGradient id="_ÂÁ_Ï_ÌÌ_È_ËÂÌÚ_139-2" x1="212.62" y1="78.92" x2="212.62" y2="66.86" gradientTransform="matrix(1.04 .2 -.21 1.1 -66.31 -56.17)" xlink:href="#_ÂÁ_Ï_ÌÌ_È_ËÂÌÚ_139"/><linearGradient id="_ÂÁ_Ï_ÌÌ_È_ËÂÌÚ_36" x1="181.38" y1="-24.04" x2="181.38" y2="-69.16" gradientTransform="rotate(-25.79 529.813 -230.186)" gradientUnits="userSpaceOnUse"><stop offset=".02" stop-color="#d4cbe2"/><stop offset="1" stop-color="#f3e6ee"/></linearGradient><linearGradient id="_ÂÁ_Ï_ÌÌ_È_ËÂÌÚ_60" x1="171.47" y1="-43.65" x2="193.02" y2="-43.65" gradientTransform="rotate(-25.79 529.813 -230.186)" gradientUnits="userSpaceOnUse"><stop offset="0" stop-color="#bb152c"/><stop offset="1" stop-color="#c73e27"/></linearGradient><linearGradient id="_ÂÁ_Ï_ÌÌ_È_ËÂÌÚ_3" x1="182.09" y1="-37.06" x2="182.09" y2="-58.02" gradientTransform="rotate(-25.79 529.813 -230.186)" gradientUnits="userSpaceOnUse"><stop offset="0" stop-color="#e03347"/><stop offset="1" stop-color="#ff6e27"/></linearGradient><style>.cls-13,.cls-43{fill-rule:evenodd}.cls-13{fill:#fbfbfb;opacity:.5;mix-blend-mode:soft-light}.cls-43{mix-blend-mode:multiply}.cls-28{fill:#fff}.cls-43{fill:#ac2a41;opacity:.3}</style></defs><g style="isolation:isolate"><g id="Layer_2" data-name="Layer 2"><g id="Layer_1-2" data-name="Layer 1"><path fill="#463497" d="M.45 0h327v249H.45z"/><path fill="url(#_ÂÁ_Ï_ÌÌ_È_ËÂÌÚ_8)" fill-rule="evenodd" d="M199.66 208.31l8.66 2.93 53.13-101.01-5.16-.01-56.63 98.09z"/><path fill="url(#_ÂÁ_Ï_ÌÌ_È_ËÂÌÚ_4)" fill-rule="evenodd" d="M261.45 110.23l-8.34-1.8 3.18 1.79 5.16.01z"/><path fill="url(#_ÂÁ_Ï_ÌÌ_È_ËÂÌÚ_4-2)" fill-rule="evenodd" d="M253.11 108.43l-54.56 89.96 1.11 9.92 56.63-98.09-3.18-1.79z"/><path fill="url(#_ÂÁ_Ï_ÌÌ_È_ËÂÌÚ_4-3)" fill-rule="evenodd" d="M116.68 190.82l-8.65 2.96L54.52 91.54l5.16-.02 57 99.3z"/><path fill="url(#_ÂÁ_Ï_ÌÌ_È_ËÂÌÚ_4-4)" fill-rule="evenodd" d="M54.52 91.54l8.33-1.82-3.17 1.8-5.16.02z"/><path fill="url(#_ÂÁ_Ï_ÌÌ_È_ËÂÌÚ_8-2)" fill-rule="evenodd" d="M62.85 89.72l52.87 87.84.96 13.26-57-99.3 3.17-1.8z"/><path fill="url(#_ÂÁ_Ï_ÌÌ_È_ËÂÌÚ_8-3)" fill-rule="evenodd" d="M220.72 218.04l-8.48 17.49-65.62-1.04-65.2-28.14.27-17.45 139.03 29.14z"/><path fill="url(#_ÂÁ_Ï_ÌÌ_È_ËÂÌÚ_4-5)" fill-rule="evenodd" d="M190.3 189.33l30.42 28.71-69.03-5.7-70-23.44 40.99-14.91 67.62 15.34z"/><path fill="url(#_ÂÁ_Ï_ÌÌ_È_ËÂÌÚ_8-4)" fill-rule="evenodd" d="M204.38 212.34l-50.31-14.96-52.67-6.41 102.98 21.37z"/><path fill="url(#_ÂÁ_Ï_ÌÌ_È_ËÂÌÚ_6)" fill-rule="evenodd" d="M101.4 190.97l32.55-14.42 24.84 3.11 25.06 8.21 20.53 24.47-50.31-14.96-52.67-6.41z"/><path class="cls-13" d="M154.07 197.38l4.72-17.72-24.84-3.11-32.55 14.42 52.67 6.41z"/><path d="M165.38 202.15a1 1 0 101.24-.78 1 1 0 00-1.24.78z" fill="url(#_ÂÁ_Ï_ÌÌ_È_ËÂÌÚ_5)" fill-rule="evenodd"/><path d="M151 199.15a1 1 0 101.24-.78 1 1 0 00-1.24.78z" fill="url(#_ÂÁ_Ï_ÌÌ_È_ËÂÌÚ_5-2)" fill-rule="evenodd"/><path d="M145.81 198.18a1 1 0 101.24-.77 1 1 0 00-1.24.77z" fill="url(#_ÂÁ_Ï_ÌÌ_È_ËÂÌÚ_5-3)" fill-rule="evenodd"/><path d="M139.66 197a1 1 0 101.24-.78 1 1 0 00-1.24.78z" fill="url(#_ÂÁ_Ï_ÌÌ_È_ËÂÌÚ_5-4)" fill-rule="evenodd"/><path class="cls-13" d="M151.69 212.34l-5.07 22.15-65.2-28.14.27-17.45 70 23.44z"/><path style="mix-blend-mode:multiply" fill="#403e39" opacity=".5" fill-rule="evenodd" d="M209.88 230.84l4.95-9.78-64.57-2.48-65.11-24.74 1.18 11.66 61.34 24.39 62.21.95z"/><path fill="url(#_ÂÁ_Ï_ÌÌ_È_ËÂÌÚ_4-6)" fill-rule="evenodd" d="M209.88 230.84l-1.85-1.6-59.49-2.6-58.94-21.92-3.27.78 61.34 24.39 62.21.95z"/><path d="M175.45 169.55l2.09-3.67a50.35 50.35 0 00-13.82-5.37 51.27 51.27 0 00-15.43-1l.34 4.2a46.75 46.75 0 0114.16 1 46.08 46.08 0 0112.66 4.84zm-3.65 6.24l2.19-3.6a41.18 41.18 0 00-25.07-5.48l.47 4.18a35.84 35.84 0 0111.8.72 35.47 35.47 0 0110.61 4.18zm7.32-12.5l2.12-3.65a56.78 56.78 0 00-15.91-6.19 57.75 57.75 0 00-17.66-1.21l.36 4.2a53.78 53.78 0 0116.37 1.11 52.73 52.73 0 0114.72 5.74z" fill="#e8dcd6"/><path d="M242.48 14.34a23.09 23.09 0 011.72 5.94 23.34 23.34 0 01-13.67 24.82 22.43 22.43 0 01-3.48 1.21A23.29 23.29 0 01205 40.55a23.35 23.35 0 01-.46-33.15 23.43 23.43 0 017.24-5l.13-.05.19-.08a23.23 23.23 0 0119.59.73 22.6 22.6 0 014.47 3 23.2 23.2 0 016.32 8.34z" fill="url(#_ÂÁ_Ï_ÌÌ_È_ËÂÌÚ_98)"/><g opacity=".43" fill-rule="evenodd"><path d="M242.48 14.34a23.09 23.09 0 011.72 5.94 5.08 5.08 0 01-2.45.73c-1.31 0-2.6.15-3.94.09-2.69-.11-3.26-2.16-5-3.82a23.19 23.19 0 00-2.19-2c-.84-.62-2-1-2.72-1.66-1.17 1 1.23 1.43 1.65 1.81.92.82.4 2 .51 3 .24 2.14 1.55 4.23.2 6.14-.49.68-.92 1.49-1.43 2.07s-1.42.8-2.06 1.37c-.92.85-1.9 4.56-3.42 3.58-.91-.58-.42-1.92-.91-2.6s-1.32-.79-1.79-1.68-.83-1.56-1.25-2.31a22.4 22.4 0 00-1.33-2.09c-.5-.73-.73-1.67-1.22-2.46-.27-.42-.63-.54-.83-1s0-.92-.2-1.34c-.51-1.09-1.44-.75-.65-2a10.56 10.56 0 011.54-1.81c.57-.4 1.51-.68 2.18-1.1a8.32 8.32 0 012.27-1c.94-.22 2.09-.06 3-.37.7-.24 1.53-.69 2.26-1-.19-1.08-2.48-1.16-3.47-1.19.71 2.62-2.75 1.17-3.7 1.56.12-1.9.63-3.82 2.19-4.68 1.26-.7 3.45-2.05 4.85-1.91-.3 2.71 4.88.94 6.11 1.11a18.68 18.68 0 003.48.33h.32a23.2 23.2 0 016.28 8.29z" fill="url(#_ÂÁ_Ï_ÌÌ_È_ËÂÌÚ_348)"/><path d="M235.47 33.09c-.67-.71-2.22-1-3.15-1.18-1.43-.34-2 .22-3.28.55-.73.19-.63 0-1.27 0a2.71 2.71 0 00-1.68.21c-1.23.73-.84 2-1.1 3.23a24.79 24.79 0 01-.92 3.8 13.79 13.79 0 001.44-.18 11.54 11.54 0 011.92.2 27.53 27.53 0 013.22.8c2.64.53 4.31-2.06 5.23-4.18.33-.75 1.2-3.34-.41-3.25z" fill="url(#_ÂÁ_Ï_ÌÌ_È_ËÂÌÚ_348-2)"/><path d="M206.78 9.6a8.84 8.84 0 01-1.32 3.27c-.63 1-.94 2.35-1.81 3.24-1.65 1.65-4.71 6.32-5.76 5.62a23.31 23.31 0 016.59-14.33c1.1.29 2.35 1.23 2.3 2.2z" fill="url(#_ÂÁ_Ï_ÌÌ_È_ËÂÌÚ_348-3)"/></g><path d="M211.85 2.34v.22l-.05-.2z" fill="url(#_ÂÁ_Ï_ÌÌ_È_ËÂÌÚ_132)" fill-rule="evenodd"/><g style="mix-blend-mode:soft-light"><path class="cls-28" transform="rotate(-80.95 221.131 23.723)" d="M197.83 23.44h46.6v.55h-46.6z"/><path class="cls-28" d="M218.49 46.88l-.25-.49a30.26 30.26 0 0014.17-21c2.51-15.78-7.7-24.39-7.8-24.47l.39-.43c.11.09 10.55 8.88 8 25a30.81 30.81 0 01-14.51 21.39z"/><path class="cls-28" d="M218.38 46.91v-.56c.19 0 18.47-1.11 22.08-19.7C243.87 8.89 224.88 1 224.68 1l.21-.51c.2.08 19.61 8.09 16.08 26.31-3.69 18.98-22.4 20.1-22.59 20.11z"/><path class="cls-28" d="M216.42 46.55a30.76 30.76 0 01-7.12-24.83C211.85 5.62 224.51.49 224.64.44l.2.52c-.13 0-12.49 5.07-15 20.85a30.19 30.19 0 007 24.35z"/><path class="cls-28" d="M216.52 46.61c-.18-.07-17.62-6.93-15.24-26.15C203.56 2 224.51.44 224.72.42v.55c-.21 0-20.7 1.6-22.93 19.55-2.29 18.8 14.75 25.48 14.93 25.57z"/><path class="cls-28" d="M244.09 27.52a116.39 116.39 0 00-46-7.3v-.55a117 117 0 0146.2 7.33zm-12.26 17.17A76.12 76.12 0 00205 40.82v-.55a76.39 76.39 0 0127 3.9zm4.95-37.9C220.57 1.16 209.07 4.13 209 4.16l-.14-.54c.12 0 11.79-3 28.16 2.65z"/></g><path fill="url(#_ÂÁ_Ï_ÌÌ_È_ËÂÌÚ_9)" fill-rule="evenodd" d="M6.04 72.34L0 34l62.21-8.13 3.47 33.91-55.79 6.39-3.85 6.17z"/><path fill="url(#_ÂÁ_Ï_ÌÌ_È_ËÂÌÚ_50)" fill-rule="evenodd" d="M65.68 59.78l-5.92 3.41-49.53 6.05-3.07 4.36-1.12-1.26 3.85-6.17 55.79-6.39z"/><path style="mix-blend-mode:multiply" fill="#401734" opacity=".5" fill-rule="evenodd" d="M10.23 69.24l-.34-3.07-3.85 6.17 1.12 1.26 3.07-4.36z"/><path fill="url(#_ÂÁ_Ï_ÌÌ_È_ËÂÌÚ_93)" fill-rule="evenodd" d="M12.64 41.03l.29 2.14 39.13-4.9-.31-2.61-39.11 5.37z"/><path fill="url(#_ÂÁ_Ï_ÌÌ_È_ËÂÌÚ_93-2)" fill-rule="evenodd" d="M14.92 55.45l.3 2.15 38.58-4.83-.22-1.9-38.66 4.58z"/><path fill="url(#_ÂÁ_Ï_ÌÌ_È_ËÂÌÚ_93-3)" fill-rule="evenodd" d="M13.76 48.05l.29 2.15 30.71-3.85-.28-2.51-30.72 4.21z"/><path fill="url(#_ÂÁ_Ï_ÌÌ_È_ËÂÌÚ_93-4)" fill-rule="evenodd" d="M45.31 43.74l.28 2.53 6.06-.61-.16-2.66-6.18.74z"/><path fill="url(#_ÂÁ_Ï_ÌÌ_È_ËÂÌÚ_93-5)" fill-rule="evenodd" d="M13.14 44.54l.29 2.15 18.14-2.28-.24-2.25-18.19 2.38z"/><path fill="url(#_ÂÁ_Ï_ÌÌ_È_ËÂÌÚ_93-6)" fill-rule="evenodd" d="M14.31 51.58l.29 2.15 12.03-1.51-.4-2.2-11.92 1.56z"/><path fill="url(#_ÂÁ_Ï_ÌÌ_È_ËÂÌÚ_135)" fill-rule="evenodd" d="M118.05 97.21l12.13-44.58 45.29 7.52-5.95 46.1-51.47-9.04z"/><path fill="url(#_ÂÁ_Ï_ÌÌ_È_ËÂÌÚ_45)" fill-rule="evenodd" d="M122.84 91.33l13.39-12.79 2.05 5.68 21.36-14.78 8.3 30.44-45.1-8.55z"/><path fill="url(#_ÂÁ_Ï_ÌÌ_È_ËÂÌÚ_104)" fill-rule="evenodd" d="M122.84 91.33l3.7 3.79 37.54 7.12 3.86-2.36-45.1-8.55z"/><path fill="url(#_ÂÁ_Ï_ÌÌ_È_ËÂÌÚ_10)" fill-rule="evenodd" d="M118.05 97.21l5.59 5.15 38.64 7.65 7.24-3.76-51.47-9.04z"/><path fill="url(#_ÂÁ_Ï_ÌÌ_È_ËÂÌÚ_139)" fill-rule="evenodd" d="M138.28 84.22l-9.62 8.04-5.82-.93 13.39-12.79 2.05 5.68z"/><path class="cls-43" d="M146.19 68.48c-.8 4.2-4.26 7.07-7.73 6.41s-5.64-4.6-4.84-8.79 4.26-7.07 7.73-6.42 5.65 4.6 4.84 8.8z"/><path d="M146.37 67.53a6.41 6.41 0 11-5-7.85 6.6 6.6 0 015 7.85z" fill="url(#_ÂÁ_Ï_ÌÌ_È_ËÂÌÚ_139-2)" fill-rule="evenodd"/><path d="M146.15 66.73a6 6 0 11-4.8-7.05 6 6 0 014.8 7.05z" fill="#fff" fill-rule="evenodd"/><path class="cls-43" d="M126.54 95.12l1.59 3.86 33.34 5.85 2.61-2.59-37.54-7.12z"/><path d="M261.35 78.37l20 38.14L327 96.75l-15.49-41.13z" fill="url(#_ÂÁ_Ï_ÌÌ_È_ËÂÌÚ_36)" fill-rule="evenodd"/><path fill="url(#_ÂÁ_Ï_ÌÌ_È_ËÂÌÚ_57)" fill-rule="evenodd" d="M281.37 116.51l5.61.86 36.98-16.69 3.06-3.93-45.65 19.76z"/><path style="mix-blend-mode:multiply" fill="#5c1748" opacity=".3" fill-rule="evenodd" d="M281.77 80.87l11.45 22.96L307.76 81l-25.99-.13z"/><path fill="url(#_ÂÁ_Ï_ÌÌ_È_ËÂÌÚ_3)" fill-rule="evenodd" d="M281.77 80.87l9.41 18.73 13.18-22.26-22.59 3.53z"/><path fill="url(#_ÂÁ_Ï_ÌÌ_È_ËÂÌÚ_60)" fill-rule="evenodd" d="M304.36 77.34l.37 5.12-11.8 17.57-1.75-.43 13.18-22.26z"/><path style="mix-blend-mode:multiply" fill="#792a7c" opacity=".3" fill-rule="evenodd" d="M90.36 242.17l-13.52 6.82 137.61-.78-13.32-6.49-110.77.45z"/></g></g></g></svg>