<svg xmlns="http://www.w3.org/2000/svg" viewBox="0 0 100 106.6"><defs><radialGradient id="_ÂÁ_Ï_ÌÌ_È_ËÂÌÚ_57" cx="28.69" cy="-1989.88" r="68.43" gradientTransform="matrix(1 0 0 1.33 0 2658.89)" gradientUnits="userSpaceOnUse"><stop offset="0" stop-color="#b3819d"/><stop offset="1" stop-color="#785ca6"/></radialGradient><radialGradient id="_ÂÁ_Ï_ÌÌ_È_ËÂÌÚ_34" cx="52.12" cy="-1935.71" r="45.07" gradientTransform="rotate(45 -3159.566 -1279.445) scale(1 1.33)" gradientUnits="userSpaceOnUse"><stop offset="0" stop-color="#ba94a5"/><stop offset="1" stop-color="#66439a"/></radialGradient><radialGradient id="_ÂÁ_Ï_ÌÌ_È_ËÂÌÚ_178" cx="50" cy="50" r="40.2" gradientTransform="rotate(45 50 50)" gradientUnits="userSpaceOnUse"><stop offset="0" stop-color="#faf5f8"/><stop offset=".98" stop-color="#d4cbe2"/></radialGradient><linearGradient id="_ÂÁ_Ï_ÌÌ_È_ËÂÌÚ_76" x1="10.88" y1="32.78" x2="85.65" y2="32.78" gradientUnits="userSpaceOnUse"><stop offset=".01" stop-color="#ff6b59"/><stop offset="1" stop-color="#c90046"/></linearGradient><linearGradient id="_ÂÁ_Ï_ÌÌ_È_ËÂÌÚ_27" x1="47.99" y1="52.92" x2="52.01" y2="52.92" gradientUnits="userSpaceOnUse"><stop offset=".02" stop-color="#e3dfd8"/><stop offset="1" stop-color="#cfc7ff"/></linearGradient><linearGradient id="_ÂÁ_Ï_ÌÌ_È_ËÂÌÚ_78" x1="46.69" y1="93.3" x2="46.69" y2="7.2" gradientUnits="userSpaceOnUse"><stop offset="0"/><stop offset="1" stop-color="#8184b1"/></linearGradient><style>.cls-11,.cls-9{fill-rule:evenodd}.cls-9{fill:#701768}.cls-11{opacity:.5;fill:#ffffb6;mix-blend-mode:soft-light}</style></defs><g style="isolation:isolate"><g id="Layer_2" data-name="Layer 2"><g id="Layer_1-2" data-name="Layer 1"><path d="M92.48 69.94A43.46 43.46 0 019.62 80.27a41.38 41.38 0 01-1.79-5z" style="mix-blend-mode:multiply" fill-rule="evenodd" fill="#540041" opacity=".3"/><circle cx="50" cy="50" r="50" fill="url(#_ÂÁ_Ï_ÌÌ_È_ËÂÌÚ_57)"/><circle cx="50" cy="50" r="43.56" transform="rotate(-45 50 50)" fill="url(#_ÂÁ_Ï_ÌÌ_È_ËÂÌÚ_34)"/><circle cx="50" cy="50" r="40.2" transform="rotate(-45 50 50)" fill="url(#_ÂÁ_Ï_ÌÌ_È_ËÂÌÚ_178)"/><path d="M16.88 50a32 32 0 011.7-12.3 32.67 32.67 0 016.43-11 33.2 33.2 0 0110.39-7.77 34 34 0 0112.87-3.31 34.79 34.79 0 0113.44 1.92 35.65 35.65 0 0111.93 7.09A36.37 36.37 0 0182.11 36a37.29 37.29 0 013.54 14h-12a26.13 26.13 0 00-6.37-19 27.68 27.68 0 00-19-9.38 29.14 29.14 0 00-21.13 7.26A30.64 30.64 0 0016.88 50z" fill="url(#_ÂÁ_Ï_ÌÌ_È_ËÂÌÚ_76)"/><path d="M93.56 50a44.8 44.8 0 01-.38 5.82 43.57 43.57 0 00-86.36 0A44.8 44.8 0 016.44 50a43.56 43.56 0 0187.12 0z" style="mix-blend-mode:multiply" opacity=".5" fill="#701768" fill-rule="evenodd"/><circle cx="50" cy="52.92" r="11.2" transform="rotate(-20.35 50 52.913)" style="mix-blend-mode:multiply" fill="#8e4072" opacity=".2"/><path class="cls-9" d="M54.39 52.92A4.39 4.39 0 1150 48.53a4.39 4.39 0 014.39 4.39z"/><path class="cls-9" d="M46.62 50.18l27.31-28.55-20.34 33.9-6.97-5.35z"/><path d="M52 52.92a2 2 0 11-2-2 2 2 0 012 2z" fill="url(#_ÂÁ_Ï_ÌÌ_È_ËÂÌÚ_27)" fill-rule="evenodd"/><path class="cls-11" d="M39.46 92.27l2.47-2.88a37.44 37.44 0 0016.14 0l2.2 2.88s-8.4 3.04-20.81 0zM18.28 11.35l5.33 4S39.46 2.9 58.39 7.25l1.88-6.19S37.26-4.6 18.28 11.35z"/><path d="M24.74 16.16l14.72 76.11S58.61 96 68.63 89.39L58.47 8.2a39.27 39.27 0 00-33.73 7.96z" style="mix-blend-mode:screen" fill="url(#_ÂÁ_Ï_ÌÌ_È_ËÂÌÚ_78)" fill-rule="evenodd"/><path class="cls-11" d="M64.17 91.51l-3-2.9A54.8 54.8 0 0067 86.33l2.56 2.59s-3.56 2.4-5.39 2.59z"/><path d="M36.48 70.2a1.38 1.38 0 00-.82.21.71.71 0 00-.29.63.82.82 0 00.42.68 5.15 5.15 0 001.13.56 4.71 4.71 0 011 .48 2.21 2.21 0 01.68.74 2.42 2.42 0 01.27 1.2 2.18 2.18 0 01-1.28 2 3.32 3.32 0 01-1.5.31 5.07 5.07 0 01-1.44-.21 4.53 4.53 0 01-1.34-.66l.69-1.23a3.66 3.66 0 001 .51 2.9 2.9 0 001 .2 1.76 1.76 0 00.88-.21.76.76 0 00.38-.71c0-.41-.4-.78-1.18-1.09a9.38 9.38 0 01-1.16-.53 2.31 2.31 0 01-.8-.73 2 2 0 01-.34-1.19 2.16 2.16 0 01.69-1.68 2.8 2.8 0 011.84-.7 5 5 0 011.51.2 5.38 5.38 0 011.18.58l-.61 1.23a3.94 3.94 0 00-1.91-.59zm8.7-.64a2.54 2.54 0 01.82 2 3.25 3.25 0 01-.28 1.36 2.38 2.38 0 01-.92 1 3 3 0 01-1.64.4H42v2.57h-1.6v-8.07h2.46a3.31 3.31 0 012.32.74zm-1.3 3a1.08 1.08 0 00.4-.48 1.31 1.31 0 00.12-.53 1.54 1.54 0 00-.25-.83 1.08 1.08 0 00-1-.4H42v2.45h1.13a1.17 1.17 0 00.75-.16zM53 68.82v1.55h-4v1.73h3.49v1.55H49v1.75h4.1v1.54h-5.7v-8.12zm7.32 0v1.55h-3.94v1.73h3.49v1.55h-3.49v1.75h4.09v1.54h-5.69v-8.12zm1.81 0h2.42a4.92 4.92 0 012.56.61A3.7 3.7 0 0168.58 71a4.76 4.76 0 01.42 2 3.8 3.8 0 01-.55 2.06 3.68 3.68 0 01-1.45 1.4 4.42 4.42 0 01-2 .48h-2.87zm2.55 6.58a2.85 2.85 0 002-.64 2.31 2.31 0 00.73-1.84 2.74 2.74 0 00-.4-1.55 2.25 2.25 0 00-.94-.79 2.6 2.6 0 00-1-.22h-1.3v5z" fill="#ff464d"/></g></g></g></svg>