<svg xmlns="http://www.w3.org/2000/svg" xmlns:xlink="http://www.w3.org/1999/xlink" viewBox="0 0 99.92 119.31"><defs><linearGradient id="_ÂÁ_Ï_ÌÌ_È_ËÂÌÚ_12" x1="46.72" y1="16.37" x2="46.72" y2="9.2" gradientUnits="userSpaceOnUse"><stop offset="0" stop-color="#e8467a"/><stop offset="1" stop-color="#e37b55"/></linearGradient><linearGradient id="linear-gradient" x1="46.81" y1="7.07" x2="45.21" y2="-1.04" gradientUnits="userSpaceOnUse"><stop offset="0" stop-color="#cc4973"/><stop offset="1" stop-color="#e45620"/></linearGradient><linearGradient id="_ÂÁ_Ï_ÌÌ_È_ËÂÌÚ_244" x1="-112.46" y1="216.27" x2="-112.46" y2="121.16" gradientTransform="matrix(1 0 0 1.02 162.23 -111.29)" gradientUnits="userSpaceOnUse"><stop offset="0" stop-color="#ff3363"/><stop offset="1" stop-color="#ff6e27"/></linearGradient><linearGradient id="_ÂÁ_Ï_ÌÌ_È_ËÂÌÚ_12-2" x1="50.04" y1="75.06" x2="50.04" y2="49.91" xlink:href="#_ÂÁ_Ï_ÌÌ_È_ËÂÌÚ_12"/><linearGradient id="_ÂÁ_Ï_ÌÌ_È_ËÂÌÚ_78" x1="45.88" y1="105.86" x2="45.88" y2="21.45" gradientUnits="userSpaceOnUse"><stop offset="0"/><stop offset="1" stop-color="#8184b1"/></linearGradient><radialGradient id="_ÂÁ_Ï_ÌÌ_È_ËÂÌÚ_178" cx="-112.88" cy="170.22" r="68.85" gradientTransform="rotate(-12.56 -598.476 -611.934)" gradientUnits="userSpaceOnUse"><stop offset="0" stop-color="#faf5f8"/><stop offset=".98" stop-color="#d4cbe2"/></radialGradient><radialGradient id="_ÂÁ_Ï_ÌÌ_È_ËÂÌÚ_178-2" cx="-112.15" cy="187.36" r="2.2" xlink:href="#_ÂÁ_Ï_ÌÌ_È_ËÂÌÚ_178"/><style>.cls-2{fill:#7e38c1}.cls-3{fill:#2c0045}.cls-8{fill:#8b0c42}</style></defs><g style="isolation:isolate"><g id="Layer_2" data-name="Layer 2"><g id="Layer_1-2" data-name="Layer 1"><path class="cls-2" transform="rotate(-45.94 86.912 26.081)" d="M84.52 21.49h4.78v9.17h-4.78z"/><path class="cls-3" d="M84.65 22.86c-.18-.18-.53-.11-.79.16l-1.71 1.77.66.64 1.71-1.77a.59.59 0 00.13-.8zm1.11 1.08c-.18-.18-.53-.1-.79.17l-1.71 1.76.66.64 1.71-1.76c.25-.28.31-.64.13-.81zM86.87 25c-.18-.18-.53-.11-.79.16l-1.71 1.77.66.64 1.71-1.77a.59.59 0 00.13-.8zM88 26.09c-.19-.18-.54-.1-.8.17L85.47 28l.66.64 1.71-1.76c.26-.26.32-.62.16-.79zm1.09 1.07c-.19-.17-.54-.1-.8.17l-1.71 1.77.67.64L89 28a.59.59 0 00.09-.84zm1.11 1.08c-.18-.18-.54-.1-.8.17l-1.71 1.76.67.64 1.7-1.81c.26-.23.32-.59.14-.76z"/><path class="cls-2" transform="rotate(-50.83 8.683 30.697)" d="M4.1 28.32h9.17v4.78H4.1z"/><path class="cls-3" d="M10.55 27.24c.16-.2.53-.17.81.07l1.91 1.55-.59.72-1.9-1.58c-.29-.21-.39-.56-.23-.76zm-.98 1.2c.16-.2.52-.17.81.07l1.9 1.55-.58.71-1.9-1.55c-.28-.22-.39-.58-.23-.78zm-.98 1.2c.16-.19.52-.16.81.07l1.9 1.56-.58.71-1.9-1.55a.61.61 0 01-.23-.79zm-.97 1.2c.16-.19.53-.16.81.07l1.91 1.55-.59.72-1.9-1.55c-.29-.25-.39-.63-.23-.79zM6.64 32c.16-.19.52-.16.81.07l1.9 1.55-.58.72-1.9-1.52c-.28-.24-.39-.59-.23-.82zm-.97 1.24c.16-.2.52-.17.81.07l1.91 1.55-.59.72L5.9 34c-.29-.22-.39-.57-.23-.76z"/><path d="M52.24 13.9l-10.81.64-.23-3.84a.69.69 0 01.65-.73l9.44-.56a.69.69 0 01.72.65z" fill="url(#_ÂÁ_Ï_ÌÌ_È_ËÂÌÚ_12)"/><path d="M51.38 4.05l-10.25.61a4.28 4.28 0 014-4.51L46.87 0a4.25 4.25 0 014.5 4z" fill="url(#linear-gradient)"/><path transform="rotate(-3.38 46.438 6.967)" fill="#a27a7a" d="M44.23 4.35h4.35V9.7h-4.35z"/><path d="M94 82.65A43.47 43.47 0 0111.09 93a41.52 41.52 0 01-1.79-5z" style="mix-blend-mode:multiply" fill-rule="evenodd" fill="#540041" opacity=".3"/><circle class="cls-8" cx="50.04" cy="62.49" r="49.87" transform="rotate(-45 50.045 62.49)"/><ellipse cx="49.77" cy="61.29" rx="49.82" ry="48.64" transform="rotate(-12.56 49.77 61.303)" fill="url(#_ÂÁ_Ï_ÌÌ_È_ËÂÌÚ_244)"/><ellipse class="cls-8" cx="49.74" cy="61.11" rx="42.4" ry="41.39" transform="rotate(-12.56 49.744 61.116)"/><path d="M91.33 52.81c4.86 21.8-9.74 43.61-32.59 48.7S13.41 93.06 8.55 71.25a37.62 37.62 0 01-.67-4v-.28l-.08-.78C6 46.13 20.08 27.24 41.15 22.55c17-3.78 33.72 2.72 43.22 15.24A39 39 0 0188.7 45a39.12 39.12 0 012.63 7.81z" fill="url(#_ÂÁ_Ï_ÌÌ_È_ËÂÌÚ_178)" fill-rule="evenodd"/><path d="M50.32 91.15c-16.86 0-30.57-13.15-30.57-29.41s13.71-29.41 30.57-29.41 30.56 13.2 30.56 29.41-13.71 29.41-30.56 29.41zm0-58.12C33.86 33 20.47 45.91 20.47 61.74s13.39 28.71 29.85 28.71 29.84-12.88 29.84-28.71S66.77 33 50.32 33z" opacity=".8" fill="#4f4f4f"/><g opacity=".8"><path class="cls-3" transform="translate(-1.68 3.12)" d="M47.12 25.37h1.69v4.99h-1.69z"/><path class="cls-3" d="M71.95 38.49l-.47-.4 3.62-3.96.47.4-3.62 3.96zm2.66 44.44l.41-.45 3.86 3.26-.41.45-3.86-3.26zm-46.44 2.59l.47.39-3.41 3.73-.46-.4 3.4-3.72zm-2.44-44.68l-.42.45-3.86-3.27.41-.45 3.87 3.27zm10.49-7.54l-.56.26-2.22-4.46.56-.26 2.22 4.46zM19.16 51.89l-.2.57-5.01-1.57.2-.57 5.01 1.57zm1.7 24.78l.3.52-4.43 2.28-.29-.52 4.42-2.28zM38.6 91.61l.59.2-1.75 4.62-.59-.2 1.75-4.62zm26.47-1.45l.56-.28 2.3 4.28-.55.28-2.31-4.28zm16.16-17.69l.2-.57 4.75 1.57-.21.57-4.74-1.57zM79.5 47.75l-.28-.53 4.72-2.32.28.53-4.72 2.32zm-17.46-15.4l-.59-.2 1.83-4.68.59.21-1.83 4.67z"/><path class="cls-3" transform="rotate(-3.66 85.664 59.602)" d="M82.85 58.66h5.49v1.72h-5.49z"/><path class="cls-3" transform="rotate(-3.66 52.706 95.832)" d="M51.72 93.09h1.85v5.43h-1.85z"/><path class="cls-3" transform="translate(-4.08 1.08)" d="M12.29 63.56h5.15v1.62h-5.15z"/></g><path d="M89.09 45.69a56.6 56.6 0 012.64 8C91.25 52.34 83 31.2 51.82 31.2A48.07 48.07 0 008 57.78v-.29c0-.19.06-.44.1-.78 3.23-21.3 22.23-35.3 42.07-35.28 18.21-.01 32.38 9.97 38.92 24.26z" style="mix-blend-mode:multiply" fill="#8e4072" opacity=".5" fill-rule="evenodd"/><path d="M52.73 61.41a2.86 2.86 0 11-3.38-2 2.78 2.78 0 013.38 2z" fill="#a695cf" fill-rule="evenodd"/><ellipse cx="50.04" cy="62.49" rx="13.07" ry="12.57" style="mix-blend-mode:multiply" opacity=".2" fill="url(#_ÂÁ_Ï_ÌÌ_È_ËÂÌÚ_12-2)"/><path transform="rotate(27.32 56.366 50.38)" fill="#ff4f4a" d="M55.38 27.39h2v46h-2z"/><path d="M54.48 61.5a4.54 4.54 0 11-5.43-3.45 4.55 4.55 0 015.43 3.45z" fill="#ff4e4a" fill-rule="evenodd"/><path d="M52.19 62a2.2 2.2 0 11-2.63-1.67A2.2 2.2 0 0152.19 62z" fill="url(#_ÂÁ_Ï_ÌÌ_È_ËÂÌÚ_178-2)" fill-rule="evenodd"/><path d="M17.38 24.74l5 4.65s16-13 36.08-9l1.92-6.65s-23.56-6.13-43 11z" style="mix-blend-mode:soft-light" fill="#ffffb6" opacity=".5" fill-rule="evenodd"/><path d="M24.38 30.39l15.32 74.46s18.18 3.62 27.68-2.83l-9-79.63s-16-5-34 8z" style="mix-blend-mode:screen" fill="url(#_ÂÁ_Ï_ÌÌ_È_ËÂÌÚ_78)" fill-rule="evenodd"/></g></g></g></svg>