<svg xmlns="http://www.w3.org/2000/svg" viewBox="0 0 789.6 628"><defs><radialGradient id="radial-gradient" cx="314" cy="314" r="314" gradientUnits="userSpaceOnUse"><stop offset="0" stop-color="#ec8a64"/><stop offset=".22" stop-color="#eb865f"/><stop offset=".48" stop-color="#ea7c51"/><stop offset=".76" stop-color="#e76a3a"/><stop offset="1" stop-color="#e45620"/></radialGradient><style>.cls-2{fill:#82b378}.cls-3{fill:#a8d29f}.cls-8{fill:#365faa}.cls-11{fill:#323692}.cls-12{fill:#34b3d1}.cls-13{fill:#5dd1dd}.cls-14{fill:#fff}.cls-20{fill:#f3dedc}.cls-23{fill:#ffb27c}.cls-27{fill:#ffb27b}.cls-29{fill:#b5453c}.cls-30{fill:#163560}.cls-31{fill:#ffc08f}.cls-32{fill:#cf6459}.cls-36{fill:#ffba89}</style></defs><g id="Layer_2" data-name="Layer 2"><g id="Layer_1-2" data-name="Layer 1"><circle cx="314" cy="314" r="314" fill="url(#radial-gradient)"/><path class="cls-2" d="M482.51 282.32s-10.38-12.1-.64-19.79c0 0 7.11-4.31 12.91-4 0 0-8.22 13.78-5.56 15.15s8-16 8-16 16.19-1.57 21.39.93c0 0-13.83 11.32-10.92 12s17.91-10.41 17.91-10.41 15.06 2.56 14.26 11.75-6 12-8.28 11.78-15.62-5.34-15.91-3.47 7.74 8 13.37 8.27c0 0-10.63 11.71-17.68 8.33s-7.66-8.74-12.06-10.75-8.16-2-6.34.05 9.78 4 12.29 8.49 4.78 7.45-2.53 6.35-19.17-6.44-19.69-12.56z"/><path class="cls-2" d="M532.46 272.2s-40.92-1.58-50 10.12a29.6 29.6 0 01-8.15 11.44l-1 2.61s7.09-7.48 9.63-7.93c.06 0-3.88-14.44 49.52-16.24z"/><path class="cls-2" d="M474.36 293.76a25.68 25.68 0 00-9.39 18.1l1.59.14s2.81-12 7.88-16.69-.08-1.55-.08-1.55z"/><path class="cls-3" d="M446.22 267.1s16.51-9.25 8.81-21.79c0 0-6.16-7.71-12.77-9.69 0 0 3.52 18.71 0 19.15s-2.42-21.13-2.42-21.13-17.39-8.36-24.21-7.7c0 0 10.79 18.27 7.26 17.83s-15.62-18.93-15.62-18.93-17.83-3.3-20.69 7.26 1.76 15.85 4.4 16.51 19.59.44 19.15 2.64-11.89 5.75-18.27 3.75c0 0 7 17.39 16.29 16.51s12.1-6.6 17.83-7 9.9 1.1 7 2.64-12.55.5-17.17 4.43-8.36 6.35.22 8.11 24 .66 27.07-5.94z"/><path class="cls-2" d="M394.72 235.4s46.22 15 51.5 31.7a35.09 35.09 0 004.41 16.07v3.3s-4.85-11.23-7.49-12.77c0 0 10.35-14.53-48.42-38.3z"/><path class="cls-2" d="M450.63 283.17s7.12 10.82 3.06 24l-1.83-.5s1.78-14.51-1.95-21.81.72-1.69.72-1.69z"/><path class="cls-3" d="M472.49 254.35s-21.76-12.19-11.61-28.72c0 0 8.13-10.16 16.83-12.77 0 0-4.64 24.66 0 25.24s3.19-27.85 3.19-27.85 22.92-11 31.91-10.16c0 0-14.21 24.09-9.57 23.51s20.6-25 20.6-25 23.5-4.35 27.27 9.58-2.32 20.89-5.8 21.76-25.82.58-25.24 3.48 15.67 7.54 24.08 4.93c0 0-9.29 22.92-21.47 21.76s-16-8.7-23.5-9.28-13.06 1.45-9.29 3.48 16.54.66 22.63 5.84 11 8.38-.29 10.7-31.62.87-35.68-7.84z"/><path class="cls-2" d="M540.38 212.57s-60.93 19.73-67.89 41.78a46.26 46.26 0 01-5.81 21.18v4.35s6.39-14.8 9.87-16.83c0 0-13.64-19.15 63.83-50.48z"/><path class="cls-2" d="M466.68 275.53s-9.39 14.27-4 31.64l2.42-.65s-2.34-19.13 2.57-28.76-.99-2.23-.99-2.23z"/><path fill="#cbdaff" d="M562.96 344.96l.46 66.72 176.66 42.65 37.91-15.83 11.61-73.64-226.64-19.9z"/><path d="M744.68 377.05c.7 1.65-4.6 77.28-4.6 77.28L778 438.5l11.61-73.64z" fill="#6784be"/><path fill="#9495a6" d="M562.96 344.96l181.72 32.09 44.92-12.19-174.53-31.27-52.11 11.37z"/><path d="M568.59 351.72l.62 23.34 166.31 34.4 2.09-28.41-169.02-29.33zm.73 28.17l.01 26.92 163.53 40.66 1.57-33.26-165.11-34.32z" fill="#b0d4ff"/><path class="cls-8" d="M625.26 348.06l.16 4.02 71.52 13.5 24.85-5.76-.51-4.85-96.02-6.91z"/><path fill="#6daaeb" d="M625.26 348.06l71.92 13.51 24.1-6.6-76.4-12.58-19.62 5.67z"/><path fill="#6390eb" d="M656.98 321.42l-.85 27.67 33.4 6 1.76-29.63-34.31-4.04z"/><path class="cls-11" d="M689.53 355.09l4.47-.94 1.6-26.82-4.31-1.87-1.76 29.63z"/><path class="cls-11" d="M592.24 187.06l-3.05 126.85 173.05 26.62 11.29-161.66-181.29 8.19z"/><path class="cls-12" d="M598.34 192.57l-2.9 116.35 157.84 21.43 10.07-142.44-165.01 4.66z"/><path class="cls-13" d="M763.35 187.91l-165 4.66-2.55 102.26c21.11-1.3 60.39-5.84 99.61-21.56 29.82-11.95 51.91-38.78 66.29-61.88z"/><path class="cls-14" d="M713 219.66c11.4-.37 21-.72 32.44-.88a6.72 6.72 0 00-.32-4.39c-.71-1.32-2.45-2.18-3.76-1.45a4.51 4.51 0 00-7.9-4.21c-1.78-1.49-4-2.74-6.3-2.54s-4.55 2.33-4.1 4.61a5.36 5.36 0 00-8.36 4.27 3.79 3.79 0 00-5.44 4.64 24.31 24.31 0 013.74-.05zm-97.6-7.42c11.4-.37 21-.72 32.44-.88a6.66 6.66 0 00-.33-4.39c-.7-1.32-2.45-2.18-3.76-1.45a4.51 4.51 0 00-7.89-4.21c-1.78-1.49-4-2.74-6.3-2.55s-4.55 2.34-4.1 4.62a5.36 5.36 0 00-8.36 4.27 3.79 3.79 0 00-5.44 4.64 24.31 24.31 0 013.74-.05z"/><path d="M757.66 268.46l1.75-24.8c-1.53-1.55-6.85-4.36-6.85-4.36l-22.17 3.36-6.71 64.42-6.75-1.49s2.47-35.5 2.55-36.93-9.11-10.27-9.11-10.27l-19.06-.39-4.23 46.92-7.53-.45 6.22-98.65-9.24-8.11-14.44.58-4.63 59.86-8.32.59 2.53-30.46-5.08-5.34-22.72.45-3.79 57.74-5-1 3-51.31-5.71-5.82-14.78-.23-2.15 86.11 157.84 21.43c-.37-1.44 2.33-36.94 4.38-61.85z" fill="#d1e7f2"/><path d="M607.47 225.14l2.96.17-.18 3.1-3.22-.33.44-2.94zm-.39 6.72l2.95.18-.18 3.09-3.22-.32.45-2.95zm-.41 6.73l2.96.18-.18 3.09-3.22-.32.44-2.95zm-.4 6.73l2.97.18-.19 3.09-3.22-.33.44-2.94zm-.39 6.73l2.96.17-.19 3.1-3.22-.33.45-2.94zm-.4 6.73l2.95.17-.18 3.1-3.22-.33.45-2.94zm-4.46-34.03l2.96.18-.19 3.09-3.22-.32.45-2.95zm-.4 6.73l2.96.18-.19 3.09-3.22-.32.45-2.95zm-.4 6.73l2.96.17-.19 3.1-3.22-.33.45-2.94zm-.4 6.73l2.96.17-.19 3.1-3.22-.33.45-2.94zm-.4 6.72l2.96.18-.19 3.1-3.22-.33.45-2.95zm-.4 6.73l2.96.18-.19 3.09-3.22-.32.45-2.95zm-.36 5.92l2.97.18-.19 3.09-3.22-.32.44-2.95zm-.4 6.73l2.97.18-.19 3.09-3.22-.33.44-2.94zm-.39 6.73l2.96.17-.19 3.1-3.22-.33.45-2.94zm-.4 6.73l2.95.17-.18 3.1-3.22-.33.45-2.94zm-.4 6.72l2.95.18-.18 3.09-3.22-.32.45-2.95zm-.41 6.73l2.97.18-.19 3.09-3.22-.33.44-2.94zm67.8-96.64l2.22.14-.14 2.32-2.42-.25.34-2.21zm-.3 5.05l2.22.13-.14 2.32-2.42-.24.34-2.21zm-.3 5.05l2.22.13-.14 2.32-2.42-.24.34-2.21zm-.3 5.04l2.22.13-.14 2.33-2.42-.25.34-2.21zm-.3 5.05l2.22.13-.14 2.32-2.42-.24.34-2.21zm-.3 5.04l2.22.14-.14 2.32-2.42-.25.34-2.21zm6.4-24.73l2.22.13-.14 2.32-2.42-.24.34-2.21zm-.31 5.04l2.22.14-.13 2.32-2.42-.25.33-2.21zm-.3 5.05l2.23.13-.14 2.32-2.42-.24.33-2.21zm-.29 5.05l2.21.13-.13 2.32-2.42-.25.34-2.2zm-.31 5.04l2.23.13-.14 2.32-2.42-.24.33-2.21zm-.29 5.05l2.22.13-.14 2.32-2.42-.24.34-2.21zm-.3 4.91l2.22.13-.13 2.32-2.42-.24.33-2.21zm-.3 5.05l2.22.13-.13 2.32-2.42-.25.33-2.2zm-.3 5.04l2.22.13-.13 2.32-2.42-.24.33-2.21zm-.3 5.05l2.22.13-.13 2.32-2.42-.25.33-2.2zm-.3 5.04l2.22.13-.13 2.33-2.42-.25.33-2.21zm-.3 5.05l2.22.13-.13 2.32-2.42-.24.33-2.21zm-.29 4.91l2.22.13-.14 2.32-2.41-.24.33-2.21zm-.3 5.04l2.22.14-.14 2.32-2.41-.25.33-2.21zm-.3 5.05l2.22.13-.14 2.32-2.41-.24.33-2.21zm-.3 5.05l2.22.13-.14 2.32-2.41-.24.33-2.21zm-.3 5.04l2.22.13-.14 2.33-2.41-.25.33-2.21zm-.3 5.05l2.22.13-.13 2.32-2.42-.24.33-2.21zm-3.81-35.81l2.22.13-.14 2.32-2.41-.24.33-2.21zm-.3 5.05l2.22.13-.14 2.32-2.41-.25.33-2.2zm-.3 5.04l2.22.14-.14 2.32-2.41-.25.33-2.21zm-.3 5.05l2.22.13-.14 2.32-2.41-.24.33-2.21zm-.3 5.04l2.22.14-.14 2.32-2.41-.25.33-2.21zm-.3 5.05l2.22.13-.14 2.32-2.41-.24.33-2.21zm79.56-16.34l2.22.14-.14 2.32-2.42-.25.34-2.21zm-.3 5.05l2.22.13-.14 2.32-2.42-.24.34-2.21zm-.3 5.05l2.22.13-.14 2.32-2.41-.25.33-2.2zm-.3 5.04l2.22.13-.14 2.33-2.42-.25.34-2.21zm-.3 5.05l2.22.13-.14 2.32-2.41-.24.33-2.21zm-.3 5.04l2.22.13-.14 2.33-2.42-.25.34-2.21zm8.85-39.78l2.22.13-.14 2.33-2.42-.25.34-2.21zm-.3 5.05l2.21.13-.13 2.32-2.42-.24.34-2.21zm-.31 5.04l2.23.14-.14 2.32-2.42-.25.33-2.21zm-.29 5.05l2.21.13-.13 2.32-2.42-.24.34-2.21zm-.31 5.05l2.23.13-.14 2.32-2.42-.25.33-2.2zm-.29 5.04l2.22.13-.14 2.33-2.42-.25.34-2.21zm-10.63-25.75l2.22.14-.13 2.32-2.42-.25.33-2.21zm-.3 5.05l2.22.13-.14 2.32-2.41-.24.33-2.21zm-.3 5.05l2.22.13-.13 2.32-2.42-.25.33-2.2zm-.3 5.04l2.22.13-.13 2.33-2.42-.25.33-2.21zm-.3 5.05l2.22.13-.13 2.32-2.42-.24.33-2.21zm-.3 5.04l2.22.14-.13 2.32-2.42-.25.33-2.21zm-2.01 11.09l2.22.13-.13 2.33-2.42-.25.33-2.21zm-.3 5.05l2.22.13-.13 2.32-2.42-.24.33-2.21zm-.3 5.04l2.22.14-.13 2.32-2.42-.25.33-2.21zm-.3 5.05l2.22.13-.13 2.32L729 299l.33-2.21zm-.3 5.04l2.22.14-.13 2.32-2.42-.25.33-2.21zm-.29 5.05l2.22.13-.14 2.32-2.42-.24.34-2.21zm-34.61-44.73l2.22.14-.14 2.32-2.42-.25.34-2.21zm-.3 5.05l2.21.13-.13 2.32-2.42-.24.34-2.21zm-.31 5.05l2.23.13-.14 2.32-2.42-.25.33-2.2zm-.29 5.04l2.22.13-.14 2.33-2.42-.25.34-2.21zm-.31 5.05l2.22.13-.13 2.32-2.42-.24.33-2.21zm-.29 5.04l2.22.13-.14 2.33-2.42-.25.34-2.21zm7.13-24.62l2.22.13-.14 2.32-2.41-.24.33-2.21zm-.3 5.05l2.22.13-.14 2.32-2.41-.25.33-2.2zm-.3 5.04l2.22.13-.14 2.32-2.41-.24.33-2.21zm-.3 5.05l2.22.13-.14 2.32-2.41-.24.33-2.21zm-.3 5.04l2.22.13-.14 2.32-2.41-.24.33-2.21zm-.3 5.05l2.22.13-.14 2.32-2.41-.24.33-2.21zm7.13-24.63l2.23.14-.14 2.32-2.42-.25.33-2.21zm-.29 5.05l2.22.13-.14 2.32-2.42-.24.34-2.21zm-.31 5.05l2.23.13-.14 2.32-2.42-.25.33-2.2zm-.29 5.04l2.22.13-.14 2.32-2.42-.24.34-2.21zm-.3 5.05l2.22.13-.14 2.32-2.42-.24.34-2.21zm-.3 5.04l2.22.14-.14 2.32-2.42-.25.34-2.21zm-70.31-62.17l2.96.17-.18 3.1-3.22-.33.44-2.94zm-.4 6.73l2.96.17-.18 3.1-3.22-.33.44-2.94zm-.4 6.73l2.96.17-.18 3.1-3.22-.33.44-2.94zm-.4 6.72l2.97.18-.19 3.09-3.22-.32.44-2.95zm-.39 6.73l2.96.18-.19 3.09-3.22-.33.45-2.94zm-.4 6.73l2.95.17-.18 3.1-3.22-.33.45-2.94zm5.92-13.42l2.96.17-.18 3.1-3.22-.33.44-2.94zm-.4 6.73l2.96.17-.18 3.1-3.22-.33.44-2.94zm-.4 6.72l2.96.18-.18 3.09-3.22-.32.44-2.95zm-.4 6.73l2.96.18-.18 3.09-3.22-.33.44-2.94zm-.4 6.73l2.96.17-.18 3.1-3.22-.33.44-2.94zm-.4 6.73l2.97.17-.19 3.1-3.22-.33.44-2.94zm-8.38-54.25l2.96.18-.19 3.1-3.22-.33.45-2.95zm-.4 6.73l2.96.18-.19 3.09-3.22-.32.45-2.95zm-.4 6.73l2.96.18-.19 3.09-3.22-.32.45-2.95zm-.4 6.73l2.96.17-.19 3.1-3.22-.33.45-2.94zm-.4 6.73l2.96.17-.19 3.1-3.22-.33.45-2.94zm-.4 6.72l2.96.18-.19 3.09-3.22-.32.45-2.95zm-.36 5.92l2.97.18-.19 3.1-3.22-.33.44-2.95zm-.4 6.73l2.97.18-.19 3.09-3.22-.32.44-2.95zm-.39 6.73l2.96.18-.19 3.09-3.22-.33.45-2.94zm-.4 6.73l2.95.17-.18 3.1-3.22-.33.45-2.94zm-.41 6.73l2.96.17-.18 3.1-3.22-.33.44-2.94zm-.4 6.72l2.97.18-.19 3.09-3.22-.32.44-2.95z" fill="#91b8d9"/><path class="cls-8" d="M773.53 178.87l4.74 1.49-11.03 158.46-5 1.71 11.29-161.66z"/><path d="M509.74 410.94l1.54 21.84s4.49 4.36 11.23.45c3.1-19.47 3.53-25.07 3.53-25.07zm-402-3.46L107.4 438s1.48 7 11.08 2.46c3.29-16.64 5-23.35 5-23.35zm54.83 61.32l2.16 24.3s4.28 7.17 13.6 1c2.64-13.48 4.33-25 4.33-25l-20.09-.33" fill="#544029"/><path d="M540.5 311.32c-.37-3.05-13.79-8.1-22.16-10.88-11.54-3.85-45.86-14.85-50.06-15.17s-23.12 2.45-23.12 2.45-10.25-47.25-12.47-49.83-4-2.72-13.61-3.46S148.17 242 144.48 243s-8.63 2.36-9.64 7.71 4.86 46.83 4.86 46.83-20.54.24-34.38 7.63c-5.22 2.79-1.26 103.08-1.26 103.08s58.34 65.42 64.76 68.32 163.75-26.67 163.75-26.67l196.7-39.23s5.45-.18 6.14-9.18 5.46-87.13 5.09-90.17z" fill="#a33500"/><path d="M499.07 308.75s33-3 42.17.82c-22.4-12.18-73.53-24.75-73.53-24.75l-22.55 2.9zM139.7 297.49c-18-1.38-34.38 7.63-34.38 7.63s20 14.2 53.63 40.31c7.43-2.45 56.07-7.17 56.07-7.17-11.59-6.32-75.32-40.77-75.32-40.77z" fill="#e45620"/><path class="cls-14" d="M230.2 234.64s14.25-10.17 27-5.58c13.09 4.73 13.78 6.49 13.78 6.49l-13.07 34 31.32 53.29s-28.1 12.33-35.62 16a34.58 34.58 0 00-19.2 24.87l-8 2.2s-36.66-106.79-38-113.13 11.29-11.69 21.59-14.86a68.82 68.82 0 0120.2-3.28z"/><path class="cls-20" d="M234.31 301.73c-2.4-8-8.33-27.79-9.84-31.73-.76-2-4.33-8.8-1.39-9.95 1.72-.66 6.15 1.28 7.95 1.69l9.52 2.2a40.52 40.52 0 01-2.48-4.41c-.43-.85-.86-1.71-1.3-2.56a30.11 30.11 0 006.52-6.85c1.25-2.34 7.93-15.54 11.11-21.83-5.37-1.08-10.94.05-16 2-3.73 1.47-7 3.83-11 4.44-12.05 1.85-25.52 3.5-35.48 11.33l1.6 4.84 7.79 40 1.77 6.68c7 20.66 14.77 43.46 19.33 56.78l9.82 8.1s1-15 7.13-22.18 13.08-10.46 33.94-22.94c-3.49-1.23-36.59-7.58-38.99-15.61z"/><path d="M260 273.88a1 1 0 01-.74-.44l-8.6-13.74a1 1 0 01.3-1.32 1 1 0 011.32.31l8.6 13.73a1 1 0 01-.3 1.32 1 1 0 01-.58.14z" fill="#e6e6e6"/><path d="M206.24 184a8.79 8.79 0 01.36-4c.92-2.27 3.15-2.77 5.31-2.11.69-2.49.91-3.49 3.09-4.85a17.47 17.47 0 017.68-2.75c4.08-.4 8.17.38 12.25.81s8.36.5 12.08-1.21c.54 3.77.93 8.07-1.57 10.94a13.43 13.43 0 01-5.36 3.19l-17.3 6.9q1.62 9.93 3.22 19.87c-4.62-3.11-10.92-5.91-13.59-10.77-2.9-5.34-5.6-9.79-6.17-16.02z" fill="#2a478b"/><path class="cls-23" d="M219.66 209.49l-15 35.26s17.1 15.79 31.59 15.69c-2.72-17.1-5.06-41.62-5.06-41.62z"/><path d="M219 211.12c1.16 3.88 4.64 12.72 13.26 17.58-.64-5.88-1-9.88-1-9.88l-6.82-5.51-4.91-3.41z" fill="#bc8057" opacity=".6"/><path class="cls-23" d="M241.41 183.18s11.27 20.6 5.06 38.62c-13.26-.21-25.78-4.79-28.06-11.8-4.8-.37-9.11-12.37-2.74-11.48 4 .71 7.51 7 7.51 7L219.7 188s17.75-4.07 21.71-4.82z"/><path d="M540.84 309.53c-.58-.23-1.19-.45-1.81-.66-11.32-2.75-40-.12-40-.12-1 5.35-9.59 62-9.59 62l-248.79 34s-3.1-22.56-6.3-41.11-14-24.4-19.37-25.42-55.98 7.21-55.98 7.21c1.87 3.33 8.68 106.33 10.3 131.21 11.09 1.83 163.32-26.79 163.32-26.79l196.7-39.23s5.45-.18 6.14-9.18 5.75-88.86 5.38-91.91z" fill="#e45b17"/><path d="M480 352.34c-.44-4.86-2.07-25.5-46.06-28.87S356 328 356 328l3 34s52-.84 80.9-5.86c3.66 10.55 7.57 21.55 11.42 32.2l31.5-4.51c-1.53-18.83-2.54-28.72-2.82-31.49z" fill="#1ca1b7"/><path class="cls-23" d="M498.46 447.76c-4.63-2.2-8.72-4-10.42-4.79a1.55 1.55 0 01-.91-1.31c-1.67-24.78-3.13-43.81-4.29-57.86l-31.5 4.51c10.53 29.17 20.58 55.71 23.45 63.23a1.54 1.54 0 001.46 1 144.21 144.21 0 0021.81-1.84 1.55 1.55 0 00.4-2.94z"/><path class="cls-27" d="M451.34 388.31q1.62 4.5 3.22 8.89c10.44-2.23 28.28-13.4 28.28-13.4z"/><path d="M406.05 351.9l-7.27 8.45c14.19-.89 29.52-2.23 41.14-4.24 3.66 10.55 7.57 21.55 11.42 32.2l10.81-1.55c-5-14.59-12.47-35.53-10.66-39.82 0 0-10.74 3.6-20.74 2.83 3-2.58 18.33-18.71 18.33-18.71z" fill="#0a8c99"/><path class="cls-13" d="M467.41 307.12c-7-8.47-13.22-12.86-24.28-11.71-12.3 1.27-24.27 5.46-35.55 10.35a501.59 501.59 0 00-46.05 23.42s-5 2.83-36.48 19.33c18.84 48.1 65.72 19.11 65.72 19.11s18.21-11.88 58.31-36.56a91.53 91.53 0 0118.48 7c4.46-5.44 9-10.87 11.64-14.08-5.2-7.79-9.51-14.09-11.79-16.86z"/><path class="cls-23" d="M478.8 347.42c.81 5.29 3.06 23.16 3.06 23.16l33 21.83a1 1 0 001.28-.16l13.93-15.13a1 1 0 00-1.16-1.58l-12.08 5.73a1 1 0 01-1.27-.37c-3.26-5.21-22.72-36.33-36.34-56.9-2.67 3.21-7.18 8.64-11.64 14.08 6.08 3.14 10.81 6.62 11.22 9.34z"/><path class="cls-27" d="M485.45 354.82c-2.63-3.49-5.29-7-6.95-11.08a34.11 34.11 0 01-1.68-11.58c.14-.48.27-1 .4-1.39l-.35.33a12.86 12.86 0 011.62-6.24c-2.72 3.26-6.84 8.23-10.93 13.22 6.1 3.14 10.83 6.62 11.24 9.34.81 5.29 3.06 23.16 3.06 23.16L512.63 391z"/><path class="cls-12" d="M446.8 313.59l-.58 12.83s-36.14 20.16-48.91 18.78-28.46-17.07-28.46-17.07l24.09 38.09c5.89-3.8 24-15.35 56.14-35.16a91.53 91.53 0 0118.48 7c1.39-1.7 2.79-3.39 4.13-5-13.46-3.24-24.89-19.47-24.89-19.47z"/><path class="cls-29" d="M288.36 265.64s7.57-4.24 19.85 3.54 36.3 24.9 36.3 24.9l-15.07 18.16-48.39-35.09a12.06 12.06 0 017.31-11.51z"/><path class="cls-30" d="M280.5 200.28s11.69-5.54 18.8 11.9 8.78 37.68 8.78 37.68l-38-2.91-.08-46.27z"/><path class="cls-31" d="M291.06 214.76s8 27.16 5.42 29-23 1-26.86-1.26-5.6-10.88-7.23-21.07 17.19-24.85 28.67-6.67z"/><path class="cls-31" d="M279.4 240.82l14.93 30.91s-20.05-.73-28.05-1.34c1.13-25.26 1-34.12 1-34.12z"/><path class="cls-23" d="M269.62 242.48l-2.38-.41c0 1.28-.05 2.8-.1 4.56 6.4 4.42 14 6.14 18.36 6.8l-4.3-8.9a101.85 101.85 0 01-11.58-2.05z"/><path class="cls-30" d="M274.81 195.82s11.5 2.09 16.12 10.08c2.45 4.24.13 8.86.13 8.86s-4.31-6.76-7.94-6.64-6.83 5.11-7.57 9.48-2.33 35.62-2.33 35.62c-22.73-2.55-25.93-2.79-25.93-2.79-.5-25-.38-42.27 8.23-49.65s19.29-4.96 19.29-4.96z"/><path class="cls-32" d="M278.89 273.77s10.09-.44 13-7.45c6.77.92 11.57 1.29 19.63 11.56 11.05 2.86 13.81 3.47 15.57 6.83S337.32 304 337.32 304l37.19 13.31s-6.3 24.46-25.77 31.82-29.22 3.39-29.22 3.39l-55.3-65.79z"/><path class="cls-29" d="M285.48 272.23l.13.44 6.5 12.37 12.54 17.45 7.6 11c7.6 11.05 0 0 7.37 6.2s0 0 6-1.75 7.26-8.1 7.26-8.1l3.45-7.83-3.26-6.01c-3.74 1.81-14.45 6.67-16.57 4-2.56-3.21-22.17-28.25-22.17-28.25a4.25 4.25 0 00-2.4-5.41 11.46 11.46 0 01-6.45 5.89z"/><path class="cls-14" d="M333.84 286.43s35.53-1.7 52.05 3.18c-4.24 34.27-4.42 36.67-4.42 36.67l-45.72-1.89z"/><path d="M308.06 302.55c1.14.9 10.25 13.26 10.25 13.26l36.26-37.45s5.65 0 8.36 1.05a16 16 0 018.47 7.68l-6.2-.47s2.54 8.84-10.14 6.26c-10.57 33-17.92 55.35-39.11 48.49a66.8 66.8 0 01-30.59-26.07z" fill="#ffc399"/><path d="M293 325.3c1.1-.24 2.39-.58 3.92-1.07 4.11-7.29 12.35-14.84 14.88-17.06-.62-.81-1.22-1.57-1.75-2.24l-24.72 10.36A57 57 0 00293 325.3z" fill="#ffc398"/><path class="cls-32" d="M260.84 283.65s-7.24-15.84 3.87-19 22.7 2.94 35.75 21.64L313.51 305l-27.87 17.17s-19.14-23.17-24.8-38.52z"/><path class="cls-29" d="M260.84 283.65c5.66 15.32 24.8 38.5 24.8 38.5l10.2-6.28a109.37 109.37 0 01-21.53-24.35c-10.25-15.87-9.6-26.88-9.6-26.88-11.11 3.17-3.87 19.01-3.87 19.01z"/><path class="cls-27" d="M355.06 292.88s-1.81.06-5.93-3.87A204.45 204.45 0 01347 316.2z"/><path d="M383.71 345.33a41.87 41.87 0 00-5.94-7.52l-1.47-1.87-.11.38c-7.59-6.7-14.66-7.14-14.66-7.14s-71-.21-87.78 6.34-5.11 43.06-5.11 43.06l73-7.68 15.23 13.84c34.32 25.66 60 42.65 75.93 55.1l11-18.34z" fill="#2a3f96"/><path class="cls-36" d="M459 459.34c2.06-.65 22-28.34 20-30.25-3-2.09-21.28 10-21.28 10l-13.93-17.59-11 18.34c7.95 5.63 13.27 9.26 13.27 9.26S456.9 460 459 459.34z"/><path class="cls-23" d="M439.17 444.32l4.62-22.82-11 18.34z"/><path d="M380.5 402.08l3.67 2.64c-1.91-15 4.93-41.83 7.1-49.79l-7.56-9.6a41.87 41.87 0 00-5.94-7.52l-1.47-1.87-.11.38c-.46-.41-.93-.8-1.39-1.16zm-34.9-27.58c.88-5.63 2.83-18.1 3-18.55L268 369.07l.67 9.51 73-7.68z" fill="#1b1e44"/><path class="cls-36" d="M372.81 469.26a319.82 319.82 0 0032 2.36 2.5 2.5 0 001.34-4.65c-12.26-7.38-18-10.93-19.33-11.78a.77.77 0 01-.36-.59q-.82-9.09-1.51-18.09l-22.34 5.28c2.5 4.51 4.06 9.85 7.19 14.62a.66.66 0 01.12.27 97.79 97.79 0 012.19 11.84.82.82 0 00.7.74z"/><path class="cls-23" d="M384.78 436.54l-22.18 5.25c1.32 2.38 2.38 5 3.55 7.63z"/><path d="M377.68 328.41c-2.68-7.05-16.64-8.52-33.25-7-10.78 1-45.12 4.6-67.91 7-8.48 3.76-18.8 8.37-22.93 10.38a34.58 34.58 0 00-19.2 24.87s.14 16.51 13.25 18.72 96.18-21.59 96.18-21.59-7.89 33 18.78 81l22.34-5.28c-4.07-53.21-4.85-101.79-7.26-108.1z" fill="#2a4e96"/><path d="M362.6 441.79l10.11-2.39c-3-8.95-14.66-44.11-16-62.72-1.58-21.44 3.25-31.94 3.25-31.94l-14.18 6.56s-77.92 19.37-86.07 15.53c-7.12-3.36-11.05-20.25-11.93-24.5a34.39 34.39 0 00-13.37 21.35s.14 16.51 13.25 18.72 96.18-21.59 96.18-21.59-7.91 32.96 18.76 80.98z" fill="#252e76"/><path class="cls-36" d="M190.69 301.83l10.81 33.64s1.11 3.71 6.36 3.53 91.79-10.84 91.79-10.84 14.8 3.64 16.2-3.89C321.94 323.54 328 323 328 323c-6.17-8.54-10.23-10.49-16-8.93a103.29 103.29 0 00-13.49 5.16s-68.24-7-69.19-7.69-5.11-19.32-5.11-19.32z"/><path class="cls-23" d="M224.29 292.45L191 302.83l1 3.21c4.62 1 14.39 1.29 35-2-1.18-4.82-2.44-10.39-2.71-11.59z"/><path class="cls-14" d="M188.41 247.12s12.29-8.11 22.47.72 18.07 45 18.07 45l-44.37 14.7s-4.65-20.67-7.24-34.14 3.2-23.26 11.07-26.28z"/><path class="cls-20" d="M198.41 303c-1.93-4.89-7.56-19.81-10.24-34.37-2.63-14.28 1.86-21.11 3.71-23.23a21.76 21.76 0 00-3.47 1.73c-7.87 3-13.65 12.83-11.07 26.31s7.24 34.14 7.24 34.14z"/></g></g></svg>